<?xml version="1.0" encoding="UTF-8" standalone="no"?>
<!-- Created with Inkscape (http://www.inkscape.org/) -->

<svg
   xmlns:dc="http://purl.org/dc/elements/1.1/"
   xmlns:cc="http://creativecommons.org/ns#"
   xmlns:rdf="http://www.w3.org/1999/02/22-rdf-syntax-ns#"
   xmlns:svg="http://www.w3.org/2000/svg"
   xmlns="http://www.w3.org/2000/svg"
   xmlns:sodipodi="http://sodipodi.sourceforge.net/DTD/sodipodi-0.dtd"
   xmlns:inkscape="http://www.inkscape.org/namespaces/inkscape"
   id="svg4136"
   version="1.1"
   inkscape:version="0.91 r13725"
   xml:space="preserve"
   width="1917.733"
   height="598.43903"
   viewBox="0 0 1917.7329 598.43902"
   sodipodi:docname="SensibleScatter2.svg"><metadata
     id="metadata4142"><rdf:RDF><cc:Work
         rdf:about=""><dc:format>image/svg+xml</dc:format><dc:type
           rdf:resource="http://purl.org/dc/dcmitype/StillImage" /><dc:title></dc:title></cc:Work></rdf:RDF></metadata><defs
     id="defs4140"><clipPath
       clipPathUnits="userSpaceOnUse"
       id="clipPath4196"><path
         d="m 51.36,58.8 739.56,0 0,477.36 -739.56,0 0,-477.36 z"
         id="path4198"
         inkscape:connector-curvature="0"
         style="clip-rule:evenodd" /></clipPath><clipPath
       clipPathUnits="userSpaceOnUse"
       id="clipPath4208"><path
         d="m 51.36,58.8 739.56,0 0,477.36 -739.56,0 0,-477.36 z"
         id="path4210"
         inkscape:connector-curvature="0"
         style="clip-rule:evenodd" /></clipPath><clipPath
       clipPathUnits="userSpaceOnUse"
       id="clipPath4220"><path
         d="m 51.36,58.8 739.56,0 0,477.36 -739.56,0 0,-477.36 z"
         id="path4222"
         inkscape:connector-curvature="0"
         style="clip-rule:evenodd" /></clipPath><clipPath
       clipPathUnits="userSpaceOnUse"
       id="clipPath4232"><path
         d="m 51.36,58.8 739.56,0 0,477.36 -739.56,0 0,-477.36 z"
         id="path4234"
         inkscape:connector-curvature="0"
         style="clip-rule:evenodd" /></clipPath><clipPath
       clipPathUnits="userSpaceOnUse"
       id="clipPath4244"><path
         d="m 51.36,58.8 739.56,0 0,477.36 -739.56,0 0,-477.36 z"
         id="path4246"
         inkscape:connector-curvature="0"
         style="clip-rule:evenodd" /></clipPath><clipPath
       clipPathUnits="userSpaceOnUse"
       id="clipPath4256"><path
         d="m 51.36,58.8 739.56,0 0,477.36 -739.56,0 0,-477.36 z"
         id="path4258"
         inkscape:connector-curvature="0"
         style="clip-rule:evenodd" /></clipPath><clipPath
       clipPathUnits="userSpaceOnUse"
       id="clipPath4268"><path
         d="m 51.36,58.8 739.56,0 0,477.36 -739.56,0 0,-477.36 z"
         id="path4270"
         inkscape:connector-curvature="0"
         style="clip-rule:evenodd" /></clipPath><clipPath
       clipPathUnits="userSpaceOnUse"
       id="clipPath4280"><path
         d="m 51.36,58.8 739.56,0 0,477.36 -739.56,0 0,-477.36 z"
         id="path4282"
         inkscape:connector-curvature="0"
         style="clip-rule:evenodd" /></clipPath><clipPath
       clipPathUnits="userSpaceOnUse"
       id="clipPath4292"><path
         d="m 51.36,58.8 739.56,0 0,477.36 -739.56,0 0,-477.36 z"
         id="path4294"
         inkscape:connector-curvature="0"
         style="clip-rule:evenodd" /></clipPath><clipPath
       clipPathUnits="userSpaceOnUse"
       id="clipPath4304"><path
         d="m 51.36,58.8 739.56,0 0,477.36 -739.56,0 0,-477.36 z"
         id="path4306"
         inkscape:connector-curvature="0"
         style="clip-rule:evenodd" /></clipPath><clipPath
       clipPathUnits="userSpaceOnUse"
       id="clipPath4316"><path
         d="m 51.36,58.8 739.56,0 0,477.36 -739.56,0 0,-477.36 z"
         id="path4318"
         inkscape:connector-curvature="0"
         style="clip-rule:evenodd" /></clipPath><clipPath
       clipPathUnits="userSpaceOnUse"
       id="clipPath4328"><path
         d="m 51.36,58.8 739.56,0 0,477.36 -739.56,0 0,-477.36 z"
         id="path4330"
         inkscape:connector-curvature="0"
         style="clip-rule:evenodd" /></clipPath><clipPath
       clipPathUnits="userSpaceOnUse"
       id="clipPath4340"><path
         d="m 51.36,58.8 739.56,0 0,477.36 -739.56,0 0,-477.36 z"
         id="path4342"
         inkscape:connector-curvature="0"
         style="clip-rule:evenodd" /></clipPath><clipPath
       clipPathUnits="userSpaceOnUse"
       id="clipPath4352"><path
         d="m 51.36,58.8 739.56,0 0,477.36 -739.56,0 0,-477.36 z"
         id="path4354"
         inkscape:connector-curvature="0"
         style="clip-rule:evenodd" /></clipPath><clipPath
       clipPathUnits="userSpaceOnUse"
       id="clipPath4364"><path
         d="m 51.36,58.8 739.56,0 0,477.36 -739.56,0 0,-477.36 z"
         id="path4366"
         inkscape:connector-curvature="0"
         style="clip-rule:evenodd" /></clipPath><clipPath
       clipPathUnits="userSpaceOnUse"
       id="clipPath4376"><path
         d="m 51.36,58.8 739.56,0 0,477.36 -739.56,0 0,-477.36 z"
         id="path4378"
         inkscape:connector-curvature="0"
         style="clip-rule:evenodd" /></clipPath><clipPath
       clipPathUnits="userSpaceOnUse"
       id="clipPath4388"><path
         d="m 51.36,58.8 739.56,0 0,477.36 -739.56,0 0,-477.36 z"
         id="path4390"
         inkscape:connector-curvature="0"
         style="clip-rule:evenodd" /></clipPath><clipPath
       clipPathUnits="userSpaceOnUse"
       id="clipPath4400"><path
         d="m 51.36,58.8 739.56,0 0,477.36 -739.56,0 0,-477.36 z"
         id="path4402"
         inkscape:connector-curvature="0"
         style="clip-rule:evenodd" /></clipPath><clipPath
       clipPathUnits="userSpaceOnUse"
       id="clipPath4412"><path
         d="m 51.36,58.8 739.56,0 0,477.36 -739.56,0 0,-477.36 z"
         id="path4414"
         inkscape:connector-curvature="0"
         style="clip-rule:evenodd" /></clipPath><clipPath
       clipPathUnits="userSpaceOnUse"
       id="clipPath4424"><path
         d="m 51.36,58.8 739.56,0 0,477.36 -739.56,0 0,-477.36 z"
         id="path4426"
         inkscape:connector-curvature="0"
         style="clip-rule:evenodd" /></clipPath><clipPath
       clipPathUnits="userSpaceOnUse"
       id="clipPath4436"><path
         d="m 51.36,58.8 739.56,0 0,477.36 -739.56,0 0,-477.36 z"
         id="path4438"
         inkscape:connector-curvature="0"
         style="clip-rule:evenodd" /></clipPath><clipPath
       clipPathUnits="userSpaceOnUse"
       id="clipPath4448"><path
         d="m 51.36,58.8 739.56,0 0,477.36 -739.56,0 0,-477.36 z"
         id="path4450"
         inkscape:connector-curvature="0"
         style="clip-rule:evenodd" /></clipPath><clipPath
       clipPathUnits="userSpaceOnUse"
       id="clipPath4460"><path
         d="m 50.4,57.96 741.24,0 0,479.04 -741.24,0 0,-479.04 z"
         id="path4462"
         inkscape:connector-curvature="0"
         style="clip-rule:evenodd" /></clipPath><clipPath
       clipPathUnits="userSpaceOnUse"
       id="clipPath4526"><path
         d="m 51.36,58.68 739.56,0 0,477.48 -739.56,0 0,-477.48 z"
         id="path4528"
         inkscape:connector-curvature="0"
         style="clip-rule:evenodd" /></clipPath><clipPath
       clipPathUnits="userSpaceOnUse"
       id="clipPath4538"><path
         d="m 51.36,58.68 739.56,0 0,477.48 -739.56,0 0,-477.48 z"
         id="path4540"
         inkscape:connector-curvature="0"
         style="clip-rule:evenodd" /></clipPath><clipPath
       clipPathUnits="userSpaceOnUse"
       id="clipPath4550"><path
         d="m 51.36,58.68 739.56,0 0,477.48 -739.56,0 0,-477.48 z"
         id="path4552"
         inkscape:connector-curvature="0"
         style="clip-rule:evenodd" /></clipPath><clipPath
       clipPathUnits="userSpaceOnUse"
       id="clipPath4562"><path
         d="m 51.36,58.68 739.56,0 0,477.48 -739.56,0 0,-477.48 z"
         id="path4564"
         inkscape:connector-curvature="0"
         style="clip-rule:evenodd" /></clipPath><clipPath
       clipPathUnits="userSpaceOnUse"
       id="clipPath4574"><path
         d="m 51.36,58.68 739.56,0 0,477.48 -739.56,0 0,-477.48 z"
         id="path4576"
         inkscape:connector-curvature="0"
         style="clip-rule:evenodd" /></clipPath><clipPath
       clipPathUnits="userSpaceOnUse"
       id="clipPath4586"><path
         d="m 51.36,58.68 739.56,0 0,477.48 -739.56,0 0,-477.48 z"
         id="path4588"
         inkscape:connector-curvature="0"
         style="clip-rule:evenodd" /></clipPath><clipPath
       clipPathUnits="userSpaceOnUse"
       id="clipPath4598"><path
         d="m 51.36,58.68 739.56,0 0,477.48 -739.56,0 0,-477.48 z"
         id="path4600"
         inkscape:connector-curvature="0"
         style="clip-rule:evenodd" /></clipPath><clipPath
       clipPathUnits="userSpaceOnUse"
       id="clipPath4610"><path
         d="m 51.36,58.68 739.56,0 0,477.48 -739.56,0 0,-477.48 z"
         id="path4612"
         inkscape:connector-curvature="0"
         style="clip-rule:evenodd" /></clipPath><clipPath
       clipPathUnits="userSpaceOnUse"
       id="clipPath4622"><path
         d="m 51.36,58.68 739.56,0 0,477.48 -739.56,0 0,-477.48 z"
         id="path4624"
         inkscape:connector-curvature="0"
         style="clip-rule:evenodd" /></clipPath><clipPath
       clipPathUnits="userSpaceOnUse"
       id="clipPath4634"><path
         d="m 51.36,58.68 739.56,0 0,477.48 -739.56,0 0,-477.48 z"
         id="path4636"
         inkscape:connector-curvature="0"
         style="clip-rule:evenodd" /></clipPath><clipPath
       clipPathUnits="userSpaceOnUse"
       id="clipPath4646"><path
         d="m 51.36,58.68 739.56,0 0,477.48 -739.56,0 0,-477.48 z"
         id="path4648"
         inkscape:connector-curvature="0"
         style="clip-rule:evenodd" /></clipPath><clipPath
       clipPathUnits="userSpaceOnUse"
       id="clipPath4658"><path
         d="m 51.36,58.68 739.56,0 0,477.48 -739.56,0 0,-477.48 z"
         id="path4660"
         inkscape:connector-curvature="0"
         style="clip-rule:evenodd" /></clipPath><clipPath
       clipPathUnits="userSpaceOnUse"
       id="clipPath4670"><path
         d="m 51.36,58.68 739.56,0 0,477.48 -739.56,0 0,-477.48 z"
         id="path4672"
         inkscape:connector-curvature="0"
         style="clip-rule:evenodd" /></clipPath><clipPath
       clipPathUnits="userSpaceOnUse"
       id="clipPath4682"><path
         d="m 51.36,58.68 739.56,0 0,477.48 -739.56,0 0,-477.48 z"
         id="path4684"
         inkscape:connector-curvature="0"
         style="clip-rule:evenodd" /></clipPath><clipPath
       clipPathUnits="userSpaceOnUse"
       id="clipPath4694"><path
         d="m 50.4,57.96 741.24,0 0,479.04 -741.24,0 0,-479.04 z"
         id="path4696"
         inkscape:connector-curvature="0"
         style="clip-rule:evenodd" /></clipPath></defs><sodipodi:namedview
     pagecolor="#ffffff"
     bordercolor="#666666"
     borderopacity="1"
     objecttolerance="10"
     gridtolerance="10"
     guidetolerance="10"
     inkscape:pageopacity="0"
     inkscape:pageshadow="2"
     inkscape:window-width="1920"
     inkscape:window-height="1018"
     id="namedview4138"
     showgrid="false"
     inkscape:zoom="0.40361278"
     inkscape:cx="417.83935"
     inkscape:cy="453.06567"
     inkscape:window-x="-8"
     inkscape:window-y="-8"
     inkscape:window-maximized="1"
     inkscape:current-layer="g4144" /><g
     id="g4144"
     inkscape:groupmode="layer"
     inkscape:label="SensibleScatter2Bad"
     transform="matrix(1.25,0,0,-1.25,0,598.43899)"><path
       d="m 0.64665002,0.62299023 739.57999998,0 0,477.57999977 -739.57999998,0 0,-477.57999977 z"
       style="fill:#ffffff;fill-opacity:1;fill-rule:evenodd;stroke:none"
       id="path4146"
       inkscape:connector-curvature="0" /><path
       d="m 89.46765,120.40999 622.18,0 m -622.18,32.49 622.18,0 m -622.18,32.49 622.18,0 m -622.18,32.49 622.18,0 m -622.18,32.49 622.18,0 m -622.18,32.49 622.18,0 m -622.18,32.69 622.18,0 m -622.18,32.49 622.18,0 m -622.18,32.49 622.18,0 m -622.18,32.48 622.18,0"
       style="fill:none;stroke:#d9d9d9;stroke-width:1.29330003;stroke-linecap:butt;stroke-linejoin:round;stroke-miterlimit:10;stroke-dasharray:none;stroke-opacity:1"
       id="path4148"
       inkscape:connector-curvature="0" /><path
       d="m 178.40765,413.00999 0,-325.19 m 88.77,325.19 0,-325.19 m 88.98,325.19 0,-325.19 m 88.78,325.19 0,-325.19 m 88.98,325.19 0,-325.19 m 88.77,325.19 0,-325.19 m 88.96,325.19 0,-325.19"
       style="fill:none;stroke:#d9d9d9;stroke-width:1.29330003;stroke-linecap:butt;stroke-linejoin:round;stroke-miterlimit:10;stroke-dasharray:none;stroke-opacity:1"
       id="path4150"
       inkscape:connector-curvature="0" /><path
       d="m 89.46765,87.81999 0,325.19"
       style="fill:none;stroke:#bfbfbf;stroke-width:1.29330003;stroke-linecap:butt;stroke-linejoin:round;stroke-miterlimit:10;stroke-dasharray:none;stroke-opacity:1"
       id="path4152"
       inkscape:connector-curvature="0" /><path
       d="m 89.46765,87.81999 622.18,0"
       style="fill:none;stroke:#bfbfbf;stroke-width:1.29330003;stroke-linecap:butt;stroke-linejoin:round;stroke-miterlimit:10;stroke-dasharray:none;stroke-opacity:1"
       id="path4154"
       inkscape:connector-curvature="0" /><path
       d="m 324.91765,87.71999 c 0,-2.4 -1.95,-4.35 -4.35,-4.35 -2.4,0 -4.35,1.95 -4.35,4.35 0,2.4 1.95,4.34 4.35,4.34 2.4,0 4.35,-1.94 4.35,-4.34 z"
       style="fill:#5b9bd5;fill-opacity:1;fill-rule:nonzero;stroke:none"
       id="path4156"
       inkscape:connector-curvature="0" /><path
       d="m 324.91765,87.71999 c 0,-2.4 -1.95,-4.35 -4.35,-4.35 -2.4,0 -4.35,1.95 -4.35,4.35 0,2.4 1.95,4.34 4.35,4.34 2.4,0 4.35,-1.94 4.35,-4.34 z"
       style="fill:none;stroke:#5b9bd5;stroke-width:1.24160004;stroke-linecap:butt;stroke-linejoin:round;stroke-miterlimit:10;stroke-dasharray:none;stroke-opacity:1"
       id="path4158"
       inkscape:connector-curvature="0" /><path
       d="m 369.40765,120.40999 c 0,-2.4 -1.95,-4.34 -4.35,-4.34 -2.4,0 -4.35,1.94 -4.35,4.34 0,2.4 1.95,4.35 4.35,4.35 2.4,0 4.35,-1.95 4.35,-4.35 z"
       style="fill:#5b9bd5;fill-opacity:1;fill-rule:nonzero;stroke:none"
       id="path4160"
       inkscape:connector-curvature="0" /><path
       d="m 369.40765,120.40999 c 0,-2.4 -1.95,-4.34 -4.35,-4.34 -2.4,0 -4.35,1.94 -4.35,4.34 0,2.4 1.95,4.35 4.35,4.35 2.4,0 4.35,-1.95 4.35,-4.35 z"
       style="fill:none;stroke:#5b9bd5;stroke-width:1.24160004;stroke-linecap:butt;stroke-linejoin:round;stroke-miterlimit:10;stroke-dasharray:none;stroke-opacity:1"
       id="path4162"
       inkscape:connector-curvature="0" /><path
       d="m 342.70765,120.40999 c 0,-2.4 -1.94,-4.34 -4.34,-4.34 -2.4,0 -4.35,1.94 -4.35,4.34 0,2.4 1.95,4.35 4.35,4.35 2.4,0 4.34,-1.95 4.34,-4.35 z"
       style="fill:#5b9bd5;fill-opacity:1;fill-rule:nonzero;stroke:none"
       id="path4164"
       inkscape:connector-curvature="0" /><path
       d="m 342.70765,120.40999 c 0,-2.4 -1.94,-4.34 -4.34,-4.34 -2.4,0 -4.35,1.94 -4.35,4.34 0,2.4 1.95,4.35 4.35,4.35 2.4,0 4.34,-1.95 4.34,-4.35 z"
       style="fill:none;stroke:#5b9bd5;stroke-width:1.24160004;stroke-linecap:butt;stroke-linejoin:round;stroke-miterlimit:10;stroke-dasharray:none;stroke-opacity:1"
       id="path4166"
       inkscape:connector-curvature="0" /><path
       d="m 280.41765,152.89999 c 0,-2.4 -1.94,-4.34 -4.34,-4.34 -2.4,0 -4.35,1.94 -4.35,4.34 0,2.4 1.95,4.35 4.35,4.35 2.4,0 4.34,-1.95 4.34,-4.35 z"
       style="fill:#5b9bd5;fill-opacity:1;fill-rule:nonzero;stroke:none"
       id="path4168"
       inkscape:connector-curvature="0" /><path
       d="m 280.41765,152.89999 c 0,-2.4 -1.94,-4.34 -4.34,-4.34 -2.4,0 -4.35,1.94 -4.35,4.34 0,2.4 1.95,4.35 4.35,4.35 2.4,0 4.34,-1.95 4.34,-4.35 z"
       style="fill:none;stroke:#5b9bd5;stroke-width:1.24160004;stroke-linecap:butt;stroke-linejoin:round;stroke-miterlimit:10;stroke-dasharray:none;stroke-opacity:1"
       id="path4170"
       inkscape:connector-curvature="0" /><path
       d="m 591.64765,120.40999 c 0,-2.4 -1.94,-4.34 -4.34,-4.34 -2.4,0 -4.35,1.94 -4.35,4.34 0,2.4 1.95,4.35 4.35,4.35 2.4,0 4.34,-1.95 4.34,-4.35 z"
       style="fill:#5b9bd5;fill-opacity:1;fill-rule:nonzero;stroke:none"
       id="path4172"
       inkscape:connector-curvature="0" /><path
       d="m 591.64765,120.40999 c 0,-2.4 -1.94,-4.34 -4.34,-4.34 -2.4,0 -4.35,1.94 -4.35,4.34 0,2.4 1.95,4.35 4.35,4.35 2.4,0 4.34,-1.95 4.34,-4.35 z"
       style="fill:none;stroke:#5b9bd5;stroke-width:1.24160004;stroke-linecap:butt;stroke-linejoin:round;stroke-miterlimit:10;stroke-dasharray:none;stroke-opacity:1"
       id="path4174"
       inkscape:connector-curvature="0" /><path
       d="m 484.87765,185.38999 c 0,-2.4 -1.95,-4.35 -4.35,-4.35 -2.4,0 -4.35,1.95 -4.35,4.35 0,2.4 1.95,4.35 4.35,4.35 2.4,0 4.35,-1.95 4.35,-4.35 z"
       style="fill:#5b9bd5;fill-opacity:1;fill-rule:nonzero;stroke:none"
       id="path4176"
       inkscape:connector-curvature="0" /><path
       d="m 484.87765,185.38999 c 0,-2.4 -1.95,-4.35 -4.35,-4.35 -2.4,0 -4.35,1.95 -4.35,4.35 0,2.4 1.95,4.35 4.35,4.35 2.4,0 4.35,-1.95 4.35,-4.35 z"
       style="fill:none;stroke:#5b9bd5;stroke-width:1.24160004;stroke-linecap:butt;stroke-linejoin:round;stroke-miterlimit:10;stroke-dasharray:none;stroke-opacity:1"
       id="path4178"
       inkscape:connector-curvature="0" /><path
       d="m 422.58765,87.71999 c 0,-2.4 -1.95,-4.35 -4.35,-4.35 -2.4,0 -4.34,1.95 -4.34,4.35 0,2.4 1.94,4.34 4.34,4.34 2.4,0 4.35,-1.94 4.35,-4.34 z"
       style="fill:#5b9bd5;fill-opacity:1;fill-rule:nonzero;stroke:none"
       id="path4180"
       inkscape:connector-curvature="0" /><path
       d="m 422.58765,87.71999 c 0,-2.4 -1.95,-4.35 -4.35,-4.35 -2.4,0 -4.34,1.95 -4.34,4.35 0,2.4 1.94,4.34 4.34,4.34 2.4,0 4.35,-1.94 4.35,-4.34 z"
       style="fill:none;stroke:#5b9bd5;stroke-width:1.24160004;stroke-linecap:butt;stroke-linejoin:round;stroke-miterlimit:10;stroke-dasharray:none;stroke-opacity:1"
       id="path4182"
       inkscape:connector-curvature="0" /><path
       d="m 547.15765,152.89999 c 0,-2.4 -1.94,-4.34 -4.34,-4.34 -2.4,0 -4.35,1.94 -4.35,4.34 0,2.4 1.95,4.35 4.35,4.35 2.4,0 4.34,-1.95 4.34,-4.35 z"
       style="fill:#5b9bd5;fill-opacity:1;fill-rule:nonzero;stroke:none"
       id="path4184"
       inkscape:connector-curvature="0" /><path
       d="m 547.15765,152.89999 c 0,-2.4 -1.94,-4.34 -4.34,-4.34 -2.4,0 -4.35,1.94 -4.35,4.34 0,2.4 1.95,4.35 4.35,4.35 2.4,0 4.34,-1.95 4.34,-4.35 z"
       style="fill:none;stroke:#5b9bd5;stroke-width:1.24160004;stroke-linecap:butt;stroke-linejoin:round;stroke-miterlimit:10;stroke-dasharray:none;stroke-opacity:1"
       id="path4186"
       inkscape:connector-curvature="0" /><path
       d="m 644.83765,120.40999 c 0,-2.4 -1.95,-4.34 -4.35,-4.34 -2.4,0 -4.34,1.94 -4.34,4.34 0,2.4 1.94,4.35 4.34,4.35 2.4,0 4.35,-1.95 4.35,-4.35 z"
       style="fill:#5b9bd5;fill-opacity:1;fill-rule:nonzero;stroke:none"
       id="path4188"
       inkscape:connector-curvature="0" /><path
       d="m 644.83765,120.40999 c 0,-2.4 -1.95,-4.34 -4.35,-4.34 -2.4,0 -4.34,1.94 -4.34,4.34 0,2.4 1.94,4.35 4.34,4.35 2.4,0 4.35,-1.95 4.35,-4.35 z"
       style="fill:none;stroke:#5b9bd5;stroke-width:1.24160004;stroke-linecap:butt;stroke-linejoin:round;stroke-miterlimit:10;stroke-dasharray:none;stroke-opacity:1"
       id="path4190"
       inkscape:connector-curvature="0" /><g
       id="g4192"
       transform="translate(-50.68235,-57.96001)"><g
         id="g4194"
         clip-path="url(#clipPath4196)"><text
           transform="matrix(1,0,0,-1,112.94,140.3)"
           style="font-variant:normal;font-weight:normal;font-size:19.03199959px;font-family:Calibri;-inkscape-font-specification:Calibri;writing-mode:lr-tb;fill:#595959;fill-opacity:1;fill-rule:nonzero;stroke:none"
           id="text4200"><tspan
             x="0"
             y="0"
             id="tspan4202">0</tspan></text>
</g></g><g
       id="g4204"
       transform="translate(-50.68235,-57.96001)"><g
         id="g4206"
         clip-path="url(#clipPath4208)"><text
           transform="matrix(1,0,0,-1,112.94,172.85)"
           style="font-variant:normal;font-weight:normal;font-size:19.05599976px;font-family:Calibri;-inkscape-font-specification:Calibri;writing-mode:lr-tb;fill:#595959;fill-opacity:1;fill-rule:nonzero;stroke:none"
           id="text4212"><tspan
             x="0"
             y="0"
             id="tspan4214">1</tspan></text>
</g></g><g
       id="g4216"
       transform="translate(-50.68235,-57.96001)"><g
         id="g4218"
         clip-path="url(#clipPath4220)"><text
           transform="matrix(1,0,0,-1,112.94,205.37)"
           style="font-variant:normal;font-weight:normal;font-size:19.05599976px;font-family:Calibri;-inkscape-font-specification:Calibri;writing-mode:lr-tb;fill:#595959;fill-opacity:1;fill-rule:nonzero;stroke:none"
           id="text4224"><tspan
             x="0"
             y="0"
             id="tspan4226">2</tspan></text>
</g></g><g
       id="g4228"
       transform="translate(-50.68235,-57.96001)"><g
         id="g4230"
         clip-path="url(#clipPath4232)"><text
           transform="matrix(1,0,0,-1,112.94,237.89)"
           style="font-variant:normal;font-weight:normal;font-size:19.03199959px;font-family:Calibri;-inkscape-font-specification:Calibri;writing-mode:lr-tb;fill:#595959;fill-opacity:1;fill-rule:nonzero;stroke:none"
           id="text4236"><tspan
             x="0"
             y="0"
             id="tspan4238">3</tspan></text>
</g></g><g
       id="g4240"
       transform="translate(-50.68235,-57.96001)"><g
         id="g4242"
         clip-path="url(#clipPath4244)"><text
           transform="matrix(1,0,0,-1,112.94,270.41)"
           style="font-variant:normal;font-weight:normal;font-size:19.03199959px;font-family:Calibri;-inkscape-font-specification:Calibri;writing-mode:lr-tb;fill:#595959;fill-opacity:1;fill-rule:nonzero;stroke:none"
           id="text4248"><tspan
             x="0"
             y="0"
             id="tspan4250">4</tspan></text>
</g></g><g
       id="g4252"
       transform="translate(-50.68235,-57.96001)"><g
         id="g4254"
         clip-path="url(#clipPath4256)"><text
           transform="matrix(1,0,0,-1,112.94,302.95)"
           style="font-variant:normal;font-weight:normal;font-size:19.05599976px;font-family:Calibri;-inkscape-font-specification:Calibri;writing-mode:lr-tb;fill:#595959;fill-opacity:1;fill-rule:nonzero;stroke:none"
           id="text4260"><tspan
             x="0"
             y="0"
             id="tspan4262">5</tspan></text>
</g></g><g
       id="g4264"
       transform="translate(-50.68235,-57.96001)"><g
         id="g4266"
         clip-path="url(#clipPath4268)"><text
           transform="matrix(1,0,0,-1,112.94,335.47)"
           style="font-variant:normal;font-weight:normal;font-size:19.05599976px;font-family:Calibri;-inkscape-font-specification:Calibri;writing-mode:lr-tb;fill:#595959;fill-opacity:1;fill-rule:nonzero;stroke:none"
           id="text4272"><tspan
             x="0"
             y="0"
             id="tspan4274">6</tspan></text>
</g></g><g
       id="g4276"
       transform="translate(-50.68235,-57.96001)"><g
         id="g4278"
         clip-path="url(#clipPath4280)"><text
           transform="matrix(1,0,0,-1,112.94,367.99)"
           style="font-variant:normal;font-weight:normal;font-size:19.03199959px;font-family:Calibri;-inkscape-font-specification:Calibri;writing-mode:lr-tb;fill:#595959;fill-opacity:1;fill-rule:nonzero;stroke:none"
           id="text4284"><tspan
             x="0"
             y="0"
             id="tspan4286">7</tspan></text>
</g></g><g
       id="g4288"
       transform="translate(-50.68235,-57.96001)"><g
         id="g4290"
         clip-path="url(#clipPath4292)"><text
           transform="matrix(1,0,0,-1,112.94,400.51)"
           style="font-variant:normal;font-weight:normal;font-size:19.03199959px;font-family:Calibri;-inkscape-font-specification:Calibri;writing-mode:lr-tb;fill:#595959;fill-opacity:1;fill-rule:nonzero;stroke:none"
           id="text4296"><tspan
             x="0"
             y="0"
             id="tspan4298">8</tspan></text>
</g></g><g
       id="g4300"
       transform="translate(-50.68235,-57.96001)"><g
         id="g4302"
         clip-path="url(#clipPath4304)"><text
           transform="matrix(1,0,0,-1,112.94,433.03)"
           style="font-variant:normal;font-weight:normal;font-size:19.03199959px;font-family:Calibri;-inkscape-font-specification:Calibri;writing-mode:lr-tb;fill:#595959;fill-opacity:1;fill-rule:nonzero;stroke:none"
           id="text4308"><tspan
             x="0"
             y="0"
             id="tspan4310">9</tspan></text>
</g></g><g
       id="g4312"
       transform="translate(-50.68235,-57.96001)"><g
         id="g4314"
         clip-path="url(#clipPath4316)"><text
           transform="matrix(1,0,0,-1,103.32,465.58)"
           style="font-variant:normal;font-weight:normal;font-size:19.05599976px;font-family:Calibri;-inkscape-font-specification:Calibri;writing-mode:lr-tb;fill:#595959;fill-opacity:1;fill-rule:nonzero;stroke:none"
           id="text4320"><tspan
             x="0 9.5283918"
             y="0"
             sodipodi:role="line"
             id="tspan4322">10</tspan></text>
</g></g><g
       id="g4324"
       transform="translate(-50.68235,-57.96001)"><g
         id="g4326"
         clip-path="url(#clipPath4328)"><text
           transform="matrix(1,0,0,-1,135.36,115.63)"
           style="font-variant:normal;font-weight:normal;font-size:19.03199959px;font-family:Calibri;-inkscape-font-specification:Calibri;writing-mode:lr-tb;fill:#595959;fill-opacity:1;fill-rule:nonzero;stroke:none"
           id="text4332"><tspan
             x="0"
             y="0"
             id="tspan4334">0</tspan></text>
</g></g><g
       id="g4336"
       transform="translate(-50.68235,-57.96001)"><g
         id="g4338"
         clip-path="url(#clipPath4340)"><text
           transform="matrix(1,0,0,-1,219.46,115.63)"
           style="font-variant:normal;font-weight:normal;font-size:19.03199959px;font-family:Calibri;-inkscape-font-specification:Calibri;writing-mode:lr-tb;fill:#595959;fill-opacity:1;fill-rule:nonzero;stroke:none"
           id="text4344"><tspan
             x="0 9.5042238"
             y="0"
             sodipodi:role="line"
             id="tspan4346">10</tspan></text>
</g></g><g
       id="g4348"
       transform="translate(-50.68235,-57.96001)"><g
         id="g4350"
         clip-path="url(#clipPath4352)"><text
           transform="matrix(1,0,0,-1,308.33,115.63)"
           style="font-variant:normal;font-weight:normal;font-size:19.03199959px;font-family:Calibri;-inkscape-font-specification:Calibri;writing-mode:lr-tb;fill:#595959;fill-opacity:1;fill-rule:nonzero;stroke:none"
           id="text4356"><tspan
             x="0 9.528224"
             y="0"
             sodipodi:role="line"
             id="tspan4358">20</tspan></text>
</g></g><g
       id="g4360"
       transform="translate(-50.68235,-57.96001)"><g
         id="g4362"
         clip-path="url(#clipPath4364)"><text
           transform="matrix(1,0,0,-1,397.22,115.63)"
           style="font-variant:normal;font-weight:normal;font-size:19.03199959px;font-family:Calibri;-inkscape-font-specification:Calibri;writing-mode:lr-tb;fill:#595959;fill-opacity:1;fill-rule:nonzero;stroke:none"
           id="text4368"><tspan
             x="0 9.528224"
             y="0"
             sodipodi:role="line"
             id="tspan4370">30</tspan></text>
</g></g><g
       id="g4372"
       transform="translate(-50.68235,-57.96001)"><g
         id="g4374"
         clip-path="url(#clipPath4376)"><text
           transform="matrix(1,0,0,-1,486.12,115.63)"
           style="font-variant:normal;font-weight:normal;font-size:19.03199959px;font-family:Calibri;-inkscape-font-specification:Calibri;writing-mode:lr-tb;fill:#595959;fill-opacity:1;fill-rule:nonzero;stroke:none"
           id="text4380"><tspan
             x="0 9.528224"
             y="0"
             sodipodi:role="line"
             id="tspan4382">40</tspan></text>
</g></g><g
       id="g4384"
       transform="translate(-50.68235,-57.96001)"><g
         id="g4386"
         clip-path="url(#clipPath4388)"><text
           transform="matrix(1,0,0,-1,575.02,115.63)"
           style="font-variant:normal;font-weight:normal;font-size:19.03199959px;font-family:Calibri;-inkscape-font-specification:Calibri;writing-mode:lr-tb;fill:#595959;fill-opacity:1;fill-rule:nonzero;stroke:none"
           id="text4392"><tspan
             x="0 9.528224"
             y="0"
             sodipodi:role="line"
             id="tspan4394">50</tspan></text>
</g></g><g
       id="g4396"
       transform="translate(-50.68235,-57.96001)"><g
         id="g4398"
         clip-path="url(#clipPath4400)"><text
           transform="matrix(1,0,0,-1,663.91,115.63)"
           style="font-variant:normal;font-weight:normal;font-size:19.03199959px;font-family:Calibri;-inkscape-font-specification:Calibri;writing-mode:lr-tb;fill:#595959;fill-opacity:1;fill-rule:nonzero;stroke:none"
           id="text4404"><tspan
             x="0 9.528224"
             y="0"
             sodipodi:role="line"
             id="tspan4406">60</tspan></text>
</g></g><g
       id="g4408"
       transform="translate(-50.68235,-57.96001)"><g
         id="g4410"
         clip-path="url(#clipPath4412)"><text
           transform="matrix(1,0,0,-1,752.81,115.63)"
           style="font-variant:normal;font-weight:normal;font-size:19.03199959px;font-family:Calibri;-inkscape-font-specification:Calibri;writing-mode:lr-tb;fill:#595959;fill-opacity:1;fill-rule:nonzero;stroke:none"
           id="text4416"><tspan
             x="0 9.528224"
             y="0"
             sodipodi:role="line"
             id="tspan4418">70</tspan></text>
</g></g><g
       id="g4420"
       transform="translate(-50.68235,-57.96001)"><g
         id="g4422"
         clip-path="url(#clipPath4424)"><text
           transform="matrix(-4.4e-8,1,1,4.4e-8,82.848,237.34)"
           style="font-variant:normal;font-weight:normal;font-size:20.68799973px;font-family:Calibri;-inkscape-font-specification:Calibri;writing-mode:lr-tb;fill:#595959;fill-opacity:1;fill-rule:nonzero;stroke:none"
           id="text4428"><tspan
             x="0 13.4472 24.391151 40.920864 51.906193 62.208817 69.470306 73.814781 84.758736 91.172012 95.723373 106.06738 116.22518 123.23842"
             y="0"
             sodipodi:role="line"
             id="tspan4430">Number of Pets</tspan></text>
</g></g><g
       id="g4432"
       transform="translate(-50.68235,-57.96001)"><g
         id="g4434"
         clip-path="url(#clipPath4436)"><text
           transform="matrix(1,0,0,-1,429.02,74.04)"
           style="font-variant:normal;font-weight:normal;font-size:20.68799973px;font-family:Calibri;-inkscape-font-specification:Calibri;writing-mode:lr-tb;fill:#595959;fill-opacity:1;fill-rule:nonzero;stroke:none"
           id="text4440"><tspan
             x="0 11.978352 21.536207"
             y="0"
             sodipodi:role="line"
             id="tspan4442">Age</tspan></text>
</g></g><g
       id="g4444"
       transform="translate(-50.68235,-57.96001)"><g
         id="g4446"
         clip-path="url(#clipPath4448)"><text
           transform="matrix(1,0,0,-1,284.45,500.23)"
           style="font-variant:normal;font-weight:normal;font-size:24.2159996px;font-family:Calibri;-inkscape-font-specification:Calibri;writing-mode:lr-tb;fill:#595959;fill-opacity:1;fill-rule:nonzero;stroke:none"
           id="text4452"><tspan
             x="0 15.716184 28.33272 47.584438 60.200977 72.260544 80.711929 86.184746 98.946579 106.40511 111.80527 123.84062 135.65804 143.77039 153.23885 158.71167 172.73273 183.72679 195.32626 200.89594 213.53668 222.85985 230.97221 236.13022 250.15128 261.41171"
             y="0"
             sodipodi:role="line"
             id="tspan4454">Number of Pets Against Age</tspan></text>
</g></g><path
       d="m 795.25275,1.7944075 739.58005,0 0,477.5800025 -739.58005,0 0,-477.5800025 z"
       style="fill:#ffffff;fill-opacity:1;fill-rule:evenodd;stroke:none"
       id="path4476"
       inkscape:connector-curvature="0" /><path
       d="m 874.46375,170.21441 631.79005,0 m -631.79005,81.32 631.79005,0 m -631.79005,81.33 631.79005,0 m -631.79005,81.32 631.79005,0"
       style="fill:none;stroke:#d9d9d9;stroke-width:1.29330003;stroke-linecap:butt;stroke-linejoin:round;stroke-miterlimit:10;stroke-dasharray:none;stroke-opacity:1"
       id="path4478"
       inkscape:connector-curvature="0" /><path
       d="m 1000.7337,414.18441 0,-325.200004 m 126.44,325.200004 0,-325.200004 m 126.44,325.200004 0,-325.200004 m 126.23,325.200004 0,-325.200004 m 126.4101,325.200004 0,-325.200004"
       style="fill:none;stroke:#d9d9d9;stroke-width:1.29330003;stroke-linecap:butt;stroke-linejoin:round;stroke-miterlimit:10;stroke-dasharray:none;stroke-opacity:1"
       id="path4480"
       inkscape:connector-curvature="0" /><path
       d="m 874.46375,88.984406 0,325.200004"
       style="fill:none;stroke:#bfbfbf;stroke-width:1.29330003;stroke-linecap:butt;stroke-linejoin:round;stroke-miterlimit:10;stroke-dasharray:none;stroke-opacity:1"
       id="path4482"
       inkscape:connector-curvature="0" /><path
       d="m 874.46375,88.984406 631.79005,0"
       style="fill:none;stroke:#bfbfbf;stroke-width:1.29330003;stroke-linecap:butt;stroke-linejoin:round;stroke-miterlimit:10;stroke-dasharray:none;stroke-opacity:1"
       id="path4484"
       inkscape:connector-curvature="0" /><path
       d="m 1017.7037,88.884406 c 0,-2.4 -1.94,-4.34 -4.34,-4.34 -2.4,0 -4.35,1.94 -4.35,4.34 0,2.4 1.95,4.35 4.35,4.35 2.4,0 4.34,-1.95 4.34,-4.35 z"
       style="fill:#5b9bd5;fill-opacity:1;fill-rule:nonzero;stroke:none"
       id="path4486"
       inkscape:connector-curvature="0" /><path
       d="m 1017.7037,88.884406 c 0,-2.4 -1.94,-4.34 -4.34,-4.34 -2.4,0 -4.35,1.94 -4.35,4.34 0,2.4 1.95,4.35 4.35,4.35 2.4,0 4.34,-1.95 4.34,-4.35 z"
       style="fill:none;stroke:#5b9bd5;stroke-width:1.24160004;stroke-linecap:butt;stroke-linejoin:round;stroke-miterlimit:10;stroke-dasharray:none;stroke-opacity:1"
       id="path4488"
       inkscape:connector-curvature="0" /><path
       d="m 1081.0337,170.21441 c 0,-2.4 -1.95,-4.35 -4.35,-4.35 -2.4,0 -4.35,1.95 -4.35,4.35 0,2.4 1.95,4.34 4.35,4.34 2.4,0 4.35,-1.94 4.35,-4.34 z"
       style="fill:#5b9bd5;fill-opacity:1;fill-rule:nonzero;stroke:none"
       id="path4490"
       inkscape:connector-curvature="0" /><path
       d="m 1081.0337,170.21441 c 0,-2.4 -1.95,-4.35 -4.35,-4.35 -2.4,0 -4.35,1.95 -4.35,4.35 0,2.4 1.95,4.34 4.35,4.34 2.4,0 4.35,-1.94 4.35,-4.34 z"
       style="fill:none;stroke:#5b9bd5;stroke-width:1.24160004;stroke-linecap:butt;stroke-linejoin:round;stroke-miterlimit:10;stroke-dasharray:none;stroke-opacity:1"
       id="path4492"
       inkscape:connector-curvature="0" /><path
       d="m 1043.1637,170.21441 c 0,-2.4 -1.95,-4.35 -4.35,-4.35 -2.4,0 -4.34,1.95 -4.34,4.35 0,2.4 1.94,4.34 4.34,4.34 2.4,0 4.35,-1.94 4.35,-4.34 z"
       style="fill:#5b9bd5;fill-opacity:1;fill-rule:nonzero;stroke:none"
       id="path4494"
       inkscape:connector-curvature="0" /><path
       d="m 1043.1637,170.21441 c 0,-2.4 -1.95,-4.35 -4.35,-4.35 -2.4,0 -4.34,1.95 -4.34,4.35 0,2.4 1.94,4.34 4.34,4.34 2.4,0 4.35,-1.94 4.35,-4.34 z"
       style="fill:none;stroke:#5b9bd5;stroke-width:1.24160004;stroke-linecap:butt;stroke-linejoin:round;stroke-miterlimit:10;stroke-dasharray:none;stroke-opacity:1"
       id="path4496"
       inkscape:connector-curvature="0" /><path
       d="m 954.5937,251.53441 c 0,-2.4 -1.95,-4.34 -4.35,-4.34 -2.4,0 -4.34,1.94 -4.34,4.34 0,2.4 1.94,4.35 4.34,4.35 2.4,0 4.35,-1.95 4.35,-4.35 z"
       style="fill:#5b9bd5;fill-opacity:1;fill-rule:nonzero;stroke:none"
       id="path4498"
       inkscape:connector-curvature="0" /><path
       d="m 954.5937,251.53441 c 0,-2.4 -1.95,-4.34 -4.35,-4.34 -2.4,0 -4.34,1.94 -4.34,4.34 0,2.4 1.94,4.35 4.34,4.35 2.4,0 4.35,-1.95 4.35,-4.35 z"
       style="fill:none;stroke:#5b9bd5;stroke-width:1.24160004;stroke-linecap:butt;stroke-linejoin:round;stroke-miterlimit:10;stroke-dasharray:none;stroke-opacity:1"
       id="path4500"
       inkscape:connector-curvature="0" /><path
       d="m 1396.8137,170.21441 c 0,-2.4 -1.95,-4.35 -4.35,-4.35 -2.4,0 -4.34,1.95 -4.34,4.35 0,2.4 1.94,4.34 4.34,4.34 2.4,0 4.35,-1.94 4.35,-4.34 z"
       style="fill:#5b9bd5;fill-opacity:1;fill-rule:nonzero;stroke:none"
       id="path4502"
       inkscape:connector-curvature="0" /><path
       d="m 1396.8137,170.21441 c 0,-2.4 -1.95,-4.35 -4.35,-4.35 -2.4,0 -4.34,1.95 -4.34,4.35 0,2.4 1.94,4.34 4.34,4.34 2.4,0 4.35,-1.94 4.35,-4.34 z"
       style="fill:none;stroke:#5b9bd5;stroke-width:1.24160004;stroke-linecap:butt;stroke-linejoin:round;stroke-miterlimit:10;stroke-dasharray:none;stroke-opacity:1"
       id="path4504"
       inkscape:connector-curvature="0" /><path
       d="m 1245.3337,332.86441 c 0,-2.4 -1.94,-4.35 -4.34,-4.35 -2.4,0 -4.35,1.95 -4.35,4.35 0,2.4 1.95,4.35 4.35,4.35 2.4,0 4.34,-1.95 4.34,-4.35 z"
       style="fill:#5b9bd5;fill-opacity:1;fill-rule:nonzero;stroke:none"
       id="path4506"
       inkscape:connector-curvature="0" /><path
       d="m 1245.3337,332.86441 c 0,-2.4 -1.94,-4.35 -4.34,-4.35 -2.4,0 -4.35,1.95 -4.35,4.35 0,2.4 1.95,4.35 4.35,4.35 2.4,0 4.34,-1.95 4.34,-4.35 z"
       style="fill:none;stroke:#5b9bd5;stroke-width:1.24160004;stroke-linecap:butt;stroke-linejoin:round;stroke-miterlimit:10;stroke-dasharray:none;stroke-opacity:1"
       id="path4508"
       inkscape:connector-curvature="0" /><path
       d="m 1156.7637,88.884406 c 0,-2.4 -1.94,-4.34 -4.34,-4.34 -2.4,0 -4.35,1.94 -4.35,4.34 0,2.4 1.95,4.35 4.35,4.35 2.4,0 4.34,-1.95 4.34,-4.35 z"
       style="fill:#5b9bd5;fill-opacity:1;fill-rule:nonzero;stroke:none"
       id="path4510"
       inkscape:connector-curvature="0" /><path
       d="m 1156.7637,88.884406 c 0,-2.4 -1.94,-4.34 -4.34,-4.34 -2.4,0 -4.35,1.94 -4.35,4.34 0,2.4 1.95,4.35 4.35,4.35 2.4,0 4.34,-1.95 4.34,-4.35 z"
       style="fill:none;stroke:#5b9bd5;stroke-width:1.24160004;stroke-linecap:butt;stroke-linejoin:round;stroke-miterlimit:10;stroke-dasharray:none;stroke-opacity:1"
       id="path4512"
       inkscape:connector-curvature="0" /><path
       d="m 1333.6937,251.53441 c 0,-2.4 -1.94,-4.34 -4.34,-4.34 -2.4,0 -4.35,1.94 -4.35,4.34 0,2.4 1.95,4.35 4.35,4.35 2.4,0 4.34,-1.95 4.34,-4.35 z"
       style="fill:#5b9bd5;fill-opacity:1;fill-rule:nonzero;stroke:none"
       id="path4514"
       inkscape:connector-curvature="0" /><path
       d="m 1333.6937,251.53441 c 0,-2.4 -1.94,-4.34 -4.34,-4.34 -2.4,0 -4.35,1.94 -4.35,4.34 0,2.4 1.95,4.35 4.35,4.35 2.4,0 4.34,-1.95 4.34,-4.35 z"
       style="fill:none;stroke:#5b9bd5;stroke-width:1.24160004;stroke-linecap:butt;stroke-linejoin:round;stroke-miterlimit:10;stroke-dasharray:none;stroke-opacity:1"
       id="path4516"
       inkscape:connector-curvature="0" /><path
       d="m 1472.7537,170.21441 c 0,-2.4 -1.94,-4.35 -4.34,-4.35 -2.4,0 -4.35,1.95 -4.35,4.35 0,2.4 1.95,4.34 4.35,4.34 2.4,0 4.34,-1.94 4.34,-4.34 z"
       style="fill:#5b9bd5;fill-opacity:1;fill-rule:nonzero;stroke:none"
       id="path4518"
       inkscape:connector-curvature="0" /><path
       d="m 1472.7537,170.21441 c 0,-2.4 -1.94,-4.35 -4.34,-4.35 -2.4,0 -4.35,1.95 -4.35,4.35 0,2.4 1.95,4.34 4.35,4.34 2.4,0 4.34,-1.94 4.34,-4.34 z"
       style="fill:none;stroke:#5b9bd5;stroke-width:1.24160004;stroke-linecap:butt;stroke-linejoin:round;stroke-miterlimit:10;stroke-dasharray:none;stroke-opacity:1"
       id="path4520"
       inkscape:connector-curvature="0" /><g
       transform="translate(743.92375,-56.725591)"
       id="g4522"><g
         id="g4524"
         clip-path="url(#clipPath4526)"><text
           transform="matrix(1,0,0,-1,103.32,140.26)"
           style="font-variant:normal;font-weight:normal;font-size:19.05599976px;font-family:Calibri;-inkscape-font-specification:Calibri;writing-mode:lr-tb;fill:#595959;fill-opacity:1;fill-rule:nonzero;stroke:none"
           id="text4530"><tspan
             x="0"
             y="0"
             id="tspan4532">0</tspan></text>
</g></g><g
       transform="translate(743.92375,-56.725591)"
       id="g4534"><g
         id="g4536"
         clip-path="url(#clipPath4538)"><text
           transform="matrix(1,0,0,-1,103.32,221.57)"
           style="font-variant:normal;font-weight:normal;font-size:19.05599976px;font-family:Calibri;-inkscape-font-specification:Calibri;writing-mode:lr-tb;fill:#595959;fill-opacity:1;fill-rule:nonzero;stroke:none"
           id="text4542"><tspan
             x="0"
             y="0"
             id="tspan4544">1</tspan></text>
</g></g><g
       transform="translate(743.92375,-56.725591)"
       id="g4546"><g
         id="g4548"
         clip-path="url(#clipPath4550)"><text
           transform="matrix(1,0,0,-1,103.32,302.88)"
           style="font-variant:normal;font-weight:normal;font-size:19.03199959px;font-family:Calibri;-inkscape-font-specification:Calibri;writing-mode:lr-tb;fill:#595959;fill-opacity:1;fill-rule:nonzero;stroke:none"
           id="text4554"><tspan
             x="0"
             y="0"
             id="tspan4556">2</tspan></text>
</g></g><g
       transform="translate(743.92375,-56.725591)"
       id="g4558"><g
         id="g4560"
         clip-path="url(#clipPath4562)"><text
           transform="matrix(1,0,0,-1,103.32,384.19)"
           style="font-variant:normal;font-weight:normal;font-size:19.03199959px;font-family:Calibri;-inkscape-font-specification:Calibri;writing-mode:lr-tb;fill:#595959;fill-opacity:1;fill-rule:nonzero;stroke:none"
           id="text4566"><tspan
             x="0"
             y="0"
             id="tspan4568">3</tspan></text>
</g></g><g
       transform="translate(743.92375,-56.725591)"
       id="g4570"><g
         id="g4572"
         clip-path="url(#clipPath4574)"><text
           transform="matrix(1,0,0,-1,103.32,465.5)"
           style="font-variant:normal;font-weight:normal;font-size:19.03199959px;font-family:Calibri;-inkscape-font-specification:Calibri;writing-mode:lr-tb;fill:#595959;fill-opacity:1;fill-rule:nonzero;stroke:none"
           id="text4578"><tspan
             x="0"
             y="0"
             id="tspan4580">4</tspan></text>
</g></g><g
       transform="translate(743.92375,-56.725591)"
       id="g4582"><g
         id="g4584"
         clip-path="url(#clipPath4586)"><text
           transform="matrix(1,0,0,-1,120.94,115.58)"
           style="font-variant:normal;font-weight:normal;font-size:19.05599976px;font-family:Calibri;-inkscape-font-specification:Calibri;writing-mode:lr-tb;fill:#595959;fill-opacity:1;fill-rule:nonzero;stroke:none"
           id="text4590"><tspan
             x="0 9.5283918"
             y="0"
             sodipodi:role="line"
             id="tspan4592">15</tspan></text>
</g></g><g
       transform="translate(743.92375,-56.725591)"
       id="g4594"><g
         id="g4596"
         clip-path="url(#clipPath4598)"><text
           transform="matrix(1,0,0,-1,247.32,115.58)"
           style="font-variant:normal;font-weight:normal;font-size:19.05599976px;font-family:Calibri;-inkscape-font-specification:Calibri;writing-mode:lr-tb;fill:#595959;fill-opacity:1;fill-rule:nonzero;stroke:none"
           id="text4602"><tspan
             x="0 9.5043917"
             y="0"
             sodipodi:role="line"
             id="tspan4604">25</tspan></text>
</g></g><g
       transform="translate(743.92375,-56.725591)"
       id="g4606"><g
         id="g4608"
         clip-path="url(#clipPath4610)"><text
           transform="matrix(1,0,0,-1,373.68,115.58)"
           style="font-variant:normal;font-weight:normal;font-size:19.05599976px;font-family:Calibri;-inkscape-font-specification:Calibri;writing-mode:lr-tb;fill:#595959;fill-opacity:1;fill-rule:nonzero;stroke:none"
           id="text4614"><tspan
             x="0 9.5283918"
             y="0"
             sodipodi:role="line"
             id="tspan4616">35</tspan></text>
</g></g><g
       transform="translate(743.92375,-56.725591)"
       id="g4618"><g
         id="g4620"
         clip-path="url(#clipPath4622)"><text
           transform="matrix(1,0,0,-1,500.06,115.58)"
           style="font-variant:normal;font-weight:normal;font-size:19.05599976px;font-family:Calibri;-inkscape-font-specification:Calibri;writing-mode:lr-tb;fill:#595959;fill-opacity:1;fill-rule:nonzero;stroke:none"
           id="text4626"><tspan
             x="0 9.5283918"
             y="0"
             sodipodi:role="line"
             id="tspan4628">45</tspan></text>
</g></g><g
       transform="translate(743.92375,-56.725591)"
       id="g4630"><g
         id="g4632"
         clip-path="url(#clipPath4634)"><text
           transform="matrix(1,0,0,-1,626.45,115.58)"
           style="font-variant:normal;font-weight:normal;font-size:19.05599976px;font-family:Calibri;-inkscape-font-specification:Calibri;writing-mode:lr-tb;fill:#595959;fill-opacity:1;fill-rule:nonzero;stroke:none"
           id="text4638"><tspan
             x="0 9.5043917"
             y="0"
             sodipodi:role="line"
             id="tspan4640">55</tspan></text>
</g></g><g
       transform="translate(743.92375,-56.725591)"
       id="g4642"><g
         id="g4644"
         clip-path="url(#clipPath4646)"><text
           transform="matrix(1,0,0,-1,752.81,115.58)"
           style="font-variant:normal;font-weight:normal;font-size:19.05599976px;font-family:Calibri;-inkscape-font-specification:Calibri;writing-mode:lr-tb;fill:#595959;fill-opacity:1;fill-rule:nonzero;stroke:none"
           id="text4650"><tspan
             x="0 9.5283918"
             y="0"
             sodipodi:role="line"
             id="tspan4652">65</tspan></text>
</g></g><g
       transform="translate(743.92375,-56.725591)"
       id="g4654"><g
         id="g4656"
         clip-path="url(#clipPath4658)"><text
           transform="matrix(-4.4e-8,1,1,4.4e-8,82.848,237.29)"
           style="font-variant:normal;font-weight:normal;font-size:20.68799973px;font-family:Calibri;-inkscape-font-specification:Calibri;writing-mode:lr-tb;fill:#595959;fill-opacity:1;fill-rule:nonzero;stroke:none"
           id="text4662"><tspan
             x="0 13.426512 24.370464 40.900177 51.844128 62.146751 69.366867 73.752724 84.696671 91.089264 95.619934 105.96394 116.10106 123.11429"
             y="0"
             sodipodi:role="line"
             id="tspan4664">Number of Pets</tspan></text>
</g></g><g
       transform="translate(743.92375,-56.725591)"
       id="g4666"><g
         id="g4668"
         clip-path="url(#clipPath4670)"><text
           transform="matrix(1,0,0,-1,429.02,73.968)"
           style="font-variant:normal;font-weight:normal;font-size:20.68799973px;font-family:Calibri;-inkscape-font-specification:Calibri;writing-mode:lr-tb;fill:#595959;fill-opacity:1;fill-rule:nonzero;stroke:none"
           id="text4674"><tspan
             x="0 11.978352 21.536207"
             y="0"
             sodipodi:role="line"
             id="tspan4676">Age</tspan></text>
</g></g><g
       transform="translate(743.92375,-56.725591)"
       id="g4678"><g
         id="g4680"
         clip-path="url(#clipPath4682)"><text
           transform="matrix(1,0,0,-1,284.45,500.18)"
           style="font-variant:normal;font-weight:normal;font-size:24.2159996px;font-family:Calibri;-inkscape-font-specification:Calibri;writing-mode:lr-tb;fill:#595959;fill-opacity:1;fill-rule:nonzero;stroke:none"
           id="text4686"><tspan
             x="0 15.716184 28.33272 47.584438 60.200977 72.260544 80.711929 86.184746 98.946579 106.40511 111.80527 123.84062 135.65804 143.77039 153.23885 158.71167 172.73273 183.72679 195.32626 200.89594 213.53668 222.85985 230.97221 236.13022 250.15128 261.41171"
             y="0"
             sodipodi:role="line"
             id="tspan4688">Number of Pets Against Age</tspan></text>
</g></g></g></svg>