<?xml version="1.0" encoding="UTF-8" standalone="no"?>
<!-- Created with Inkscape (http://www.inkscape.org/) -->

<svg
   xmlns:dc="http://purl.org/dc/elements/1.1/"
   xmlns:cc="http://creativecommons.org/ns#"
   xmlns:rdf="http://www.w3.org/1999/02/22-rdf-syntax-ns#"
   xmlns:svg="http://www.w3.org/2000/svg"
   xmlns="http://www.w3.org/2000/svg"
   xmlns:sodipodi="http://sodipodi.sourceforge.net/DTD/sodipodi-0.dtd"
   xmlns:inkscape="http://www.inkscape.org/namespaces/inkscape"
   id="svg10787"
   version="1.1"
   inkscape:version="0.91 r13725"
   xml:space="preserve"
   width="926.32898"
   height="501.479"
   viewBox="0 0 926.32894 501.479"
   sodipodi:docname="BreakfastCereals.svg"><metadata
     id="metadata10793"><rdf:RDF><cc:Work
         rdf:about=""><dc:format>image/svg+xml</dc:format><dc:type
           rdf:resource="http://purl.org/dc/dcmitype/StillImage" /><dc:title></dc:title></cc:Work></rdf:RDF></metadata><defs
     id="defs10791"><clipPath
       clipPathUnits="userSpaceOnUse"
       id="clipPath10843"><path
         d="m 51.12,97.68 739.68,0 0,399.72 -739.68,0 0,-399.72 z"
         id="path10845"
         inkscape:connector-curvature="0"
         style="clip-rule:evenodd" /></clipPath><clipPath
       clipPathUnits="userSpaceOnUse"
       id="clipPath10855"><path
         d="m 51.12,97.68 739.68,0 0,399.72 -739.68,0 0,-399.72 z"
         id="path10857"
         inkscape:connector-curvature="0"
         style="clip-rule:evenodd" /></clipPath><clipPath
       clipPathUnits="userSpaceOnUse"
       id="clipPath10867"><path
         d="m 51.12,97.68 739.68,0 0,399.72 -739.68,0 0,-399.72 z"
         id="path10869"
         inkscape:connector-curvature="0"
         style="clip-rule:evenodd" /></clipPath><clipPath
       clipPathUnits="userSpaceOnUse"
       id="clipPath10879"><path
         d="m 51.12,97.68 739.68,0 0,399.72 -739.68,0 0,-399.72 z"
         id="path10881"
         inkscape:connector-curvature="0"
         style="clip-rule:evenodd" /></clipPath><clipPath
       clipPathUnits="userSpaceOnUse"
       id="clipPath10891"><path
         d="m 51.12,97.68 739.68,0 0,399.72 -739.68,0 0,-399.72 z"
         id="path10893"
         inkscape:connector-curvature="0"
         style="clip-rule:evenodd" /></clipPath><clipPath
       clipPathUnits="userSpaceOnUse"
       id="clipPath10903"><path
         d="m 51.12,97.68 739.68,0 0,399.72 -739.68,0 0,-399.72 z"
         id="path10905"
         inkscape:connector-curvature="0"
         style="clip-rule:evenodd" /></clipPath><clipPath
       clipPathUnits="userSpaceOnUse"
       id="clipPath10915"><path
         d="m 51.12,97.68 739.68,0 0,399.72 -739.68,0 0,-399.72 z"
         id="path10917"
         inkscape:connector-curvature="0"
         style="clip-rule:evenodd" /></clipPath><clipPath
       clipPathUnits="userSpaceOnUse"
       id="clipPath10927"><path
         d="m 51.12,97.68 739.68,0 0,399.72 -739.68,0 0,-399.72 z"
         id="path10929"
         inkscape:connector-curvature="0"
         style="clip-rule:evenodd" /></clipPath><clipPath
       clipPathUnits="userSpaceOnUse"
       id="clipPath10939"><path
         d="m 51.12,97.68 739.68,0 0,399.72 -739.68,0 0,-399.72 z"
         id="path10941"
         inkscape:connector-curvature="0"
         style="clip-rule:evenodd" /></clipPath><clipPath
       clipPathUnits="userSpaceOnUse"
       id="clipPath10951"><path
         d="m 51.12,97.68 739.68,0 0,399.72 -739.68,0 0,-399.72 z"
         id="path10953"
         inkscape:connector-curvature="0"
         style="clip-rule:evenodd" /></clipPath><clipPath
       clipPathUnits="userSpaceOnUse"
       id="clipPath10963"><path
         d="m 51.12,97.68 739.68,0 0,399.72 -739.68,0 0,-399.72 z"
         id="path10965"
         inkscape:connector-curvature="0"
         style="clip-rule:evenodd" /></clipPath><clipPath
       clipPathUnits="userSpaceOnUse"
       id="clipPath10975"><path
         d="m 51.12,97.68 739.68,0 0,399.72 -739.68,0 0,-399.72 z"
         id="path10977"
         inkscape:connector-curvature="0"
         style="clip-rule:evenodd" /></clipPath><clipPath
       clipPathUnits="userSpaceOnUse"
       id="clipPath10987"><path
         d="m 51.12,97.68 739.68,0 0,399.72 -739.68,0 0,-399.72 z"
         id="path10989"
         inkscape:connector-curvature="0"
         style="clip-rule:evenodd" /></clipPath><clipPath
       clipPathUnits="userSpaceOnUse"
       id="clipPath10999"><path
         d="m 51.12,97.68 739.68,0 0,399.72 -739.68,0 0,-399.72 z"
         id="path11001"
         inkscape:connector-curvature="0"
         style="clip-rule:evenodd" /></clipPath><clipPath
       clipPathUnits="userSpaceOnUse"
       id="clipPath11011"><path
         d="m 51.12,97.68 739.68,0 0,399.72 -739.68,0 0,-399.72 z"
         id="path11013"
         inkscape:connector-curvature="0"
         style="clip-rule:evenodd" /></clipPath><clipPath
       clipPathUnits="userSpaceOnUse"
       id="clipPath11023"><path
         d="m 51.12,97.68 739.68,0 0,399.72 -739.68,0 0,-399.72 z"
         id="path11025"
         inkscape:connector-curvature="0"
         style="clip-rule:evenodd" /></clipPath><clipPath
       clipPathUnits="userSpaceOnUse"
       id="clipPath11035"><path
         d="m 51.12,97.68 739.68,0 0,399.72 -739.68,0 0,-399.72 z"
         id="path11037"
         inkscape:connector-curvature="0"
         style="clip-rule:evenodd" /></clipPath><clipPath
       clipPathUnits="userSpaceOnUse"
       id="clipPath11047"><path
         d="m 51.12,97.68 739.68,0 0,399.72 -739.68,0 0,-399.72 z"
         id="path11049"
         inkscape:connector-curvature="0"
         style="clip-rule:evenodd" /></clipPath></defs><sodipodi:namedview
     pagecolor="#ffffff"
     bordercolor="#666666"
     borderopacity="1"
     objecttolerance="10"
     gridtolerance="10"
     guidetolerance="10"
     inkscape:pageopacity="0"
     inkscape:pageshadow="2"
     inkscape:window-width="1920"
     inkscape:window-height="1018"
     id="namedview10789"
     showgrid="false"
     inkscape:zoom="0.80722556"
     inkscape:cx="351.42602"
     inkscape:cy="356.01461"
     inkscape:window-x="-8"
     inkscape:window-y="-8"
     inkscape:window-maximized="1"
     inkscape:current-layer="g10795" /><g
     id="g10795"
     inkscape:groupmode="layer"
     inkscape:label="BreakfastCereals"
     transform="matrix(1.25,0,0,-1.25,0,501.47899)"><path
       d="m 0.71670002,0.71669025 739.62999998,0 0,399.74999975 -739.62999998,0 0,-399.74999975 z"
       style="fill:#ffffff;fill-opacity:1;fill-rule:evenodd;stroke:none"
       id="path10797"
       inkscape:connector-curvature="0" /><path
       d="m 109.8147,126.20069 598.86,0 m -598.86,28.89 598.86,0 m -598.86,28.9 598.86,0 m -598.86,28.9 598.86,0 m -598.86,28.67 598.86,0 m -598.86,28.89 598.86,0 m -598.86,28.9 598.86,0 m -598.86,28.86 598.86,0"
       style="fill:none;stroke:#d9d9d9;stroke-width:1.43340003;stroke-linecap:butt;stroke-linejoin:round;stroke-miterlimit:10;stroke-dasharray:none;stroke-opacity:1"
       id="path10799"
       inkscape:connector-curvature="0" /><path
       d="m 229.5747,328.21069 0,-230.86 m 119.72,230.86 0,-230.86 m 119.94,230.86 0,-230.86 m 119.72,230.86 0,-230.86 m 119.72,230.86 0,-230.86"
       style="fill:none;stroke:#d9d9d9;stroke-width:1.43340003;stroke-linecap:butt;stroke-linejoin:round;stroke-miterlimit:10;stroke-dasharray:none;stroke-opacity:1"
       id="path10801"
       inkscape:connector-curvature="0" /><path
       d="m 109.8147,97.35069 0,230.86"
       style="fill:none;stroke:#bfbfbf;stroke-width:1.43340003;stroke-linecap:butt;stroke-linejoin:round;stroke-miterlimit:10;stroke-dasharray:none;stroke-opacity:1"
       id="path10803"
       inkscape:connector-curvature="0" /><path
       d="m 109.8147,97.35069 598.86,0"
       style="fill:none;stroke:#bfbfbf;stroke-width:1.43340003;stroke-linecap:butt;stroke-linejoin:round;stroke-miterlimit:10;stroke-dasharray:none;stroke-opacity:1"
       id="path10805"
       inkscape:connector-curvature="0" /><path
       d="m 581.6147,197.06069 c 0,-2.66 -2.15,-4.81 -4.81,-4.81 -2.66,0 -4.82,2.15 -4.82,4.81 0,2.66 2.16,4.82 4.82,4.82 2.66,0 4.81,-2.16 4.81,-4.82 z"
       style="fill:#70ad47;fill-opacity:1;fill-rule:nonzero;stroke:none"
       id="path10807"
       inkscape:connector-curvature="0" /><path
       d="m 581.6147,197.06069 c 0,-2.66 -2.15,-4.81 -4.81,-4.81 -2.66,0 -4.82,2.15 -4.82,4.81 0,2.66 2.16,4.82 4.82,4.82 2.66,0 4.81,-2.16 4.81,-4.82 z"
       style="fill:none;stroke:#70ad47;stroke-width:1.43340003;stroke-linecap:butt;stroke-linejoin:round;stroke-miterlimit:10;stroke-dasharray:none;stroke-opacity:1"
       id="path10809"
       inkscape:connector-curvature="0" /><path
       d="m 533.6847,168.17069 c 0,-2.66 -2.16,-4.82 -4.82,-4.82 -2.66,0 -4.81,2.16 -4.81,4.82 0,2.66 2.15,4.81 4.81,4.81 2.66,0 4.82,-2.15 4.82,-4.81 z"
       style="fill:#70ad47;fill-opacity:1;fill-rule:nonzero;stroke:none"
       id="path10811"
       inkscape:connector-curvature="0" /><path
       d="m 533.6847,168.17069 c 0,-2.66 -2.16,-4.82 -4.82,-4.82 -2.66,0 -4.81,2.16 -4.81,4.82 0,2.66 2.15,4.81 4.81,4.81 2.66,0 4.82,-2.15 4.82,-4.81 z"
       style="fill:none;stroke:#70ad47;stroke-width:1.43340003;stroke-linecap:butt;stroke-linejoin:round;stroke-miterlimit:10;stroke-dasharray:none;stroke-opacity:1"
       id="path10813"
       inkscape:connector-curvature="0" /><path
       d="m 167.4547,170.89069 c 0,-2.66 -2.16,-4.82 -4.82,-4.82 -2.66,0 -4.82,2.16 -4.82,4.82 0,2.66 2.16,4.81 4.82,4.81 2.66,0 4.82,-2.15 4.82,-4.81 z"
       style="fill:#5b9bd5;fill-opacity:1;fill-rule:nonzero;stroke:none"
       id="path10815"
       inkscape:connector-curvature="0" /><path
       d="m 167.4547,170.89069 c 0,-2.66 -2.16,-4.82 -4.82,-4.82 -2.66,0 -4.82,2.16 -4.82,4.82 0,2.66 2.16,4.81 4.82,4.81 2.66,0 4.82,-2.15 4.82,-4.81 z"
       style="fill:none;stroke:#5b9bd5;stroke-width:1.37609994;stroke-linecap:butt;stroke-linejoin:round;stroke-miterlimit:10;stroke-dasharray:none;stroke-opacity:1"
       id="path10817"
       inkscape:connector-curvature="0" /><path
       d="m 282.3547,153.69069 c 0,-2.66 -2.16,-4.82 -4.82,-4.82 -2.66,0 -4.82,2.16 -4.82,4.82 0,2.66 2.16,4.81 4.82,4.81 2.66,0 4.82,-2.15 4.82,-4.81 z"
       style="fill:#5b9bd5;fill-opacity:1;fill-rule:nonzero;stroke:none"
       id="path10819"
       inkscape:connector-curvature="0" /><path
       d="m 282.3547,153.69069 c 0,-2.66 -2.16,-4.82 -4.82,-4.82 -2.66,0 -4.82,2.16 -4.82,4.82 0,2.66 2.16,4.81 4.82,4.81 2.66,0 4.82,-2.15 4.82,-4.81 z"
       style="fill:none;stroke:#5b9bd5;stroke-width:1.37609994;stroke-linecap:butt;stroke-linejoin:round;stroke-miterlimit:10;stroke-dasharray:none;stroke-opacity:1"
       id="path10821"
       inkscape:connector-curvature="0" /><path
       d="m 194.9747,124.79069 c 0,-2.66 -2.16,-4.82 -4.82,-4.82 -2.66,0 -4.82,2.16 -4.82,4.82 0,2.66 2.16,4.82 4.82,4.82 2.66,0 4.82,-2.16 4.82,-4.82 z"
       style="fill:#5b9bd5;fill-opacity:1;fill-rule:nonzero;stroke:none"
       id="path10823"
       inkscape:connector-curvature="0" /><path
       d="m 194.9747,124.79069 c 0,-2.66 -2.16,-4.82 -4.82,-4.82 -2.66,0 -4.82,2.16 -4.82,4.82 0,2.66 2.16,4.82 4.82,4.82 2.66,0 4.82,-2.16 4.82,-4.82 z"
       style="fill:none;stroke:#5b9bd5;stroke-width:1.37609994;stroke-linecap:butt;stroke-linejoin:round;stroke-miterlimit:10;stroke-dasharray:none;stroke-opacity:1"
       id="path10825"
       inkscape:connector-curvature="0" /><path
       d="m 197.2647,146.35069 c 0,-2.66 -2.16,-4.82 -4.82,-4.82 -2.66,0 -4.81,2.16 -4.81,4.82 0,2.66 2.15,4.82 4.81,4.82 2.66,0 4.82,-2.16 4.82,-4.82 z"
       style="fill:#5b9bd5;fill-opacity:1;fill-rule:nonzero;stroke:none"
       id="path10827"
       inkscape:connector-curvature="0" /><path
       d="m 197.2647,146.35069 c 0,-2.66 -2.16,-4.82 -4.82,-4.82 -2.66,0 -4.81,2.16 -4.81,4.82 0,2.66 2.15,4.82 4.81,4.82 2.66,0 4.82,-2.16 4.82,-4.82 z"
       style="fill:none;stroke:#5b9bd5;stroke-width:1.37609994;stroke-linecap:butt;stroke-linejoin:round;stroke-miterlimit:10;stroke-dasharray:none;stroke-opacity:1"
       id="path10829"
       inkscape:connector-curvature="0" /><path
       d="m 605.4647,251.88069 c 0,-2.66 -2.15,-4.82 -4.81,-4.82 -2.66,0 -4.82,2.16 -4.82,4.82 0,2.66 2.16,4.81 4.82,4.81 2.66,0 4.81,-2.15 4.81,-4.81 z"
       style="fill:#70ad47;fill-opacity:1;fill-rule:nonzero;stroke:none"
       id="path10831"
       inkscape:connector-curvature="0" /><path
       d="m 605.4647,251.88069 c 0,-2.66 -2.15,-4.82 -4.81,-4.82 -2.66,0 -4.82,2.16 -4.82,4.82 0,2.66 2.16,4.81 4.82,4.81 2.66,0 4.81,-2.15 4.81,-4.81 z"
       style="fill:none;stroke:#70ad47;stroke-width:1.43340003;stroke-linecap:butt;stroke-linejoin:round;stroke-miterlimit:10;stroke-dasharray:none;stroke-opacity:1"
       id="path10833"
       inkscape:connector-curvature="0" /><path
       d="m 161.2247,300.96069 c 0,-2.66 -2.15,-4.82 -4.81,-4.82 -2.66,0 -4.82,2.16 -4.82,4.82 0,2.66 2.16,4.81 4.82,4.81 2.66,0 4.81,-2.15 4.81,-4.81 z"
       style="fill:#ed7d31;fill-opacity:1;fill-rule:nonzero;stroke:none"
       id="path10835"
       inkscape:connector-curvature="0" /><path
       d="m 161.2247,300.96069 c 0,-2.66 -2.15,-4.82 -4.81,-4.82 -2.66,0 -4.82,2.16 -4.82,4.82 0,2.66 2.16,4.81 4.82,4.81 2.66,0 4.81,-2.15 4.81,-4.81 z"
       style="fill:none;stroke:#ed7d31;stroke-width:1.43340003;stroke-linecap:butt;stroke-linejoin:round;stroke-miterlimit:10;stroke-dasharray:none;stroke-opacity:1"
       id="path10837"
       inkscape:connector-curvature="0" /><g
       id="g10839"
       transform="translate(-50.4753,-96.95931)"><g
         id="g10841"
         clip-path="url(#clipPath10843)"><text
           transform="matrix(1,0,0,-1,108.82,188.28)"
           style="font-variant:normal;font-weight:normal;font-size:21.09600067px;font-family:Calibri;-inkscape-font-specification:Calibri;writing-mode:lr-tb;fill:#595959;fill-opacity:1;fill-rule:nonzero;stroke:none"
           id="text10847"><tspan
             x="0 10.569096 21.349152"
             y="0"
             sodipodi:role="line"
             id="tspan10849">320</tspan></text>
</g></g><g
       id="g10851"
       transform="translate(-50.4753,-96.95931)"><g
         id="g10853"
         clip-path="url(#clipPath10855)"><text
           transform="matrix(1,0,0,-1,108.82,217.13)"
           style="font-variant:normal;font-weight:normal;font-size:21.09600067px;font-family:Calibri;-inkscape-font-specification:Calibri;writing-mode:lr-tb;fill:#595959;fill-opacity:1;fill-rule:nonzero;stroke:none"
           id="text10859"><tspan
             x="0 10.569096 21.349152"
             y="0"
             sodipodi:role="line"
             id="tspan10861">340</tspan></text>
</g></g><g
       id="g10863"
       transform="translate(-50.4753,-96.95931)"><g
         id="g10865"
         clip-path="url(#clipPath10867)"><text
           transform="matrix(1,0,0,-1,108.82,246)"
           style="font-variant:normal;font-weight:normal;font-size:21.09600067px;font-family:Calibri;-inkscape-font-specification:Calibri;writing-mode:lr-tb;fill:#595959;fill-opacity:1;fill-rule:nonzero;stroke:none"
           id="text10871"><tspan
             x="0 10.569096 21.349152"
             y="0"
             sodipodi:role="line"
             id="tspan10873">360</tspan></text>
</g></g><g
       id="g10875"
       transform="translate(-50.4753,-96.95931)"><g
         id="g10877"
         clip-path="url(#clipPath10879)"><text
           transform="matrix(1,0,0,-1,108.82,274.87)"
           style="font-variant:normal;font-weight:normal;font-size:21.12000084px;font-family:Calibri;-inkscape-font-specification:Calibri;writing-mode:lr-tb;fill:#595959;fill-opacity:1;fill-rule:nonzero;stroke:none"
           id="text10883"><tspan
             x="0 10.56 21.3312"
             y="0"
             sodipodi:role="line"
             id="tspan10885">380</tspan></text>
</g></g><g
       id="g10887"
       transform="translate(-50.4753,-96.95931)"><g
         id="g10889"
         clip-path="url(#clipPath10891)"><text
           transform="matrix(1,0,0,-1,108.82,303.72)"
           style="font-variant:normal;font-weight:normal;font-size:21.09600067px;font-family:Calibri;-inkscape-font-specification:Calibri;writing-mode:lr-tb;fill:#595959;fill-opacity:1;fill-rule:nonzero;stroke:none"
           id="text10895"><tspan
             x="0 10.569096 21.349152"
             y="0"
             sodipodi:role="line"
             id="tspan10897">400</tspan></text>
</g></g><g
       id="g10899"
       transform="translate(-50.4753,-96.95931)"><g
         id="g10901"
         clip-path="url(#clipPath10903)"><text
           transform="matrix(1,0,0,-1,108.82,332.59)"
           style="font-variant:normal;font-weight:normal;font-size:21.09600067px;font-family:Calibri;-inkscape-font-specification:Calibri;writing-mode:lr-tb;fill:#595959;fill-opacity:1;fill-rule:nonzero;stroke:none"
           id="text10907"><tspan
             x="0 10.569096 21.349152"
             y="0"
             sodipodi:role="line"
             id="tspan10909">420</tspan></text>
</g></g><g
       id="g10911"
       transform="translate(-50.4753,-96.95931)"><g
         id="g10913"
         clip-path="url(#clipPath10915)"><text
           transform="matrix(1,0,0,-1,108.82,361.44)"
           style="font-variant:normal;font-weight:normal;font-size:21.09600067px;font-family:Calibri;-inkscape-font-specification:Calibri;writing-mode:lr-tb;fill:#595959;fill-opacity:1;fill-rule:nonzero;stroke:none"
           id="text10919"><tspan
             x="0 10.569096 21.349152"
             y="0"
             sodipodi:role="line"
             id="tspan10921">440</tspan></text>
</g></g><g
       id="g10923"
       transform="translate(-50.4753,-96.95931)"><g
         id="g10925"
         clip-path="url(#clipPath10927)"><text
           transform="matrix(1,0,0,-1,108.82,390.31)"
           style="font-variant:normal;font-weight:normal;font-size:21.09600067px;font-family:Calibri;-inkscape-font-specification:Calibri;writing-mode:lr-tb;fill:#595959;fill-opacity:1;fill-rule:nonzero;stroke:none"
           id="text10931"><tspan
             x="0 10.569096 21.349152"
             y="0"
             sodipodi:role="line"
             id="tspan10933">460</tspan></text>
</g></g><g
       id="g10935"
       transform="translate(-50.4753,-96.95931)"><g
         id="g10937"
         clip-path="url(#clipPath10939)"><text
           transform="matrix(1,0,0,-1,108.82,419.18)"
           style="font-variant:normal;font-weight:normal;font-size:21.12000084px;font-family:Calibri;-inkscape-font-specification:Calibri;writing-mode:lr-tb;fill:#595959;fill-opacity:1;fill-rule:nonzero;stroke:none"
           id="text10943"><tspan
             x="0 10.56 21.3312"
             y="0"
             sodipodi:role="line"
             id="tspan10945">480</tspan></text>
</g></g><g
       id="g10947"
       transform="translate(-50.4753,-96.95931)"><g
         id="g10949"
         clip-path="url(#clipPath10951)"><text
           transform="matrix(1,0,0,-1,154.97,160.92)"
           style="font-variant:normal;font-weight:normal;font-size:21.09600067px;font-family:Calibri;-inkscape-font-specification:Calibri;writing-mode:lr-tb;fill:#595959;fill-opacity:1;fill-rule:nonzero;stroke:none"
           id="text10955"><tspan
             x="0"
             y="0"
             id="tspan10957">0</tspan></text>
</g></g><g
       id="g10959"
       transform="translate(-50.4753,-96.95931)"><g
         id="g10961"
         clip-path="url(#clipPath10963)"><text
           transform="matrix(1,0,0,-1,269.45,160.92)"
           style="font-variant:normal;font-weight:normal;font-size:21.09600067px;font-family:Calibri;-inkscape-font-specification:Calibri;writing-mode:lr-tb;fill:#595959;fill-opacity:1;fill-rule:nonzero;stroke:none"
           id="text10967"><tspan
             x="0 10.535672"
             y="0"
             sodipodi:role="line"
             id="tspan10969">10</tspan></text>
</g></g><g
       id="g10971"
       transform="translate(-50.4753,-96.95931)"><g
         id="g10973"
         clip-path="url(#clipPath10975)"><text
           transform="matrix(1,0,0,-1,389.23,160.92)"
           style="font-variant:normal;font-weight:normal;font-size:21.09600067px;font-family:Calibri;-inkscape-font-specification:Calibri;writing-mode:lr-tb;fill:#595959;fill-opacity:1;fill-rule:nonzero;stroke:none"
           id="text10979"><tspan
             x="0 10.535672"
             y="0"
             sodipodi:role="line"
             id="tspan10981">20</tspan></text>
</g></g><g
       id="g10983"
       transform="translate(-50.4753,-96.95931)"><g
         id="g10985"
         clip-path="url(#clipPath10987)"><text
           transform="matrix(1,0,0,-1,509.02,160.92)"
           style="font-variant:normal;font-weight:normal;font-size:21.09600067px;font-family:Calibri;-inkscape-font-specification:Calibri;writing-mode:lr-tb;fill:#595959;fill-opacity:1;fill-rule:nonzero;stroke:none"
           id="text10991"><tspan
             x="0 10.559672"
             y="0"
             sodipodi:role="line"
             id="tspan10993">30</tspan></text>
</g></g><g
       id="g10995"
       transform="translate(-50.4753,-96.95931)"><g
         id="g10997"
         clip-path="url(#clipPath10999)"><text
           transform="matrix(1,0,0,-1,628.8,160.92)"
           style="font-variant:normal;font-weight:normal;font-size:21.09600067px;font-family:Calibri;-inkscape-font-specification:Calibri;writing-mode:lr-tb;fill:#595959;fill-opacity:1;fill-rule:nonzero;stroke:none"
           id="text11003"><tspan
             x="0 10.559672"
             y="0"
             sodipodi:role="line"
             id="tspan11005">40</tspan></text>
</g></g><g
       id="g11007"
       transform="translate(-50.4753,-96.95931)"><g
         id="g11009"
         clip-path="url(#clipPath11011)"><text
           transform="matrix(1,0,0,-1,748.58,160.92)"
           style="font-variant:normal;font-weight:normal;font-size:21.09600067px;font-family:Calibri;-inkscape-font-specification:Calibri;writing-mode:lr-tb;fill:#595959;fill-opacity:1;fill-rule:nonzero;stroke:none"
           id="text11015"><tspan
             x="0 10.559672"
             y="0"
             sodipodi:role="line"
             id="tspan11017">50</tspan></text>
</g></g><g
       id="g11019"
       transform="translate(-50.4753,-96.95931)"><g
         id="g11021"
         clip-path="url(#clipPath11023)"><text
           transform="matrix(-4.4e-8,1,1,4.4e-8,77.904,203.04)"
           style="font-variant:normal;font-weight:normal;font-size:22.94400024px;font-family:Calibri;-inkscape-font-specification:Calibri;writing-mode:lr-tb;fill:#595959;fill-opacity:1;fill-rule:nonzero;stroke:none"
           id="text11027"><tspan
             x="0 11.196672 23.40288 34.828991 42.675838 53.482464 63.807262 68.877892 81.015266 92.441376 100.49472 105.31296 116.99146 128.66995 140.34845 151.15508 156.20276 163.15479 172.95187 182.35892 193.34909 198.62621"
             y="0"
             sodipodi:role="line"
             id="tspan11029">Energy per 100g (kcal)</tspan></text>
</g></g><g
       id="g11031"
       transform="translate(-50.4753,-96.95931)"><g
         id="g11033"
         clip-path="url(#clipPath11035)"><text
           transform="matrix(1,0,0,-1,371.26,111.14)"
           style="font-variant:normal;font-weight:normal;font-size:22.94400024px;font-family:Calibri;-inkscape-font-specification:Calibri;writing-mode:lr-tb;fill:#595959;fill-opacity:1;fill-rule:nonzero;stroke:none"
           id="text11039"><tspan
             x="0 10.531296 22.71456 33.03936 44.029537 52.036991 57.130562 69.267937 80.694046 88.747391 93.795074 105.47357 117.15206 128.83057 139.63718 144.63898 151.591 162.30586"
             y="0"
             sodipodi:role="line"
             id="tspan11041">Sugar per 100g (g)</tspan></text>
</g></g><g
       id="g11043"
       transform="translate(-50.4753,-96.95931)"><g
         id="g11045"
         clip-path="url(#clipPath11047)"><text
           transform="matrix(1,0,0,-1,142.25,469.08)"
           style="font-variant:normal;font-weight:normal;font-size:26.8560009px;font-family:Calibri;-inkscape-font-specification:Calibri;writing-mode:lr-tb;fill:#595959;fill-opacity:1;fill-rule:nonzero;stroke:none"
           id="text11051"><tspan
             x="0 13.105728 27.070848 40.445137 49.334473 61.983646 74.149414 80.11145 95.661072 107.88055 120.74458 126.92146 140.91344 151.22614 160.2229 165.91637 178.24327 192.34267 204.45473 217.31876 226.6915 232.68039 243.9599 256.98508 268.90912 282.28342 288.4603 298.961 305.03046 311.20734 325.1456 331.13449 345.74414 354.76776 368.14206 381.00607 393.09128 400.87952 413.74353 424.02939 433.02615 438.7196 452.95331 466.32758 475.21692 488.59122 501.45523 507.63211"
             y="0"
             sodipodi:role="line"
             id="tspan11053">Energy Against Sugar Levels in Breakfast Cereals</tspan></text>
</g></g></g></svg>