<?xml version="1.0" encoding="UTF-8" standalone="no"?>
<!-- Created with Inkscape (http://www.inkscape.org/) -->

<svg
   xmlns:dc="http://purl.org/dc/elements/1.1/"
   xmlns:cc="http://creativecommons.org/ns#"
   xmlns:rdf="http://www.w3.org/1999/02/22-rdf-syntax-ns#"
   xmlns:svg="http://www.w3.org/2000/svg"
   xmlns="http://www.w3.org/2000/svg"
   xmlns:sodipodi="http://sodipodi.sourceforge.net/DTD/sodipodi-0.dtd"
   xmlns:inkscape="http://www.inkscape.org/namespaces/inkscape"
   id="svg3877"
   version="1.1"
   inkscape:version="0.91 r13725"
   xml:space="preserve"
   width="618.138"
   height="430.79999"
   viewBox="0 0 618.138 430.79998"
   sodipodi:docname="RelationshipNone.svg"><metadata
     id="metadata3883"><rdf:RDF><cc:Work
         rdf:about=""><dc:format>image/svg+xml</dc:format><dc:type
           rdf:resource="http://purl.org/dc/dcmitype/StillImage" /><dc:title></dc:title></cc:Work></rdf:RDF></metadata><defs
     id="defs3881"><clipPath
       clipPathUnits="userSpaceOnUse"
       id="clipPath3891"><path
         d="m 50.4,228.36 494.52,0 0,344.64 -494.52,0 0,-344.64 z"
         id="path3893"
         inkscape:connector-curvature="0"
         style="clip-rule:evenodd" /></clipPath><clipPath
       clipPathUnits="userSpaceOnUse"
       id="clipPath3901"><path
         d="m 50.4,228.36 494.52,0 0,344.64 -494.52,0 0,-344.64 z"
         id="path3903"
         inkscape:connector-curvature="0"
         style="clip-rule:evenodd" /></clipPath><clipPath
       clipPathUnits="userSpaceOnUse"
       id="clipPath4005"><path
         d="m 51.36,229.2 492.72,0 0,342.6 -492.72,0 0,-342.6 z"
         id="path4007"
         inkscape:connector-curvature="0"
         style="clip-rule:evenodd" /></clipPath><clipPath
       clipPathUnits="userSpaceOnUse"
       id="clipPath4017"><path
         d="m 51.36,229.2 492.72,0 0,342.6 -492.72,0 0,-342.6 z"
         id="path4019"
         inkscape:connector-curvature="0"
         style="clip-rule:evenodd" /></clipPath><clipPath
       clipPathUnits="userSpaceOnUse"
       id="clipPath4029"><path
         d="m 51.36,229.2 492.72,0 0,342.6 -492.72,0 0,-342.6 z"
         id="path4031"
         inkscape:connector-curvature="0"
         style="clip-rule:evenodd" /></clipPath><clipPath
       clipPathUnits="userSpaceOnUse"
       id="clipPath4041"><path
         d="m 51.36,229.2 492.72,0 0,342.6 -492.72,0 0,-342.6 z"
         id="path4043"
         inkscape:connector-curvature="0"
         style="clip-rule:evenodd" /></clipPath><clipPath
       clipPathUnits="userSpaceOnUse"
       id="clipPath4053"><path
         d="m 51.36,229.2 492.72,0 0,342.6 -492.72,0 0,-342.6 z"
         id="path4055"
         inkscape:connector-curvature="0"
         style="clip-rule:evenodd" /></clipPath><clipPath
       clipPathUnits="userSpaceOnUse"
       id="clipPath4065"><path
         d="m 51.36,229.2 492.72,0 0,342.6 -492.72,0 0,-342.6 z"
         id="path4067"
         inkscape:connector-curvature="0"
         style="clip-rule:evenodd" /></clipPath><clipPath
       clipPathUnits="userSpaceOnUse"
       id="clipPath4077"><path
         d="m 51.36,229.2 492.72,0 0,342.6 -492.72,0 0,-342.6 z"
         id="path4079"
         inkscape:connector-curvature="0"
         style="clip-rule:evenodd" /></clipPath><clipPath
       clipPathUnits="userSpaceOnUse"
       id="clipPath4089"><path
         d="m 51.36,229.2 492.72,0 0,342.6 -492.72,0 0,-342.6 z"
         id="path4091"
         inkscape:connector-curvature="0"
         style="clip-rule:evenodd" /></clipPath><clipPath
       clipPathUnits="userSpaceOnUse"
       id="clipPath4101"><path
         d="m 51.36,229.2 492.72,0 0,342.6 -492.72,0 0,-342.6 z"
         id="path4103"
         inkscape:connector-curvature="0"
         style="clip-rule:evenodd" /></clipPath><clipPath
       clipPathUnits="userSpaceOnUse"
       id="clipPath4113"><path
         d="m 51.36,229.2 492.72,0 0,342.6 -492.72,0 0,-342.6 z"
         id="path4115"
         inkscape:connector-curvature="0"
         style="clip-rule:evenodd" /></clipPath><clipPath
       clipPathUnits="userSpaceOnUse"
       id="clipPath4125"><path
         d="m 51.36,229.2 492.72,0 0,342.6 -492.72,0 0,-342.6 z"
         id="path4127"
         inkscape:connector-curvature="0"
         style="clip-rule:evenodd" /></clipPath><clipPath
       clipPathUnits="userSpaceOnUse"
       id="clipPath4137"><path
         d="m 51.36,229.2 492.72,0 0,342.6 -492.72,0 0,-342.6 z"
         id="path4139"
         inkscape:connector-curvature="0"
         style="clip-rule:evenodd" /></clipPath><clipPath
       clipPathUnits="userSpaceOnUse"
       id="clipPath4149"><path
         d="m 50.4,228.36 494.52,0 0,344.64 -494.52,0 0,-344.64 z"
         id="path4151"
         inkscape:connector-curvature="0"
         style="clip-rule:evenodd" /></clipPath></defs><sodipodi:namedview
     pagecolor="#ffffff"
     bordercolor="#666666"
     borderopacity="1"
     objecttolerance="10"
     gridtolerance="10"
     guidetolerance="10"
     inkscape:pageopacity="0"
     inkscape:pageshadow="2"
     inkscape:window-width="786"
     inkscape:window-height="480"
     id="namedview3879"
     showgrid="false"
     inkscape:zoom="0.31713644"
     inkscape:cx="-50.963867"
     inkscape:cy="341.47098"
     inkscape:window-x="0"
     inkscape:window-y="0"
     inkscape:window-maximized="0"
     inkscape:current-layer="g3885" /><g
     id="g3885"
     inkscape:groupmode="layer"
     inkscape:label="RelationshipNone"
     transform="matrix(1.25,0,0,-1.25,0,430.79998)"><g
       id="g3887"
       transform="translate(-50.4,-228.36002)"><g
         id="g3889"
         clip-path="url(#clipPath3891)"><path
           d="m -418.9,230.19 489.54,0 0,342.48 -489.54,0 0,-342.48 z"
           style="fill:#ffffff;fill-opacity:1;fill-rule:evenodd;stroke:none"
           id="path3895"
           inkscape:connector-curvature="0" /></g></g><path
       d="m 58.66,96.40998 400.83,0 m -400.83,44.58 400.83,0 m -400.83,44.57 400.83,0 m -400.83,44.57 400.83,0 m -400.83,44.57 400.83,0 m -400.83,44.66 400.83,0"
       style="fill:none;stroke:#d9d9d9;stroke-width:1.64839995;stroke-linecap:butt;stroke-linejoin:round;stroke-miterlimit:10;stroke-dasharray:none;stroke-opacity:1"
       id="path3909"
       inkscape:connector-curvature="0" /><path
       d="m 142.27,319.35998 0,-267.6 m 83.34,267.6 0,-267.6 m 83.61,267.6 0,-267.6 m 83.46,267.6 0,-267.6"
       style="fill:none;stroke:#d9d9d9;stroke-width:1.64839995;stroke-linecap:butt;stroke-linejoin:round;stroke-miterlimit:10;stroke-dasharray:none;stroke-opacity:1"
       id="path3911"
       inkscape:connector-curvature="0" /><path
       d="m 58.66,51.75998 0,267.6"
       style="fill:none;stroke:#bfbfbf;stroke-width:1.64839995;stroke-linecap:butt;stroke-linejoin:round;stroke-miterlimit:10;stroke-dasharray:none;stroke-opacity:1"
       id="path3913"
       inkscape:connector-curvature="0" /><path
       d="m 58.66,51.75998 400.83,0"
       style="fill:none;stroke:#bfbfbf;stroke-width:1.64839995;stroke-linecap:butt;stroke-linejoin:round;stroke-miterlimit:10;stroke-dasharray:none;stroke-opacity:1"
       id="path3915"
       inkscape:connector-curvature="0" /><path
       d="m 97.78,202.16998 c 0,-3.06 -2.48,-5.54 -5.54,-5.54 -3.06,0 -5.54,2.48 -5.54,5.54 0,3.06 2.48,5.54 5.54,5.54 3.06,0 5.54,-2.48 5.54,-5.54 z"
       style="fill:#5b9bd5;fill-opacity:1;fill-rule:nonzero;stroke:none"
       id="path3917"
       inkscape:connector-curvature="0" /><path
       d="m 97.78,202.16998 c 0,-3.06 -2.48,-5.54 -5.54,-5.54 -3.06,0 -5.54,2.48 -5.54,5.54 0,3.06 2.48,5.54 5.54,5.54 3.06,0 5.54,-2.48 5.54,-5.54 z"
       style="fill:none;stroke:#5b9bd5;stroke-width:1.58249998;stroke-linecap:butt;stroke-linejoin:round;stroke-miterlimit:10;stroke-dasharray:none;stroke-opacity:1"
       id="path3919"
       inkscape:connector-curvature="0" /><path
       d="m 114.4,200.84998 c 0,-3.06 -2.48,-5.54 -5.54,-5.54 -3.06,0 -5.54,2.48 -5.54,5.54 0,3.06 2.48,5.54 5.54,5.54 3.06,0 5.54,-2.48 5.54,-5.54 z"
       style="fill:#5b9bd5;fill-opacity:1;fill-rule:nonzero;stroke:none"
       id="path3921"
       inkscape:connector-curvature="0" /><path
       d="m 114.4,200.84998 c 0,-3.06 -2.48,-5.54 -5.54,-5.54 -3.06,0 -5.54,2.48 -5.54,5.54 0,3.06 2.48,5.54 5.54,5.54 3.06,0 5.54,-2.48 5.54,-5.54 z"
       style="fill:none;stroke:#5b9bd5;stroke-width:1.58249998;stroke-linecap:butt;stroke-linejoin:round;stroke-miterlimit:10;stroke-dasharray:none;stroke-opacity:1"
       id="path3923"
       inkscape:connector-curvature="0" /><path
       d="m 131.01,200.05998 c 0,-3.06 -2.48,-5.54 -5.54,-5.54 -3.06,0 -5.54,2.48 -5.54,5.54 0,3.06 2.48,5.54 5.54,5.54 3.06,0 5.54,-2.48 5.54,-5.54 z"
       style="fill:#5b9bd5;fill-opacity:1;fill-rule:nonzero;stroke:none"
       id="path3925"
       inkscape:connector-curvature="0" /><path
       d="m 131.01,200.05998 c 0,-3.06 -2.48,-5.54 -5.54,-5.54 -3.06,0 -5.54,2.48 -5.54,5.54 0,3.06 2.48,5.54 5.54,5.54 3.06,0 5.54,-2.48 5.54,-5.54 z"
       style="fill:none;stroke:#5b9bd5;stroke-width:1.58249998;stroke-linecap:butt;stroke-linejoin:round;stroke-miterlimit:10;stroke-dasharray:none;stroke-opacity:1"
       id="path3927"
       inkscape:connector-curvature="0" /><path
       d="m 147.89,121.98998 c 0,-3.06 -2.48,-5.54 -5.54,-5.54 -3.06,0 -5.54,2.48 -5.54,5.54 0,3.06 2.48,5.54 5.54,5.54 3.06,0 5.54,-2.48 5.54,-5.54 z"
       style="fill:#5b9bd5;fill-opacity:1;fill-rule:nonzero;stroke:none"
       id="path3929"
       inkscape:connector-curvature="0" /><path
       d="m 147.89,121.98998 c 0,-3.06 -2.48,-5.54 -5.54,-5.54 -3.06,0 -5.54,2.48 -5.54,5.54 0,3.06 2.48,5.54 5.54,5.54 3.06,0 5.54,-2.48 5.54,-5.54 z"
       style="fill:none;stroke:#5b9bd5;stroke-width:1.58249998;stroke-linecap:butt;stroke-linejoin:round;stroke-miterlimit:10;stroke-dasharray:none;stroke-opacity:1"
       id="path3931"
       inkscape:connector-curvature="0" /><path
       d="m 164.51,172.36998 c 0,-3.06 -2.48,-5.54 -5.54,-5.54 -3.06,0 -5.54,2.48 -5.54,5.54 0,3.05 2.48,5.53 5.54,5.53 3.06,0 5.54,-2.48 5.54,-5.53 z"
       style="fill:#5b9bd5;fill-opacity:1;fill-rule:nonzero;stroke:none"
       id="path3933"
       inkscape:connector-curvature="0" /><path
       d="m 164.51,172.36998 c 0,-3.06 -2.48,-5.54 -5.54,-5.54 -3.06,0 -5.54,2.48 -5.54,5.54 0,3.05 2.48,5.53 5.54,5.53 3.06,0 5.54,-2.48 5.54,-5.53 z"
       style="fill:none;stroke:#5b9bd5;stroke-width:1.58249998;stroke-linecap:butt;stroke-linejoin:round;stroke-miterlimit:10;stroke-dasharray:none;stroke-opacity:1"
       id="path3935"
       inkscape:connector-curvature="0" /><path
       d="m 181.12,168.40998 c 0,-3.06 -2.48,-5.54 -5.54,-5.54 -3.05,0 -5.53,2.48 -5.53,5.54 0,3.06 2.48,5.54 5.53,5.54 3.06,0 5.54,-2.48 5.54,-5.54 z"
       style="fill:#5b9bd5;fill-opacity:1;fill-rule:nonzero;stroke:none"
       id="path3937"
       inkscape:connector-curvature="0" /><path
       d="m 181.12,168.40998 c 0,-3.06 -2.48,-5.54 -5.54,-5.54 -3.05,0 -5.53,2.48 -5.53,5.54 0,3.06 2.48,5.54 5.53,5.54 3.06,0 5.54,-2.48 5.54,-5.54 z"
       style="fill:none;stroke:#5b9bd5;stroke-width:1.58249998;stroke-linecap:butt;stroke-linejoin:round;stroke-miterlimit:10;stroke-dasharray:none;stroke-opacity:1"
       id="path3939"
       inkscape:connector-curvature="0" /><path
       d="m 198,132.27998 c 0,-3.06 -2.48,-5.54 -5.54,-5.54 -3.05,0 -5.53,2.48 -5.53,5.54 0,3.06 2.48,5.54 5.53,5.54 3.06,0 5.54,-2.48 5.54,-5.54 z"
       style="fill:#5b9bd5;fill-opacity:1;fill-rule:nonzero;stroke:none"
       id="path3941"
       inkscape:connector-curvature="0" /><path
       d="m 198,132.27998 c 0,-3.06 -2.48,-5.54 -5.54,-5.54 -3.05,0 -5.53,2.48 -5.53,5.54 0,3.06 2.48,5.54 5.53,5.54 3.06,0 5.54,-2.48 5.54,-5.54 z"
       style="fill:none;stroke:#5b9bd5;stroke-width:1.58249998;stroke-linecap:butt;stroke-linejoin:round;stroke-miterlimit:10;stroke-dasharray:none;stroke-opacity:1"
       id="path3943"
       inkscape:connector-curvature="0" /><path
       d="m 214.62,130.95998 c 0,-3.06 -2.48,-5.54 -5.54,-5.54 -3.06,0 -5.54,2.48 -5.54,5.54 0,3.06 2.48,5.54 5.54,5.54 3.06,0 5.54,-2.48 5.54,-5.54 z"
       style="fill:#5b9bd5;fill-opacity:1;fill-rule:nonzero;stroke:none"
       id="path3945"
       inkscape:connector-curvature="0" /><path
       d="m 214.62,130.95998 c 0,-3.06 -2.48,-5.54 -5.54,-5.54 -3.06,0 -5.54,2.48 -5.54,5.54 0,3.06 2.48,5.54 5.54,5.54 3.06,0 5.54,-2.48 5.54,-5.54 z"
       style="fill:none;stroke:#5b9bd5;stroke-width:1.58249998;stroke-linecap:butt;stroke-linejoin:round;stroke-miterlimit:10;stroke-dasharray:none;stroke-opacity:1"
       id="path3947"
       inkscape:connector-curvature="0" /><path
       d="m 231.23,229.06998 c 0,-3.06 -2.47,-5.54 -5.53,-5.54 -3.06,0 -5.54,2.48 -5.54,5.54 0,3.06 2.48,5.54 5.54,5.54 3.06,0 5.53,-2.48 5.53,-5.54 z"
       style="fill:#5b9bd5;fill-opacity:1;fill-rule:nonzero;stroke:none"
       id="path3949"
       inkscape:connector-curvature="0" /><path
       d="m 231.23,229.06998 c 0,-3.06 -2.47,-5.54 -5.53,-5.54 -3.06,0 -5.54,2.48 -5.54,5.54 0,3.06 2.48,5.54 5.54,5.54 3.06,0 5.53,-2.48 5.53,-5.54 z"
       style="fill:none;stroke:#5b9bd5;stroke-width:1.58249998;stroke-linecap:butt;stroke-linejoin:round;stroke-miterlimit:10;stroke-dasharray:none;stroke-opacity:1"
       id="path3951"
       inkscape:connector-curvature="0" /><path
       d="m 248.11,140.18998 c 0,-3.06 -2.48,-5.54 -5.53,-5.54 -3.06,0 -5.54,2.48 -5.54,5.54 0,3.06 2.48,5.54 5.54,5.54 3.05,0 5.53,-2.48 5.53,-5.54 z"
       style="fill:#5b9bd5;fill-opacity:1;fill-rule:nonzero;stroke:none"
       id="path3953"
       inkscape:connector-curvature="0" /><path
       d="m 248.11,140.18998 c 0,-3.06 -2.48,-5.54 -5.53,-5.54 -3.06,0 -5.54,2.48 -5.54,5.54 0,3.06 2.48,5.54 5.54,5.54 3.05,0 5.53,-2.48 5.53,-5.54 z"
       style="fill:none;stroke:#5b9bd5;stroke-width:1.58249998;stroke-linecap:butt;stroke-linejoin:round;stroke-miterlimit:10;stroke-dasharray:none;stroke-opacity:1"
       id="path3955"
       inkscape:connector-curvature="0" /><path
       d="m 264.73,53.41998 c 0,-3.06 -2.48,-5.54 -5.54,-5.54 -3.06,0 -5.54,2.48 -5.54,5.54 0,3.06 2.48,5.54 5.54,5.54 3.06,0 5.54,-2.48 5.54,-5.54 z"
       style="fill:#5b9bd5;fill-opacity:1;fill-rule:nonzero;stroke:none"
       id="path3957"
       inkscape:connector-curvature="0" /><path
       d="m 264.73,53.41998 c 0,-3.06 -2.48,-5.54 -5.54,-5.54 -3.06,0 -5.54,2.48 -5.54,5.54 0,3.06 2.48,5.54 5.54,5.54 3.06,0 5.54,-2.48 5.54,-5.54 z"
       style="fill:none;stroke:#5b9bd5;stroke-width:1.58249998;stroke-linecap:butt;stroke-linejoin:round;stroke-miterlimit:10;stroke-dasharray:none;stroke-opacity:1"
       id="path3959"
       inkscape:connector-curvature="0" /><path
       d="m 281.35,174.73998 c 0,-3.06 -2.48,-5.54 -5.54,-5.54 -3.06,0 -5.54,2.48 -5.54,5.54 0,3.06 2.48,5.54 5.54,5.54 3.06,0 5.54,-2.48 5.54,-5.54 z"
       style="fill:#5b9bd5;fill-opacity:1;fill-rule:nonzero;stroke:none"
       id="path3961"
       inkscape:connector-curvature="0" /><path
       d="m 281.35,174.73998 c 0,-3.06 -2.48,-5.54 -5.54,-5.54 -3.06,0 -5.54,2.48 -5.54,5.54 0,3.06 2.48,5.54 5.54,5.54 3.06,0 5.54,-2.48 5.54,-5.54 z"
       style="fill:none;stroke:#5b9bd5;stroke-width:1.58249998;stroke-linecap:butt;stroke-linejoin:round;stroke-miterlimit:10;stroke-dasharray:none;stroke-opacity:1"
       id="path3963"
       inkscape:connector-curvature="0" /><path
       d="m 298.23,274.69998 c 0,-3.06 -2.48,-5.54 -5.54,-5.54 -3.06,0 -5.54,2.48 -5.54,5.54 0,3.06 2.48,5.54 5.54,5.54 3.06,0 5.54,-2.48 5.54,-5.54 z"
       style="fill:#5b9bd5;fill-opacity:1;fill-rule:nonzero;stroke:none"
       id="path3965"
       inkscape:connector-curvature="0" /><path
       d="m 298.23,274.69998 c 0,-3.06 -2.48,-5.54 -5.54,-5.54 -3.06,0 -5.54,2.48 -5.54,5.54 0,3.06 2.48,5.54 5.54,5.54 3.06,0 5.54,-2.48 5.54,-5.54 z"
       style="fill:none;stroke:#5b9bd5;stroke-width:1.58249998;stroke-linecap:butt;stroke-linejoin:round;stroke-miterlimit:10;stroke-dasharray:none;stroke-opacity:1"
       id="path3967"
       inkscape:connector-curvature="0" /><path
       d="m 314.84,103.26998 c 0,-3.06 -2.48,-5.54 -5.54,-5.54 -3.06,0 -5.54,2.48 -5.54,5.54 0,3.05 2.48,5.53 5.54,5.53 3.06,0 5.54,-2.48 5.54,-5.53 z"
       style="fill:#5b9bd5;fill-opacity:1;fill-rule:nonzero;stroke:none"
       id="path3969"
       inkscape:connector-curvature="0" /><path
       d="m 314.84,103.26998 c 0,-3.06 -2.48,-5.54 -5.54,-5.54 -3.06,0 -5.54,2.48 -5.54,5.54 0,3.05 2.48,5.53 5.54,5.53 3.06,0 5.54,-2.48 5.54,-5.53 z"
       style="fill:none;stroke:#5b9bd5;stroke-width:1.58249998;stroke-linecap:butt;stroke-linejoin:round;stroke-miterlimit:10;stroke-dasharray:none;stroke-opacity:1"
       id="path3971"
       inkscape:connector-curvature="0" /><path
       d="m 331.46,209.28998 c 0,-3.06 -2.48,-5.54 -5.54,-5.54 -3.06,0 -5.54,2.48 -5.54,5.54 0,3.06 2.48,5.54 5.54,5.54 3.06,0 5.54,-2.48 5.54,-5.54 z"
       style="fill:#5b9bd5;fill-opacity:1;fill-rule:nonzero;stroke:none"
       id="path3973"
       inkscape:connector-curvature="0" /><path
       d="m 331.46,209.28998 c 0,-3.06 -2.48,-5.54 -5.54,-5.54 -3.06,0 -5.54,2.48 -5.54,5.54 0,3.06 2.48,5.54 5.54,5.54 3.06,0 5.54,-2.48 5.54,-5.54 z"
       style="fill:none;stroke:#5b9bd5;stroke-width:1.58249998;stroke-linecap:butt;stroke-linejoin:round;stroke-miterlimit:10;stroke-dasharray:none;stroke-opacity:1"
       id="path3975"
       inkscape:connector-curvature="0" /><path
       d="m 348.07,189.24998 c 0,-3.06 -2.48,-5.54 -5.54,-5.54 -3.05,0 -5.53,2.48 -5.53,5.54 0,3.05 2.48,5.53 5.53,5.53 3.06,0 5.54,-2.48 5.54,-5.53 z"
       style="fill:#5b9bd5;fill-opacity:1;fill-rule:nonzero;stroke:none"
       id="path3977"
       inkscape:connector-curvature="0" /><path
       d="m 348.07,189.24998 c 0,-3.06 -2.48,-5.54 -5.54,-5.54 -3.05,0 -5.53,2.48 -5.53,5.54 0,3.05 2.48,5.53 5.53,5.53 3.06,0 5.54,-2.48 5.54,-5.53 z"
       style="fill:none;stroke:#5b9bd5;stroke-width:1.58249998;stroke-linecap:butt;stroke-linejoin:round;stroke-miterlimit:10;stroke-dasharray:none;stroke-opacity:1"
       id="path3979"
       inkscape:connector-curvature="0" /><path
       d="m 364.95,144.66998 c 0,-3.06 -2.48,-5.54 -5.54,-5.54 -3.05,0 -5.53,2.48 -5.53,5.54 0,3.06 2.48,5.54 5.53,5.54 3.06,0 5.54,-2.48 5.54,-5.54 z"
       style="fill:#5b9bd5;fill-opacity:1;fill-rule:nonzero;stroke:none"
       id="path3981"
       inkscape:connector-curvature="0" /><path
       d="m 364.95,144.66998 c 0,-3.06 -2.48,-5.54 -5.54,-5.54 -3.05,0 -5.53,2.48 -5.53,5.54 0,3.06 2.48,5.54 5.53,5.54 3.06,0 5.54,-2.48 5.54,-5.54 z"
       style="fill:none;stroke:#5b9bd5;stroke-width:1.58249998;stroke-linecap:butt;stroke-linejoin:round;stroke-miterlimit:10;stroke-dasharray:none;stroke-opacity:1"
       id="path3983"
       inkscape:connector-curvature="0" /><path
       d="m 381.57,154.95998 c 0,-3.06 -2.48,-5.54 -5.54,-5.54 -3.06,0 -5.54,2.48 -5.54,5.54 0,3.06 2.48,5.54 5.54,5.54 3.06,0 5.54,-2.48 5.54,-5.54 z"
       style="fill:#5b9bd5;fill-opacity:1;fill-rule:nonzero;stroke:none"
       id="path3985"
       inkscape:connector-curvature="0" /><path
       d="m 381.57,154.95998 c 0,-3.06 -2.48,-5.54 -5.54,-5.54 -3.06,0 -5.54,2.48 -5.54,5.54 0,3.06 2.48,5.54 5.54,5.54 3.06,0 5.54,-2.48 5.54,-5.54 z"
       style="fill:none;stroke:#5b9bd5;stroke-width:1.58249998;stroke-linecap:butt;stroke-linejoin:round;stroke-miterlimit:10;stroke-dasharray:none;stroke-opacity:1"
       id="path3987"
       inkscape:connector-curvature="0" /><path
       d="m 398.18,191.08998 c 0,-3.06 -2.47,-5.54 -5.53,-5.54 -3.06,0 -5.54,2.48 -5.54,5.54 0,3.06 2.48,5.54 5.54,5.54 3.06,0 5.53,-2.48 5.53,-5.54 z"
       style="fill:#5b9bd5;fill-opacity:1;fill-rule:nonzero;stroke:none"
       id="path3989"
       inkscape:connector-curvature="0" /><path
       d="m 398.18,191.08998 c 0,-3.06 -2.47,-5.54 -5.53,-5.54 -3.06,0 -5.54,2.48 -5.54,5.54 0,3.06 2.48,5.54 5.54,5.54 3.06,0 5.53,-2.48 5.53,-5.54 z"
       style="fill:none;stroke:#5b9bd5;stroke-width:1.58249998;stroke-linecap:butt;stroke-linejoin:round;stroke-miterlimit:10;stroke-dasharray:none;stroke-opacity:1"
       id="path3991"
       inkscape:connector-curvature="0" /><path
       d="m 415.06,190.29998 c 0,-3.06 -2.48,-5.54 -5.53,-5.54 -3.06,0 -5.54,2.48 -5.54,5.54 0,3.06 2.48,5.54 5.54,5.54 3.05,0 5.53,-2.48 5.53,-5.54 z"
       style="fill:#5b9bd5;fill-opacity:1;fill-rule:nonzero;stroke:none"
       id="path3993"
       inkscape:connector-curvature="0" /><path
       d="m 415.06,190.29998 c 0,-3.06 -2.48,-5.54 -5.53,-5.54 -3.06,0 -5.54,2.48 -5.54,5.54 0,3.06 2.48,5.54 5.54,5.54 3.05,0 5.53,-2.48 5.53,-5.54 z"
       style="fill:none;stroke:#5b9bd5;stroke-width:1.58249998;stroke-linecap:butt;stroke-linejoin:round;stroke-miterlimit:10;stroke-dasharray:none;stroke-opacity:1"
       id="path3995"
       inkscape:connector-curvature="0" /><path
       d="m 431.68,224.84998 c 0,-3.06 -2.48,-5.54 -5.54,-5.54 -3.06,0 -5.54,2.48 -5.54,5.54 0,3.06 2.48,5.54 5.54,5.54 3.06,0 5.54,-2.48 5.54,-5.54 z"
       style="fill:#5b9bd5;fill-opacity:1;fill-rule:nonzero;stroke:none"
       id="path3997"
       inkscape:connector-curvature="0" /><path
       d="m 431.68,224.84998 c 0,-3.06 -2.48,-5.54 -5.54,-5.54 -3.06,0 -5.54,2.48 -5.54,5.54 0,3.06 2.48,5.54 5.54,5.54 3.06,0 5.54,-2.48 5.54,-5.54 z"
       style="fill:none;stroke:#5b9bd5;stroke-width:1.58249998;stroke-linecap:butt;stroke-linejoin:round;stroke-miterlimit:10;stroke-dasharray:none;stroke-opacity:1"
       id="path3999"
       inkscape:connector-curvature="0" /><g
       id="g4001"
       transform="translate(-50.4,-228.36002)"><g
         id="g4003"
         clip-path="url(#clipPath4005)"><text
           transform="matrix(1,0,0,-1,80.712,274.49)"
           style="font-variant:normal;font-weight:normal;font-size:19.79999924px;font-family:Calibri;-inkscape-font-specification:Calibri;writing-mode:lr-tb;fill:#595959;fill-opacity:1;fill-rule:nonzero;stroke:none"
           id="text4009"><tspan
             x="0"
             y="0"
             id="tspan4011">0</tspan></text>
</g></g><g
       id="g4013"
       transform="translate(-50.4,-228.36002)"><g
         id="g4015"
         clip-path="url(#clipPath4017)"><text
           transform="matrix(1,0,0,-1,65.688,319.08)"
           style="font-variant:normal;font-weight:normal;font-size:19.77599907px;font-family:Calibri;-inkscape-font-specification:Calibri;writing-mode:lr-tb;fill:#595959;fill-opacity:1;fill-rule:nonzero;stroke:none"
           id="text4021"><tspan
             x="0 10.026432 15.009984"
             y="0"
             sodipodi:role="line"
             id="tspan4023">0.2</tspan></text>
</g></g><g
       id="g4025"
       transform="translate(-50.4,-228.36002)"><g
         id="g4027"
         clip-path="url(#clipPath4029)"><text
           transform="matrix(1,0,0,-1,65.688,363.7)"
           style="font-variant:normal;font-weight:normal;font-size:19.79999924px;font-family:Calibri;-inkscape-font-specification:Calibri;writing-mode:lr-tb;fill:#595959;fill-opacity:1;fill-rule:nonzero;stroke:none"
           id="text4033"><tspan
             x="0 10.0386 15.0282"
             y="0"
             sodipodi:role="line"
             id="tspan4035">0.4</tspan></text>
</g></g><g
       id="g4037"
       transform="translate(-50.4,-228.36002)"><g
         id="g4039"
         clip-path="url(#clipPath4041)"><text
           transform="matrix(1,0,0,-1,65.688,408.29)"
           style="font-variant:normal;font-weight:normal;font-size:19.77599907px;font-family:Calibri;-inkscape-font-specification:Calibri;writing-mode:lr-tb;fill:#595959;fill-opacity:1;fill-rule:nonzero;stroke:none"
           id="text4045"><tspan
             x="0 10.026432 15.009984"
             y="0"
             sodipodi:role="line"
             id="tspan4047">0.6</tspan></text>
</g></g><g
       id="g4049"
       transform="translate(-50.4,-228.36002)"><g
         id="g4051"
         clip-path="url(#clipPath4053)"><text
           transform="matrix(1,0,0,-1,65.688,452.9)"
           style="font-variant:normal;font-weight:normal;font-size:19.77599907px;font-family:Calibri;-inkscape-font-specification:Calibri;writing-mode:lr-tb;fill:#595959;fill-opacity:1;fill-rule:nonzero;stroke:none"
           id="text4057"><tspan
             x="0 10.026432 15.009984"
             y="0"
             sodipodi:role="line"
             id="tspan4059">0.8</tspan></text>
</g></g><g
       id="g4061"
       transform="translate(-50.4,-228.36002)"><g
         id="g4063"
         clip-path="url(#clipPath4065)"><text
           transform="matrix(1,0,0,-1,80.712,497.52)"
           style="font-variant:normal;font-weight:normal;font-size:19.79999924px;font-family:Calibri;-inkscape-font-specification:Calibri;writing-mode:lr-tb;fill:#595959;fill-opacity:1;fill-rule:nonzero;stroke:none"
           id="text4069"><tspan
             x="0"
             y="0"
             id="tspan4071">1</tspan></text>
</g></g><g
       id="g4073"
       transform="translate(-50.4,-228.36002)"><g
         id="g4075"
         clip-path="url(#clipPath4077)"><text
           transform="matrix(1,0,0,-1,65.688,542.11)"
           style="font-variant:normal;font-weight:normal;font-size:19.77599907px;font-family:Calibri;-inkscape-font-specification:Calibri;writing-mode:lr-tb;fill:#595959;fill-opacity:1;fill-rule:nonzero;stroke:none"
           id="text4081"><tspan
             x="0 10.026432 15.009984"
             y="0"
             sodipodi:role="line"
             id="tspan4083">1.2</tspan></text>
</g></g><g
       id="g4085"
       transform="translate(-50.4,-228.36002)"><g
         id="g4087"
         clip-path="url(#clipPath4089)"><text
           transform="matrix(1,0,0,-1,104.06,248.76)"
           style="font-variant:normal;font-weight:normal;font-size:19.77599907px;font-family:Calibri;-inkscape-font-specification:Calibri;writing-mode:lr-tb;fill:#595959;fill-opacity:1;fill-rule:nonzero;stroke:none"
           id="text4093"><tspan
             x="0"
             y="0"
             id="tspan4095">8</tspan></text>
</g></g><g
       id="g4097"
       transform="translate(-50.4,-228.36002)"><g
         id="g4099"
         clip-path="url(#clipPath4101)"><text
           transform="matrix(1,0,0,-1,182.57,248.76)"
           style="font-variant:normal;font-weight:normal;font-size:19.77599907px;font-family:Calibri;-inkscape-font-specification:Calibri;writing-mode:lr-tb;fill:#595959;fill-opacity:1;fill-rule:nonzero;stroke:none"
           id="text4105"><tspan
             x="0 10.032002"
             y="0"
             sodipodi:role="line"
             id="tspan4107">13</tspan></text>
</g></g><g
       id="g4109"
       transform="translate(-50.4,-228.36002)"><g
         id="g4111"
         clip-path="url(#clipPath4113)"><text
           transform="matrix(1,0,0,-1,266.09,248.76)"
           style="font-variant:normal;font-weight:normal;font-size:19.77599907px;font-family:Calibri;-inkscape-font-specification:Calibri;writing-mode:lr-tb;fill:#595959;fill-opacity:1;fill-rule:nonzero;stroke:none"
           id="text4117"><tspan
             x="0 10.032002"
             y="0"
             sodipodi:role="line"
             id="tspan4119">18</tspan></text>
</g></g><g
       id="g4121"
       transform="translate(-50.4,-228.36002)"><g
         id="g4123"
         clip-path="url(#clipPath4125)"><text
           transform="matrix(1,0,0,-1,349.63,248.76)"
           style="font-variant:normal;font-weight:normal;font-size:19.77599907px;font-family:Calibri;-inkscape-font-specification:Calibri;writing-mode:lr-tb;fill:#595959;fill-opacity:1;fill-rule:nonzero;stroke:none"
           id="text4129"><tspan
             x="0 10.008032"
             y="0"
             sodipodi:role="line"
             id="tspan4131">23</tspan></text>
</g></g><g
       id="g4133"
       transform="translate(-50.4,-228.36002)"><g
         id="g4135"
         clip-path="url(#clipPath4137)"><text
           transform="matrix(1,0,0,-1,433.15,248.76)"
           style="font-variant:normal;font-weight:normal;font-size:19.77599907px;font-family:Calibri;-inkscape-font-specification:Calibri;writing-mode:lr-tb;fill:#595959;fill-opacity:1;fill-rule:nonzero;stroke:none"
           id="text4141"><tspan
             x="0 10.008032"
             y="0"
             sodipodi:role="line"
             id="tspan4143">28</tspan></text>
</g></g></g></svg>