<?xml version="1.0" encoding="UTF-8" standalone="no"?>
<!-- Created with Inkscape (http://www.inkscape.org/) -->

<svg
   xmlns:dc="http://purl.org/dc/elements/1.1/"
   xmlns:cc="http://creativecommons.org/ns#"
   xmlns:rdf="http://www.w3.org/1999/02/22-rdf-syntax-ns#"
   xmlns:svg="http://www.w3.org/2000/svg"
   xmlns="http://www.w3.org/2000/svg"
   xmlns:sodipodi="http://sodipodi.sourceforge.net/DTD/sodipodi-0.dtd"
   xmlns:inkscape="http://www.inkscape.org/namespaces/inkscape"
   id="svg4136"
   version="1.1"
   inkscape:version="0.91 r13725"
   xml:space="preserve"
   width="650.078"
   height="355.216"
   viewBox="0 0 650.078 355.21602"
   sodipodi:docname="IceCreamScatter.svg"><metadata
     id="metadata4142"><rdf:RDF><cc:Work
         rdf:about=""><dc:format>image/svg+xml</dc:format><dc:type
           rdf:resource="http://purl.org/dc/dcmitype/StillImage" /><dc:title></dc:title></cc:Work></rdf:RDF></metadata><defs
     id="defs4140"><clipPath
       clipPathUnits="userSpaceOnUse"
       id="clipPath4280"><path
         d="m 53.684,280.29 519.16,0 0,283.2 -519.16,0 0,-283.2 z"
         id="path4282"
         inkscape:connector-curvature="0"
         style="clip-rule:evenodd" /></clipPath><clipPath
       clipPathUnits="userSpaceOnUse"
       id="clipPath4292"><path
         d="m 53.684,280.29 519.16,0 0,283.2 -519.16,0 0,-283.2 z"
         id="path4294"
         inkscape:connector-curvature="0"
         style="clip-rule:evenodd" /></clipPath><clipPath
       clipPathUnits="userSpaceOnUse"
       id="clipPath4304"><path
         d="m 53.684,280.29 519.16,0 0,283.2 -519.16,0 0,-283.2 z"
         id="path4306"
         inkscape:connector-curvature="0"
         style="clip-rule:evenodd" /></clipPath><clipPath
       clipPathUnits="userSpaceOnUse"
       id="clipPath4316"><path
         d="m 53.684,280.29 519.16,0 0,283.2 -519.16,0 0,-283.2 z"
         id="path4318"
         inkscape:connector-curvature="0"
         style="clip-rule:evenodd" /></clipPath><clipPath
       clipPathUnits="userSpaceOnUse"
       id="clipPath4328"><path
         d="m 53.684,280.29 519.16,0 0,283.2 -519.16,0 0,-283.2 z"
         id="path4330"
         inkscape:connector-curvature="0"
         style="clip-rule:evenodd" /></clipPath><clipPath
       clipPathUnits="userSpaceOnUse"
       id="clipPath4340"><path
         d="m 53.684,280.29 519.16,0 0,283.2 -519.16,0 0,-283.2 z"
         id="path4342"
         inkscape:connector-curvature="0"
         style="clip-rule:evenodd" /></clipPath><clipPath
       clipPathUnits="userSpaceOnUse"
       id="clipPath4352"><path
         d="m 53.684,280.29 519.16,0 0,283.2 -519.16,0 0,-283.2 z"
         id="path4354"
         inkscape:connector-curvature="0"
         style="clip-rule:evenodd" /></clipPath><clipPath
       clipPathUnits="userSpaceOnUse"
       id="clipPath4364"><path
         d="m 53.684,280.29 519.16,0 0,283.2 -519.16,0 0,-283.2 z"
         id="path4366"
         inkscape:connector-curvature="0"
         style="clip-rule:evenodd" /></clipPath><clipPath
       clipPathUnits="userSpaceOnUse"
       id="clipPath4376"><path
         d="m 53.684,280.29 519.16,0 0,283.2 -519.16,0 0,-283.2 z"
         id="path4378"
         inkscape:connector-curvature="0"
         style="clip-rule:evenodd" /></clipPath><clipPath
       clipPathUnits="userSpaceOnUse"
       id="clipPath4388"><path
         d="m 53.684,280.29 519.16,0 0,283.2 -519.16,0 0,-283.2 z"
         id="path4390"
         inkscape:connector-curvature="0"
         style="clip-rule:evenodd" /></clipPath><clipPath
       clipPathUnits="userSpaceOnUse"
       id="clipPath4400"><path
         d="m 53.684,280.29 519.16,0 0,283.2 -519.16,0 0,-283.2 z"
         id="path4402"
         inkscape:connector-curvature="0"
         style="clip-rule:evenodd" /></clipPath><clipPath
       clipPathUnits="userSpaceOnUse"
       id="clipPath4412"><path
         d="m 53.684,280.29 519.16,0 0,283.2 -519.16,0 0,-283.2 z"
         id="path4414"
         inkscape:connector-curvature="0"
         style="clip-rule:evenodd" /></clipPath><clipPath
       clipPathUnits="userSpaceOnUse"
       id="clipPath4424"><path
         d="m 53.684,280.29 519.16,0 0,283.2 -519.16,0 0,-283.2 z"
         id="path4426"
         inkscape:connector-curvature="0"
         style="clip-rule:evenodd" /></clipPath><clipPath
       clipPathUnits="userSpaceOnUse"
       id="clipPath4436"><path
         d="m 53.684,280.29 519.16,0 0,283.2 -519.16,0 0,-283.2 z"
         id="path4438"
         inkscape:connector-curvature="0"
         style="clip-rule:evenodd" /></clipPath><clipPath
       clipPathUnits="userSpaceOnUse"
       id="clipPath4448"><path
         d="m 53.684,280.29 519.16,0 0,283.2 -519.16,0 0,-283.2 z"
         id="path4450"
         inkscape:connector-curvature="0"
         style="clip-rule:evenodd" /></clipPath><clipPath
       clipPathUnits="userSpaceOnUse"
       id="clipPath4460"><path
         d="m 53.684,280.29 519.16,0 0,283.2 -519.16,0 0,-283.2 z"
         id="path4462"
         inkscape:connector-curvature="0"
         style="clip-rule:evenodd" /></clipPath><clipPath
       clipPathUnits="userSpaceOnUse"
       id="clipPath4472"><path
         d="m 53.684,280.29 519.16,0 0,283.2 -519.16,0 0,-283.2 z"
         id="path4474"
         inkscape:connector-curvature="0"
         style="clip-rule:evenodd" /></clipPath><clipPath
       clipPathUnits="userSpaceOnUse"
       id="clipPath4484"><path
         d="m 53.684,280.29 519.16,0 0,283.2 -519.16,0 0,-283.2 z"
         id="path4486"
         inkscape:connector-curvature="0"
         style="clip-rule:evenodd" /></clipPath><clipPath
       clipPathUnits="userSpaceOnUse"
       id="clipPath4496"><path
         d="m 53.684,280.29 519.16,0 0,283.2 -519.16,0 0,-283.2 z"
         id="path4498"
         inkscape:connector-curvature="0"
         style="clip-rule:evenodd" /></clipPath><clipPath
       clipPathUnits="userSpaceOnUse"
       id="clipPath4508"><path
         d="m 53.684,280.29 519.16,0 0,283.2 -519.16,0 0,-283.2 z"
         id="path4510"
         inkscape:connector-curvature="0"
         style="clip-rule:evenodd" /></clipPath><clipPath
       clipPathUnits="userSpaceOnUse"
       id="clipPath4520"><path
         d="m 53.053,279.66 520.17,0 0,284.21 -520.17,0 0,-284.21 z"
         id="path4522"
         inkscape:connector-curvature="0"
         style="clip-rule:evenodd" /></clipPath></defs><sodipodi:namedview
     pagecolor="#ffffff"
     bordercolor="#666666"
     borderopacity="1"
     objecttolerance="10"
     gridtolerance="10"
     guidetolerance="10"
     inkscape:pageopacity="0"
     inkscape:pageshadow="2"
     inkscape:window-width="1920"
     inkscape:window-height="1018"
     id="namedview4138"
     showgrid="false"
     inkscape:zoom="0.7662801"
     inkscape:cx="394.02877"
     inkscape:cy="397.37428"
     inkscape:window-x="-8"
     inkscape:window-y="-8"
     inkscape:window-maximized="1"
     inkscape:current-layer="g4144" /><g
     id="g4144"
     inkscape:groupmode="layer"
     inkscape:label="IceCreamScatter"
     transform="matrix(1.25,0,0,-1.25,0,355.21605)"><path
       d="m 94.9491,76.440039 407.6,0 m -407.6,19.38 407.6,0 m -407.6,19.380001 407.6,0 m -407.6,19.38 407.6,0 m -407.6,19.56 407.6,0 m -407.6,19.38 407.6,0 m -407.6,19.38 407.6,0 m -407.6,19.43 407.6,0"
       style="fill:none;stroke:#d9d9d9;stroke-width:1.04620004;stroke-linecap:butt;stroke-linejoin:round;stroke-miterlimit:10;stroke-dasharray:none;stroke-opacity:1"
       id="path4148"
       inkscape:connector-curvature="0" /><path
       d="m 162.9291,212.33004 0,-155.370001 m 67.83,155.370001 0,-155.370001 m 68.01,155.370001 0,-155.370001 m 67.83,155.370001 0,-155.370001 m 68.01,155.370001 0,-155.370001 m 67.94,155.370001 0,-155.370001"
       style="fill:none;stroke:#d9d9d9;stroke-width:1.04620004;stroke-linecap:butt;stroke-linejoin:round;stroke-miterlimit:10;stroke-dasharray:none;stroke-opacity:1"
       id="path4150"
       inkscape:connector-curvature="0" /><path
       d="m 94.9491,56.960039 0,155.370001"
       style="fill:none;stroke:#bfbfbf;stroke-width:1.04620004;stroke-linecap:butt;stroke-linejoin:round;stroke-miterlimit:10;stroke-dasharray:none;stroke-opacity:1"
       id="path4152"
       inkscape:connector-curvature="0" /><path
       d="m 94.9491,56.960039 407.6,0"
       style="fill:none;stroke:#bfbfbf;stroke-width:1.04620004;stroke-linecap:butt;stroke-linejoin:round;stroke-miterlimit:10;stroke-dasharray:none;stroke-opacity:1"
       id="path4154"
       inkscape:connector-curvature="0" /><path
       d="m 241.0491,129.12004 c 0,-1.95 -1.58,-3.53 -3.53,-3.53 -1.94,0 -3.52,1.58 -3.52,3.53 0,1.94 1.58,3.52 3.52,3.52 1.95,0 3.53,-1.58 3.53,-3.52 z"
       style="fill:#5b9bd5;fill-opacity:1;fill-rule:nonzero;stroke:none"
       id="path4156"
       inkscape:connector-curvature="0" /><path
       d="m 241.0491,129.12004 c 0,-1.95 -1.58,-3.53 -3.53,-3.53 -1.94,0 -3.52,1.58 -3.52,3.53 0,1.94 1.58,3.52 3.52,3.52 1.95,0 3.53,-1.58 3.53,-3.52 z"
       style="fill:none;stroke:#5b9bd5;stroke-width:1.05719995;stroke-linecap:butt;stroke-linejoin:round;stroke-miterlimit:10;stroke-dasharray:none;stroke-opacity:1"
       id="path4158"
       inkscape:connector-curvature="0" /><path
       d="m 343.0691,124.54004 c 0,-1.95 -1.57,-3.53 -3.52,-3.53 -1.95,0 -3.52,1.58 -3.52,3.53 0,1.94 1.57,3.52 3.52,3.52 1.95,0 3.52,-1.58 3.52,-3.52 z"
       style="fill:#5b9bd5;fill-opacity:1;fill-rule:nonzero;stroke:none"
       id="path4160"
       inkscape:connector-curvature="0" /><path
       d="m 343.0691,124.54004 c 0,-1.95 -1.57,-3.53 -3.52,-3.53 -1.95,0 -3.52,1.58 -3.52,3.53 0,1.94 1.57,3.52 3.52,3.52 1.95,0 3.52,-1.58 3.52,-3.52 z"
       style="fill:none;stroke:#5b9bd5;stroke-width:1.05719995;stroke-linecap:butt;stroke-linejoin:round;stroke-miterlimit:10;stroke-dasharray:none;stroke-opacity:1"
       id="path4162"
       inkscape:connector-curvature="0" /><path
       d="m 390.6491,131.94004 c 0,-1.95 -1.58,-3.53 -3.52,-3.53 -1.95,0 -3.53,1.58 -3.53,3.53 0,1.94 1.58,3.52 3.53,3.52 1.94,0 3.52,-1.58 3.52,-3.52 z"
       style="fill:#5b9bd5;fill-opacity:1;fill-rule:nonzero;stroke:none"
       id="path4164"
       inkscape:connector-curvature="0" /><path
       d="m 390.6491,131.94004 c 0,-1.95 -1.58,-3.53 -3.52,-3.53 -1.95,0 -3.53,1.58 -3.53,3.53 0,1.94 1.58,3.52 3.53,3.52 1.94,0 3.52,-1.58 3.52,-3.52 z"
       style="fill:none;stroke:#5b9bd5;stroke-width:1.05719995;stroke-linecap:butt;stroke-linejoin:round;stroke-miterlimit:10;stroke-dasharray:none;stroke-opacity:1"
       id="path4166"
       inkscape:connector-curvature="0" /><path
       d="m 424.4791,144.27004 c 0,-1.94 -1.58,-3.52 -3.52,-3.52 -1.95,0 -3.53,1.58 -3.53,3.52 0,1.95 1.58,3.53 3.53,3.53 1.94,0 3.52,-1.58 3.52,-3.53 z"
       style="fill:#5b9bd5;fill-opacity:1;fill-rule:nonzero;stroke:none"
       id="path4168"
       inkscape:connector-curvature="0" /><path
       d="m 424.4791,144.27004 c 0,-1.94 -1.58,-3.52 -3.52,-3.52 -1.95,0 -3.53,1.58 -3.53,3.52 0,1.95 1.58,3.53 3.53,3.53 1.94,0 3.52,-1.58 3.52,-3.53 z"
       style="fill:none;stroke:#5b9bd5;stroke-width:1.05719995;stroke-linecap:butt;stroke-linejoin:round;stroke-miterlimit:10;stroke-dasharray:none;stroke-opacity:1"
       id="path4170"
       inkscape:connector-curvature="0" /><path
       d="m 431.3491,137.05004 c 0,-1.95 -1.57,-3.53 -3.52,-3.53 -1.95,0 -3.52,1.58 -3.52,3.53 0,1.94 1.57,3.52 3.52,3.52 1.95,0 3.52,-1.58 3.52,-3.52 z"
       style="fill:#5b9bd5;fill-opacity:1;fill-rule:nonzero;stroke:none"
       id="path4172"
       inkscape:connector-curvature="0" /><path
       d="m 431.3491,137.05004 c 0,-1.95 -1.57,-3.53 -3.52,-3.53 -1.95,0 -3.52,1.58 -3.52,3.53 0,1.94 1.57,3.52 3.52,3.52 1.95,0 3.52,-1.58 3.52,-3.52 z"
       style="fill:none;stroke:#5b9bd5;stroke-width:1.05719995;stroke-linecap:butt;stroke-linejoin:round;stroke-miterlimit:10;stroke-dasharray:none;stroke-opacity:1"
       id="path4174"
       inkscape:connector-curvature="0" /><path
       d="m 404.2191,112.91004 c 0,-1.95 -1.58,-3.53 -3.53,-3.53 -1.94,0 -3.52,1.58 -3.52,3.53 0,1.94 1.58,3.52 3.52,3.52 1.95,0 3.53,-1.58 3.53,-3.52 z"
       style="fill:#5b9bd5;fill-opacity:1;fill-rule:nonzero;stroke:none"
       id="path4176"
       inkscape:connector-curvature="0" /><path
       d="m 404.2191,112.91004 c 0,-1.95 -1.58,-3.53 -3.53,-3.53 -1.94,0 -3.52,1.58 -3.52,3.53 0,1.94 1.58,3.52 3.52,3.52 1.95,0 3.53,-1.58 3.53,-3.52 z"
       style="fill:none;stroke:#5b9bd5;stroke-width:1.05719995;stroke-linecap:butt;stroke-linejoin:round;stroke-miterlimit:10;stroke-dasharray:none;stroke-opacity:1"
       id="path4178"
       inkscape:connector-curvature="0" /><path
       d="m 377.0791,106.21004 c 0,-1.95 -1.58,-3.52 -3.52,-3.52 -1.95,0 -3.53,1.57 -3.53,3.52 0,1.95 1.58,3.53 3.53,3.53 1.94,0 3.52,-1.58 3.52,-3.53 z"
       style="fill:#5b9bd5;fill-opacity:1;fill-rule:nonzero;stroke:none"
       id="path4180"
       inkscape:connector-curvature="0" /><path
       d="m 377.0791,106.21004 c 0,-1.95 -1.58,-3.52 -3.52,-3.52 -1.95,0 -3.53,1.57 -3.53,3.52 0,1.95 1.58,3.53 3.53,3.53 1.94,0 3.52,-1.58 3.52,-3.53 z"
       style="fill:none;stroke:#5b9bd5;stroke-width:1.05719995;stroke-linecap:butt;stroke-linejoin:round;stroke-miterlimit:10;stroke-dasharray:none;stroke-opacity:1"
       id="path4182"
       inkscape:connector-curvature="0" /><path
       d="m 281.9291,91.060039 c 0,-1.95 -1.58,-3.53 -3.52,-3.53 -1.95,0 -3.53,1.58 -3.53,3.53 0,1.94 1.58,3.52 3.53,3.52 1.94,0 3.52,-1.58 3.52,-3.52 z"
       style="fill:#5b9bd5;fill-opacity:1;fill-rule:nonzero;stroke:none"
       id="path4184"
       inkscape:connector-curvature="0" /><path
       d="m 281.9291,91.060039 c 0,-1.95 -1.58,-3.53 -3.52,-3.53 -1.95,0 -3.53,1.58 -3.53,3.53 0,1.94 1.58,3.52 3.53,3.52 1.94,0 3.52,-1.58 3.52,-3.52 z"
       style="fill:none;stroke:#5b9bd5;stroke-width:1.05719995;stroke-linecap:butt;stroke-linejoin:round;stroke-miterlimit:10;stroke-dasharray:none;stroke-opacity:1"
       id="path4186"
       inkscape:connector-curvature="0" /><path
       d="m 180.0791,83.830039 c 0,-1.94 -1.58,-3.52 -3.52,-3.52 -1.95,0 -3.53,1.58 -3.53,3.52 0,1.95 1.58,3.53 3.53,3.53 1.94,0 3.52,-1.58 3.52,-3.53 z"
       style="fill:#5b9bd5;fill-opacity:1;fill-rule:nonzero;stroke:none"
       id="path4188"
       inkscape:connector-curvature="0" /><path
       d="m 180.0791,83.830039 c 0,-1.94 -1.58,-3.52 -3.52,-3.52 -1.95,0 -3.53,1.58 -3.53,3.52 0,1.95 1.58,3.53 3.53,3.53 1.94,0 3.52,-1.58 3.52,-3.53 z"
       style="fill:none;stroke:#5b9bd5;stroke-width:1.05719995;stroke-linecap:butt;stroke-linejoin:round;stroke-miterlimit:10;stroke-dasharray:none;stroke-opacity:1"
       id="path4190"
       inkscape:connector-curvature="0" /><path
       d="m 125.6291,78.720039 c 0,-1.94 -1.58,-3.52 -3.52,-3.52 -1.95,0 -3.53,1.58 -3.53,3.52 0,1.95 1.58,3.53 3.53,3.53 1.94,0 3.52,-1.58 3.52,-3.53 z"
       style="fill:#5b9bd5;fill-opacity:1;fill-rule:nonzero;stroke:none"
       id="path4192"
       inkscape:connector-curvature="0" /><path
       d="m 125.6291,78.720039 c 0,-1.94 -1.58,-3.52 -3.52,-3.52 -1.95,0 -3.53,1.58 -3.53,3.52 0,1.95 1.58,3.53 3.53,3.53 1.94,0 3.52,-1.58 3.52,-3.53 z"
       style="fill:none;stroke:#5b9bd5;stroke-width:1.05719995;stroke-linecap:butt;stroke-linejoin:round;stroke-miterlimit:10;stroke-dasharray:none;stroke-opacity:1"
       id="path4194"
       inkscape:connector-curvature="0" /><path
       d="m 152.7691,90.350039 c 0,-1.94 -1.58,-3.52 -3.53,-3.52 -1.94,0 -3.52,1.58 -3.52,3.52 0,1.95 1.58,3.53 3.52,3.53 1.95,0 3.53,-1.58 3.53,-3.53 z"
       style="fill:#5b9bd5;fill-opacity:1;fill-rule:nonzero;stroke:none"
       id="path4196"
       inkscape:connector-curvature="0" /><path
       d="m 152.7691,90.350039 c 0,-1.94 -1.58,-3.52 -3.53,-3.52 -1.94,0 -3.52,1.58 -3.52,3.52 0,1.95 1.58,3.53 3.52,3.53 1.95,0 3.53,-1.58 3.53,-3.53 z"
       style="fill:none;stroke:#5b9bd5;stroke-width:1.05719995;stroke-linecap:butt;stroke-linejoin:round;stroke-miterlimit:10;stroke-dasharray:none;stroke-opacity:1"
       id="path4198"
       inkscape:connector-curvature="0" /><path
       d="m 139.1991,95.110039 c 0,-1.95 -1.58,-3.52 -3.52,-3.52 -1.95,0 -3.53,1.57 -3.53,3.52 0,1.95 1.58,3.52 3.53,3.52 1.94,0 3.52,-1.57 3.52,-3.52 z"
       style="fill:#5b9bd5;fill-opacity:1;fill-rule:nonzero;stroke:none"
       id="path4200"
       inkscape:connector-curvature="0" /><path
       d="m 139.1991,95.110039 c 0,-1.95 -1.58,-3.52 -3.52,-3.52 -1.95,0 -3.53,1.57 -3.53,3.52 0,1.95 1.58,3.52 3.53,3.52 1.94,0 3.52,-1.57 3.52,-3.52 z"
       style="fill:none;stroke:#5b9bd5;stroke-width:1.05719995;stroke-linecap:butt;stroke-linejoin:round;stroke-miterlimit:10;stroke-dasharray:none;stroke-opacity:1"
       id="path4202"
       inkscape:connector-curvature="0" /><path
       d="m 180.0791,107.09004 c 0,-1.94 -1.58,-3.52 -3.52,-3.52 -1.95,0 -3.53,1.58 -3.53,3.52 0,1.95 1.58,3.53 3.53,3.53 1.94,0 3.52,-1.58 3.52,-3.53 z"
       style="fill:#5b9bd5;fill-opacity:1;fill-rule:nonzero;stroke:none"
       id="path4204"
       inkscape:connector-curvature="0" /><path
       d="m 180.0791,107.09004 c 0,-1.94 -1.58,-3.52 -3.52,-3.52 -1.95,0 -3.53,1.58 -3.53,3.52 0,1.95 1.58,3.53 3.53,3.53 1.94,0 3.52,-1.58 3.52,-3.53 z"
       style="fill:none;stroke:#5b9bd5;stroke-width:1.05719995;stroke-linecap:butt;stroke-linejoin:round;stroke-miterlimit:10;stroke-dasharray:none;stroke-opacity:1"
       id="path4206"
       inkscape:connector-curvature="0" /><path
       d="m 234.3491,102.86004 c 0,-1.94 -1.57,-3.520001 -3.52,-3.520001 -1.95,0 -3.53,1.580001 -3.53,3.520001 0,1.95 1.58,3.53 3.53,3.53 1.95,0 3.52,-1.58 3.52,-3.53 z"
       style="fill:#5b9bd5;fill-opacity:1;fill-rule:nonzero;stroke:none"
       id="path4208"
       inkscape:connector-curvature="0" /><path
       d="m 234.3491,102.86004 c 0,-1.94 -1.57,-3.520001 -3.52,-3.520001 -1.95,0 -3.53,1.580001 -3.53,3.520001 0,1.95 1.58,3.53 3.53,3.53 1.95,0 3.52,-1.58 3.52,-3.53 z"
       style="fill:none;stroke:#5b9bd5;stroke-width:1.05719995;stroke-linecap:butt;stroke-linejoin:round;stroke-miterlimit:10;stroke-dasharray:none;stroke-opacity:1"
       id="path4210"
       inkscape:connector-curvature="0" /><path
       d="m 336.1991,127.18004 c 0,-1.95 -1.58,-3.52 -3.52,-3.52 -1.95,0 -3.53,1.57 -3.53,3.52 0,1.95 1.58,3.52 3.53,3.52 1.94,0 3.52,-1.57 3.52,-3.52 z"
       style="fill:#5b9bd5;fill-opacity:1;fill-rule:nonzero;stroke:none"
       id="path4212"
       inkscape:connector-curvature="0" /><path
       d="m 336.1991,127.18004 c 0,-1.95 -1.58,-3.52 -3.52,-3.52 -1.95,0 -3.53,1.57 -3.53,3.52 0,1.95 1.58,3.52 3.53,3.52 1.94,0 3.52,-1.57 3.52,-3.52 z"
       style="fill:none;stroke:#5b9bd5;stroke-width:1.05719995;stroke-linecap:butt;stroke-linejoin:round;stroke-miterlimit:10;stroke-dasharray:none;stroke-opacity:1"
       id="path4214"
       inkscape:connector-curvature="0" /><path
       d="m 390.6491,127.18004 c 0,-1.95 -1.58,-3.52 -3.52,-3.52 -1.95,0 -3.53,1.57 -3.53,3.52 0,1.95 1.58,3.52 3.53,3.52 1.94,0 3.52,-1.57 3.52,-3.52 z"
       style="fill:#5b9bd5;fill-opacity:1;fill-rule:nonzero;stroke:none"
       id="path4216"
       inkscape:connector-curvature="0" /><path
       d="m 390.6491,127.18004 c 0,-1.95 -1.58,-3.52 -3.52,-3.52 -1.95,0 -3.53,1.57 -3.53,3.52 0,1.95 1.58,3.52 3.53,3.52 1.94,0 3.52,-1.57 3.52,-3.52 z"
       style="fill:none;stroke:#5b9bd5;stroke-width:1.05719995;stroke-linecap:butt;stroke-linejoin:round;stroke-miterlimit:10;stroke-dasharray:none;stroke-opacity:1"
       id="path4218"
       inkscape:connector-curvature="0" /><path
       d="m 451.7891,161.89004 c 0,-1.94 -1.57,-3.52 -3.52,-3.52 -1.95,0 -3.52,1.58 -3.52,3.52 0,1.95 1.57,3.53 3.52,3.53 1.95,0 3.52,-1.58 3.52,-3.53 z"
       style="fill:#5b9bd5;fill-opacity:1;fill-rule:nonzero;stroke:none"
       id="path4220"
       inkscape:connector-curvature="0" /><path
       d="m 451.7891,161.89004 c 0,-1.94 -1.57,-3.52 -3.52,-3.52 -1.95,0 -3.52,1.58 -3.52,3.52 0,1.95 1.57,3.53 3.52,3.53 1.95,0 3.52,-1.58 3.52,-3.53 z"
       style="fill:none;stroke:#5b9bd5;stroke-width:1.05719995;stroke-linecap:butt;stroke-linejoin:round;stroke-miterlimit:10;stroke-dasharray:none;stroke-opacity:1"
       id="path4222"
       inkscape:connector-curvature="0" /><path
       d="m 451.7891,151.32004 c 0,-1.95 -1.57,-3.52 -3.52,-3.52 -1.95,0 -3.52,1.57 -3.52,3.52 0,1.95 1.57,3.52 3.52,3.52 1.95,0 3.52,-1.57 3.52,-3.52 z"
       style="fill:#5b9bd5;fill-opacity:1;fill-rule:nonzero;stroke:none"
       id="path4224"
       inkscape:connector-curvature="0" /><path
       d="m 451.7891,151.32004 c 0,-1.95 -1.57,-3.52 -3.52,-3.52 -1.95,0 -3.52,1.57 -3.52,3.52 0,1.95 1.57,3.52 3.52,3.52 1.95,0 3.52,-1.57 3.52,-3.52 z"
       style="fill:none;stroke:#5b9bd5;stroke-width:1.05719995;stroke-linecap:butt;stroke-linejoin:round;stroke-miterlimit:10;stroke-dasharray:none;stroke-opacity:1"
       id="path4226"
       inkscape:connector-curvature="0" /><path
       d="m 417.7891,129.12004 c 0,-1.95 -1.58,-3.53 -3.53,-3.53 -1.94,0 -3.52,1.58 -3.52,3.53 0,1.94 1.58,3.52 3.52,3.52 1.95,0 3.53,-1.58 3.53,-3.52 z"
       style="fill:#5b9bd5;fill-opacity:1;fill-rule:nonzero;stroke:none"
       id="path4228"
       inkscape:connector-curvature="0" /><path
       d="m 417.7891,129.12004 c 0,-1.95 -1.58,-3.53 -3.53,-3.53 -1.94,0 -3.52,1.58 -3.52,3.53 0,1.94 1.58,3.52 3.52,3.52 1.95,0 3.53,-1.58 3.53,-3.52 z"
       style="fill:none;stroke:#5b9bd5;stroke-width:1.05719995;stroke-linecap:butt;stroke-linejoin:round;stroke-miterlimit:10;stroke-dasharray:none;stroke-opacity:1"
       id="path4230"
       inkscape:connector-curvature="0" /><path
       d="m 370.2091,112.03004 c 0,-1.95 -1.58,-3.53 -3.52,-3.53 -1.95,0 -3.53,1.58 -3.53,3.53 0,1.94 1.58,3.52 3.53,3.52 1.94,0 3.52,-1.58 3.52,-3.52 z"
       style="fill:#5b9bd5;fill-opacity:1;fill-rule:nonzero;stroke:none"
       id="path4232"
       inkscape:connector-curvature="0" /><path
       d="m 370.2091,112.03004 c 0,-1.95 -1.58,-3.53 -3.52,-3.53 -1.95,0 -3.53,1.58 -3.53,3.53 0,1.94 1.58,3.52 3.53,3.52 1.94,0 3.52,-1.58 3.52,-3.52 z"
       style="fill:none;stroke:#5b9bd5;stroke-width:1.05719995;stroke-linecap:butt;stroke-linejoin:round;stroke-miterlimit:10;stroke-dasharray:none;stroke-opacity:1"
       id="path4234"
       inkscape:connector-curvature="0" /><path
       d="m 261.4891,103.22004 c 0,-1.95 -1.58,-3.530001 -3.52,-3.530001 -1.95,0 -3.53,1.580001 -3.53,3.530001 0,1.94 1.58,3.52 3.53,3.52 1.94,0 3.52,-1.58 3.52,-3.52 z"
       style="fill:#5b9bd5;fill-opacity:1;fill-rule:nonzero;stroke:none"
       id="path4236"
       inkscape:connector-curvature="0" /><path
       d="m 261.4891,103.22004 c 0,-1.95 -1.58,-3.530001 -3.52,-3.530001 -1.95,0 -3.53,1.580001 -3.53,3.530001 0,1.94 1.58,3.52 3.53,3.52 1.94,0 3.52,-1.58 3.52,-3.52 z"
       style="fill:none;stroke:#5b9bd5;stroke-width:1.05719995;stroke-linecap:butt;stroke-linejoin:round;stroke-miterlimit:10;stroke-dasharray:none;stroke-opacity:1"
       id="path4238"
       inkscape:connector-curvature="0" /><path
       d="m 234.3491,98.460039 c 0,-1.95 -1.57,-3.53 -3.52,-3.53 -1.95,0 -3.53,1.58 -3.53,3.53 0,1.940001 1.58,3.520001 3.53,3.520001 1.95,0 3.52,-1.58 3.52,-3.520001 z"
       style="fill:#5b9bd5;fill-opacity:1;fill-rule:nonzero;stroke:none"
       id="path4240"
       inkscape:connector-curvature="0" /><path
       d="m 234.3491,98.460039 c 0,-1.95 -1.57,-3.53 -3.52,-3.53 -1.95,0 -3.53,1.58 -3.53,3.53 0,1.940001 1.58,3.520001 3.53,3.520001 1.95,0 3.52,-1.58 3.52,-3.520001 z"
       style="fill:none;stroke:#5b9bd5;stroke-width:1.05719995;stroke-linecap:butt;stroke-linejoin:round;stroke-miterlimit:10;stroke-dasharray:none;stroke-opacity:1"
       id="path4242"
       inkscape:connector-curvature="0" /><path
       d="m 180.0791,89.650039 c 0,-1.95 -1.58,-3.53 -3.52,-3.53 -1.95,0 -3.53,1.58 -3.53,3.53 0,1.94 1.58,3.52 3.53,3.52 1.94,0 3.52,-1.58 3.52,-3.52 z"
       style="fill:#5b9bd5;fill-opacity:1;fill-rule:nonzero;stroke:none"
       id="path4244"
       inkscape:connector-curvature="0" /><path
       d="m 180.0791,89.650039 c 0,-1.95 -1.58,-3.53 -3.52,-3.53 -1.95,0 -3.53,1.58 -3.53,3.53 0,1.94 1.58,3.52 3.53,3.52 1.94,0 3.52,-1.58 3.52,-3.52 z"
       style="fill:none;stroke:#5b9bd5;stroke-width:1.05719995;stroke-linecap:butt;stroke-linejoin:round;stroke-miterlimit:10;stroke-dasharray:none;stroke-opacity:1"
       id="path4246"
       inkscape:connector-curvature="0" /><path
       d="m 146.0691,105.86004 c 0,-1.95 -1.58,-3.53 -3.52,-3.53 -1.95,0 -3.53,1.58 -3.53,3.53 0,1.94 1.58,3.52 3.53,3.52 1.94,0 3.52,-1.58 3.52,-3.52 z"
       style="fill:#5b9bd5;fill-opacity:1;fill-rule:nonzero;stroke:none"
       id="path4248"
       inkscape:connector-curvature="0" /><path
       d="m 146.0691,105.86004 c 0,-1.95 -1.58,-3.53 -3.52,-3.53 -1.95,0 -3.53,1.58 -3.53,3.53 0,1.94 1.58,3.52 3.53,3.52 1.94,0 3.52,-1.58 3.52,-3.52 z"
       style="fill:none;stroke:#5b9bd5;stroke-width:1.05719995;stroke-linecap:butt;stroke-linejoin:round;stroke-miterlimit:10;stroke-dasharray:none;stroke-opacity:1"
       id="path4250"
       inkscape:connector-curvature="0" /><path
       d="m 152.7691,99.340039 c 0,-1.95 -1.58,-3.53 -3.53,-3.53 -1.94,0 -3.52,1.58 -3.52,3.53 0,1.950001 1.58,3.520001 3.52,3.520001 1.95,0 3.53,-1.57 3.53,-3.520001 z"
       style="fill:#5b9bd5;fill-opacity:1;fill-rule:nonzero;stroke:none"
       id="path4252"
       inkscape:connector-curvature="0" /><path
       d="m 152.7691,99.340039 c 0,-1.95 -1.58,-3.53 -3.53,-3.53 -1.94,0 -3.52,1.58 -3.52,3.53 0,1.950001 1.58,3.520001 3.52,3.520001 1.95,0 3.53,-1.57 3.53,-3.520001 z"
       style="fill:none;stroke:#5b9bd5;stroke-width:1.05719995;stroke-linecap:butt;stroke-linejoin:round;stroke-miterlimit:10;stroke-dasharray:none;stroke-opacity:1"
       id="path4254"
       inkscape:connector-curvature="0" /><path
       d="m 186.7791,118.72004 c 0,-1.94 -1.58,-3.52 -3.53,-3.52 -1.94,0 -3.52,1.58 -3.52,3.52 0,1.95 1.58,3.53 3.52,3.53 1.95,0 3.53,-1.58 3.53,-3.53 z"
       style="fill:#5b9bd5;fill-opacity:1;fill-rule:nonzero;stroke:none"
       id="path4256"
       inkscape:connector-curvature="0" /><path
       d="m 186.7791,118.72004 c 0,-1.94 -1.58,-3.52 -3.53,-3.52 -1.94,0 -3.52,1.58 -3.52,3.52 0,1.95 1.58,3.53 3.52,3.53 1.95,0 3.53,-1.58 3.53,-3.53 z"
       style="fill:none;stroke:#5b9bd5;stroke-width:1.05719995;stroke-linecap:butt;stroke-linejoin:round;stroke-miterlimit:10;stroke-dasharray:none;stroke-opacity:1"
       id="path4258"
       inkscape:connector-curvature="0" /><path
       d="m 241.0491,125.24004 c 0,-1.94 -1.58,-3.52 -3.53,-3.52 -1.94,0 -3.52,1.58 -3.52,3.52 0,1.95 1.58,3.53 3.52,3.53 1.95,0 3.53,-1.58 3.53,-3.53 z"
       style="fill:#5b9bd5;fill-opacity:1;fill-rule:nonzero;stroke:none"
       id="path4260"
       inkscape:connector-curvature="0" /><path
       d="m 241.0491,125.24004 c 0,-1.94 -1.58,-3.52 -3.53,-3.52 -1.94,0 -3.52,1.58 -3.52,3.52 0,1.95 1.58,3.53 3.52,3.53 1.95,0 3.53,-1.58 3.53,-3.53 z"
       style="fill:none;stroke:#5b9bd5;stroke-width:1.05719995;stroke-linecap:butt;stroke-linejoin:round;stroke-miterlimit:10;stroke-dasharray:none;stroke-opacity:1"
       id="path4262"
       inkscape:connector-curvature="0" /><path
       d="m 315.9391,140.92004 c 0,-1.94 -1.58,-3.52 -3.53,-3.52 -1.94,0 -3.52,1.58 -3.52,3.52 0,1.95 1.58,3.53 3.52,3.53 1.95,0 3.53,-1.58 3.53,-3.53 z"
       style="fill:#5b9bd5;fill-opacity:1;fill-rule:nonzero;stroke:none"
       id="path4264"
       inkscape:connector-curvature="0" /><path
       d="m 315.9391,140.92004 c 0,-1.94 -1.58,-3.52 -3.53,-3.52 -1.94,0 -3.52,1.58 -3.52,3.52 0,1.95 1.58,3.53 3.52,3.53 1.95,0 3.53,-1.58 3.53,-3.53 z"
       style="fill:none;stroke:#5b9bd5;stroke-width:1.05719995;stroke-linecap:butt;stroke-linejoin:round;stroke-miterlimit:10;stroke-dasharray:none;stroke-opacity:1"
       id="path4266"
       inkscape:connector-curvature="0" /><path
       d="m 397.3491,149.03004 c 0,-1.95 -1.58,-3.52 -3.53,-3.52 -1.94,0 -3.52,1.57 -3.52,3.52 0,1.95 1.58,3.52 3.52,3.52 1.95,0 3.53,-1.57 3.53,-3.52 z"
       style="fill:#5b9bd5;fill-opacity:1;fill-rule:nonzero;stroke:none"
       id="path4268"
       inkscape:connector-curvature="0" /><path
       d="m 397.3491,149.03004 c 0,-1.95 -1.58,-3.52 -3.53,-3.52 -1.94,0 -3.52,1.57 -3.52,3.52 0,1.95 1.58,3.52 3.52,3.52 1.95,0 3.53,-1.57 3.53,-3.52 z"
       style="fill:none;stroke:#5b9bd5;stroke-width:1.05719995;stroke-linecap:butt;stroke-linejoin:round;stroke-miterlimit:10;stroke-dasharray:none;stroke-opacity:1"
       id="path4270"
       inkscape:connector-curvature="0" /><path
       d="m 444.9191,192.20004 c 0,-1.95 -1.58,-3.52 -3.52,-3.52 -1.95,0 -3.53,1.57 -3.53,3.52 0,1.95 1.58,3.53 3.53,3.53 1.94,0 3.52,-1.58 3.52,-3.53 z"
       style="fill:#5b9bd5;fill-opacity:1;fill-rule:nonzero;stroke:none"
       id="path4272"
       inkscape:connector-curvature="0" /><path
       d="m 444.9191,192.20004 c 0,-1.95 -1.58,-3.52 -3.52,-3.52 -1.95,0 -3.53,1.57 -3.53,3.52 0,1.95 1.58,3.53 3.53,3.53 1.94,0 3.52,-1.58 3.52,-3.53 z"
       style="fill:none;stroke:#5b9bd5;stroke-width:1.05719995;stroke-linecap:butt;stroke-linejoin:round;stroke-miterlimit:10;stroke-dasharray:none;stroke-opacity:1"
       id="path4274"
       inkscape:connector-curvature="0" /><g
       id="g4276"
       transform="translate(-53.1609,-279.65996)"><g
         id="g4278"
         clip-path="url(#clipPath4280)"><text
           transform="matrix(1,0,0,-1,117.52,332.61)"
           style="font-variant:normal;font-weight:normal;font-size:13.93700027px;font-family:Calibri;-inkscape-font-specification:Calibri;writing-mode:lr-tb;fill:#595959;fill-opacity:1;fill-rule:nonzero;stroke:none"
           id="text4284"><tspan
             x="0 7.0660591 10.578183"
             y="0"
             sodipodi:role="line"
             id="tspan4286">0.2</tspan></text>
</g></g><g
       id="g4288"
       transform="translate(-53.1609,-279.65996)"><g
         id="g4290"
         clip-path="url(#clipPath4292)"><text
           transform="matrix(1,0,0,-1,110.44,352.02)"
           style="font-variant:normal;font-weight:normal;font-size:13.91600037px;font-family:Calibri;-inkscape-font-specification:Calibri;writing-mode:lr-tb;fill:#595959;fill-opacity:1;fill-rule:nonzero;stroke:none"
           id="text4296"><tspan
             x="0 7.0554118 10.562244 17.617657"
             y="0"
             sodipodi:role="line"
             id="tspan4298">0.25</tspan></text>
</g></g><g
       id="g4300"
       transform="translate(-53.1609,-279.65996)"><g
         id="g4302"
         clip-path="url(#clipPath4304)"><text
           transform="matrix(1,0,0,-1,117.52,371.45)"
           style="font-variant:normal;font-weight:normal;font-size:13.91600037px;font-family:Calibri;-inkscape-font-specification:Calibri;writing-mode:lr-tb;fill:#595959;fill-opacity:1;fill-rule:nonzero;stroke:none"
           id="text4308"><tspan
             x="0 7.0554118 10.562244"
             y="0"
             sodipodi:role="line"
             id="tspan4310">0.3</tspan></text>
</g></g><g
       id="g4312"
       transform="translate(-53.1609,-279.65996)"><g
         id="g4314"
         clip-path="url(#clipPath4316)"><text
           transform="matrix(1,0,0,-1,110.44,390.88)"
           style="font-variant:normal;font-weight:normal;font-size:13.93700027px;font-family:Calibri;-inkscape-font-specification:Calibri;writing-mode:lr-tb;fill:#595959;fill-opacity:1;fill-rule:nonzero;stroke:none"
           id="text4320"><tspan
             x="0 7.0660591 10.578183 17.644241"
             y="0"
             sodipodi:role="line"
             id="tspan4322">0.35</tspan></text>
</g></g><g
       id="g4324"
       transform="translate(-53.1609,-279.65996)"><g
         id="g4326"
         clip-path="url(#clipPath4328)"><text
           transform="matrix(1,0,0,-1,117.52,410.29)"
           style="font-variant:normal;font-weight:normal;font-size:13.91600037px;font-family:Calibri;-inkscape-font-specification:Calibri;writing-mode:lr-tb;fill:#595959;fill-opacity:1;fill-rule:nonzero;stroke:none"
           id="text4332"><tspan
             x="0 7.0554118 10.562244"
             y="0"
             sodipodi:role="line"
             id="tspan4334">0.4</tspan></text>
</g></g><g
       id="g4336"
       transform="translate(-53.1609,-279.65996)"><g
         id="g4338"
         clip-path="url(#clipPath4340)"><text
           transform="matrix(1,0,0,-1,110.44,429.73)"
           style="font-variant:normal;font-weight:normal;font-size:13.91600037px;font-family:Calibri;-inkscape-font-specification:Calibri;writing-mode:lr-tb;fill:#595959;fill-opacity:1;fill-rule:nonzero;stroke:none"
           id="text4344"><tspan
             x="0 7.0554118 10.562244 17.617657"
             y="0"
             sodipodi:role="line"
             id="tspan4346">0.45</tspan></text>
</g></g><g
       id="g4348"
       transform="translate(-53.1609,-279.65996)"><g
         id="g4350"
         clip-path="url(#clipPath4352)"><text
           transform="matrix(1,0,0,-1,117.52,449.16)"
           style="font-variant:normal;font-weight:normal;font-size:13.93700027px;font-family:Calibri;-inkscape-font-specification:Calibri;writing-mode:lr-tb;fill:#595959;fill-opacity:1;fill-rule:nonzero;stroke:none"
           id="text4356"><tspan
             x="0 7.0660591 10.578183"
             y="0"
             sodipodi:role="line"
             id="tspan4358">0.5</tspan></text>
</g></g><g
       id="g4360"
       transform="translate(-53.1609,-279.65996)"><g
         id="g4362"
         clip-path="url(#clipPath4364)"><text
           transform="matrix(1,0,0,-1,110.44,468.57)"
           style="font-variant:normal;font-weight:normal;font-size:13.91600037px;font-family:Calibri;-inkscape-font-specification:Calibri;writing-mode:lr-tb;fill:#595959;fill-opacity:1;fill-rule:nonzero;stroke:none"
           id="text4368"><tspan
             x="0 7.0554118 10.562244 17.617657"
             y="0"
             sodipodi:role="line"
             id="tspan4370">0.55</tspan></text>
</g></g><g
       id="g4372"
       transform="translate(-53.1609,-279.65996)"><g
         id="g4374"
         clip-path="url(#clipPath4376)"><text
           transform="matrix(1,0,0,-1,117.52,488)"
           style="font-variant:normal;font-weight:normal;font-size:13.91600037px;font-family:Calibri;-inkscape-font-specification:Calibri;writing-mode:lr-tb;fill:#595959;fill-opacity:1;fill-rule:nonzero;stroke:none"
           id="text4380"><tspan
             x="0 7.0554118 10.562244"
             y="0"
             sodipodi:role="line"
             id="tspan4382">0.6</tspan></text>
</g></g><g
       id="g4384"
       transform="translate(-53.1609,-279.65996)"><g
         id="g4386"
         clip-path="url(#clipPath4388)"><text
           transform="matrix(1,0,0,-1,141.07,314.46)"
           style="font-variant:normal;font-weight:normal;font-size:13.91600037px;font-family:Calibri;-inkscape-font-specification:Calibri;writing-mode:lr-tb;fill:#595959;fill-opacity:1;fill-rule:nonzero;stroke:none"
           id="text4392"><tspan
             x="0 7.0317121"
             y="0"
             sodipodi:role="line"
             id="tspan4394">20</tspan></text>
</g></g><g
       id="g4396"
       transform="translate(-53.1609,-279.65996)"><g
         id="g4398"
         clip-path="url(#clipPath4400)"><text
           transform="matrix(1,0,0,-1,209.01,314.46)"
           style="font-variant:normal;font-weight:normal;font-size:13.91600037px;font-family:Calibri;-inkscape-font-specification:Calibri;writing-mode:lr-tb;fill:#595959;fill-opacity:1;fill-rule:nonzero;stroke:none"
           id="text4404"><tspan
             x="0 7.052742"
             y="0"
             sodipodi:role="line"
             id="tspan4406">30</tspan></text>
</g></g><g
       id="g4408"
       transform="translate(-53.1609,-279.65996)"><g
         id="g4410"
         clip-path="url(#clipPath4412)"><text
           transform="matrix(1,0,0,-1,276.95,314.46)"
           style="font-variant:normal;font-weight:normal;font-size:13.91600037px;font-family:Calibri;-inkscape-font-specification:Calibri;writing-mode:lr-tb;fill:#595959;fill-opacity:1;fill-rule:nonzero;stroke:none"
           id="text4416"><tspan
             x="0 7.052742"
             y="0"
             sodipodi:role="line"
             id="tspan4418">40</tspan></text>
</g></g><g
       id="g4420"
       transform="translate(-53.1609,-279.65996)"><g
         id="g4422"
         clip-path="url(#clipPath4424)"><text
           transform="matrix(1,0,0,-1,344.91,314.46)"
           style="font-variant:normal;font-weight:normal;font-size:13.91600037px;font-family:Calibri;-inkscape-font-specification:Calibri;writing-mode:lr-tb;fill:#595959;fill-opacity:1;fill-rule:nonzero;stroke:none"
           id="text4428"><tspan
             x="0 7.052742"
             y="0"
             sodipodi:role="line"
             id="tspan4430">50</tspan></text>
</g></g><g
       id="g4432"
       transform="translate(-53.1609,-279.65996)"><g
         id="g4434"
         clip-path="url(#clipPath4436)"><text
           transform="matrix(1,0,0,-1,412.84,314.46)"
           style="font-variant:normal;font-weight:normal;font-size:13.91600037px;font-family:Calibri;-inkscape-font-specification:Calibri;writing-mode:lr-tb;fill:#595959;fill-opacity:1;fill-rule:nonzero;stroke:none"
           id="text4440"><tspan
             x="0 7.052742"
             y="0"
             sodipodi:role="line"
             id="tspan4442">60</tspan></text>
</g></g><g
       id="g4444"
       transform="translate(-53.1609,-279.65996)"><g
         id="g4446"
         clip-path="url(#clipPath4448)"><text
           transform="matrix(1,0,0,-1,480.8,314.46)"
           style="font-variant:normal;font-weight:normal;font-size:13.91600037px;font-family:Calibri;-inkscape-font-specification:Calibri;writing-mode:lr-tb;fill:#595959;fill-opacity:1;fill-rule:nonzero;stroke:none"
           id="text4452"><tspan
             x="0 7.052742"
             y="0"
             sodipodi:role="line"
             id="tspan4454">70</tspan></text>
</g></g><g
       id="g4456"
       transform="translate(-53.1609,-279.65996)"><g
         id="g4458"
         clip-path="url(#clipPath4460)"><text
           transform="matrix(1,0,0,-1,548.74,314.46)"
           style="font-variant:normal;font-weight:normal;font-size:13.91600037px;font-family:Calibri;-inkscape-font-specification:Calibri;writing-mode:lr-tb;fill:#595959;fill-opacity:1;fill-rule:nonzero;stroke:none"
           id="text4464"><tspan
             x="0 7.052742"
             y="0"
             sodipodi:role="line"
             id="tspan4466">80</tspan></text>
</g></g><g
       id="g4468"
       transform="translate(-53.1609,-279.65996)"><g
         id="g4470"
         clip-path="url(#clipPath4472)"><text
           transform="matrix(-4.4e-8,1,1,4.4e-8,80.779,328.21)"
           style="font-variant:normal;font-weight:normal;font-size:16.73699951px;font-family:Calibri;-inkscape-font-specification:Calibri;writing-mode:lr-tb;fill:#595959;fill-opacity:1;fill-rule:nonzero;stroke:none"
           id="text4476"><tspan
             x="0 4.2177238 11.247264 19.515343 23.364853 32.285671 37.959515 46.227592 54.311565 67.684425 71.383308 80.304123 89.124527 97.911453 104.45562 113.24254 126.6154 135.40233 141.05943 144.90895 153.72934"
             y="0"
             sodipodi:role="line"
             id="tspan4478">Ice Cream Consumption</tspan></text>
</g></g><g
       id="g4480"
       transform="translate(-53.1609,-279.65996)"><g
         id="g4482"
         clip-path="url(#clipPath4484)"><text
           transform="matrix(1,0,0,-1,249.89,288.78)"
           style="font-variant:normal;font-weight:normal;font-size:16.73699951px;font-family:Calibri;-inkscape-font-specification:Calibri;writing-mode:lr-tb;fill:#595959;fill-opacity:1;fill-rule:nonzero;stroke:none"
           id="text4488"><tspan
             x="0 14.310135 22.544739 30.62871 39.415634 43.131248 57.441383 66.211571 74.847862 80.454758 89.241684 93.141403 100.72327 104.57278 111.26758 119.53565 132.90852 141.69543 150.03047 155.45326 163.3866 168.99348 177.78041 183.47099 191.73907"
             y="0"
             sodipodi:role="line"
             id="tspan4490">Mean Monthly Temperature </tspan></text>
</g></g><g
       id="g4492"
       transform="translate(-53.1609,-279.65996)"><g
         id="g4494"
         clip-path="url(#clipPath4496)"><text
           transform="matrix(1,0,0,-1,126.02,534.13)"
           style="font-variant:normal;font-weight:normal;font-size:19.55800056px;font-family:Calibri;-inkscape-font-specification:Calibri;writing-mode:lr-tb;fill:#595959;fill-opacity:1;fill-rule:nonzero;stroke:none"
           id="text4500"><tspan
             x="0 4.928616 13.20165 22.941534 27.283409 37.707825 44.377102 54.116985 63.407036 79.033875 83.317078 93.741493 104.10723 114.37518 121.90501 132.17296 147.7998 158.06775 164.54146 168.942 179.3273 189.59525 193.93713 205.26122 214.02319 223.39148 227.77246 238.04042 245.37466 251.92661 256.46405 273.18616 282.92603 292.23563 302.5036 307.02148 323.74356 334.14844 344.18167 350.73361 360.92334 365.32388 374.12497"
             y="0"
             sodipodi:role="line"
             id="tspan4502">Ice Cream Consumption Against Mean Monthly </tspan></text>
</g></g><g
       id="g4504"
       transform="translate(-53.1609,-279.65996)"><g
         id="g4506"
         clip-path="url(#clipPath4508)"><text
           transform="matrix(1,0,0,-1,262.25,510.34)"
           style="font-variant:normal;font-weight:normal;font-size:19.57900047px;font-family:Calibri;-inkscape-font-specification:Calibri;writing-mode:lr-tb;fill:#595959;fill-opacity:1;fill-rule:nonzero;stroke:none"
           id="text4512"><tspan
             x="0 7.753284 17.444889 33.088509 43.367485 53.039513 59.559319 68.72229 75.281258 85.481911 92.177933"
             y="0"
             sodipodi:role="line"
             id="tspan4514">Temperature</tspan></text>
</g></g></g></svg>