<?xml version="1.0" encoding="UTF-8" standalone="no"?>
<!-- Created with Inkscape (http://www.inkscape.org/) -->

<svg
   xmlns:dc="http://purl.org/dc/elements/1.1/"
   xmlns:cc="http://creativecommons.org/ns#"
   xmlns:rdf="http://www.w3.org/1999/02/22-rdf-syntax-ns#"
   xmlns:svg="http://www.w3.org/2000/svg"
   xmlns="http://www.w3.org/2000/svg"
   xmlns:sodipodi="http://sodipodi.sourceforge.net/DTD/sodipodi-0.dtd"
   xmlns:inkscape="http://www.inkscape.org/namespaces/inkscape"
   id="svg5166"
   version="1.1"
   inkscape:version="0.91 r13725"
   xml:space="preserve"
   width="926.05402"
   height="501.31601"
   viewBox="0 0 926.05397 501.31601"
   sodipodi:docname="IceCreamLine.svg"><metadata
     id="metadata5172"><rdf:RDF><cc:Work
         rdf:about=""><dc:format>image/svg+xml</dc:format><dc:type
           rdf:resource="http://purl.org/dc/dcmitype/StillImage" /><dc:title></dc:title></cc:Work></rdf:RDF></metadata><defs
     id="defs5170"><clipPath
       clipPathUnits="userSpaceOnUse"
       id="clipPath5190"><path
         d="m 51.36,97.8 739.44,0 0,399.6 -739.44,0 0,-399.6 z"
         id="path5192"
         inkscape:connector-curvature="0"
         style="clip-rule:evenodd" /></clipPath><clipPath
       clipPathUnits="userSpaceOnUse"
       id="clipPath5202"><path
         d="m 51.36,97.8 739.44,0 0,399.6 -739.44,0 0,-399.6 z"
         id="path5204"
         inkscape:connector-curvature="0"
         style="clip-rule:evenodd" /></clipPath><clipPath
       clipPathUnits="userSpaceOnUse"
       id="clipPath5214"><path
         d="m 51.36,97.8 739.44,0 0,399.6 -739.44,0 0,-399.6 z"
         id="path5216"
         inkscape:connector-curvature="0"
         style="clip-rule:evenodd" /></clipPath><clipPath
       clipPathUnits="userSpaceOnUse"
       id="clipPath5226"><path
         d="m 51.36,97.8 739.44,0 0,399.6 -739.44,0 0,-399.6 z"
         id="path5228"
         inkscape:connector-curvature="0"
         style="clip-rule:evenodd" /></clipPath><clipPath
       clipPathUnits="userSpaceOnUse"
       id="clipPath5238"><path
         d="m 51.36,97.8 739.44,0 0,399.6 -739.44,0 0,-399.6 z"
         id="path5240"
         inkscape:connector-curvature="0"
         style="clip-rule:evenodd" /></clipPath><clipPath
       clipPathUnits="userSpaceOnUse"
       id="clipPath5250"><path
         d="m 51.36,97.8 739.44,0 0,399.6 -739.44,0 0,-399.6 z"
         id="path5252"
         inkscape:connector-curvature="0"
         style="clip-rule:evenodd" /></clipPath><clipPath
       clipPathUnits="userSpaceOnUse"
       id="clipPath5262"><path
         d="m 51.36,97.8 739.44,0 0,399.6 -739.44,0 0,-399.6 z"
         id="path5264"
         inkscape:connector-curvature="0"
         style="clip-rule:evenodd" /></clipPath><clipPath
       clipPathUnits="userSpaceOnUse"
       id="clipPath5274"><path
         d="m 51.36,97.8 739.44,0 0,399.6 -739.44,0 0,-399.6 z"
         id="path5276"
         inkscape:connector-curvature="0"
         style="clip-rule:evenodd" /></clipPath><clipPath
       clipPathUnits="userSpaceOnUse"
       id="clipPath5286"><path
         d="m 51.36,97.8 739.44,0 0,399.6 -739.44,0 0,-399.6 z"
         id="path5288"
         inkscape:connector-curvature="0"
         style="clip-rule:evenodd" /></clipPath><clipPath
       clipPathUnits="userSpaceOnUse"
       id="clipPath5298"><path
         d="m 51.36,97.8 739.44,0 0,399.6 -739.44,0 0,-399.6 z"
         id="path5300"
         inkscape:connector-curvature="0"
         style="clip-rule:evenodd" /></clipPath><clipPath
       clipPathUnits="userSpaceOnUse"
       id="clipPath5310"><path
         d="m 51.36,97.8 739.44,0 0,399.6 -739.44,0 0,-399.6 z"
         id="path5312"
         inkscape:connector-curvature="0"
         style="clip-rule:evenodd" /></clipPath><clipPath
       clipPathUnits="userSpaceOnUse"
       id="clipPath5322"><path
         d="m 51.36,97.8 739.44,0 0,399.6 -739.44,0 0,-399.6 z"
         id="path5324"
         inkscape:connector-curvature="0"
         style="clip-rule:evenodd" /></clipPath><clipPath
       clipPathUnits="userSpaceOnUse"
       id="clipPath5334"><path
         d="m 51.36,97.8 739.44,0 0,399.6 -739.44,0 0,-399.6 z"
         id="path5336"
         inkscape:connector-curvature="0"
         style="clip-rule:evenodd" /></clipPath><clipPath
       clipPathUnits="userSpaceOnUse"
       id="clipPath5346"><path
         d="m 51.36,97.8 739.44,0 0,399.6 -739.44,0 0,-399.6 z"
         id="path5348"
         inkscape:connector-curvature="0"
         style="clip-rule:evenodd" /></clipPath><clipPath
       clipPathUnits="userSpaceOnUse"
       id="clipPath5358"><path
         d="m 51.36,97.8 739.44,0 0,399.6 -739.44,0 0,-399.6 z"
         id="path5360"
         inkscape:connector-curvature="0"
         style="clip-rule:evenodd" /></clipPath><clipPath
       clipPathUnits="userSpaceOnUse"
       id="clipPath5370"><path
         d="m 51.36,97.8 739.44,0 0,399.6 -739.44,0 0,-399.6 z"
         id="path5372"
         inkscape:connector-curvature="0"
         style="clip-rule:evenodd" /></clipPath><clipPath
       clipPathUnits="userSpaceOnUse"
       id="clipPath5382"><path
         d="m 51.36,97.8 739.44,0 0,399.6 -739.44,0 0,-399.6 z"
         id="path5384"
         inkscape:connector-curvature="0"
         style="clip-rule:evenodd" /></clipPath><clipPath
       clipPathUnits="userSpaceOnUse"
       id="clipPath5394"><path
         d="m 51.36,97.8 739.44,0 0,399.6 -739.44,0 0,-399.6 z"
         id="path5396"
         inkscape:connector-curvature="0"
         style="clip-rule:evenodd" /></clipPath><clipPath
       clipPathUnits="userSpaceOnUse"
       id="clipPath5406"><path
         d="m 51.36,97.8 739.44,0 0,399.6 -739.44,0 0,-399.6 z"
         id="path5408"
         inkscape:connector-curvature="0"
         style="clip-rule:evenodd" /></clipPath><clipPath
       clipPathUnits="userSpaceOnUse"
       id="clipPath5418"><path
         d="m 51.36,97.8 739.44,0 0,399.6 -739.44,0 0,-399.6 z"
         id="path5420"
         inkscape:connector-curvature="0"
         style="clip-rule:evenodd" /></clipPath><clipPath
       clipPathUnits="userSpaceOnUse"
       id="clipPath5430"><path
         d="m 51.36,97.8 739.44,0 0,399.6 -739.44,0 0,-399.6 z"
         id="path5432"
         inkscape:connector-curvature="0"
         style="clip-rule:evenodd" /></clipPath><clipPath
       clipPathUnits="userSpaceOnUse"
       id="clipPath5442"><path
         d="m 51.36,97.8 739.44,0 0,399.6 -739.44,0 0,-399.6 z"
         id="path5444"
         inkscape:connector-curvature="0"
         style="clip-rule:evenodd" /></clipPath><clipPath
       clipPathUnits="userSpaceOnUse"
       id="clipPath5454"><path
         d="m 51.36,97.8 739.44,0 0,399.6 -739.44,0 0,-399.6 z"
         id="path5456"
         inkscape:connector-curvature="0"
         style="clip-rule:evenodd" /></clipPath><clipPath
       clipPathUnits="userSpaceOnUse"
       id="clipPath5466"><path
         d="m 51.36,97.8 739.44,0 0,399.6 -739.44,0 0,-399.6 z"
         id="path5468"
         inkscape:connector-curvature="0"
         style="clip-rule:evenodd" /></clipPath><clipPath
       clipPathUnits="userSpaceOnUse"
       id="clipPath5478"><path
         d="m 51.36,97.8 739.44,0 0,399.6 -739.44,0 0,-399.6 z"
         id="path5480"
         inkscape:connector-curvature="0"
         style="clip-rule:evenodd" /></clipPath><clipPath
       clipPathUnits="userSpaceOnUse"
       id="clipPath5490"><path
         d="m 51.36,97.8 739.44,0 0,399.6 -739.44,0 0,-399.6 z"
         id="path5492"
         inkscape:connector-curvature="0"
         style="clip-rule:evenodd" /></clipPath><clipPath
       clipPathUnits="userSpaceOnUse"
       id="clipPath5502"><path
         d="m 51.36,97.8 739.44,0 0,399.6 -739.44,0 0,-399.6 z"
         id="path5504"
         inkscape:connector-curvature="0"
         style="clip-rule:evenodd" /></clipPath><clipPath
       clipPathUnits="userSpaceOnUse"
       id="clipPath5514"><path
         d="m 51.36,97.8 739.44,0 0,399.6 -739.44,0 0,-399.6 z"
         id="path5516"
         inkscape:connector-curvature="0"
         style="clip-rule:evenodd" /></clipPath><clipPath
       clipPathUnits="userSpaceOnUse"
       id="clipPath5526"><path
         d="m 51.36,97.8 739.44,0 0,399.6 -739.44,0 0,-399.6 z"
         id="path5528"
         inkscape:connector-curvature="0"
         style="clip-rule:evenodd" /></clipPath><clipPath
       clipPathUnits="userSpaceOnUse"
       id="clipPath5538"><path
         d="m 51.36,97.8 739.44,0 0,399.6 -739.44,0 0,-399.6 z"
         id="path5540"
         inkscape:connector-curvature="0"
         style="clip-rule:evenodd" /></clipPath><clipPath
       clipPathUnits="userSpaceOnUse"
       id="clipPath5550"><path
         d="m 51.36,97.8 739.44,0 0,399.6 -739.44,0 0,-399.6 z"
         id="path5552"
         inkscape:connector-curvature="0"
         style="clip-rule:evenodd" /></clipPath><clipPath
       clipPathUnits="userSpaceOnUse"
       id="clipPath5562"><path
         d="m 51.36,97.8 739.44,0 0,399.6 -739.44,0 0,-399.6 z"
         id="path5564"
         inkscape:connector-curvature="0"
         style="clip-rule:evenodd" /></clipPath><clipPath
       clipPathUnits="userSpaceOnUse"
       id="clipPath5574"><path
         d="m 51.36,97.8 739.44,0 0,399.6 -739.44,0 0,-399.6 z"
         id="path5576"
         inkscape:connector-curvature="0"
         style="clip-rule:evenodd" /></clipPath><clipPath
       clipPathUnits="userSpaceOnUse"
       id="clipPath5586"><path
         d="m 51.36,97.8 739.44,0 0,399.6 -739.44,0 0,-399.6 z"
         id="path5588"
         inkscape:connector-curvature="0"
         style="clip-rule:evenodd" /></clipPath><clipPath
       clipPathUnits="userSpaceOnUse"
       id="clipPath5598"><path
         d="m 51.36,97.8 739.44,0 0,399.6 -739.44,0 0,-399.6 z"
         id="path5600"
         inkscape:connector-curvature="0"
         style="clip-rule:evenodd" /></clipPath><clipPath
       clipPathUnits="userSpaceOnUse"
       id="clipPath5610"><path
         d="m 51.36,97.8 739.44,0 0,399.6 -739.44,0 0,-399.6 z"
         id="path5612"
         inkscape:connector-curvature="0"
         style="clip-rule:evenodd" /></clipPath><clipPath
       clipPathUnits="userSpaceOnUse"
       id="clipPath5624"><path
         d="m 51.36,97.8 739.44,0 0,399.6 -739.44,0 0,-399.6 z"
         id="path5626"
         inkscape:connector-curvature="0"
         style="clip-rule:evenodd" /></clipPath><clipPath
       clipPathUnits="userSpaceOnUse"
       id="clipPath5638"><path
         d="m 51.36,97.8 739.44,0 0,399.6 -739.44,0 0,-399.6 z"
         id="path5640"
         inkscape:connector-curvature="0"
         style="clip-rule:evenodd" /></clipPath></defs><sodipodi:namedview
     pagecolor="#ffffff"
     bordercolor="#666666"
     borderopacity="1"
     objecttolerance="10"
     gridtolerance="10"
     guidetolerance="10"
     inkscape:pageopacity="0"
     inkscape:pageshadow="2"
     inkscape:window-width="1920"
     inkscape:window-height="1018"
     id="namedview5168"
     showgrid="false"
     inkscape:zoom="1.1415893"
     inkscape:cx="526.27502"
     inkscape:cy="371.85001"
     inkscape:window-x="-8"
     inkscape:window-y="-8"
     inkscape:window-maximized="1"
     inkscape:current-layer="g5174" /><g
     id="g5174"
     inkscape:groupmode="layer"
     inkscape:label="IceCreamLine"
     transform="matrix(1.25,0,0,-1.25,0,501.31599)"><path
       d="m 132.4225,136.70649 481.3,0 m -481.3,39.66 481.3,0 m -481.3,39.44 481.3,0 m -481.3,39.43 481.3,0 m -481.3,39.44 481.3,0 m -481.3,39.58 481.3,0"
       style="fill:none;stroke:#d9d9d9;stroke-width:1.43299997;stroke-linecap:butt;stroke-linejoin:round;stroke-miterlimit:10;stroke-dasharray:none;stroke-opacity:1"
       id="path5178"
       inkscape:connector-curvature="0" /><path
       d="m 132.4225,97.32649 481.3,0"
       style="fill:none;stroke:#d9d9d9;stroke-width:1.43299997;stroke-linecap:butt;stroke-linejoin:round;stroke-miterlimit:10;stroke-dasharray:none;stroke-opacity:1"
       id="path5180"
       inkscape:connector-curvature="0" /><path
       d="m 140.4425,249.73649 15.95,-4.82 16.05,7.57 16.05,12.61 16.05,-7.57 16.05,-24.3 16.05,-6.88 16.04,-15.36 16.05,-7.33 16.05,-5.24 16.05,11.88 16.05,4.59 16.05,12.38 16.05,-4.36 16.05,24.77 16.05,0 16.05,35.3 16.05,-10.77 16.05,-22.47 16.04,-17.43 16.05,-8.94 16.05,-4.81 16.05,-9.17 16.05,16.73 16.05,-6.87 16.05,19.94 16.05,6.65 16.05,15.82 16.05,8.26 15.98,43.8"
       style="fill:none;stroke:#5b9bd5;stroke-width:4.29890013;stroke-linecap:round;stroke-linejoin:round;stroke-miterlimit:10;stroke-dasharray:none;stroke-opacity:1"
       id="path5182"
       inkscape:connector-curvature="0" /><path
       d="m 140.4425,218.78649 15.95,44.48 16.05,20.63 16.05,14.9 16.05,2.98 16.05,-11.92 16.05,-11.92 16.04,-41.5 16.05,-44.25 16.05,-23.78 16.05,11.86 16.05,-5.96 16.05,17.88 16.05,23.62 16.05,44.48 16.05,23.61 16.05,26.66 16.05,0 16.05,-14.74 16.04,-20.86 16.05,-47.23 16.05,-11.92 16.05,-23.62 16.05,-14.9 16.05,2.98 16.05,14.9 16.05,23.62 16.05,32.55 16.05,35.54 15.98,20.64"
       style="fill:none;stroke:#ed7d31;stroke-width:4.29890013;stroke-linecap:round;stroke-linejoin:round;stroke-miterlimit:10;stroke-dasharray:none;stroke-opacity:1"
       id="path5184"
       inkscape:connector-curvature="0" /><g
       id="g5186"
       transform="translate(-50.6875,-97.00351)"><g
         id="g5188"
         clip-path="url(#clipPath5190)"><text
           transform="matrix(1,0,0,-1,684,188.3)"
           style="font-variant:normal;font-weight:normal;font-size:21.09600067px;font-family:Calibri;-inkscape-font-specification:Calibri;writing-mode:lr-tb;fill:#595959;fill-opacity:1;fill-rule:nonzero;stroke:none"
           id="text5194"><tspan
             x="0"
             y="0"
             id="tspan5196">0</tspan></text>
</g></g><g
       id="g5198"
       transform="translate(-50.6875,-97.00351)"><g
         id="g5200"
         clip-path="url(#clipPath5202)"><text
           transform="matrix(1,0,0,-1,684,217.92)"
           style="font-variant:normal;font-weight:normal;font-size:21.09600067px;font-family:Calibri;-inkscape-font-specification:Calibri;writing-mode:lr-tb;fill:#595959;fill-opacity:1;fill-rule:nonzero;stroke:none"
           id="text5206"><tspan
             x="0 10.559672"
             y="0"
             sodipodi:role="line"
             id="tspan5208">10</tspan></text>
</g></g><g
       id="g5210"
       transform="translate(-50.6875,-97.00351)"><g
         id="g5212"
         clip-path="url(#clipPath5214)"><text
           transform="matrix(1,0,0,-1,684,247.54)"
           style="font-variant:normal;font-weight:normal;font-size:21.09600067px;font-family:Calibri;-inkscape-font-specification:Calibri;writing-mode:lr-tb;fill:#595959;fill-opacity:1;fill-rule:nonzero;stroke:none"
           id="text5218"><tspan
             x="0 10.559672"
             y="0"
             sodipodi:role="line"
             id="tspan5220">20</tspan></text>
</g></g><g
       id="g5222"
       transform="translate(-50.6875,-97.00351)"><g
         id="g5224"
         clip-path="url(#clipPath5226)"><text
           transform="matrix(1,0,0,-1,684,277.15)"
           style="font-variant:normal;font-weight:normal;font-size:21.09600067px;font-family:Calibri;-inkscape-font-specification:Calibri;writing-mode:lr-tb;fill:#595959;fill-opacity:1;fill-rule:nonzero;stroke:none"
           id="text5230"><tspan
             x="0 10.559672"
             y="0"
             sodipodi:role="line"
             id="tspan5232">30</tspan></text>
</g></g><g
       id="g5234"
       transform="translate(-50.6875,-97.00351)"><g
         id="g5236"
         clip-path="url(#clipPath5238)"><text
           transform="matrix(1,0,0,-1,684,306.77)"
           style="font-variant:normal;font-weight:normal;font-size:21.09600067px;font-family:Calibri;-inkscape-font-specification:Calibri;writing-mode:lr-tb;fill:#595959;fill-opacity:1;fill-rule:nonzero;stroke:none"
           id="text5242"><tspan
             x="0 10.559672"
             y="0"
             sodipodi:role="line"
             id="tspan5244">40</tspan></text>
</g></g><g
       id="g5246"
       transform="translate(-50.6875,-97.00351)"><g
         id="g5248"
         clip-path="url(#clipPath5250)"><text
           transform="matrix(1,0,0,-1,684,336.41)"
           style="font-variant:normal;font-weight:normal;font-size:21.09600067px;font-family:Calibri;-inkscape-font-specification:Calibri;writing-mode:lr-tb;fill:#595959;fill-opacity:1;fill-rule:nonzero;stroke:none"
           id="text5254"><tspan
             x="0 10.559672"
             y="0"
             sodipodi:role="line"
             id="tspan5256">50</tspan></text>
</g></g><g
       id="g5258"
       transform="translate(-50.6875,-97.00351)"><g
         id="g5260"
         clip-path="url(#clipPath5262)"><text
           transform="matrix(1,0,0,-1,684,366.02)"
           style="font-variant:normal;font-weight:normal;font-size:21.09600067px;font-family:Calibri;-inkscape-font-specification:Calibri;writing-mode:lr-tb;fill:#595959;fill-opacity:1;fill-rule:nonzero;stroke:none"
           id="text5266"><tspan
             x="0 10.559672"
             y="0"
             sodipodi:role="line"
             id="tspan5268">60</tspan></text>
</g></g><g
       id="g5270"
       transform="translate(-50.6875,-97.00351)"><g
         id="g5272"
         clip-path="url(#clipPath5274)"><text
           transform="matrix(1,0,0,-1,684,395.64)"
           style="font-variant:normal;font-weight:normal;font-size:21.09600067px;font-family:Calibri;-inkscape-font-specification:Calibri;writing-mode:lr-tb;fill:#595959;fill-opacity:1;fill-rule:nonzero;stroke:none"
           id="text5278"><tspan
             x="0 10.559672"
             y="0"
             sodipodi:role="line"
             id="tspan5280">70</tspan></text>
</g></g><g
       id="g5282"
       transform="translate(-50.6875,-97.00351)"><g
         id="g5284"
         clip-path="url(#clipPath5286)"><text
           transform="matrix(1,0,0,-1,684,425.26)"
           style="font-variant:normal;font-weight:normal;font-size:21.09600067px;font-family:Calibri;-inkscape-font-specification:Calibri;writing-mode:lr-tb;fill:#595959;fill-opacity:1;fill-rule:nonzero;stroke:none"
           id="text5290"><tspan
             x="0 10.559672"
             y="0"
             sodipodi:role="line"
             id="tspan5292">80</tspan></text>
</g></g><g
       id="g5294"
       transform="translate(-50.6875,-97.00351)"><g
         id="g5296"
         clip-path="url(#clipPath5298)"><text
           transform="matrix(1,0,0,-1,152.98,188.3)"
           style="font-variant:normal;font-weight:normal;font-size:21.09600067px;font-family:Calibri;-inkscape-font-specification:Calibri;writing-mode:lr-tb;fill:#595959;fill-opacity:1;fill-rule:nonzero;stroke:none"
           id="text5302"><tspan
             x="0"
             y="0"
             id="tspan5304">0</tspan></text>
</g></g><g
       id="g5306"
       transform="translate(-50.6875,-97.00351)"><g
         id="g5308"
         clip-path="url(#clipPath5310)"><text
           transform="matrix(1,0,0,-1,137.02,227.78)"
           style="font-variant:normal;font-weight:normal;font-size:21.09600067px;font-family:Calibri;-inkscape-font-specification:Calibri;writing-mode:lr-tb;fill:#595959;fill-opacity:1;fill-rule:nonzero;stroke:none"
           id="text5314"><tspan
             x="0 10.526904 16.011864"
             y="0"
             sodipodi:role="line"
             id="tspan5316">0.1</tspan></text>
</g></g><g
       id="g5318"
       transform="translate(-50.6875,-97.00351)"><g
         id="g5320"
         clip-path="url(#clipPath5322)"><text
           transform="matrix(1,0,0,-1,137.02,267.29)"
           style="font-variant:normal;font-weight:normal;font-size:21.09600067px;font-family:Calibri;-inkscape-font-specification:Calibri;writing-mode:lr-tb;fill:#595959;fill-opacity:1;fill-rule:nonzero;stroke:none"
           id="text5326"><tspan
             x="0 10.526904 16.011864"
             y="0"
             sodipodi:role="line"
             id="tspan5328">0.2</tspan></text>
</g></g><g
       id="g5330"
       transform="translate(-50.6875,-97.00351)"><g
         id="g5332"
         clip-path="url(#clipPath5334)"><text
           transform="matrix(1,0,0,-1,137.02,306.77)"
           style="font-variant:normal;font-weight:normal;font-size:21.09600067px;font-family:Calibri;-inkscape-font-specification:Calibri;writing-mode:lr-tb;fill:#595959;fill-opacity:1;fill-rule:nonzero;stroke:none"
           id="text5338"><tspan
             x="0 10.526904 16.011864"
             y="0"
             sodipodi:role="line"
             id="tspan5340">0.3</tspan></text>
</g></g><g
       id="g5342"
       transform="translate(-50.6875,-97.00351)"><g
         id="g5344"
         clip-path="url(#clipPath5346)"><text
           transform="matrix(1,0,0,-1,137.02,346.27)"
           style="font-variant:normal;font-weight:normal;font-size:21.09600067px;font-family:Calibri;-inkscape-font-specification:Calibri;writing-mode:lr-tb;fill:#595959;fill-opacity:1;fill-rule:nonzero;stroke:none"
           id="text5350"><tspan
             x="0 10.526904 16.011864"
             y="0"
             sodipodi:role="line"
             id="tspan5352">0.4</tspan></text>
</g></g><g
       id="g5354"
       transform="translate(-50.6875,-97.00351)"><g
         id="g5356"
         clip-path="url(#clipPath5358)"><text
           transform="matrix(1,0,0,-1,137.02,385.78)"
           style="font-variant:normal;font-weight:normal;font-size:21.09600067px;font-family:Calibri;-inkscape-font-specification:Calibri;writing-mode:lr-tb;fill:#595959;fill-opacity:1;fill-rule:nonzero;stroke:none"
           id="text5362"><tspan
             x="0 10.526904 16.011864"
             y="0"
             sodipodi:role="line"
             id="tspan5364">0.5</tspan></text>
</g></g><g
       id="g5366"
       transform="translate(-50.6875,-97.00351)"><g
         id="g5368"
         clip-path="url(#clipPath5370)"><text
           transform="matrix(1,0,0,-1,137.02,425.26)"
           style="font-variant:normal;font-weight:normal;font-size:21.09600067px;font-family:Calibri;-inkscape-font-specification:Calibri;writing-mode:lr-tb;fill:#595959;fill-opacity:1;fill-rule:nonzero;stroke:none"
           id="text5374"><tspan
             x="0 10.526904 16.011864"
             y="0"
             sodipodi:role="line"
             id="tspan5376">0.6</tspan></text>
</g></g><g
       id="g5378"
       transform="translate(-50.6875,-97.00351)"><g
         id="g5380"
         clip-path="url(#clipPath5382)"><text
           transform="matrix(1,0,0,-1,185.83,160.94)"
           style="font-variant:normal;font-weight:normal;font-size:21.09600067px;font-family:Calibri;-inkscape-font-specification:Calibri;writing-mode:lr-tb;fill:#595959;fill-opacity:1;fill-rule:nonzero;stroke:none"
           id="text5386"><tspan
             x="0"
             y="0"
             id="tspan5388">1</tspan></text>
</g></g><g
       id="g5390"
       transform="translate(-50.6875,-97.00351)"><g
         id="g5392"
         clip-path="url(#clipPath5394)"><text
           transform="matrix(1,0,0,-1,217.92,160.94)"
           style="font-variant:normal;font-weight:normal;font-size:21.09600067px;font-family:Calibri;-inkscape-font-specification:Calibri;writing-mode:lr-tb;fill:#595959;fill-opacity:1;fill-rule:nonzero;stroke:none"
           id="text5398"><tspan
             x="0"
             y="0"
             id="tspan5400">3</tspan></text>
</g></g><g
       id="g5402"
       transform="translate(-50.6875,-97.00351)"><g
         id="g5404"
         clip-path="url(#clipPath5406)"><text
           transform="matrix(1,0,0,-1,250.01,160.94)"
           style="font-variant:normal;font-weight:normal;font-size:21.09600067px;font-family:Calibri;-inkscape-font-specification:Calibri;writing-mode:lr-tb;fill:#595959;fill-opacity:1;fill-rule:nonzero;stroke:none"
           id="text5410"><tspan
             x="0"
             y="0"
             id="tspan5412">5</tspan></text>
</g></g><g
       id="g5414"
       transform="translate(-50.6875,-97.00351)"><g
         id="g5416"
         clip-path="url(#clipPath5418)"><text
           transform="matrix(1,0,0,-1,282.1,160.94)"
           style="font-variant:normal;font-weight:normal;font-size:21.09600067px;font-family:Calibri;-inkscape-font-specification:Calibri;writing-mode:lr-tb;fill:#595959;fill-opacity:1;fill-rule:nonzero;stroke:none"
           id="text5422"><tspan
             x="0"
             y="0"
             id="tspan5424">7</tspan></text>
</g></g><g
       id="g5426"
       transform="translate(-50.6875,-97.00351)"><g
         id="g5428"
         clip-path="url(#clipPath5430)"><text
           transform="matrix(1,0,0,-1,314.18,160.94)"
           style="font-variant:normal;font-weight:normal;font-size:21.09600067px;font-family:Calibri;-inkscape-font-specification:Calibri;writing-mode:lr-tb;fill:#595959;fill-opacity:1;fill-rule:nonzero;stroke:none"
           id="text5434"><tspan
             x="0"
             y="0"
             id="tspan5436">9</tspan></text>
</g></g><g
       id="g5438"
       transform="translate(-50.6875,-97.00351)"><g
         id="g5440"
         clip-path="url(#clipPath5442)"><text
           transform="matrix(1,0,0,-1,340.94,160.94)"
           style="font-variant:normal;font-weight:normal;font-size:21.09600067px;font-family:Calibri;-inkscape-font-specification:Calibri;writing-mode:lr-tb;fill:#595959;fill-opacity:1;fill-rule:nonzero;stroke:none"
           id="text5446"><tspan
             x="0 10.559672"
             y="0"
             sodipodi:role="line"
             id="tspan5448">11</tspan></text>
</g></g><g
       id="g5450"
       transform="translate(-50.6875,-97.00351)"><g
         id="g5452"
         clip-path="url(#clipPath5454)"><text
           transform="matrix(1,0,0,-1,373.06,160.94)"
           style="font-variant:normal;font-weight:normal;font-size:21.09600067px;font-family:Calibri;-inkscape-font-specification:Calibri;writing-mode:lr-tb;fill:#595959;fill-opacity:1;fill-rule:nonzero;stroke:none"
           id="text5458"><tspan
             x="0 10.535672"
             y="0"
             sodipodi:role="line"
             id="tspan5460">13</tspan></text>
</g></g><g
       id="g5462"
       transform="translate(-50.6875,-97.00351)"><g
         id="g5464"
         clip-path="url(#clipPath5466)"><text
           transform="matrix(1,0,0,-1,405.14,160.94)"
           style="font-variant:normal;font-weight:normal;font-size:21.09600067px;font-family:Calibri;-inkscape-font-specification:Calibri;writing-mode:lr-tb;fill:#595959;fill-opacity:1;fill-rule:nonzero;stroke:none"
           id="text5470"><tspan
             x="0 10.535672"
             y="0"
             sodipodi:role="line"
             id="tspan5472">15</tspan></text>
</g></g><g
       id="g5474"
       transform="translate(-50.6875,-97.00351)"><g
         id="g5476"
         clip-path="url(#clipPath5478)"><text
           transform="matrix(1,0,0,-1,437.23,160.94)"
           style="font-variant:normal;font-weight:normal;font-size:21.09600067px;font-family:Calibri;-inkscape-font-specification:Calibri;writing-mode:lr-tb;fill:#595959;fill-opacity:1;fill-rule:nonzero;stroke:none"
           id="text5482"><tspan
             x="0 10.535672"
             y="0"
             sodipodi:role="line"
             id="tspan5484">17</tspan></text>
</g></g><g
       id="g5486"
       transform="translate(-50.6875,-97.00351)"><g
         id="g5488"
         clip-path="url(#clipPath5490)"><text
           transform="matrix(1,0,0,-1,469.32,160.94)"
           style="font-variant:normal;font-weight:normal;font-size:21.09600067px;font-family:Calibri;-inkscape-font-specification:Calibri;writing-mode:lr-tb;fill:#595959;fill-opacity:1;fill-rule:nonzero;stroke:none"
           id="text5494"><tspan
             x="0 10.535672"
             y="0"
             sodipodi:role="line"
             id="tspan5496">19</tspan></text>
</g></g><g
       id="g5498"
       transform="translate(-50.6875,-97.00351)"><g
         id="g5500"
         clip-path="url(#clipPath5502)"><text
           transform="matrix(1,0,0,-1,501.41,160.94)"
           style="font-variant:normal;font-weight:normal;font-size:21.09600067px;font-family:Calibri;-inkscape-font-specification:Calibri;writing-mode:lr-tb;fill:#595959;fill-opacity:1;fill-rule:nonzero;stroke:none"
           id="text5506"><tspan
             x="0 10.559672"
             y="0"
             sodipodi:role="line"
             id="tspan5508">21</tspan></text>
</g></g><g
       id="g5510"
       transform="translate(-50.6875,-97.00351)"><g
         id="g5512"
         clip-path="url(#clipPath5514)"><text
           transform="matrix(1,0,0,-1,533.5,160.94)"
           style="font-variant:normal;font-weight:normal;font-size:21.09600067px;font-family:Calibri;-inkscape-font-specification:Calibri;writing-mode:lr-tb;fill:#595959;fill-opacity:1;fill-rule:nonzero;stroke:none"
           id="text5518"><tspan
             x="0 10.559672"
             y="0"
             sodipodi:role="line"
             id="tspan5520">23</tspan></text>
</g></g><g
       id="g5522"
       transform="translate(-50.6875,-97.00351)"><g
         id="g5524"
         clip-path="url(#clipPath5526)"><text
           transform="matrix(1,0,0,-1,565.58,160.94)"
           style="font-variant:normal;font-weight:normal;font-size:21.09600067px;font-family:Calibri;-inkscape-font-specification:Calibri;writing-mode:lr-tb;fill:#595959;fill-opacity:1;fill-rule:nonzero;stroke:none"
           id="text5530"><tspan
             x="0 10.559672"
             y="0"
             sodipodi:role="line"
             id="tspan5532">25</tspan></text>
</g></g><g
       id="g5534"
       transform="translate(-50.6875,-97.00351)"><g
         id="g5536"
         clip-path="url(#clipPath5538)"><text
           transform="matrix(1,0,0,-1,597.7,160.94)"
           style="font-variant:normal;font-weight:normal;font-size:21.09600067px;font-family:Calibri;-inkscape-font-specification:Calibri;writing-mode:lr-tb;fill:#595959;fill-opacity:1;fill-rule:nonzero;stroke:none"
           id="text5542"><tspan
             x="0 10.535672"
             y="0"
             sodipodi:role="line"
             id="tspan5544">27</tspan></text>
</g></g><g
       id="g5546"
       transform="translate(-50.6875,-97.00351)"><g
         id="g5548"
         clip-path="url(#clipPath5550)"><text
           transform="matrix(1,0,0,-1,629.78,160.94)"
           style="font-variant:normal;font-weight:normal;font-size:21.09600067px;font-family:Calibri;-inkscape-font-specification:Calibri;writing-mode:lr-tb;fill:#595959;fill-opacity:1;fill-rule:nonzero;stroke:none"
           id="text5554"><tspan
             x="0 10.535672"
             y="0"
             sodipodi:role="line"
             id="tspan5556">29</tspan></text>
</g></g><g
       id="g5558"
       transform="translate(-50.6875,-97.00351)"><g
         id="g5560"
         clip-path="url(#clipPath5562)"><text
           transform="matrix(-4.4e-8,1,1,4.4e-8,749.21,241.78)"
           style="font-variant:normal;font-weight:normal;font-size:22.94400024px;font-family:Calibri;-inkscape-font-specification:Calibri;writing-mode:lr-tb;fill:#595959;fill-opacity:1;fill-rule:nonzero;stroke:none"
           id="text5566"><tspan
             x="0 19.685951 31.112064 42.102242 54.239616 59.034912 78.720863 90.812355 102.76617 110.52125 122.63568 127.9128 138.19171"
             y="0"
             sodipodi:role="line"
             id="tspan5568">Mean Monthly </tspan></text>
</g></g><g
       id="g5570"
       transform="translate(-50.6875,-97.00351)"><g
         id="g5572"
         clip-path="url(#clipPath5574)"><text
           transform="matrix(-4.4e-8,1,1,4.4e-8,777.19,250.94)"
           style="font-variant:normal;font-weight:normal;font-size:22.92000008px;font-family:Calibri;-inkscape-font-specification:Calibri;writing-mode:lr-tb;fill:#595959;fill-opacity:1;fill-rule:nonzero;stroke:none"
           id="text5578"><tspan
             x="0 9.1680002 20.582161 38.895241 51.065762 62.479919 70.066437 80.838837 88.608719 100.7334 108.5262"
             y="0"
             sodipodi:role="line"
             id="tspan5580">Temperature</tspan></text>
</g></g><g
       id="g5582"
       transform="translate(-50.6875,-97.00351)"><g
         id="g5584"
         clip-path="url(#clipPath5586)"><text
           transform="matrix(-4.4e-8,1,1,4.4e-8,76.056,264.62)"
           style="font-variant:normal;font-weight:normal;font-size:22.92000008px;font-family:Calibri;-inkscape-font-specification:Calibri;writing-mode:lr-tb;fill:#595959;fill-opacity:1;fill-rule:nonzero;stroke:none"
           id="text5590"><tspan
             x="0 5.7758398 15.33348 26.747641 32.019241 44.16684 51.936722 63.35088 74.329559"
             y="0"
             sodipodi:role="line"
             id="tspan5592">Ice Cream</tspan></text>
</g></g><g
       id="g5594"
       transform="translate(-50.6875,-97.00351)"><g
         id="g5596"
         clip-path="url(#clipPath5598)"><text
           transform="matrix(-4.4e-8,1,1,4.4e-8,104.04,248.33)"
           style="font-variant:normal;font-weight:normal;font-size:22.92000008px;font-family:Calibri;-inkscape-font-specification:Calibri;writing-mode:lr-tb;fill:#595959;fill-opacity:1;fill-rule:nonzero;stroke:none"
           id="text5602"><tspan
             x="0 12.21636 24.2952 36.48864 45.450359 57.575039 75.888123 88.081558 95.85144 101.12304 113.27064"
             y="0"
             sodipodi:role="line"
             id="tspan5604">Consumption</tspan></text>
</g></g><g
       id="g5606"
       transform="translate(-50.6875,-97.00351)"><g
         id="g5608"
         clip-path="url(#clipPath5610)"><text
           transform="matrix(1,0,0,-1,389.33,114.89)"
           style="font-variant:normal;font-weight:normal;font-size:22.94400024px;font-family:Calibri;-inkscape-font-specification:Calibri;writing-mode:lr-tb;fill:#595959;fill-opacity:1;fill-rule:nonzero;stroke:none"
           id="text5614"><tspan
             x="0 19.708897 31.846272 43.777153 51.555168"
             y="0"
             sodipodi:role="line"
             id="tspan5616">Month</tspan></text>
</g></g><path
       d="m 131.9125,372.75649 36.69,0"
       style="fill:none;stroke:#5b9bd5;stroke-width:4.29890013;stroke-linecap:round;stroke-linejoin:round;stroke-miterlimit:10;stroke-dasharray:none;stroke-opacity:1"
       id="path5618"
       inkscape:connector-curvature="0" /><g
       id="g5620"
       transform="translate(-50.6875,-97.00351)"><g
         id="g5622"
         clip-path="url(#clipPath5624)"><text
           transform="matrix(1,0,0,-1,223.18,464.9)"
           style="font-variant:normal;font-weight:normal;font-size:17.20800018px;font-family:Calibri;-inkscape-font-specification:Calibri;writing-mode:lr-tb;fill:#595959;fill-opacity:1;fill-rule:nonzero;stroke:none"
           id="text5628"><tspan
             x="0 14.71284 23.179176 31.421808 40.593674 44.482681 59.195518 68.143677 77.298332 83.063019 91.993965 96.106682 103.9019 107.79091 116.06796 124.56871 138.3179 147.47256 155.97331 161.9789 170.22154 175.98622 185.08925 191.09483"
             y="0"
             sodipodi:role="line"
             id="tspan5630">Mean Monthly Temperature</tspan></text>
</g></g><path
       d="m 407.8425,372.75649 36.68,0"
       style="fill:none;stroke:#ed7d31;stroke-width:4.29890013;stroke-linecap:round;stroke-linejoin:round;stroke-miterlimit:10;stroke-dasharray:none;stroke-opacity:1"
       id="path5632"
       inkscape:connector-curvature="0" /><g
       id="g5634"
       transform="translate(-50.6875,-97.00351)"><g
         id="g5636"
         clip-path="url(#clipPath5638)"><text
           transform="matrix(1,0,0,-1,499.15,464.9)"
           style="font-variant:normal;font-weight:normal;font-size:17.20800018px;font-family:Calibri;-inkscape-font-specification:Calibri;writing-mode:lr-tb;fill:#595959;fill-opacity:1;fill-rule:nonzero;stroke:none"
           id="text5642"><tspan
             x="0 4.3364158 11.6154 20.184984 24.073992 33.194233 39.148201 47.614536 55.857166 69.606361 73.495369 82.667229 91.821892 100.75284 107.60162 116.53258 130.28177 139.21272 144.9774 149.05569 157.98665"
             y="0"
             sodipodi:role="line"
             id="tspan5644">Ice Cream Consumption</tspan></text>
</g></g></g></svg>