<?xml version="1.0" encoding="UTF-8" standalone="no"?>
<!-- Created with Inkscape (http://www.inkscape.org/) -->

<svg
   xmlns:dc="http://purl.org/dc/elements/1.1/"
   xmlns:cc="http://creativecommons.org/ns#"
   xmlns:rdf="http://www.w3.org/1999/02/22-rdf-syntax-ns#"
   xmlns:svg="http://www.w3.org/2000/svg"
   xmlns="http://www.w3.org/2000/svg"
   xmlns:sodipodi="http://sodipodi.sourceforge.net/DTD/sodipodi-0.dtd"
   xmlns:inkscape="http://www.inkscape.org/namespaces/inkscape"
   id="svg3336"
   version="1.1"
   inkscape:version="0.91 r13725"
   xml:space="preserve"
   width="925.75299"
   height="501.15302"
   viewBox="0 0 925.75299 501.15302"
   sodipodi:docname="Discoveries.svg"><metadata
     id="metadata3342"><rdf:RDF><cc:Work
         rdf:about=""><dc:format>image/svg+xml</dc:format><dc:type
           rdf:resource="http://purl.org/dc/dcmitype/StillImage" /><dc:title></dc:title></cc:Work></rdf:RDF></metadata><defs
     id="defs3340"><clipPath
       clipPathUnits="userSpaceOnUse"
       id="clipPath3356"><path
         d="m 154.32,214.69 616.54,0 0,260.37 -616.54,0 0,-260.37 z"
         id="path3358"
         inkscape:connector-curvature="0"
         style="clip-rule:evenodd" /></clipPath><clipPath
       clipPathUnits="userSpaceOnUse"
       id="clipPath3366"><path
         d="m 51.48,97.68 739.2,0 0,399.6 -739.2,0 0,-399.6 z"
         id="path3368"
         inkscape:connector-curvature="0"
         style="clip-rule:evenodd" /></clipPath><clipPath
       clipPathUnits="userSpaceOnUse"
       id="clipPath3378"><path
         d="m 51.48,97.68 739.2,0 0,399.6 -739.2,0 0,-399.6 z"
         id="path3380"
         inkscape:connector-curvature="0"
         style="clip-rule:evenodd" /></clipPath><clipPath
       clipPathUnits="userSpaceOnUse"
       id="clipPath3390"><path
         d="m 51.48,97.68 739.2,0 0,399.6 -739.2,0 0,-399.6 z"
         id="path3392"
         inkscape:connector-curvature="0"
         style="clip-rule:evenodd" /></clipPath><clipPath
       clipPathUnits="userSpaceOnUse"
       id="clipPath3402"><path
         d="m 51.48,97.68 739.2,0 0,399.6 -739.2,0 0,-399.6 z"
         id="path3404"
         inkscape:connector-curvature="0"
         style="clip-rule:evenodd" /></clipPath><clipPath
       clipPathUnits="userSpaceOnUse"
       id="clipPath3414"><path
         d="m 51.48,97.68 739.2,0 0,399.6 -739.2,0 0,-399.6 z"
         id="path3416"
         inkscape:connector-curvature="0"
         style="clip-rule:evenodd" /></clipPath><clipPath
       clipPathUnits="userSpaceOnUse"
       id="clipPath3426"><path
         d="m 51.48,97.68 739.2,0 0,399.6 -739.2,0 0,-399.6 z"
         id="path3428"
         inkscape:connector-curvature="0"
         style="clip-rule:evenodd" /></clipPath><clipPath
       clipPathUnits="userSpaceOnUse"
       id="clipPath3438"><path
         d="m 51.48,97.68 739.2,0 0,399.6 -739.2,0 0,-399.6 z"
         id="path3440"
         inkscape:connector-curvature="0"
         style="clip-rule:evenodd" /></clipPath><clipPath
       clipPathUnits="userSpaceOnUse"
       id="clipPath3450"><path
         d="m 51.48,97.68 739.2,0 0,399.6 -739.2,0 0,-399.6 z"
         id="path3452"
         inkscape:connector-curvature="0"
         style="clip-rule:evenodd" /></clipPath><clipPath
       clipPathUnits="userSpaceOnUse"
       id="clipPath3462"><path
         d="m 51.48,97.68 739.2,0 0,399.6 -739.2,0 0,-399.6 z"
         id="path3464"
         inkscape:connector-curvature="0"
         style="clip-rule:evenodd" /></clipPath><clipPath
       clipPathUnits="userSpaceOnUse"
       id="clipPath3474"><path
         d="m 51.48,97.68 739.2,0 0,399.6 -739.2,0 0,-399.6 z"
         id="path3476"
         inkscape:connector-curvature="0"
         style="clip-rule:evenodd" /></clipPath><clipPath
       clipPathUnits="userSpaceOnUse"
       id="clipPath3486"><path
         d="m 51.48,97.68 739.2,0 0,399.6 -739.2,0 0,-399.6 z"
         id="path3488"
         inkscape:connector-curvature="0"
         style="clip-rule:evenodd" /></clipPath><clipPath
       clipPathUnits="userSpaceOnUse"
       id="clipPath3498"><path
         d="m 51.48,97.68 739.2,0 0,399.6 -739.2,0 0,-399.6 z"
         id="path3500"
         inkscape:connector-curvature="0"
         style="clip-rule:evenodd" /></clipPath><clipPath
       clipPathUnits="userSpaceOnUse"
       id="clipPath3510"><path
         d="m 51.48,97.68 739.2,0 0,399.6 -739.2,0 0,-399.6 z"
         id="path3512"
         inkscape:connector-curvature="0"
         style="clip-rule:evenodd" /></clipPath><clipPath
       clipPathUnits="userSpaceOnUse"
       id="clipPath3522"><path
         d="m 51.48,97.68 739.2,0 0,399.6 -739.2,0 0,-399.6 z"
         id="path3524"
         inkscape:connector-curvature="0"
         style="clip-rule:evenodd" /></clipPath><clipPath
       clipPathUnits="userSpaceOnUse"
       id="clipPath3534"><path
         d="m 51.48,97.68 739.2,0 0,399.6 -739.2,0 0,-399.6 z"
         id="path3536"
         inkscape:connector-curvature="0"
         style="clip-rule:evenodd" /></clipPath><clipPath
       clipPathUnits="userSpaceOnUse"
       id="clipPath3546"><path
         d="m 51.48,97.68 739.2,0 0,399.6 -739.2,0 0,-399.6 z"
         id="path3548"
         inkscape:connector-curvature="0"
         style="clip-rule:evenodd" /></clipPath><clipPath
       clipPathUnits="userSpaceOnUse"
       id="clipPath3558"><path
         d="m 51.48,97.68 739.2,0 0,399.6 -739.2,0 0,-399.6 z"
         id="path3560"
         inkscape:connector-curvature="0"
         style="clip-rule:evenodd" /></clipPath><clipPath
       clipPathUnits="userSpaceOnUse"
       id="clipPath3570"><path
         d="m 51.48,97.68 739.2,0 0,399.6 -739.2,0 0,-399.6 z"
         id="path3572"
         inkscape:connector-curvature="0"
         style="clip-rule:evenodd" /></clipPath><clipPath
       clipPathUnits="userSpaceOnUse"
       id="clipPath3582"><path
         d="m 51.48,97.68 739.2,0 0,399.6 -739.2,0 0,-399.6 z"
         id="path3584"
         inkscape:connector-curvature="0"
         style="clip-rule:evenodd" /></clipPath><clipPath
       clipPathUnits="userSpaceOnUse"
       id="clipPath3594"><path
         d="m 51.48,97.68 739.2,0 0,399.6 -739.2,0 0,-399.6 z"
         id="path3596"
         inkscape:connector-curvature="0"
         style="clip-rule:evenodd" /></clipPath><clipPath
       clipPathUnits="userSpaceOnUse"
       id="clipPath3606"><path
         d="m 51.48,97.68 739.2,0 0,399.6 -739.2,0 0,-399.6 z"
         id="path3608"
         inkscape:connector-curvature="0"
         style="clip-rule:evenodd" /></clipPath><clipPath
       clipPathUnits="userSpaceOnUse"
       id="clipPath3618"><path
         d="m 51.48,97.68 739.2,0 0,399.6 -739.2,0 0,-399.6 z"
         id="path3620"
         inkscape:connector-curvature="0"
         style="clip-rule:evenodd" /></clipPath><clipPath
       clipPathUnits="userSpaceOnUse"
       id="clipPath3630"><path
         d="m 51.48,97.68 739.2,0 0,399.6 -739.2,0 0,-399.6 z"
         id="path3632"
         inkscape:connector-curvature="0"
         style="clip-rule:evenodd" /></clipPath><clipPath
       clipPathUnits="userSpaceOnUse"
       id="clipPath3642"><path
         d="m 51.48,97.68 739.2,0 0,399.6 -739.2,0 0,-399.6 z"
         id="path3644"
         inkscape:connector-curvature="0"
         style="clip-rule:evenodd" /></clipPath><clipPath
       clipPathUnits="userSpaceOnUse"
       id="clipPath3654"><path
         d="m 51.48,97.68 739.2,0 0,399.6 -739.2,0 0,-399.6 z"
         id="path3656"
         inkscape:connector-curvature="0"
         style="clip-rule:evenodd" /></clipPath><clipPath
       clipPathUnits="userSpaceOnUse"
       id="clipPath3666"><path
         d="m 51.48,97.68 739.2,0 0,399.6 -739.2,0 0,-399.6 z"
         id="path3668"
         inkscape:connector-curvature="0"
         style="clip-rule:evenodd" /></clipPath><clipPath
       clipPathUnits="userSpaceOnUse"
       id="clipPath3678"><path
         d="m 51.48,97.68 739.2,0 0,399.6 -739.2,0 0,-399.6 z"
         id="path3680"
         inkscape:connector-curvature="0"
         style="clip-rule:evenodd" /></clipPath><clipPath
       clipPathUnits="userSpaceOnUse"
       id="clipPath3690"><path
         d="m 51.48,97.68 739.2,0 0,399.6 -739.2,0 0,-399.6 z"
         id="path3692"
         inkscape:connector-curvature="0"
         style="clip-rule:evenodd" /></clipPath><clipPath
       clipPathUnits="userSpaceOnUse"
       id="clipPath3702"><path
         d="m 51.48,97.68 739.2,0 0,399.6 -739.2,0 0,-399.6 z"
         id="path3704"
         inkscape:connector-curvature="0"
         style="clip-rule:evenodd" /></clipPath><clipPath
       clipPathUnits="userSpaceOnUse"
       id="clipPath3714"><path
         d="m 51.48,97.68 739.2,0 0,399.6 -739.2,0 0,-399.6 z"
         id="path3716"
         inkscape:connector-curvature="0"
         style="clip-rule:evenodd" /></clipPath></defs><sodipodi:namedview
     pagecolor="#ffffff"
     bordercolor="#666666"
     borderopacity="1"
     objecttolerance="10"
     gridtolerance="10"
     guidetolerance="10"
     inkscape:pageopacity="0"
     inkscape:pageshadow="2"
     inkscape:window-width="1920"
     inkscape:window-height="1138"
     id="namedview3338"
     showgrid="false"
     inkscape:zoom="1.2620968"
     inkscape:cx="526.125"
     inkscape:cy="340.30671"
     inkscape:window-x="-8"
     inkscape:window-y="-8"
     inkscape:window-maximized="1"
     inkscape:current-layer="g3344" /><g
     id="g3344"
     inkscape:groupmode="layer"
     inkscape:label="Discoveries"
     transform="matrix(1.25,0,0,-1.25,0,501.153)"><path
       d="m 103.75325,155.88125 615.12,0 m -615.12,36.9 615.12,0 m -615.12,37.13 615.12,0 m -615.12,36.9 615.12,0 m -615.12,37.14 615.12,0 m -615.12,36.9 615.12,0 m -615.12,36.98 615.12,0"
       style="fill:none;stroke:#d9d9d9;stroke-width:1.4325;stroke-linecap:butt;stroke-linejoin:round;stroke-miterlimit:10;stroke-dasharray:none;stroke-opacity:1"
       id="path3348"
       inkscape:connector-curvature="0" /><path
       d="m 103.75325,118.89125 615.12,0"
       style="fill:none;stroke:#d9d9d9;stroke-width:1.4325;stroke-linecap:butt;stroke-linejoin:round;stroke-miterlimit:10;stroke-dasharray:none;stroke-opacity:1"
       id="path3350"
       inkscape:connector-curvature="0" /><g
       id="g3352"
       transform="translate(-50.69675,-97.07875)"><g
         id="g3354"
         clip-path="url(#clipPath3356)"><path
           d="m 157.53,308.43 6.19,-36.9 6.19,-55.56 5.96,36.99 6.19,-36.99 6.18,55.56 6.19,-18.57 6.19,18.57 6.19,55.46 6.19,-92.59 5.96,18.56 6.19,-18.56 6.18,18.56 6.19,-18.56 6.19,37.13 6.19,0 5.96,0 6.19,36.9 6.19,-55.47 6.18,36.9 6.19,0 6.19,-73.89 5.96,36.99 6.19,18.57 6.19,73.8 6.18,92.59 6.19,-166.39 6.19,129.5 5.96,-18.57 6.19,-129.5 6.19,18.57 6.19,73.8 6.18,0 6.19,-92.37 5.96,18.57 6.19,0 6.19,55.46 6.19,-74.03 6.18,36.9 6.19,-18.33 5.96,36.9 6.19,-55.47 6.19,0 6.19,36.9 6.19,-73.89 6.18,73.89 6.19,-36.9 5.96,55.47 6.19,-55.47 6.19,18.57 6.19,0 6.19,55.46 6.18,-18.56 5.96,55.46 6.19,-92.36 6.19,55.46 6.19,0 6.19,-111.02 6.18,92.46 5.96,-55.47 6.19,0 6.19,0 6.19,74.03 6.19,-55.46 6.19,18.33 5.95,0 6.19,-36.9 6.19,0 6.19,36.9 6.19,55.47 6.19,-36.9 5.96,-36.9 6.18,0 6.19,-55.56 6.19,36.99 6.19,0 6.19,0 5.96,-18.56 6.19,37.13 6.18,18.33 6.19,-36.9 6.19,0 6.19,-18.56 6.19,0 5.96,0 6.18,18.56 6.19,-18.56 6.19,55.46 6.19,0 6.19,-18.33 5.96,-18.57 6.19,-18.56 6.18,55.46 6.19,-55.46 6.19,0 6.19,0 5.96,-18.43 6.19,0 6.19,36.99 6.16,-36.99"
           style="fill:none;stroke:#5b9bd5;stroke-width:4.29750013;stroke-linecap:round;stroke-linejoin:round;stroke-miterlimit:10;stroke-dasharray:none;stroke-opacity:1"
           id="path3360"
           inkscape:connector-curvature="0" /></g></g><g
       id="g3362"
       transform="translate(-50.69675,-97.07875)"><g
         id="g3364"
         clip-path="url(#clipPath3366)"><text
           transform="matrix(1,0,0,-1,124.34,209.95)"
           style="font-variant:normal;font-weight:normal;font-size:21.09600067px;font-family:Calibri;-inkscape-font-specification:Calibri;writing-mode:lr-tb;fill:#595959;fill-opacity:1;fill-rule:nonzero;stroke:none"
           id="text3370"><tspan
             x="0"
             y="0"
             id="tspan3372">0</tspan></text>
</g></g><g
       id="g3374"
       transform="translate(-50.69675,-97.07875)"><g
         id="g3376"
         clip-path="url(#clipPath3378)"><text
           transform="matrix(1,0,0,-1,124.34,246.94)"
           style="font-variant:normal;font-weight:normal;font-size:21.09600067px;font-family:Calibri;-inkscape-font-specification:Calibri;writing-mode:lr-tb;fill:#595959;fill-opacity:1;fill-rule:nonzero;stroke:none"
           id="text3382"><tspan
             x="0"
             y="0"
             id="tspan3384">2</tspan></text>
</g></g><g
       id="g3386"
       transform="translate(-50.69675,-97.07875)"><g
         id="g3388"
         clip-path="url(#clipPath3390)"><text
           transform="matrix(1,0,0,-1,124.34,283.94)"
           style="font-variant:normal;font-weight:normal;font-size:21.09600067px;font-family:Calibri;-inkscape-font-specification:Calibri;writing-mode:lr-tb;fill:#595959;fill-opacity:1;fill-rule:nonzero;stroke:none"
           id="text3394"><tspan
             x="0"
             y="0"
             id="tspan3396">4</tspan></text>
</g></g><g
       id="g3398"
       transform="translate(-50.69675,-97.07875)"><g
         id="g3400"
         clip-path="url(#clipPath3402)"><text
           transform="matrix(1,0,0,-1,124.34,320.95)"
           style="font-variant:normal;font-weight:normal;font-size:21.09600067px;font-family:Calibri;-inkscape-font-specification:Calibri;writing-mode:lr-tb;fill:#595959;fill-opacity:1;fill-rule:nonzero;stroke:none"
           id="text3406"><tspan
             x="0"
             y="0"
             id="tspan3408">6</tspan></text>
</g></g><g
       id="g3410"
       transform="translate(-50.69675,-97.07875)"><g
         id="g3412"
         clip-path="url(#clipPath3414)"><text
           transform="matrix(1,0,0,-1,124.34,357.94)"
           style="font-variant:normal;font-weight:normal;font-size:21.09600067px;font-family:Calibri;-inkscape-font-specification:Calibri;writing-mode:lr-tb;fill:#595959;fill-opacity:1;fill-rule:nonzero;stroke:none"
           id="text3418"><tspan
             x="0"
             y="0"
             id="tspan3420">8</tspan></text>
</g></g><g
       id="g3422"
       transform="translate(-50.69675,-97.07875)"><g
         id="g3424"
         clip-path="url(#clipPath3426)"><text
           transform="matrix(1,0,0,-1,113.69,394.94)"
           style="font-variant:normal;font-weight:normal;font-size:21.09600067px;font-family:Calibri;-inkscape-font-specification:Calibri;writing-mode:lr-tb;fill:#595959;fill-opacity:1;fill-rule:nonzero;stroke:none"
           id="text3430"><tspan
             x="0 10.535672"
             y="0"
             sodipodi:role="line"
             id="tspan3432">10</tspan></text>
</g></g><g
       id="g3434"
       transform="translate(-50.69675,-97.07875)"><g
         id="g3436"
         clip-path="url(#clipPath3438)"><text
           transform="matrix(1,0,0,-1,113.69,431.95)"
           style="font-variant:normal;font-weight:normal;font-size:21.09600067px;font-family:Calibri;-inkscape-font-specification:Calibri;writing-mode:lr-tb;fill:#595959;fill-opacity:1;fill-rule:nonzero;stroke:none"
           id="text3442"><tspan
             x="0 10.535672"
             y="0"
             sodipodi:role="line"
             id="tspan3444">12</tspan></text>
</g></g><g
       id="g3446"
       transform="translate(-50.69675,-97.07875)"><g
         id="g3448"
         clip-path="url(#clipPath3450)"><text
           transform="matrix(1,0,0,-1,113.69,468.94)"
           style="font-variant:normal;font-weight:normal;font-size:21.09600067px;font-family:Calibri;-inkscape-font-specification:Calibri;writing-mode:lr-tb;fill:#595959;fill-opacity:1;fill-rule:nonzero;stroke:none"
           id="text3454"><tspan
             x="0 10.535672"
             y="0"
             sodipodi:role="line"
             id="tspan3456">14</tspan></text>
</g></g><g
       id="g3458"
       transform="translate(-50.69675,-97.07875)"><g
         id="g3460"
         clip-path="url(#clipPath3462)"><text
           transform="matrix(-4.4e-8,1,1,4.4e-8,164.69,159.96)"
           style="font-variant:normal;font-weight:normal;font-size:21.0720005px;font-family:Calibri;-inkscape-font-specification:Calibri;writing-mode:lr-tb;fill:#595959;fill-opacity:1;fill-rule:nonzero;stroke:none"
           id="text3466"><tspan
             x="0 10.536 21.282721 31.81872"
             y="0"
             sodipodi:role="line"
             id="tspan3468">1860</tspan></text>
</g></g><g
       id="g3470"
       transform="translate(-50.69675,-97.07875)"><g
         id="g3472"
         clip-path="url(#clipPath3474)"><text
           transform="matrix(-4.4e-8,1,1,4.4e-8,195.43,159.96)"
           style="font-variant:normal;font-weight:normal;font-size:21.09600067px;font-family:Calibri;-inkscape-font-specification:Calibri;writing-mode:lr-tb;fill:#595959;fill-opacity:1;fill-rule:nonzero;stroke:none"
           id="text3478"><tspan
             x="0 10.526904 21.285864 31.812769"
             y="0"
             sodipodi:role="line"
             id="tspan3480">1865</tspan></text>
</g></g><g
       id="g3482"
       transform="translate(-50.69675,-97.07875)"><g
         id="g3484"
         clip-path="url(#clipPath3486)"><text
           transform="matrix(-4.4e-8,1,1,4.4e-8,226.2,159.96)"
           style="font-variant:normal;font-weight:normal;font-size:21.09600067px;font-family:Calibri;-inkscape-font-specification:Calibri;writing-mode:lr-tb;fill:#595959;fill-opacity:1;fill-rule:nonzero;stroke:none"
           id="text3490"><tspan
             x="0 10.526904 21.285864 31.812769"
             y="0"
             sodipodi:role="line"
             id="tspan3492">1870</tspan></text>
</g></g><g
       id="g3494"
       transform="translate(-50.69675,-97.07875)"><g
         id="g3496"
         clip-path="url(#clipPath3498)"><text
           transform="matrix(-4.4e-8,1,1,4.4e-8,256.97,159.96)"
           style="font-variant:normal;font-weight:normal;font-size:21.0720005px;font-family:Calibri;-inkscape-font-specification:Calibri;writing-mode:lr-tb;fill:#595959;fill-opacity:1;fill-rule:nonzero;stroke:none"
           id="text3502"><tspan
             x="0 10.536 21.282721 31.81872"
             y="0"
             sodipodi:role="line"
             id="tspan3504">1875</tspan></text>
</g></g><g
       id="g3506"
       transform="translate(-50.69675,-97.07875)"><g
         id="g3508"
         clip-path="url(#clipPath3510)"><text
           transform="matrix(-4.4e-8,1,1,4.4e-8,287.71,159.96)"
           style="font-variant:normal;font-weight:normal;font-size:21.09600067px;font-family:Calibri;-inkscape-font-specification:Calibri;writing-mode:lr-tb;fill:#595959;fill-opacity:1;fill-rule:nonzero;stroke:none"
           id="text3514"><tspan
             x="0 10.526904 21.285864 31.812769"
             y="0"
             sodipodi:role="line"
             id="tspan3516">1880</tspan></text>
</g></g><g
       id="g3518"
       transform="translate(-50.69675,-97.07875)"><g
         id="g3520"
         clip-path="url(#clipPath3522)"><text
           transform="matrix(-4.4e-8,1,1,4.4e-8,318.48,159.96)"
           style="font-variant:normal;font-weight:normal;font-size:21.09600067px;font-family:Calibri;-inkscape-font-specification:Calibri;writing-mode:lr-tb;fill:#595959;fill-opacity:1;fill-rule:nonzero;stroke:none"
           id="text3526"><tspan
             x="0 10.526904 21.285864 31.812769"
             y="0"
             sodipodi:role="line"
             id="tspan3528">1885</tspan></text>
</g></g><g
       id="g3530"
       transform="translate(-50.69675,-97.07875)"><g
         id="g3532"
         clip-path="url(#clipPath3534)"><text
           transform="matrix(-4.4e-8,1,1,4.4e-8,349.25,159.96)"
           style="font-variant:normal;font-weight:normal;font-size:21.0720005px;font-family:Calibri;-inkscape-font-specification:Calibri;writing-mode:lr-tb;fill:#595959;fill-opacity:1;fill-rule:nonzero;stroke:none"
           id="text3538"><tspan
             x="0 10.536 21.282721 31.81872"
             y="0"
             sodipodi:role="line"
             id="tspan3540">1890</tspan></text>
</g></g><g
       id="g3542"
       transform="translate(-50.69675,-97.07875)"><g
         id="g3544"
         clip-path="url(#clipPath3546)"><text
           transform="matrix(-4.4e-8,1,1,4.4e-8,379.99,159.96)"
           style="font-variant:normal;font-weight:normal;font-size:21.09600067px;font-family:Calibri;-inkscape-font-specification:Calibri;writing-mode:lr-tb;fill:#595959;fill-opacity:1;fill-rule:nonzero;stroke:none"
           id="text3550"><tspan
             x="0 10.526904 21.285864 31.812769"
             y="0"
             sodipodi:role="line"
             id="tspan3552">1895</tspan></text>
</g></g><g
       id="g3554"
       transform="translate(-50.69675,-97.07875)"><g
         id="g3556"
         clip-path="url(#clipPath3558)"><text
           transform="matrix(-4.4e-8,1,1,4.4e-8,410.76,159.96)"
           style="font-variant:normal;font-weight:normal;font-size:21.09600067px;font-family:Calibri;-inkscape-font-specification:Calibri;writing-mode:lr-tb;fill:#595959;fill-opacity:1;fill-rule:nonzero;stroke:none"
           id="text3562"><tspan
             x="0 10.526904 21.285864 31.812769"
             y="0"
             sodipodi:role="line"
             id="tspan3564">1900</tspan></text>
</g></g><g
       id="g3566"
       transform="translate(-50.69675,-97.07875)"><g
         id="g3568"
         clip-path="url(#clipPath3570)"><text
           transform="matrix(-4.4e-8,1,1,4.4e-8,441.53,159.96)"
           style="font-variant:normal;font-weight:normal;font-size:21.0720005px;font-family:Calibri;-inkscape-font-specification:Calibri;writing-mode:lr-tb;fill:#595959;fill-opacity:1;fill-rule:nonzero;stroke:none"
           id="text3574"><tspan
             x="0 10.536 21.282721 31.81872"
             y="0"
             sodipodi:role="line"
             id="tspan3576">1905</tspan></text>
</g></g><g
       id="g3578"
       transform="translate(-50.69675,-97.07875)"><g
         id="g3580"
         clip-path="url(#clipPath3582)"><text
           transform="matrix(-4.4e-8,1,1,4.4e-8,472.27,159.96)"
           style="font-variant:normal;font-weight:normal;font-size:21.09600067px;font-family:Calibri;-inkscape-font-specification:Calibri;writing-mode:lr-tb;fill:#595959;fill-opacity:1;fill-rule:nonzero;stroke:none"
           id="text3586"><tspan
             x="0 10.526904 21.285864 31.812769"
             y="0"
             sodipodi:role="line"
             id="tspan3588">1910</tspan></text>
</g></g><g
       id="g3590"
       transform="translate(-50.69675,-97.07875)"><g
         id="g3592"
         clip-path="url(#clipPath3594)"><text
           transform="matrix(-4.4e-8,1,1,4.4e-8,503.04,159.96)"
           style="font-variant:normal;font-weight:normal;font-size:21.09600067px;font-family:Calibri;-inkscape-font-specification:Calibri;writing-mode:lr-tb;fill:#595959;fill-opacity:1;fill-rule:nonzero;stroke:none"
           id="text3598"><tspan
             x="0 10.526904 21.285864 31.812769"
             y="0"
             sodipodi:role="line"
             id="tspan3600">1915</tspan></text>
</g></g><g
       id="g3602"
       transform="translate(-50.69675,-97.07875)"><g
         id="g3604"
         clip-path="url(#clipPath3606)"><text
           transform="matrix(-4.4e-8,1,1,4.4e-8,533.81,159.96)"
           style="font-variant:normal;font-weight:normal;font-size:21.0720005px;font-family:Calibri;-inkscape-font-specification:Calibri;writing-mode:lr-tb;fill:#595959;fill-opacity:1;fill-rule:nonzero;stroke:none"
           id="text3610"><tspan
             x="0 10.536 21.282721 31.81872"
             y="0"
             sodipodi:role="line"
             id="tspan3612">1920</tspan></text>
</g></g><g
       id="g3614"
       transform="translate(-50.69675,-97.07875)"><g
         id="g3616"
         clip-path="url(#clipPath3618)"><text
           transform="matrix(-4.4e-8,1,1,4.4e-8,564.55,159.96)"
           style="font-variant:normal;font-weight:normal;font-size:21.09600067px;font-family:Calibri;-inkscape-font-specification:Calibri;writing-mode:lr-tb;fill:#595959;fill-opacity:1;fill-rule:nonzero;stroke:none"
           id="text3622"><tspan
             x="0 10.526904 21.285864 31.812769"
             y="0"
             sodipodi:role="line"
             id="tspan3624">1925</tspan></text>
</g></g><g
       id="g3626"
       transform="translate(-50.69675,-97.07875)"><g
         id="g3628"
         clip-path="url(#clipPath3630)"><text
           transform="matrix(-4.4e-8,1,1,4.4e-8,595.32,159.96)"
           style="font-variant:normal;font-weight:normal;font-size:21.09600067px;font-family:Calibri;-inkscape-font-specification:Calibri;writing-mode:lr-tb;fill:#595959;fill-opacity:1;fill-rule:nonzero;stroke:none"
           id="text3634"><tspan
             x="0 10.526904 21.285864 31.812769"
             y="0"
             sodipodi:role="line"
             id="tspan3636">1930</tspan></text>
</g></g><g
       id="g3638"
       transform="translate(-50.69675,-97.07875)"><g
         id="g3640"
         clip-path="url(#clipPath3642)"><text
           transform="matrix(-4.4e-8,1,1,4.4e-8,626.09,159.96)"
           style="font-variant:normal;font-weight:normal;font-size:21.0720005px;font-family:Calibri;-inkscape-font-specification:Calibri;writing-mode:lr-tb;fill:#595959;fill-opacity:1;fill-rule:nonzero;stroke:none"
           id="text3646"><tspan
             x="0 10.536 21.282721 31.81872"
             y="0"
             sodipodi:role="line"
             id="tspan3648">1935</tspan></text>
</g></g><g
       id="g3650"
       transform="translate(-50.69675,-97.07875)"><g
         id="g3652"
         clip-path="url(#clipPath3654)"><text
           transform="matrix(-4.4e-8,1,1,4.4e-8,656.83,159.96)"
           style="font-variant:normal;font-weight:normal;font-size:21.09600067px;font-family:Calibri;-inkscape-font-specification:Calibri;writing-mode:lr-tb;fill:#595959;fill-opacity:1;fill-rule:nonzero;stroke:none"
           id="text3658"><tspan
             x="0 10.526904 21.285864 31.812769"
             y="0"
             sodipodi:role="line"
             id="tspan3660">1940</tspan></text>
</g></g><g
       id="g3662"
       transform="translate(-50.69675,-97.07875)"><g
         id="g3664"
         clip-path="url(#clipPath3666)"><text
           transform="matrix(-4.4e-8,1,1,4.4e-8,687.6,159.96)"
           style="font-variant:normal;font-weight:normal;font-size:21.09600067px;font-family:Calibri;-inkscape-font-specification:Calibri;writing-mode:lr-tb;fill:#595959;fill-opacity:1;fill-rule:nonzero;stroke:none"
           id="text3670"><tspan
             x="0 10.526904 21.285864 31.812769"
             y="0"
             sodipodi:role="line"
             id="tspan3672">1945</tspan></text>
</g></g><g
       id="g3674"
       transform="translate(-50.69675,-97.07875)"><g
         id="g3676"
         clip-path="url(#clipPath3678)"><text
           transform="matrix(-4.4e-8,1,1,4.4e-8,718.37,159.96)"
           style="font-variant:normal;font-weight:normal;font-size:21.0720005px;font-family:Calibri;-inkscape-font-specification:Calibri;writing-mode:lr-tb;fill:#595959;fill-opacity:1;fill-rule:nonzero;stroke:none"
           id="text3682"><tspan
             x="0 10.536 21.282721 31.81872"
             y="0"
             sodipodi:role="line"
             id="tspan3684">1950</tspan></text>
</g></g><g
       id="g3686"
       transform="translate(-50.69675,-97.07875)"><g
         id="g3688"
         clip-path="url(#clipPath3690)"><text
           transform="matrix(-4.4e-8,1,1,4.4e-8,749.11,159.96)"
           style="font-variant:normal;font-weight:normal;font-size:21.09600067px;font-family:Calibri;-inkscape-font-specification:Calibri;writing-mode:lr-tb;fill:#595959;fill-opacity:1;fill-rule:nonzero;stroke:none"
           id="text3694"><tspan
             x="0 10.526904 21.285864 31.812769"
             y="0"
             sodipodi:role="line"
             id="tspan3696">1955</tspan></text>
</g></g><g
       id="g3698"
       transform="translate(-50.69675,-97.07875)"><g
         id="g3700"
         clip-path="url(#clipPath3702)"><text
           transform="matrix(-4.4e-8,1,1,4.4e-8,85.896,216.1)"
           style="font-variant:normal;font-weight:normal;font-size:26.83200073px;font-family:Calibri;-inkscape-font-specification:Calibri;writing-mode:lr-tb;fill:#595959;fill-opacity:1;fill-rule:nonzero;stroke:none"
           id="text3706"><tspan
             x="0 17.387136 31.366608 52.671215 66.650688 80.013023 89.377396 95.280434 109.4209 117.71198 123.66869 140.17036 146.34172 156.83304 167.88782 182.02829 193.99536 207.3577 216.72206 222.89342 236.17526"
             y="0"
             sodipodi:role="line"
             id="tspan3708">Number of Discoveries</tspan></text>
</g></g><g
       id="g3710"
       transform="translate(-50.69675,-97.07875)"><g
         id="g3712"
         clip-path="url(#clipPath3714)"><text
           transform="matrix(1,0,0,-1,426.74,107.76)"
           style="font-variant:normal;font-weight:normal;font-size:26.83200073px;font-family:Calibri;-inkscape-font-specification:Calibri;writing-mode:lr-tb;fill:#595959;fill-opacity:1;fill-rule:nonzero;stroke:none"
           id="text3718"><tspan
             x="0 11.242608 24.604944 37.457474"
             y="0"
             sodipodi:role="line"
             id="tspan3720">Year</tspan></text>
</g></g></g></svg>