<?xml version="1.0" encoding="UTF-8" standalone="no"?>
<!-- Created with Inkscape (http://www.inkscape.org/) -->

<svg
   xmlns:dc="http://purl.org/dc/elements/1.1/"
   xmlns:cc="http://creativecommons.org/ns#"
   xmlns:rdf="http://www.w3.org/1999/02/22-rdf-syntax-ns#"
   xmlns:svg="http://www.w3.org/2000/svg"
   xmlns="http://www.w3.org/2000/svg"
   xmlns:sodipodi="http://sodipodi.sourceforge.net/DTD/sodipodi-0.dtd"
   xmlns:inkscape="http://www.inkscape.org/namespaces/inkscape"
   id="svg3336"
   version="1.1"
   inkscape:version="0.91 r13725"
   xml:space="preserve"
   width="925.87799"
   height="525.92798"
   viewBox="0 0 925.87797 525.92798"
   sodipodi:docname="DiscoveriesScatter.svg"><metadata
     id="metadata3342"><rdf:RDF><cc:Work
         rdf:about=""><dc:format>image/svg+xml</dc:format><dc:type
           rdf:resource="http://purl.org/dc/dcmitype/StillImage" /><dc:title></dc:title></cc:Work></rdf:RDF></metadata><defs
     id="defs3340"><clipPath
       clipPathUnits="userSpaceOnUse"
       id="clipPath3356"><path
         d="m 159.39,210.6 610.59,0 0,273.32 -610.59,0 0,-273.32 z"
         id="path3358"
         inkscape:connector-curvature="0"
         style="clip-rule:evenodd" /></clipPath><clipPath
       clipPathUnits="userSpaceOnUse"
       id="clipPath3370"><path
         d="m 51.24,87.96 739.2,0 0,419.28 -739.2,0 0,-419.28 z"
         id="path3372"
         inkscape:connector-curvature="0"
         style="clip-rule:evenodd" /></clipPath><clipPath
       clipPathUnits="userSpaceOnUse"
       id="clipPath3382"><path
         d="m 51.24,87.96 739.2,0 0,419.28 -739.2,0 0,-419.28 z"
         id="path3384"
         inkscape:connector-curvature="0"
         style="clip-rule:evenodd" /></clipPath><clipPath
       clipPathUnits="userSpaceOnUse"
       id="clipPath3394"><path
         d="m 51.24,87.96 739.2,0 0,419.28 -739.2,0 0,-419.28 z"
         id="path3396"
         inkscape:connector-curvature="0"
         style="clip-rule:evenodd" /></clipPath><clipPath
       clipPathUnits="userSpaceOnUse"
       id="clipPath3406"><path
         d="m 51.24,87.96 739.2,0 0,419.28 -739.2,0 0,-419.28 z"
         id="path3408"
         inkscape:connector-curvature="0"
         style="clip-rule:evenodd" /></clipPath><clipPath
       clipPathUnits="userSpaceOnUse"
       id="clipPath3418"><path
         d="m 51.24,87.96 739.2,0 0,419.28 -739.2,0 0,-419.28 z"
         id="path3420"
         inkscape:connector-curvature="0"
         style="clip-rule:evenodd" /></clipPath><clipPath
       clipPathUnits="userSpaceOnUse"
       id="clipPath3430"><path
         d="m 51.24,87.96 739.2,0 0,419.28 -739.2,0 0,-419.28 z"
         id="path3432"
         inkscape:connector-curvature="0"
         style="clip-rule:evenodd" /></clipPath><clipPath
       clipPathUnits="userSpaceOnUse"
       id="clipPath3442"><path
         d="m 51.24,87.96 739.2,0 0,419.28 -739.2,0 0,-419.28 z"
         id="path3444"
         inkscape:connector-curvature="0"
         style="clip-rule:evenodd" /></clipPath><clipPath
       clipPathUnits="userSpaceOnUse"
       id="clipPath3454"><path
         d="m 51.24,87.96 739.2,0 0,419.28 -739.2,0 0,-419.28 z"
         id="path3456"
         inkscape:connector-curvature="0"
         style="clip-rule:evenodd" /></clipPath><clipPath
       clipPathUnits="userSpaceOnUse"
       id="clipPath3466"><path
         d="m 51.24,87.96 739.2,0 0,419.28 -739.2,0 0,-419.28 z"
         id="path3468"
         inkscape:connector-curvature="0"
         style="clip-rule:evenodd" /></clipPath><clipPath
       clipPathUnits="userSpaceOnUse"
       id="clipPath3478"><path
         d="m 51.24,87.96 739.2,0 0,419.28 -739.2,0 0,-419.28 z"
         id="path3480"
         inkscape:connector-curvature="0"
         style="clip-rule:evenodd" /></clipPath><clipPath
       clipPathUnits="userSpaceOnUse"
       id="clipPath3490"><path
         d="m 51.24,87.96 739.2,0 0,419.28 -739.2,0 0,-419.28 z"
         id="path3492"
         inkscape:connector-curvature="0"
         style="clip-rule:evenodd" /></clipPath><clipPath
       clipPathUnits="userSpaceOnUse"
       id="clipPath3502"><path
         d="m 51.24,87.96 739.2,0 0,419.28 -739.2,0 0,-419.28 z"
         id="path3504"
         inkscape:connector-curvature="0"
         style="clip-rule:evenodd" /></clipPath><clipPath
       clipPathUnits="userSpaceOnUse"
       id="clipPath3514"><path
         d="m 51.24,87.96 739.2,0 0,419.28 -739.2,0 0,-419.28 z"
         id="path3516"
         inkscape:connector-curvature="0"
         style="clip-rule:evenodd" /></clipPath><clipPath
       clipPathUnits="userSpaceOnUse"
       id="clipPath3526"><path
         d="m 51.24,87.96 739.2,0 0,419.28 -739.2,0 0,-419.28 z"
         id="path3528"
         inkscape:connector-curvature="0"
         style="clip-rule:evenodd" /></clipPath><clipPath
       clipPathUnits="userSpaceOnUse"
       id="clipPath3538"><path
         d="m 51.24,87.96 739.2,0 0,419.28 -739.2,0 0,-419.28 z"
         id="path3540"
         inkscape:connector-curvature="0"
         style="clip-rule:evenodd" /></clipPath><clipPath
       clipPathUnits="userSpaceOnUse"
       id="clipPath3550"><path
         d="m 51.24,87.96 739.2,0 0,419.28 -739.2,0 0,-419.28 z"
         id="path3552"
         inkscape:connector-curvature="0"
         style="clip-rule:evenodd" /></clipPath><clipPath
       clipPathUnits="userSpaceOnUse"
       id="clipPath3562"><path
         d="m 51.24,87.96 739.2,0 0,419.28 -739.2,0 0,-419.28 z"
         id="path3564"
         inkscape:connector-curvature="0"
         style="clip-rule:evenodd" /></clipPath><clipPath
       clipPathUnits="userSpaceOnUse"
       id="clipPath3574"><path
         d="m 51.24,87.96 739.2,0 0,419.28 -739.2,0 0,-419.28 z"
         id="path3576"
         inkscape:connector-curvature="0"
         style="clip-rule:evenodd" /></clipPath><clipPath
       clipPathUnits="userSpaceOnUse"
       id="clipPath3586"><path
         d="m 51.24,87.96 739.2,0 0,419.28 -739.2,0 0,-419.28 z"
         id="path3588"
         inkscape:connector-curvature="0"
         style="clip-rule:evenodd" /></clipPath><clipPath
       clipPathUnits="userSpaceOnUse"
       id="clipPath3598"><path
         d="m 51.24,87.96 739.2,0 0,419.28 -739.2,0 0,-419.28 z"
         id="path3600"
         inkscape:connector-curvature="0"
         style="clip-rule:evenodd" /></clipPath><clipPath
       clipPathUnits="userSpaceOnUse"
       id="clipPath3610"><path
         d="m 51.24,87.96 739.2,0 0,419.28 -739.2,0 0,-419.28 z"
         id="path3612"
         inkscape:connector-curvature="0"
         style="clip-rule:evenodd" /></clipPath><clipPath
       clipPathUnits="userSpaceOnUse"
       id="clipPath3622"><path
         d="m 51.24,87.96 739.2,0 0,419.28 -739.2,0 0,-419.28 z"
         id="path3624"
         inkscape:connector-curvature="0"
         style="clip-rule:evenodd" /></clipPath><clipPath
       clipPathUnits="userSpaceOnUse"
       id="clipPath3634"><path
         d="m 51.24,87.96 739.2,0 0,419.28 -739.2,0 0,-419.28 z"
         id="path3636"
         inkscape:connector-curvature="0"
         style="clip-rule:evenodd" /></clipPath><clipPath
       clipPathUnits="userSpaceOnUse"
       id="clipPath3646"><path
         d="m 51.24,87.96 739.2,0 0,419.28 -739.2,0 0,-419.28 z"
         id="path3648"
         inkscape:connector-curvature="0"
         style="clip-rule:evenodd" /></clipPath><clipPath
       clipPathUnits="userSpaceOnUse"
       id="clipPath3658"><path
         d="m 51.24,87.96 739.2,0 0,419.28 -739.2,0 0,-419.28 z"
         id="path3660"
         inkscape:connector-curvature="0"
         style="clip-rule:evenodd" /></clipPath><clipPath
       clipPathUnits="userSpaceOnUse"
       id="clipPath3670"><path
         d="m 51.24,87.96 739.2,0 0,419.28 -739.2,0 0,-419.28 z"
         id="path3672"
         inkscape:connector-curvature="0"
         style="clip-rule:evenodd" /></clipPath><clipPath
       clipPathUnits="userSpaceOnUse"
       id="clipPath3682"><path
         d="m 51.24,87.96 739.2,0 0,419.28 -739.2,0 0,-419.28 z"
         id="path3684"
         inkscape:connector-curvature="0"
         style="clip-rule:evenodd" /></clipPath><clipPath
       clipPathUnits="userSpaceOnUse"
       id="clipPath3694"><path
         d="m 51.24,87.96 739.2,0 0,419.28 -739.2,0 0,-419.28 z"
         id="path3696"
         inkscape:connector-curvature="0"
         style="clip-rule:evenodd" /></clipPath><clipPath
       clipPathUnits="userSpaceOnUse"
       id="clipPath3706"><path
         d="m 51.24,87.96 739.2,0 0,419.28 -739.2,0 0,-419.28 z"
         id="path3708"
         inkscape:connector-curvature="0"
         style="clip-rule:evenodd" /></clipPath><clipPath
       clipPathUnits="userSpaceOnUse"
       id="clipPath3718"><path
         d="m 51.24,87.96 739.2,0 0,419.28 -739.2,0 0,-419.28 z"
         id="path3720"
         inkscape:connector-curvature="0"
         style="clip-rule:evenodd" /></clipPath></defs><sodipodi:namedview
     pagecolor="#ffffff"
     bordercolor="#666666"
     borderopacity="1"
     objecttolerance="10"
     gridtolerance="10"
     guidetolerance="10"
     inkscape:pageopacity="0"
     inkscape:pageshadow="2"
     inkscape:window-width="1280"
     inkscape:window-height="657"
     id="namedview3338"
     showgrid="false"
     inkscape:zoom="0.47701081"
     inkscape:cx="445.83939"
     inkscape:cy="201.61427"
     inkscape:window-x="-8"
     inkscape:window-y="-8"
     inkscape:window-maximized="1"
     inkscape:current-layer="g3344" /><g
     id="g3344"
     inkscape:groupmode="layer"
     inkscape:label="DiscoveriesScatter"
     transform="matrix(1.25,0,0,-1.25,0,525.92798)"><path
       d="m 108.8162,163.49018 609.1,0 m -609.1,38.95 609.1,0 m -609.1,38.7 609.1,0 m -609.1,38.94 609.1,0 m -609.1,38.71 609.1,0 m -609.1,38.94 609.1,0 m -609.1,38.79 609.1,0"
       style="fill:none;stroke:#d9d9d9;stroke-width:1.50240004;stroke-linecap:butt;stroke-linejoin:round;stroke-miterlimit:10;stroke-dasharray:none;stroke-opacity:1"
       id="path3348"
       inkscape:connector-curvature="0" /><path
       d="m 108.8162,124.70018 609.1,0"
       style="fill:none;stroke:#d9d9d9;stroke-width:1.50240004;stroke-linecap:butt;stroke-linejoin:round;stroke-miterlimit:10;stroke-dasharray:none;stroke-opacity:1"
       id="path3350"
       inkscape:connector-curvature="0" /><g
       id="g3352"
       transform="translate(-50.6838,-87.24982)"><g
         id="g3354"
         clip-path="url(#clipPath3356)"><path
           d="m 162.55,308.92 5.97,-38.7 6.25,-58.27 6.01,38.79 6.01,-38.79 6.25,58.27 6.01,-19.48 6.25,19.48 6.01,58.17 6.01,-97.12 6.25,19.47 6.01,-19.47 6.01,19.47 6.25,-19.47 6.01,38.95 6.01,0 6.25,0 6.01,38.7 6.01,-58.18 6.25,38.95 6.01,0 6.01,-77.74 6.25,38.79 6.01,19.48 6.01,77.64 6.25,97.08 6.01,-174.72 6.01,135.82 6.25,-19.24 6.01,-136.06 6.01,19.48 6.25,77.64 6.01,0 6.01,-97.12 6.25,19.48 6.01,0 6.01,58.17 6.25,-77.65 6.01,38.95 6.01,-19.47 6.25,38.7 6.01,-58.18 6.01,0 6.25,38.95 6.01,-77.74 6.01,77.74 6.25,-38.95 6.01,58.18 6.01,-58.18 6.25,19.48 6.01,0 6.01,58.17 6.25,-19.47 6.01,58.41 6.01,-97.11 6.25,58.17 6.01,0 6.01,-116.44 6.25,96.97 6.01,-58.18 6.01,0 6.25,0 6.01,77.65 6.01,-58.17 6.25,19.47 6.01,0 6.01,-38.95 6.25,0 6.01,38.95 6,58.17 6.25,-38.94 6.01,-38.7 6.01,0 6.25,-58.27 6.01,38.79 6.01,0 6.25,0 6.01,-19.47 6.01,38.95 6.25,19.47 6.01,-38.95 6.25,0 6.01,-19.47 6.01,0 6.25,0 6.01,19.47 6.01,-19.47 6.25,58.42 6.01,0 6.01,-19.47 6.25,-19.48 6.01,-19.47 6.01,58.42 6.25,-58.42 6.01,0 6.01,0 6.25,-19.32 6.01,0 6.01,38.79 6.15,-38.79"
           style="fill:none;stroke:#5b9bd5;stroke-width:4.5072999;stroke-linecap:round;stroke-linejoin:round;stroke-miterlimit:10;stroke-dasharray:none;stroke-opacity:1"
           id="path3360"
           inkscape:connector-curvature="0" /></g></g><g
       id="g3362"
       transform="translate(-50.6838,-87.24982)"><path
         d="m 162.55,288.03 603,-31.79"
         style="fill:none;stroke:#ed7d31;stroke-width:3.00489998;stroke-linecap:round;stroke-linejoin:round;stroke-miterlimit:10;stroke-dasharray:0, 6.0097;stroke-dashoffset:0;stroke-opacity:1"
         id="path3364"
         inkscape:connector-curvature="0" /></g><g
       id="g3366"
       transform="translate(-50.6838,-87.24982)"><g
         id="g3368"
         clip-path="url(#clipPath3370)"><text
           transform="matrix(1,0,0,-1,127.9,205.63)"
           style="font-variant:normal;font-weight:normal;font-size:22.12800026px;font-family:Calibri;-inkscape-font-specification:Calibri;writing-mode:lr-tb;fill:#595959;fill-opacity:1;fill-rule:nonzero;stroke:none"
           id="text3374"><tspan
             x="0"
             y="0"
             id="tspan3376">0</tspan></text>
</g></g><g
       id="g3378"
       transform="translate(-50.6838,-87.24982)"><g
         id="g3380"
         clip-path="url(#clipPath3382)"><text
           transform="matrix(1,0,0,-1,127.9,244.46)"
           style="font-variant:normal;font-weight:normal;font-size:22.10400009px;font-family:Calibri;-inkscape-font-specification:Calibri;writing-mode:lr-tb;fill:#595959;fill-opacity:1;fill-rule:nonzero;stroke:none"
           id="text3386"><tspan
             x="0"
             y="0"
             id="tspan3388">2</tspan></text>
</g></g><g
       id="g3390"
       transform="translate(-50.6838,-87.24982)"><g
         id="g3392"
         clip-path="url(#clipPath3394)"><text
           transform="matrix(1,0,0,-1,127.9,283.3)"
           style="font-variant:normal;font-weight:normal;font-size:22.10400009px;font-family:Calibri;-inkscape-font-specification:Calibri;writing-mode:lr-tb;fill:#595959;fill-opacity:1;fill-rule:nonzero;stroke:none"
           id="text3398"><tspan
             x="0"
             y="0"
             id="tspan3400">4</tspan></text>
</g></g><g
       id="g3402"
       transform="translate(-50.6838,-87.24982)"><g
         id="g3404"
         clip-path="url(#clipPath3406)"><text
           transform="matrix(1,0,0,-1,127.9,322.15)"
           style="font-variant:normal;font-weight:normal;font-size:22.12800026px;font-family:Calibri;-inkscape-font-specification:Calibri;writing-mode:lr-tb;fill:#595959;fill-opacity:1;fill-rule:nonzero;stroke:none"
           id="text3410"><tspan
             x="0"
             y="0"
             id="tspan3412">6</tspan></text>
</g></g><g
       id="g3414"
       transform="translate(-50.6838,-87.24982)"><g
         id="g3416"
         clip-path="url(#clipPath3418)"><text
           transform="matrix(1,0,0,-1,127.9,360.98)"
           style="font-variant:normal;font-weight:normal;font-size:22.12800026px;font-family:Calibri;-inkscape-font-specification:Calibri;writing-mode:lr-tb;fill:#595959;fill-opacity:1;fill-rule:nonzero;stroke:none"
           id="text3422"><tspan
             x="0"
             y="0"
             id="tspan3424">8</tspan></text>
</g></g><g
       id="g3426"
       transform="translate(-50.6838,-87.24982)"><g
         id="g3428"
         clip-path="url(#clipPath3430)"><text
           transform="matrix(1,0,0,-1,116.74,399.82)"
           style="font-variant:normal;font-weight:normal;font-size:22.10400009px;font-family:Calibri;-inkscape-font-specification:Calibri;writing-mode:lr-tb;fill:#595959;fill-opacity:1;fill-rule:nonzero;stroke:none"
           id="text3434"><tspan
             x="0 11.063728"
             y="0"
             sodipodi:role="line"
             id="tspan3436">10</tspan></text>
</g></g><g
       id="g3438"
       transform="translate(-50.6838,-87.24982)"><g
         id="g3440"
         clip-path="url(#clipPath3442)"><text
           transform="matrix(1,0,0,-1,116.74,438.67)"
           style="font-variant:normal;font-weight:normal;font-size:22.12800026px;font-family:Calibri;-inkscape-font-specification:Calibri;writing-mode:lr-tb;fill:#595959;fill-opacity:1;fill-rule:nonzero;stroke:none"
           id="text3446"><tspan
             x="0 11.063896"
             y="0"
             sodipodi:role="line"
             id="tspan3448">12</tspan></text>
</g></g><g
       id="g3450"
       transform="translate(-50.6838,-87.24982)"><g
         id="g3452"
         clip-path="url(#clipPath3454)"><text
           transform="matrix(1,0,0,-1,116.74,477.5)"
           style="font-variant:normal;font-weight:normal;font-size:22.12800026px;font-family:Calibri;-inkscape-font-specification:Calibri;writing-mode:lr-tb;fill:#595959;fill-opacity:1;fill-rule:nonzero;stroke:none"
           id="text3458"><tspan
             x="0 11.063896"
             y="0"
             sodipodi:role="line"
             id="tspan3460">14</tspan></text>
</g></g><g
       id="g3462"
       transform="translate(-50.6838,-87.24982)"><g
         id="g3464"
         clip-path="url(#clipPath3466)"><text
           transform="matrix(-4.4e-8,1,1,4.4e-8,170.04,153.19)"
           style="font-variant:normal;font-weight:normal;font-size:22.10400009px;font-family:Calibri;-inkscape-font-specification:Calibri;writing-mode:lr-tb;fill:#595959;fill-opacity:1;fill-rule:nonzero;stroke:none"
           id="text3470"><tspan
             x="0 11.074104 22.347143 33.421249"
             y="0"
             sodipodi:role="line"
             id="tspan3472">1860</tspan></text>
</g></g><g
       id="g3474"
       transform="translate(-50.6838,-87.24982)"><g
         id="g3476"
         clip-path="url(#clipPath3478)"><text
           transform="matrix(-4.4e-8,1,1,4.4e-8,200.5,153.19)"
           style="font-variant:normal;font-weight:normal;font-size:22.10400009px;font-family:Calibri;-inkscape-font-specification:Calibri;writing-mode:lr-tb;fill:#595959;fill-opacity:1;fill-rule:nonzero;stroke:none"
           id="text3482"><tspan
             x="0 11.074104 22.347143 33.421249"
             y="0"
             sodipodi:role="line"
             id="tspan3484">1865</tspan></text>
</g></g><g
       id="g3486"
       transform="translate(-50.6838,-87.24982)"><g
         id="g3488"
         clip-path="url(#clipPath3490)"><text
           transform="matrix(-4.4e-8,1,1,4.4e-8,230.95,153.19)"
           style="font-variant:normal;font-weight:normal;font-size:22.12800026px;font-family:Calibri;-inkscape-font-specification:Calibri;writing-mode:lr-tb;fill:#595959;fill-opacity:1;fill-rule:nonzero;stroke:none"
           id="text3494"><tspan
             x="0 11.064 22.349279 33.41328"
             y="0"
             sodipodi:role="line"
             id="tspan3496">1870</tspan></text>
</g></g><g
       id="g3498"
       transform="translate(-50.6838,-87.24982)"><g
         id="g3500"
         clip-path="url(#clipPath3502)"><text
           transform="matrix(-4.4e-8,1,1,4.4e-8,261.41,153.19)"
           style="font-variant:normal;font-weight:normal;font-size:22.12800026px;font-family:Calibri;-inkscape-font-specification:Calibri;writing-mode:lr-tb;fill:#595959;fill-opacity:1;fill-rule:nonzero;stroke:none"
           id="text3506"><tspan
             x="0 11.064 22.349279 33.41328"
             y="0"
             sodipodi:role="line"
             id="tspan3508">1875</tspan></text>
</g></g><g
       id="g3510"
       transform="translate(-50.6838,-87.24982)"><g
         id="g3512"
         clip-path="url(#clipPath3514)"><text
           transform="matrix(-4.4e-8,1,1,4.4e-8,291.86,153.19)"
           style="font-variant:normal;font-weight:normal;font-size:22.12800026px;font-family:Calibri;-inkscape-font-specification:Calibri;writing-mode:lr-tb;fill:#595959;fill-opacity:1;fill-rule:nonzero;stroke:none"
           id="text3518"><tspan
             x="0 11.064 22.349279 33.41328"
             y="0"
             sodipodi:role="line"
             id="tspan3520">1880</tspan></text>
</g></g><g
       id="g3522"
       transform="translate(-50.6838,-87.24982)"><g
         id="g3524"
         clip-path="url(#clipPath3526)"><text
           transform="matrix(-4.4e-8,1,1,4.4e-8,322.32,153.19)"
           style="font-variant:normal;font-weight:normal;font-size:22.12800026px;font-family:Calibri;-inkscape-font-specification:Calibri;writing-mode:lr-tb;fill:#595959;fill-opacity:1;fill-rule:nonzero;stroke:none"
           id="text3530"><tspan
             x="0 11.064 22.349279 33.41328"
             y="0"
             sodipodi:role="line"
             id="tspan3532">1885</tspan></text>
</g></g><g
       id="g3534"
       transform="translate(-50.6838,-87.24982)"><g
         id="g3536"
         clip-path="url(#clipPath3538)"><text
           transform="matrix(-4.4e-8,1,1,4.4e-8,352.78,153.19)"
           style="font-variant:normal;font-weight:normal;font-size:22.12800026px;font-family:Calibri;-inkscape-font-specification:Calibri;writing-mode:lr-tb;fill:#595959;fill-opacity:1;fill-rule:nonzero;stroke:none"
           id="text3542"><tspan
             x="0 11.064 22.349279 33.41328"
             y="0"
             sodipodi:role="line"
             id="tspan3544">1890</tspan></text>
</g></g><g
       id="g3546"
       transform="translate(-50.6838,-87.24982)"><g
         id="g3548"
         clip-path="url(#clipPath3550)"><text
           transform="matrix(-4.4e-8,1,1,4.4e-8,383.26,153.19)"
           style="font-variant:normal;font-weight:normal;font-size:22.10400009px;font-family:Calibri;-inkscape-font-specification:Calibri;writing-mode:lr-tb;fill:#595959;fill-opacity:1;fill-rule:nonzero;stroke:none"
           id="text3554"><tspan
             x="0 11.074104 22.347143 33.421249"
             y="0"
             sodipodi:role="line"
             id="tspan3556">1895</tspan></text>
</g></g><g
       id="g3558"
       transform="translate(-50.6838,-87.24982)"><g
         id="g3560"
         clip-path="url(#clipPath3562)"><text
           transform="matrix(-4.4e-8,1,1,4.4e-8,413.71,153.19)"
           style="font-variant:normal;font-weight:normal;font-size:22.10400009px;font-family:Calibri;-inkscape-font-specification:Calibri;writing-mode:lr-tb;fill:#595959;fill-opacity:1;fill-rule:nonzero;stroke:none"
           id="text3566"><tspan
             x="0 11.074104 22.347143 33.421249"
             y="0"
             sodipodi:role="line"
             id="tspan3568">1900</tspan></text>
</g></g><g
       id="g3570"
       transform="translate(-50.6838,-87.24982)"><g
         id="g3572"
         clip-path="url(#clipPath3574)"><text
           transform="matrix(-4.4e-8,1,1,4.4e-8,444.17,153.19)"
           style="font-variant:normal;font-weight:normal;font-size:22.10400009px;font-family:Calibri;-inkscape-font-specification:Calibri;writing-mode:lr-tb;fill:#595959;fill-opacity:1;fill-rule:nonzero;stroke:none"
           id="text3578"><tspan
             x="0 11.074104 22.347143 33.421249"
             y="0"
             sodipodi:role="line"
             id="tspan3580">1905</tspan></text>
</g></g><g
       id="g3582"
       transform="translate(-50.6838,-87.24982)"><g
         id="g3584"
         clip-path="url(#clipPath3586)"><text
           transform="matrix(-4.4e-8,1,1,4.4e-8,474.62,153.19)"
           style="font-variant:normal;font-weight:normal;font-size:22.10400009px;font-family:Calibri;-inkscape-font-specification:Calibri;writing-mode:lr-tb;fill:#595959;fill-opacity:1;fill-rule:nonzero;stroke:none"
           id="text3590"><tspan
             x="0 11.074104 22.347143 33.421249"
             y="0"
             sodipodi:role="line"
             id="tspan3592">1910</tspan></text>
</g></g><g
       id="g3594"
       transform="translate(-50.6838,-87.24982)"><g
         id="g3596"
         clip-path="url(#clipPath3598)"><text
           transform="matrix(-4.4e-8,1,1,4.4e-8,505.08,153.19)"
           style="font-variant:normal;font-weight:normal;font-size:22.12800026px;font-family:Calibri;-inkscape-font-specification:Calibri;writing-mode:lr-tb;fill:#595959;fill-opacity:1;fill-rule:nonzero;stroke:none"
           id="text3602"><tspan
             x="0 11.064 22.349279 33.41328"
             y="0"
             sodipodi:role="line"
             id="tspan3604">1915</tspan></text>
</g></g><g
       id="g3606"
       transform="translate(-50.6838,-87.24982)"><g
         id="g3608"
         clip-path="url(#clipPath3610)"><text
           transform="matrix(-4.4e-8,1,1,4.4e-8,535.54,153.19)"
           style="font-variant:normal;font-weight:normal;font-size:22.12800026px;font-family:Calibri;-inkscape-font-specification:Calibri;writing-mode:lr-tb;fill:#595959;fill-opacity:1;fill-rule:nonzero;stroke:none"
           id="text3614"><tspan
             x="0 11.064 22.349279 33.41328"
             y="0"
             sodipodi:role="line"
             id="tspan3616">1920</tspan></text>
</g></g><g
       id="g3618"
       transform="translate(-50.6838,-87.24982)"><g
         id="g3620"
         clip-path="url(#clipPath3622)"><text
           transform="matrix(-4.4e-8,1,1,4.4e-8,565.99,153.19)"
           style="font-variant:normal;font-weight:normal;font-size:22.12800026px;font-family:Calibri;-inkscape-font-specification:Calibri;writing-mode:lr-tb;fill:#595959;fill-opacity:1;fill-rule:nonzero;stroke:none"
           id="text3626"><tspan
             x="0 11.064 22.349279 33.41328"
             y="0"
             sodipodi:role="line"
             id="tspan3628">1925</tspan></text>
</g></g><g
       id="g3630"
       transform="translate(-50.6838,-87.24982)"><g
         id="g3632"
         clip-path="url(#clipPath3634)"><text
           transform="matrix(-4.4e-8,1,1,4.4e-8,596.45,153.19)"
           style="font-variant:normal;font-weight:normal;font-size:22.12800026px;font-family:Calibri;-inkscape-font-specification:Calibri;writing-mode:lr-tb;fill:#595959;fill-opacity:1;fill-rule:nonzero;stroke:none"
           id="text3638"><tspan
             x="0 11.064 22.349279 33.41328"
             y="0"
             sodipodi:role="line"
             id="tspan3640">1930</tspan></text>
</g></g><g
       id="g3642"
       transform="translate(-50.6838,-87.24982)"><g
         id="g3644"
         clip-path="url(#clipPath3646)"><text
           transform="matrix(-4.4e-8,1,1,4.4e-8,626.9,153.19)"
           style="font-variant:normal;font-weight:normal;font-size:22.12800026px;font-family:Calibri;-inkscape-font-specification:Calibri;writing-mode:lr-tb;fill:#595959;fill-opacity:1;fill-rule:nonzero;stroke:none"
           id="text3650"><tspan
             x="0 11.064 22.349279 33.41328"
             y="0"
             sodipodi:role="line"
             id="tspan3652">1935</tspan></text>
</g></g><g
       id="g3654"
       transform="translate(-50.6838,-87.24982)"><g
         id="g3656"
         clip-path="url(#clipPath3658)"><text
           transform="matrix(-4.4e-8,1,1,4.4e-8,657.38,153.19)"
           style="font-variant:normal;font-weight:normal;font-size:22.10400009px;font-family:Calibri;-inkscape-font-specification:Calibri;writing-mode:lr-tb;fill:#595959;fill-opacity:1;fill-rule:nonzero;stroke:none"
           id="text3662"><tspan
             x="0 11.074104 22.347143 33.421249"
             y="0"
             sodipodi:role="line"
             id="tspan3664">1940</tspan></text>
</g></g><g
       id="g3666"
       transform="translate(-50.6838,-87.24982)"><g
         id="g3668"
         clip-path="url(#clipPath3670)"><text
           transform="matrix(-4.4e-8,1,1,4.4e-8,687.84,153.19)"
           style="font-variant:normal;font-weight:normal;font-size:22.10400009px;font-family:Calibri;-inkscape-font-specification:Calibri;writing-mode:lr-tb;fill:#595959;fill-opacity:1;fill-rule:nonzero;stroke:none"
           id="text3674"><tspan
             x="0 11.074104 22.347143 33.421249"
             y="0"
             sodipodi:role="line"
             id="tspan3676">1945</tspan></text>
</g></g><g
       id="g3678"
       transform="translate(-50.6838,-87.24982)"><g
         id="g3680"
         clip-path="url(#clipPath3682)"><text
           transform="matrix(-4.4e-8,1,1,4.4e-8,718.3,153.19)"
           style="font-variant:normal;font-weight:normal;font-size:22.10400009px;font-family:Calibri;-inkscape-font-specification:Calibri;writing-mode:lr-tb;fill:#595959;fill-opacity:1;fill-rule:nonzero;stroke:none"
           id="text3686"><tspan
             x="0 11.074104 22.347143 33.421249"
             y="0"
             sodipodi:role="line"
             id="tspan3688">1950</tspan></text>
</g></g><g
       id="g3690"
       transform="translate(-50.6838,-87.24982)"><g
         id="g3692"
         clip-path="url(#clipPath3694)"><text
           transform="matrix(-4.4e-8,1,1,4.4e-8,748.75,153.19)"
           style="font-variant:normal;font-weight:normal;font-size:22.10400009px;font-family:Calibri;-inkscape-font-specification:Calibri;writing-mode:lr-tb;fill:#595959;fill-opacity:1;fill-rule:nonzero;stroke:none"
           id="text3698"><tspan
             x="0 11.074104 22.347143 33.421249"
             y="0"
             sodipodi:role="line"
             id="tspan3700">1955</tspan></text>
</g></g><g
       id="g3702"
       transform="translate(-50.6838,-87.24982)"><g
         id="g3704"
         clip-path="url(#clipPath3706)"><text
           transform="matrix(-4.4e-8,1,1,4.4e-8,87.288,212.45)"
           style="font-variant:normal;font-weight:normal;font-size:28.12800026px;font-family:Calibri;-inkscape-font-specification:Calibri;writing-mode:lr-tb;fill:#595959;fill-opacity:1;fill-rule:nonzero;stroke:none"
           id="text3710"><tspan
             x="0 18.226944 32.881634 55.215263 69.869949 83.877693 93.694366 99.88253 114.70599 123.39754 129.64195 146.94067 153.41011 164.40816 175.9969 190.82036 203.39357 217.40131 227.21799 233.68742 247.61078"
             y="0"
             sodipodi:role="line"
             id="tspan3712">Number of Discoveries</tspan></text>
</g></g><g
       id="g3714"
       transform="translate(-50.6838,-87.24982)"><g
         id="g3716"
         clip-path="url(#clipPath3718)"><text
           transform="matrix(1,0,0,-1,427.03,98.472)"
           style="font-variant:normal;font-weight:normal;font-size:28.12800026px;font-family:Calibri;-inkscape-font-specification:Calibri;writing-mode:lr-tb;fill:#595959;fill-opacity:1;fill-rule:nonzero;stroke:none"
           id="text3722"><tspan
             x="0 11.785632 25.793377 39.266689"
             y="0"
             sodipodi:role="line"
             id="tspan3724">Year</tspan></text>
</g></g><g
       transform="translate(-50.530838,-88.056353)"
       id="g3754"><path
         d="m 162.55,245.46 1.41,0.72 1.68,0.72 1.44,0.72 1.44,0.48 1.45,0.72 1.44,0.72 1.44,0.72 1.68,0.48 1.45,0.73 1.44,0.72 1.44,0.48 1.44,0.72 1.69,0.72 1.44,0.48 1.44,0.72 1.44,0.48 1.45,0.72 1.68,0.48 1.44,0.73 1.44,0.48 1.45,0.48 1.44,0.72 1.68,0.48 1.44,0.48 1.44,0.72 1.45,0.48 1.44,0.48 1.68,0.72 1.44,0.48 1.45,0.49 1.44,0.48 1.44,0.48 1.68,0.72 1.45,0.48 1.44,0.48 1.44,0.48 1.44,0.48 1.69,0.48 1.44,0.48 1.44,0.48 1.44,0.48 1.45,0.48 1.44,0.49 1.68,0.48 1.44,0.48 1.45,0.24 1.44,0.48 1.44,0.48 1.68,0.48 1.45,0.48 1.44,0.24 1.44,0.48 1.44,0.48 1.68,0.48 1.45,0.24 1.44,0.48 1.44,0.24 1.44,0.49 1.69,0.48 1.44,0.24 1.44,0.48 1.44,0.24 1.45,0.48 1.68,0.24 1.44,0.48 1.44,0.24 1.45,0.48 1.44,0.24 1.68,0.24 1.44,0.48 1.45,0.24 1.44,0.48 1.44,0.24 1.44,0.24 1.69,0.25 1.44,0.48 1.44,0.24 1.44,0.24 1.44,0.24 1.69,0.48 1.44,0.24 1.44,0.24 1.44,0.24 1.45,0.24 1.68,0.24 1.44,0.24 1.44,0.24 1.45,0.24 1.44,0.24 1.68,0.24 1.44,0.24 1.45,0.24 1.44,0.24 1.44,0.24 1.68,0.24 1.45,0.24 1.44,0.24 1.44,0.24 1.44,0 1.69,0.25 1.44,0.24 1.44,0.24 1.44,0.24 1.45,0 1.44,0.24 1.68,0.24 1.44,0.24 1.44,0 1.45,0.24 1.44,0.24 1.68,0 1.44,0.24 1.45,0 1.44,0.24 1.44,0.24 1.68,0 1.45,0.24 1.44,0 1.44,0.24 1.44,0 1.69,0.24 1.44,0 1.44,0.24 1.44,0 1.45,0 1.68,0.24 1.44,0 1.44,0 1.45,0.24 1.44,0 1.68,0 1.44,0.24 1.45,0 1.44,0 1.44,0.24 1.44,0 1.68,0 1.45,0 1.44,0 1.44,0.24 1.44,0 1.69,0 1.44,0 1.44,0 1.44,0 1.45,0 1.68,0 1.44,0 1.44,0.24 1.45,0 1.44,0 1.68,-0.09 1.44,0.09 1.45,0 1.44,0 1.44,-0.24 1.68,0 1.45,0 1.44,0 1.44,0 1.44,0 1.69,0 1.44,0 1.44,0 1.44,-0.24 1.44,0 1.45,0 1.68,0 1.44,0 1.44,-0.24 1.45,0 1.44,0 1.68,0 1.44,-0.24 1.45,0 1.44,0 1.44,-0.24 1.68,0 1.45,0 1.44,-0.24 1.44,0 1.44,0 1.69,-0.24 1.44,0 1.44,-0.24 1.44,0 1.45,0 1.68,-0.24 1.44,0 1.44,-0.24 1.44,0 1.45,-0.24 1.68,0 1.44,-0.24 1.44,0 1.45,-0.24 1.44,0 1.44,-0.24 1.68,0 1.45,-0.24 1.44,-0.24 1.44,0 1.44,-0.24 1.69,0 1.44,-0.24 1.44,-0.24 1.44,0 1.45,-0.24 1.68,-0.24 1.44,0 1.44,-0.25 1.45,-0.24 1.44,-0.24 1.68,0 1.44,-0.24 1.45,-0.24 1.44,0 1.44,-0.24 1.68,-0.24 1.45,-0.24 1.44,-0.24 1.44,0 1.44,-0.24 1.68,-0.24 1.45,-0.24 1.44,-0.24 1.44,0 1.44,-0.24 1.45,-0.24 1.68,-0.24 1.44,-0.24 1.44,-0.24 1.45,-0.24 1.44,-0.24 1.68,-0.24 1.44,0 1.45,-0.24 1.44,-0.24 1.44,-0.24 1.68,-0.24 1.45,-0.24 1.44,-0.25 1.44,-0.24 1.44,-0.24 1.69,-0.24 1.44,-0.24 1.44,-0.24 1.44,-0.24 1.44,-0.24 1.69,-0.24 1.44,-0.24 1.44,-0.24 1.44,-0.24 1.45,-0.24 1.68,-0.24 1.44,-0.24 1.44,-0.24 1.45,-0.48 1.44,-0.24 1.44,-0.24 1.68,-0.24 1.45,-0.24 1.44,-0.24 1.44,-0.24 1.44,-0.24 1.69,-0.25 1.44,-0.48 1.44,-0.24 1.44,-0.24 1.45,-0.24 1.68,-0.24 1.44,-0.24 1.44,-0.48 1.45,-0.24 1.44,-0.24 1.68,-0.24 1.44,-0.24 1.44,-0.24 1.45,-0.48 1.44,-0.24 1.68,-0.24 1.44,-0.24 1.45,-0.48 1.44,-0.24 1.44,-0.24 1.68,-0.24 1.45,-0.24 1.44,-0.49 1.44,-0.24 1.44,-0.24 1.69,-0.24 1.44,-0.48 1.44,-0.24 1.44,-0.24 1.45,-0.48 1.44,-0.24 1.68,-0.24 1.44,-0.24 1.45,-0.48 1.44,-0.24 1.44,-0.24 1.68,-0.48 1.45,-0.24 1.44,-0.24 1.44,-0.48 1.44,-0.24 1.68,-0.24 1.45,-0.49 1.44,-0.24 1.44,-0.24 1.44,-0.48 1.69,-0.24 1.44,-0.24 1.44,-0.48 1.44,-0.24 1.45,-0.24 1.68,-0.48 1.44,-0.24 1.44,-0.24 1.45,-0.48 1.44,-0.24 1.68,-0.24 1.44,-0.48 1.45,-0.24 1.44,-0.48 1.44,-0.25 1.44,-0.24 1.69,-0.48 1.44,-0.24 1.44,-0.24 1.44,-0.48 1.44,-0.24 1.69,-0.48 1.44,-0.24 1.44,-0.24 1.44,-0.48 1.45,-0.24 1.68,-0.48 1.44,-0.24 1.44,-0.24 1.45,-0.48 1.44,-0.24 1.68,-0.48 1.44,-0.24 1.45,-0.25 1.44,-0.48 1.44,-0.24 1.68,-0.48 1.45,-0.24 1.44,-0.24 1.44,-0.48 1.44,-0.24 1.69,-0.48 1.44,-0.24 1.44,-0.24 1.44,-0.48 1.45,-0.24 1.44,-0.48 1.68,-0.24 1.44,-0.24 1.44,-0.48 1.45,-0.24 1.44,-0.49 1.68,-0.24 1.44,-0.24 1.45,-0.48 1.44,-0.24 1.44,-0.48 1.68,-0.24 1.45,-0.24 1.44,-0.48 1.44,-0.24 1.44,-0.48 1.69,-0.24 1.44,-0.24 1.44,-0.48 1.44,-0.24 1.45,-0.48 1.68,-0.24 1.44,-0.24 1.44,-0.49 1.45,-0.24 1.44,-0.24 1.68,-0.48 1.44,-0.24 1.45,-0.48 1.44,-0.24 1.44,-0.24 1.44,-0.48 1.68,-0.24 1.45,-0.24 1.44,-0.48 1.44,-0.24 1.44,-0.24 1.69,-0.48 1.44,-0.24 1.44,-0.24 1.44,-0.48 1.45,-0.24 1.68,-0.24 1.44,-0.49 1.44,-0.24 1.45,-0.24 1.44,-0.48 1.58,-0.27"
         style="fill:none;stroke:#70ad47;stroke-width:3.00489998;stroke-linecap:round;stroke-linejoin:round;stroke-miterlimit:10;stroke-dasharray:0, 6.0097;stroke-dashoffset:0;stroke-opacity:1"
         id="path3756"
         inkscape:connector-curvature="0" /></g></g></svg>