<?xml version="1.0" encoding="UTF-8" standalone="no"?>
<!-- Created with Inkscape (http://www.inkscape.org/) -->

<svg
   xmlns:dc="http://purl.org/dc/elements/1.1/"
   xmlns:cc="http://creativecommons.org/ns#"
   xmlns:rdf="http://www.w3.org/1999/02/22-rdf-syntax-ns#"
   xmlns:svg="http://www.w3.org/2000/svg"
   xmlns="http://www.w3.org/2000/svg"
   xmlns:sodipodi="http://sodipodi.sourceforge.net/DTD/sodipodi-0.dtd"
   xmlns:inkscape="http://www.inkscape.org/namespaces/inkscape"
   id="svg3977"
   version="1.1"
   inkscape:version="0.91 r13725"
   xml:space="preserve"
   width="617.78497"
   height="545.89697"
   viewBox="0 0 617.78497 545.89696"
   sodipodi:docname="RunningRegression.svg"><metadata
     id="metadata3983"><rdf:RDF><cc:Work
         rdf:about=""><dc:format>image/svg+xml</dc:format><dc:type
           rdf:resource="http://purl.org/dc/dcmitype/StillImage" /><dc:title></dc:title></cc:Work></rdf:RDF></metadata><defs
     id="defs3981"><inkscape:path-effect
       effect="spiro"
       id="path-effect4301"
       is_visible="true" /><inkscape:path-effect
       effect="spiro"
       id="path-effect4297"
       is_visible="true" /><inkscape:path-effect
       effect="spiro"
       id="path-effect4293"
       is_visible="true" /><inkscape:path-effect
       effect="spiro"
       id="path-effect4289"
       is_visible="true" /><inkscape:path-effect
       effect="spiro"
       id="path-effect4285"
       is_visible="true" /><inkscape:path-effect
       effect="spiro"
       id="path-effect4277"
       is_visible="true" /><inkscape:path-effect
       effect="spiro"
       id="path-effect4273"
       is_visible="true" /><clipPath
       clipPathUnits="userSpaceOnUse"
       id="clipPath4045"><path
         d="m 51.24,183 492.96,0 0,435.48 -492.96,0 0,-435.48 z"
         id="path4047"
         inkscape:connector-curvature="0"
         style="clip-rule:evenodd" /></clipPath><clipPath
       clipPathUnits="userSpaceOnUse"
       id="clipPath4057"><path
         d="m 51.24,183 492.96,0 0,435.48 -492.96,0 0,-435.48 z"
         id="path4059"
         inkscape:connector-curvature="0"
         style="clip-rule:evenodd" /></clipPath><clipPath
       clipPathUnits="userSpaceOnUse"
       id="clipPath4069"><path
         d="m 51.24,183 492.96,0 0,435.48 -492.96,0 0,-435.48 z"
         id="path4071"
         inkscape:connector-curvature="0"
         style="clip-rule:evenodd" /></clipPath><clipPath
       clipPathUnits="userSpaceOnUse"
       id="clipPath4081"><path
         d="m 51.24,183 492.96,0 0,435.48 -492.96,0 0,-435.48 z"
         id="path4083"
         inkscape:connector-curvature="0"
         style="clip-rule:evenodd" /></clipPath><clipPath
       clipPathUnits="userSpaceOnUse"
       id="clipPath4093"><path
         d="m 51.24,183 492.96,0 0,435.48 -492.96,0 0,-435.48 z"
         id="path4095"
         inkscape:connector-curvature="0"
         style="clip-rule:evenodd" /></clipPath><clipPath
       clipPathUnits="userSpaceOnUse"
       id="clipPath4105"><path
         d="m 51.24,183 492.96,0 0,435.48 -492.96,0 0,-435.48 z"
         id="path4107"
         inkscape:connector-curvature="0"
         style="clip-rule:evenodd" /></clipPath><clipPath
       clipPathUnits="userSpaceOnUse"
       id="clipPath4117"><path
         d="m 51.24,183 492.96,0 0,435.48 -492.96,0 0,-435.48 z"
         id="path4119"
         inkscape:connector-curvature="0"
         style="clip-rule:evenodd" /></clipPath><clipPath
       clipPathUnits="userSpaceOnUse"
       id="clipPath4129"><path
         d="m 51.24,183 492.96,0 0,435.48 -492.96,0 0,-435.48 z"
         id="path4131"
         inkscape:connector-curvature="0"
         style="clip-rule:evenodd" /></clipPath><clipPath
       clipPathUnits="userSpaceOnUse"
       id="clipPath4141"><path
         d="m 51.24,183 492.96,0 0,435.48 -492.96,0 0,-435.48 z"
         id="path4143"
         inkscape:connector-curvature="0"
         style="clip-rule:evenodd" /></clipPath><clipPath
       clipPathUnits="userSpaceOnUse"
       id="clipPath4153"><path
         d="m 51.24,183 492.96,0 0,435.48 -492.96,0 0,-435.48 z"
         id="path4155"
         inkscape:connector-curvature="0"
         style="clip-rule:evenodd" /></clipPath><clipPath
       clipPathUnits="userSpaceOnUse"
       id="clipPath4165"><path
         d="m 51.24,183 492.96,0 0,435.48 -492.96,0 0,-435.48 z"
         id="path4167"
         inkscape:connector-curvature="0"
         style="clip-rule:evenodd" /></clipPath><clipPath
       clipPathUnits="userSpaceOnUse"
       id="clipPath4177"><path
         d="m 51.24,183 492.96,0 0,435.48 -492.96,0 0,-435.48 z"
         id="path4179"
         inkscape:connector-curvature="0"
         style="clip-rule:evenodd" /></clipPath><clipPath
       clipPathUnits="userSpaceOnUse"
       id="clipPath4189"><path
         d="m 51.24,183 492.96,0 0,435.48 -492.96,0 0,-435.48 z"
         id="path4191"
         inkscape:connector-curvature="0"
         style="clip-rule:evenodd" /></clipPath><clipPath
       clipPathUnits="userSpaceOnUse"
       id="clipPath4201"><path
         d="m 51.24,183 492.96,0 0,435.48 -492.96,0 0,-435.48 z"
         id="path4203"
         inkscape:connector-curvature="0"
         style="clip-rule:evenodd" /></clipPath><clipPath
       clipPathUnits="userSpaceOnUse"
       id="clipPath4213"><path
         d="m 51.24,183 492.96,0 0,435.48 -492.96,0 0,-435.48 z"
         id="path4215"
         inkscape:connector-curvature="0"
         style="clip-rule:evenodd" /></clipPath><clipPath
       clipPathUnits="userSpaceOnUse"
       id="clipPath4225"><path
         d="m 51.24,183 492.96,0 0,435.48 -492.96,0 0,-435.48 z"
         id="path4227"
         inkscape:connector-curvature="0"
         style="clip-rule:evenodd" /></clipPath><clipPath
       clipPathUnits="userSpaceOnUse"
       id="clipPath4237"><path
         d="m 51.24,183 492.96,0 0,435.48 -492.96,0 0,-435.48 z"
         id="path4239"
         inkscape:connector-curvature="0"
         style="clip-rule:evenodd" /></clipPath><clipPath
       clipPathUnits="userSpaceOnUse"
       id="clipPath4249"><path
         d="m 51.24,183 492.96,0 0,435.48 -492.96,0 0,-435.48 z"
         id="path4251"
         inkscape:connector-curvature="0"
         style="clip-rule:evenodd" /></clipPath><clipPath
       clipPathUnits="userSpaceOnUse"
       id="clipPath4261"><path
         d="m 51.24,183 492.96,0 0,435.48 -492.96,0 0,-435.48 z"
         id="path4263"
         inkscape:connector-curvature="0"
         style="clip-rule:evenodd" /></clipPath><inkscape:path-effect
       effect="spiro"
       id="path-effect4277-0"
       is_visible="true" /><inkscape:path-effect
       effect="spiro"
       id="path-effect4277-4"
       is_visible="true" /><inkscape:path-effect
       effect="spiro"
       id="path-effect4277-47"
       is_visible="true" /><inkscape:path-effect
       effect="spiro"
       id="path-effect4277-2"
       is_visible="true" /><inkscape:path-effect
       effect="spiro"
       id="path-effect4277-5"
       is_visible="true" /><inkscape:path-effect
       effect="spiro"
       id="path-effect4277-6"
       is_visible="true" /><inkscape:path-effect
       effect="spiro"
       id="path-effect4277-49"
       is_visible="true" /><inkscape:path-effect
       effect="spiro"
       id="path-effect4277-50"
       is_visible="true" /></defs><sodipodi:namedview
     pagecolor="#ffffff"
     bordercolor="#666666"
     borderopacity="1"
     objecttolerance="10"
     gridtolerance="10"
     guidetolerance="10"
     inkscape:pageopacity="0"
     inkscape:pageshadow="2"
     inkscape:window-width="1280"
     inkscape:window-height="657"
     id="namedview3979"
     showgrid="false"
     inkscape:zoom="0.44849866"
     inkscape:cx="86.814095"
     inkscape:cy="206.75961"
     inkscape:window-x="-8"
     inkscape:window-y="-8"
     inkscape:window-maximized="1"
     inkscape:current-layer="g3985" /><g
     id="g3985"
     inkscape:groupmode="layer"
     inkscape:label="RunningRegression"
     transform="matrix(1.25,0,0,-1.25,0,545.89698)"><path
       d="m 93.39985,117.96883 373.68,0 m -373.68,37.41 373.68,0 m -373.68,37.41 373.68,0 m -373.68,37.41 373.68,0 m -373.68,37.41 373.68,0 m -373.68,37.41 373.68,0 m -373.68,37.41 373.68,0 m -373.68,37.42 373.68,0 m -373.68,37.49 373.68,0"
       style="fill:none;stroke:#d9d9d9;stroke-width:1.27769995;stroke-linecap:butt;stroke-linejoin:round;stroke-miterlimit:10;stroke-dasharray:none;stroke-opacity:1"
       id="path3989"
       inkscape:connector-curvature="0" /><path
       d="m 155.58985,417.33883 0,-336.89 m 62.35,336.89 0,-336.89 m 62.35,336.89 0,-336.89 m 62.15,336.89 0,-336.89 m 62.35,336.89 0,-336.89 m 62.29,336.89 0,-336.89"
       style="fill:none;stroke:#d9d9d9;stroke-width:1.27769995;stroke-linecap:butt;stroke-linejoin:round;stroke-miterlimit:10;stroke-dasharray:none;stroke-opacity:1"
       id="path3991"
       inkscape:connector-curvature="0" /><path
       d="m 93.39985,80.44883 0,336.89"
       style="fill:none;stroke:#bfbfbf;stroke-width:1.27769995;stroke-linecap:butt;stroke-linejoin:round;stroke-miterlimit:10;stroke-dasharray:none;stroke-opacity:1"
       id="path3993"
       inkscape:connector-curvature="0" /><path
       d="m 93.39985,80.44883 373.68,0"
       style="fill:none;stroke:#bfbfbf;stroke-width:1.27769995;stroke-linecap:butt;stroke-linejoin:round;stroke-miterlimit:10;stroke-dasharray:none;stroke-opacity:1"
       id="path3995"
       inkscape:connector-curvature="0" /><path
       d="m 452.83985,211.80883 c 0,-2.37 -1.92,-4.29 -4.29,-4.29 -2.37,0 -4.29,1.92 -4.29,4.29 0,2.37 1.92,4.3 4.29,4.3 2.37,0 4.29,-1.93 4.29,-4.3 z"
       style="fill:#5b9bd5;fill-opacity:1;fill-rule:nonzero;stroke:none"
       id="path3997"
       inkscape:connector-curvature="0" /><path
       d="m 452.83985,211.80883 c 0,-2.37 -1.92,-4.29 -4.29,-4.29 -2.37,0 -4.29,1.92 -4.29,4.29 0,2.37 1.92,4.3 4.29,4.3 2.37,0 4.29,-1.93 4.29,-4.3 z"
       style="fill:none;stroke:#5b9bd5;stroke-width:1.22660005;stroke-linecap:butt;stroke-linejoin:round;stroke-miterlimit:10;stroke-dasharray:none;stroke-opacity:1"
       id="path3999"
       inkscape:connector-curvature="0" /><path
       d="m 167.04985,397.02883 c 0,-2.37 -1.93,-4.29 -4.3,-4.29 -2.37,0 -4.29,1.92 -4.29,4.29 0,2.37 1.92,4.29 4.29,4.29 2.37,0 4.3,-1.92 4.3,-4.29 z"
       style="fill:#5b9bd5;fill-opacity:1;fill-rule:nonzero;stroke:none"
       id="path4001"
       inkscape:connector-curvature="0" /><path
       d="m 167.04985,397.02883 c 0,-2.37 -1.93,-4.29 -4.3,-4.29 -2.37,0 -4.29,1.92 -4.29,4.29 0,2.37 1.92,4.29 4.29,4.29 2.37,0 4.3,-1.92 4.3,-4.29 z"
       style="fill:none;stroke:#5b9bd5;stroke-width:1.22660005;stroke-linecap:butt;stroke-linejoin:round;stroke-miterlimit:10;stroke-dasharray:none;stroke-opacity:1"
       id="path4003"
       inkscape:connector-curvature="0" /><path
       d="m 160.29985,358.59883 c 0,-2.38 -1.92,-4.3 -4.29,-4.3 -2.37,0 -4.3,1.92 -4.3,4.3 0,2.37 1.93,4.29 4.3,4.29 2.37,0 4.29,-1.92 4.29,-4.29 z"
       style="fill:#5b9bd5;fill-opacity:1;fill-rule:nonzero;stroke:none"
       id="path4005"
       inkscape:connector-curvature="0" /><path
       d="m 160.29985,358.59883 c 0,-2.38 -1.92,-4.3 -4.29,-4.3 -2.37,0 -4.3,1.92 -4.3,4.3 0,2.37 1.93,4.29 4.3,4.29 2.37,0 4.29,-1.92 4.29,-4.29 z"
       style="fill:none;stroke:#5b9bd5;stroke-width:1.22660005;stroke-linecap:butt;stroke-linejoin:round;stroke-miterlimit:10;stroke-dasharray:none;stroke-opacity:1"
       id="path4007"
       inkscape:connector-curvature="0" /><path
       d="m 247.99985,199.95883 c 0,-2.37 -1.92,-4.3 -4.29,-4.3 -2.37,0 -4.29,1.93 -4.29,4.3 0,2.37 1.92,4.29 4.29,4.29 2.37,0 4.29,-1.92 4.29,-4.29 z"
       style="fill:#5b9bd5;fill-opacity:1;fill-rule:nonzero;stroke:none"
       id="path4009"
       inkscape:connector-curvature="0" /><path
       d="m 247.99985,199.95883 c 0,-2.37 -1.92,-4.3 -4.29,-4.3 -2.37,0 -4.29,1.93 -4.29,4.3 0,2.37 1.92,4.29 4.29,4.29 2.37,0 4.29,-1.92 4.29,-4.29 z"
       style="fill:none;stroke:#5b9bd5;stroke-width:1.22660005;stroke-linecap:butt;stroke-linejoin:round;stroke-miterlimit:10;stroke-dasharray:none;stroke-opacity:1"
       id="path4011"
       inkscape:connector-curvature="0" /><path
       d="m 352.25985,223.66883 c 0,-2.37 -1.92,-4.29 -4.29,-4.29 -2.37,0 -4.29,1.92 -4.29,4.29 0,2.37 1.92,4.29 4.29,4.29 2.37,0 4.29,-1.92 4.29,-4.29 z"
       style="fill:#5b9bd5;fill-opacity:1;fill-rule:nonzero;stroke:none"
       id="path4013"
       inkscape:connector-curvature="0" /><path
       d="m 352.25985,223.66883 c 0,-2.37 -1.92,-4.29 -4.29,-4.29 -2.37,0 -4.29,1.92 -4.29,4.29 0,2.37 1.92,4.29 4.29,4.29 2.37,0 4.29,-1.92 4.29,-4.29 z"
       style="fill:none;stroke:#5b9bd5;stroke-width:1.22660005;stroke-linecap:butt;stroke-linejoin:round;stroke-miterlimit:10;stroke-dasharray:none;stroke-opacity:1"
       id="path4015"
       inkscape:connector-curvature="0" /><path
       d="m 227.14985,153.75883 c 0,-2.38 -1.92,-4.3 -4.29,-4.3 -2.37,0 -4.3,1.92 -4.3,4.3 0,2.37 1.93,4.29 4.3,4.29 2.37,0 4.29,-1.92 4.29,-4.29 z"
       style="fill:#5b9bd5;fill-opacity:1;fill-rule:nonzero;stroke:none"
       id="path4017"
       inkscape:connector-curvature="0" /><path
       d="m 227.14985,153.75883 c 0,-2.38 -1.92,-4.3 -4.29,-4.3 -2.37,0 -4.3,1.92 -4.3,4.3 0,2.37 1.93,4.29 4.3,4.29 2.37,0 4.29,-1.92 4.29,-4.29 z"
       style="fill:none;stroke:#5b9bd5;stroke-width:1.22660005;stroke-linecap:butt;stroke-linejoin:round;stroke-miterlimit:10;stroke-dasharray:none;stroke-opacity:1"
       id="path4019"
       inkscape:connector-curvature="0" /><path
       d="m 186.87985,283.76883 c 0,-2.37 -1.93,-4.29 -4.3,-4.29 -2.37,0 -4.29,1.92 -4.29,4.29 0,2.37 1.92,4.3 4.29,4.3 2.37,0 4.3,-1.93 4.3,-4.3 z"
       style="fill:#5b9bd5;fill-opacity:1;fill-rule:nonzero;stroke:none"
       id="path4021"
       inkscape:connector-curvature="0" /><path
       d="m 186.87985,283.76883 c 0,-2.37 -1.93,-4.29 -4.3,-4.29 -2.37,0 -4.29,1.92 -4.29,4.29 0,2.37 1.92,4.3 4.29,4.3 2.37,0 4.3,-1.93 4.3,-4.3 z"
       style="fill:none;stroke:#5b9bd5;stroke-width:1.22660005;stroke-linecap:butt;stroke-linejoin:round;stroke-miterlimit:10;stroke-dasharray:none;stroke-opacity:1"
       id="path4023"
       inkscape:connector-curvature="0" /><path
       d="m 135.15985,271.70883 c 0,-2.37 -1.93,-4.29 -4.3,-4.29 -2.37,0 -4.29,1.92 -4.29,4.29 0,2.37 1.92,4.3 4.29,4.3 2.37,0 4.3,-1.93 4.3,-4.3 z"
       style="fill:#5b9bd5;fill-opacity:1;fill-rule:nonzero;stroke:none"
       id="path4025"
       inkscape:connector-curvature="0" /><path
       d="m 135.15985,271.70883 c 0,-2.37 -1.93,-4.29 -4.3,-4.29 -2.37,0 -4.29,1.92 -4.29,4.29 0,2.37 1.92,4.3 4.29,4.3 2.37,0 4.3,-1.93 4.3,-4.3 z"
       style="fill:none;stroke:#5b9bd5;stroke-width:1.22660005;stroke-linecap:butt;stroke-linejoin:round;stroke-miterlimit:10;stroke-dasharray:none;stroke-opacity:1"
       id="path4027"
       inkscape:connector-curvature="0" /><path
       d="m 172.56985,97.32883 c 0,-2.37 -1.93,-4.29 -4.3,-4.29 -2.37,0 -4.29,1.92 -4.29,4.29 0,2.37 1.92,4.3 4.29,4.3 2.37,0 4.3,-1.93 4.3,-4.3 z"
       style="fill:#5b9bd5;fill-opacity:1;fill-rule:nonzero;stroke:none"
       id="path4029"
       inkscape:connector-curvature="0" /><path
       d="m 172.56985,97.32883 c 0,-2.37 -1.93,-4.29 -4.3,-4.29 -2.37,0 -4.29,1.92 -4.29,4.29 0,2.37 1.92,4.3 4.29,4.3 2.37,0 4.3,-1.93 4.3,-4.3 z"
       style="fill:none;stroke:#5b9bd5;stroke-width:1.22660005;stroke-linecap:butt;stroke-linejoin:round;stroke-miterlimit:10;stroke-dasharray:none;stroke-opacity:1"
       id="path4031"
       inkscape:connector-curvature="0" /><path
       d="m 151.91985,271.70883 c 0,-2.37 -1.92,-4.29 -4.29,-4.29 -2.38,0 -4.3,1.92 -4.3,4.29 0,2.37 1.92,4.3 4.3,4.3 2.37,0 4.29,-1.93 4.29,-4.3 z"
       style="fill:#5b9bd5;fill-opacity:1;fill-rule:nonzero;stroke:none"
       id="path4033"
       inkscape:connector-curvature="0" /><path
       d="m 151.91985,271.70883 c 0,-2.37 -1.92,-4.29 -4.29,-4.29 -2.38,0 -4.3,1.92 -4.3,4.29 0,2.37 1.92,4.3 4.3,4.3 2.37,0 4.29,-1.93 4.29,-4.3 z"
       style="fill:none;stroke:#5b9bd5;stroke-width:1.22660005;stroke-linecap:butt;stroke-linejoin:round;stroke-miterlimit:10;stroke-dasharray:none;stroke-opacity:1"
       id="path4035"
       inkscape:connector-curvature="0" /><g
       id="g4037"
       transform="translate(-50.59015,-182.24117)"><path
         d="m 156.57,460.74 355,-97.45"
         style="fill:none;stroke:#ed7d31;stroke-width:2.55539989;stroke-linecap:round;stroke-linejoin:round;stroke-miterlimit:10;stroke-dasharray:0, 5.1108;stroke-dashoffset:0;stroke-opacity:1"
         id="path4039"
         inkscape:connector-curvature="0" /></g><g
       id="g4041"
       transform="translate(-50.59015,-182.24117)"><g
         id="g4043"
         clip-path="url(#clipPath4045)"><text
           transform="matrix(1,0,0,-1,102.62,258.29)"
           style="font-variant:normal;font-weight:normal;font-size:15.33600044px;font-family:Calibri;-inkscape-font-specification:Calibri;writing-mode:lr-tb;fill:#595959;fill-opacity:1;fill-rule:nonzero;stroke:none"
           id="text4049"><tspan
             x="0 7.775352 15.504696 19.369368"
             y="0"
             sodipodi:role="line"
             id="tspan4051">10.3</tspan></text>
</g></g><g
       id="g4053"
       transform="translate(-50.59015,-182.24117)"><g
         id="g4055"
         clip-path="url(#clipPath4057)"><text
           transform="matrix(1,0,0,-1,102.62,295.73)"
           style="font-variant:normal;font-weight:normal;font-size:15.33600044px;font-family:Calibri;-inkscape-font-specification:Calibri;writing-mode:lr-tb;fill:#595959;fill-opacity:1;fill-rule:nonzero;stroke:none"
           id="text4061"><tspan
             x="0 7.775352 15.504696 19.369368"
             y="0"
             sodipodi:role="line"
             id="tspan4063">10.4</tspan></text>
</g></g><g
       id="g4065"
       transform="translate(-50.59015,-182.24117)"><g
         id="g4067"
         clip-path="url(#clipPath4069)"><text
           transform="matrix(1,0,0,-1,102.62,333.17)"
           style="font-variant:normal;font-weight:normal;font-size:15.33600044px;font-family:Calibri;-inkscape-font-specification:Calibri;writing-mode:lr-tb;fill:#595959;fill-opacity:1;fill-rule:nonzero;stroke:none"
           id="text4073"><tspan
             x="0 7.775352 15.504696 19.369368"
             y="0"
             sodipodi:role="line"
             id="tspan4075">10.5</tspan></text>
</g></g><g
       id="g4077"
       transform="translate(-50.59015,-182.24117)"><g
         id="g4079"
         clip-path="url(#clipPath4081)"><text
           transform="matrix(1,0,0,-1,102.62,370.61)"
           style="font-variant:normal;font-weight:normal;font-size:15.33600044px;font-family:Calibri;-inkscape-font-specification:Calibri;writing-mode:lr-tb;fill:#595959;fill-opacity:1;fill-rule:nonzero;stroke:none"
           id="text4085"><tspan
             x="0 7.775352 15.504696 19.369368"
             y="0"
             sodipodi:role="line"
             id="tspan4087">10.6</tspan></text>
</g></g><g
       id="g4089"
       transform="translate(-50.59015,-182.24117)"><g
         id="g4091"
         clip-path="url(#clipPath4093)"><text
           transform="matrix(1,0,0,-1,102.62,408.05)"
           style="font-variant:normal;font-weight:normal;font-size:15.33600044px;font-family:Calibri;-inkscape-font-specification:Calibri;writing-mode:lr-tb;fill:#595959;fill-opacity:1;fill-rule:nonzero;stroke:none"
           id="text4097"><tspan
             x="0 7.775352 15.504696 19.369368"
             y="0"
             sodipodi:role="line"
             id="tspan4099">10.7</tspan></text>
</g></g><g
       id="g4101"
       transform="translate(-50.59015,-182.24117)"><g
         id="g4103"
         clip-path="url(#clipPath4105)"><text
           transform="matrix(1,0,0,-1,102.62,445.49)"
           style="font-variant:normal;font-weight:normal;font-size:15.33600044px;font-family:Calibri;-inkscape-font-specification:Calibri;writing-mode:lr-tb;fill:#595959;fill-opacity:1;fill-rule:nonzero;stroke:none"
           id="text4109"><tspan
             x="0 7.775352 15.504696 19.369368"
             y="0"
             sodipodi:role="line"
             id="tspan4111">10.8</tspan></text>
</g></g><g
       id="g4113"
       transform="translate(-50.59015,-182.24117)"><g
         id="g4115"
         clip-path="url(#clipPath4117)"><text
           transform="matrix(1,0,0,-1,102.62,482.93)"
           style="font-variant:normal;font-weight:normal;font-size:15.33600044px;font-family:Calibri;-inkscape-font-specification:Calibri;writing-mode:lr-tb;fill:#595959;fill-opacity:1;fill-rule:nonzero;stroke:none"
           id="text4121"><tspan
             x="0 7.775352 15.504696 19.369368"
             y="0"
             sodipodi:role="line"
             id="tspan4123">10.9</tspan></text>
</g></g><g
       id="g4125"
       transform="translate(-50.59015,-182.24117)"><g
         id="g4127"
         clip-path="url(#clipPath4129)"><text
           transform="matrix(1,0,0,-1,114.24,520.34)"
           style="font-variant:normal;font-weight:normal;font-size:15.31200027px;font-family:Calibri;-inkscape-font-specification:Calibri;writing-mode:lr-tb;fill:#595959;fill-opacity:1;fill-rule:nonzero;stroke:none"
           id="text4133"><tspan
             x="0 7.7759838"
             y="0"
             sodipodi:role="line"
             id="tspan4135">11</tspan></text>
</g></g><g
       id="g4137"
       transform="translate(-50.59015,-182.24117)"><g
         id="g4139"
         clip-path="url(#clipPath4141)"><text
           transform="matrix(1,0,0,-1,102.62,557.78)"
           style="font-variant:normal;font-weight:normal;font-size:15.33600044px;font-family:Calibri;-inkscape-font-specification:Calibri;writing-mode:lr-tb;fill:#595959;fill-opacity:1;fill-rule:nonzero;stroke:none"
           id="text4145"><tspan
             x="0 7.775352 15.504696 19.369368"
             y="0"
             sodipodi:role="line"
             id="tspan4147">11.1</tspan></text>
</g></g><g
       id="g4149"
       transform="translate(-50.59015,-182.24117)"><g
         id="g4151"
         clip-path="url(#clipPath4153)"><text
           transform="matrix(1,0,0,-1,102.62,595.22)"
           style="font-variant:normal;font-weight:normal;font-size:15.33600044px;font-family:Calibri;-inkscape-font-specification:Calibri;writing-mode:lr-tb;fill:#595959;fill-opacity:1;fill-rule:nonzero;stroke:none"
           id="text4157"><tspan
             x="0 7.775352 15.504696 19.369368"
             y="0"
             sodipodi:role="line"
             id="tspan4159">11.2</tspan></text>
</g></g><g
       id="g4161"
       transform="translate(-50.59015,-182.24117)"><g
         id="g4163"
         clip-path="url(#clipPath4165)"><text
           transform="matrix(1,0,0,-1,140.14,238.37)"
           style="font-variant:normal;font-weight:normal;font-size:15.33600044px;font-family:Calibri;-inkscape-font-specification:Calibri;writing-mode:lr-tb;fill:#595959;fill-opacity:1;fill-rule:nonzero;stroke:none"
           id="text4169"><tspan
             x="0"
             y="0"
             id="tspan4171">0</tspan></text>
</g></g><g
       id="g4173"
       transform="translate(-50.59015,-182.24117)"><g
         id="g4175"
         clip-path="url(#clipPath4177)"><text
           transform="matrix(1,0,0,-1,202.42,238.37)"
           style="font-variant:normal;font-weight:normal;font-size:15.33600044px;font-family:Calibri;-inkscape-font-specification:Calibri;writing-mode:lr-tb;fill:#595959;fill-opacity:1;fill-rule:nonzero;stroke:none"
           id="text4181"><tspan
             x="0"
             y="0"
             id="tspan4183">5</tspan></text>
</g></g><g
       id="g4185"
       transform="translate(-50.59015,-182.24117)"><g
         id="g4187"
         clip-path="url(#clipPath4189)"><text
           transform="matrix(1,0,0,-1,260.83,238.37)"
           style="font-variant:normal;font-weight:normal;font-size:15.33600044px;font-family:Calibri;-inkscape-font-specification:Calibri;writing-mode:lr-tb;fill:#595959;fill-opacity:1;fill-rule:nonzero;stroke:none"
           id="text4193"><tspan
             x="0 7.776"
             y="0"
             sodipodi:role="line"
             id="tspan4195">10</tspan></text>
</g></g><g
       id="g4197"
       transform="translate(-50.59015,-182.24117)"><g
         id="g4199"
         clip-path="url(#clipPath4201)"><text
           transform="matrix(1,0,0,-1,323.11,238.37)"
           style="font-variant:normal;font-weight:normal;font-size:15.33600044px;font-family:Calibri;-inkscape-font-specification:Calibri;writing-mode:lr-tb;fill:#595959;fill-opacity:1;fill-rule:nonzero;stroke:none"
           id="text4205"><tspan
             x="0 7.776"
             y="0"
             sodipodi:role="line"
             id="tspan4207">15</tspan></text>
</g></g><g
       id="g4209"
       transform="translate(-50.59015,-182.24117)"><g
         id="g4211"
         clip-path="url(#clipPath4213)"><text
           transform="matrix(1,0,0,-1,385.42,238.37)"
           style="font-variant:normal;font-weight:normal;font-size:15.33600044px;font-family:Calibri;-inkscape-font-specification:Calibri;writing-mode:lr-tb;fill:#595959;fill-opacity:1;fill-rule:nonzero;stroke:none"
           id="text4217"><tspan
             x="0 7.776"
             y="0"
             sodipodi:role="line"
             id="tspan4219">20</tspan></text>
</g></g><g
       id="g4221"
       transform="translate(-50.59015,-182.24117)"><g
         id="g4223"
         clip-path="url(#clipPath4225)"><text
           transform="matrix(1,0,0,-1,447.7,238.37)"
           style="font-variant:normal;font-weight:normal;font-size:15.33600044px;font-family:Calibri;-inkscape-font-specification:Calibri;writing-mode:lr-tb;fill:#595959;fill-opacity:1;fill-rule:nonzero;stroke:none"
           id="text4229"><tspan
             x="0 7.776"
             y="0"
             sodipodi:role="line"
             id="tspan4231">25</tspan></text>
</g></g><g
       id="g4233"
       transform="translate(-50.59015,-182.24117)"><g
         id="g4235"
         clip-path="url(#clipPath4237)"><text
           transform="matrix(1,0,0,-1,510,238.37)"
           style="font-variant:normal;font-weight:normal;font-size:15.33600044px;font-family:Calibri;-inkscape-font-specification:Calibri;writing-mode:lr-tb;fill:#595959;fill-opacity:1;fill-rule:nonzero;stroke:none"
           id="text4241"><tspan
             x="0 7.776"
             y="0"
             sodipodi:role="line"
             id="tspan4243">30</tspan></text>
</g></g><g
       id="g4245"
       transform="translate(-63.39015,-182.24117)"><g
         id="g4247"
         clip-path="url(#clipPath4249)"><text
           transform="matrix(-4.4e-8,1,1,4.4e-8,91.968,348.48)"
           style="font-variant:normal;font-weight:normal;font-size:20.44799995px;font-family:Calibri;-inkscape-font-specification:Calibri;writing-mode:lr-tb;fill:#595959;fill-opacity:1;fill-rule:nonzero;stroke:none"
           id="text4253"><tspan
             x="0 17.544384 27.727488 37.562977 48.35952 52.653599 62.03923 72.856224 83.03933 93.283775 104.08032 108.3744 114.48835 123.68995 140.02791 147.98218 158.77872"
             y="0"
             sodipodi:role="line"
             id="tspan4255">Mean Speed (km/h)</tspan></text>
</g></g><g
       id="g4257"
       transform="translate(-50.59015,-188.64117)"><g
         id="g4259"
         clip-path="url(#clipPath4261)"><text
           transform="matrix(1,0,0,-1,255.55,209.62)"
           style="font-variant:normal;font-weight:normal;font-size:20.44799995px;font-family:Calibri;-inkscape-font-specification:Calibri;writing-mode:lr-tb;fill:#595959;fill-opacity:1;fill-rule:nonzero;stroke:none"
           id="text4265"><tspan
             x="0 12.657312 17.360352 25.110144 31.857985 41.652576 52.469566 61.119072 71.302177 75.575806 86.617729 97.414268 108.21082 112.68893 118.80288 128.00449 144.34244"
             y="0"
             sodipodi:role="line"
             id="tspan4267">Distance Run (km)</tspan></text>
</g></g><path
       style="color:#000000;clip-rule:nonzero;display:inline;overflow:visible;visibility:visible;opacity:1;isolation:auto;mix-blend-mode:normal;color-interpolation:sRGB;color-interpolation-filters:linearRGB;solid-color:#000000;solid-opacity:1;fill:#ffb380;fill-opacity:1;fill-rule:evenodd;stroke:#ff9955;stroke-width:1.60000002;stroke-linecap:butt;stroke-linejoin:miter;stroke-miterlimit:4;stroke-dasharray:none;stroke-dashoffset:0;stroke-opacity:1;color-rendering:auto;image-rendering:auto;shape-rendering:auto;text-rendering:auto;enable-background:accumulate"
       d="m 147.41886,268.23478 0,-1.93674"
       id="path4271"
       inkscape:path-effect="#path-effect4273"
       inkscape:original-d="m 147.41886,268.23478 0,-1.93674"
       inkscape:connector-curvature="0" /><path
       style="fill:#ffb380;fill-rule:evenodd;stroke:#ff9955;stroke-width:1.60000002;stroke-linecap:butt;stroke-linejoin:miter;stroke-miterlimit:4;stroke-dasharray:none;stroke-opacity:1"
       d="m 155.49973,354.115 0,-89.23126"
       id="path4275"
       inkscape:path-effect="#path-effect4277"
       inkscape:original-d="m 155.49973,354.115 0,-89.23126"
       inkscape:connector-curvature="0" /><path
       style="color:#000000;clip-rule:nonzero;display:inline;overflow:visible;visibility:visible;opacity:1;isolation:auto;mix-blend-mode:normal;color-interpolation:sRGB;color-interpolation-filters:linearRGB;solid-color:#000000;solid-opacity:1;fill:#ffb380;fill-opacity:1;fill-rule:evenodd;stroke:#ff9955;stroke-width:1.60000002;stroke-linecap:butt;stroke-linejoin:miter;stroke-miterlimit:4;stroke-dasharray:none;stroke-dashoffset:0;stroke-opacity:1;color-rendering:auto;image-rendering:auto;shape-rendering:auto;text-rendering:auto;enable-background:accumulate"
       d="m 162.89586,392.42035 0,-130.21221"
       id="path4279"
       inkscape:connector-curvature="0" /><path
       style="fill:#ffb380;fill-rule:evenodd;stroke:#ff9955;stroke-width:1.60000002;stroke-linecap:butt;stroke-linejoin:miter;stroke-opacity:1;color:#000000;clip-rule:nonzero;display:inline;overflow:visible;visibility:visible;opacity:1;isolation:auto;mix-blend-mode:normal;color-interpolation:sRGB;color-interpolation-filters:linearRGB;solid-color:#000000;solid-opacity:1;fill-opacity:1;stroke-miterlimit:4;stroke-dasharray:none;stroke-dashoffset:0;filter-blend-mode:normal;filter-gaussianBlur-deviation:0;color-rendering:auto;image-rendering:auto;shape-rendering:auto;text-rendering:auto;enable-background:accumulate"
       d="m 182.12407,280.04544 0,-23.18848"
       id="path4281"
       inkscape:connector-curvature="0" /><path
       style="color:#000000;clip-rule:nonzero;display:inline;overflow:visible;visibility:visible;opacity:1;isolation:auto;mix-blend-mode:normal;color-interpolation:sRGB;color-interpolation-filters:linearRGB;solid-color:#000000;solid-opacity:1;fill:#ffb380;fill-opacity:1;fill-rule:evenodd;stroke:#ff9955;stroke-width:1.60000002;stroke-linecap:butt;stroke-linejoin:miter;stroke-miterlimit:4;stroke-dasharray:none;stroke-dashoffset:0;stroke-opacity:1;color-rendering:auto;image-rendering:auto;shape-rendering:auto;text-rendering:auto;enable-background:accumulate"
       d="m 168.24706,102.24909 0,157.86"
       id="path4283"
       inkscape:path-effect="#path-effect4285"
       inkscape:original-d="m 168.24706,102.24909 0,157.86"
       inkscape:connector-curvature="0" /><path
       style="color:#000000;clip-rule:nonzero;display:inline;overflow:visible;visibility:visible;opacity:1;isolation:auto;mix-blend-mode:normal;color-interpolation:sRGB;color-interpolation-filters:linearRGB;solid-color:#000000;solid-opacity:1;fill:#ffb380;fill-opacity:1;fill-rule:evenodd;stroke:#ff9955;stroke-width:1.60000002;stroke-linecap:butt;stroke-linejoin:miter;stroke-miterlimit:4;stroke-dasharray:none;stroke-dashoffset:0;stroke-opacity:1;color-rendering:auto;image-rendering:auto;shape-rendering:auto;text-rendering:auto;enable-background:accumulate"
       d="m 222.33547,158.32836 0,86.30373"
       id="path4287"
       inkscape:path-effect="#path-effect4289"
       inkscape:original-d="m 222.33547,158.32836 0,86.30373"
       inkscape:connector-curvature="0" /><path
       style="color:#000000;clip-rule:nonzero;display:inline;overflow:visible;visibility:visible;opacity:1;isolation:auto;mix-blend-mode:normal;color-interpolation:sRGB;color-interpolation-filters:linearRGB;solid-color:#000000;solid-opacity:1;fill:#ffb380;fill-opacity:1;fill-rule:evenodd;stroke:#ff9955;stroke-width:1.60000002;stroke-linecap:butt;stroke-linejoin:miter;stroke-miterlimit:4;stroke-dasharray:none;stroke-dashoffset:0;stroke-opacity:1;color-rendering:auto;image-rendering:auto;shape-rendering:auto;text-rendering:auto;enable-background:accumulate"
       d="m 243.479,204.7594 0,37.3053"
       id="path4291"
       inkscape:path-effect="#path-effect4293"
       inkscape:original-d="m 243.479,204.7594 0,37.3053"
       inkscape:connector-curvature="0" /><path
       style="fill:#ffb380;fill-rule:evenodd;stroke:#ff9955;stroke-width:1.60000002;stroke-linecap:butt;stroke-linejoin:miter;stroke-opacity:1;color:#000000;clip-rule:nonzero;display:inline;overflow:visible;visibility:visible;opacity:1;isolation:auto;mix-blend-mode:normal;color-interpolation:sRGB;color-interpolation-filters:linearRGB;solid-color:#000000;solid-opacity:1;fill-opacity:1;stroke-miterlimit:4;stroke-dasharray:none;stroke-dashoffset:0;filter-blend-mode:normal;filter-gaussianBlur-deviation:0;color-rendering:auto;image-rendering:auto;shape-rendering:auto;text-rendering:auto;enable-background:accumulate"
       d="m 347.82713,219.17569 0,-7.13492"
       id="path4295"
       inkscape:path-effect="#path-effect4297"
       inkscape:original-d="m 347.82713,219.17569 0,-7.13492"
       inkscape:connector-curvature="0" /><path
       style="fill:#ffb380;fill-rule:evenodd;stroke:#ff9955;stroke-width:1.60000002;stroke-linecap:butt;stroke-linejoin:miter;stroke-opacity:1;color:#000000;clip-rule:nonzero;display:inline;overflow:visible;visibility:visible;opacity:1;isolation:auto;mix-blend-mode:normal;color-interpolation:sRGB;color-interpolation-filters:linearRGB;solid-color:#000000;solid-opacity:1;fill-opacity:1;stroke-miterlimit:4;stroke-dasharray:none;stroke-dashoffset:0;filter-blend-mode:normal;filter-gaussianBlur-deviation:0;color-rendering:auto;image-rendering:auto;shape-rendering:auto;text-rendering:auto;enable-background:accumulate"
       d="m 448.16188,206.46661 0,-21.40474"
       id="path4299"
       inkscape:path-effect="#path-effect4301"
       inkscape:original-d="m 448.16188,206.46661 0,-21.40474"
       inkscape:connector-curvature="0" /></g></svg>