<?xml version="1.0" encoding="UTF-8" standalone="no"?>
<!-- Created with Inkscape (http://www.inkscape.org/) -->

<svg
   xmlns:dc="http://purl.org/dc/elements/1.1/"
   xmlns:cc="http://creativecommons.org/ns#"
   xmlns:rdf="http://www.w3.org/1999/02/22-rdf-syntax-ns#"
   xmlns:svg="http://www.w3.org/2000/svg"
   xmlns="http://www.w3.org/2000/svg"
   xmlns:sodipodi="http://sodipodi.sourceforge.net/DTD/sodipodi-0.dtd"
   xmlns:inkscape="http://www.inkscape.org/namespaces/inkscape"
   id="svg3977"
   version="1.1"
   inkscape:version="0.91 r13725"
   xml:space="preserve"
   width="617.78497"
   height="545.89697"
   viewBox="0 0 617.78497 545.89696"
   sodipodi:docname="RunningRegression2.svg"><metadata
     id="metadata3983"><rdf:RDF><cc:Work
         rdf:about=""><dc:format>image/svg+xml</dc:format><dc:type
           rdf:resource="http://purl.org/dc/dcmitype/StillImage" /><dc:title></dc:title></cc:Work></rdf:RDF></metadata><defs
     id="defs3981"><inkscape:path-effect
       effect="spiro"
       id="path-effect4301"
       is_visible="true" /><inkscape:path-effect
       effect="spiro"
       id="path-effect4297"
       is_visible="true" /><inkscape:path-effect
       effect="spiro"
       id="path-effect4293"
       is_visible="true" /><inkscape:path-effect
       effect="spiro"
       id="path-effect4289"
       is_visible="true" /><inkscape:path-effect
       effect="spiro"
       id="path-effect4285"
       is_visible="true" /><inkscape:path-effect
       effect="spiro"
       id="path-effect4277"
       is_visible="true" /><inkscape:path-effect
       effect="spiro"
       id="path-effect4273"
       is_visible="true" /><clipPath
       clipPathUnits="userSpaceOnUse"
       id="clipPath4045"><path
         d="m 51.24,183 492.96,0 0,435.48 -492.96,0 0,-435.48 z"
         id="path4047"
         inkscape:connector-curvature="0"
         style="clip-rule:evenodd" /></clipPath><clipPath
       clipPathUnits="userSpaceOnUse"
       id="clipPath4057"><path
         d="m 51.24,183 492.96,0 0,435.48 -492.96,0 0,-435.48 z"
         id="path4059"
         inkscape:connector-curvature="0"
         style="clip-rule:evenodd" /></clipPath><clipPath
       clipPathUnits="userSpaceOnUse"
       id="clipPath4069"><path
         d="m 51.24,183 492.96,0 0,435.48 -492.96,0 0,-435.48 z"
         id="path4071"
         inkscape:connector-curvature="0"
         style="clip-rule:evenodd" /></clipPath><clipPath
       clipPathUnits="userSpaceOnUse"
       id="clipPath4081"><path
         d="m 51.24,183 492.96,0 0,435.48 -492.96,0 0,-435.48 z"
         id="path4083"
         inkscape:connector-curvature="0"
         style="clip-rule:evenodd" /></clipPath><clipPath
       clipPathUnits="userSpaceOnUse"
       id="clipPath4093"><path
         d="m 51.24,183 492.96,0 0,435.48 -492.96,0 0,-435.48 z"
         id="path4095"
         inkscape:connector-curvature="0"
         style="clip-rule:evenodd" /></clipPath><clipPath
       clipPathUnits="userSpaceOnUse"
       id="clipPath4105"><path
         d="m 51.24,183 492.96,0 0,435.48 -492.96,0 0,-435.48 z"
         id="path4107"
         inkscape:connector-curvature="0"
         style="clip-rule:evenodd" /></clipPath><clipPath
       clipPathUnits="userSpaceOnUse"
       id="clipPath4117"><path
         d="m 51.24,183 492.96,0 0,435.48 -492.96,0 0,-435.48 z"
         id="path4119"
         inkscape:connector-curvature="0"
         style="clip-rule:evenodd" /></clipPath><clipPath
       clipPathUnits="userSpaceOnUse"
       id="clipPath4129"><path
         d="m 51.24,183 492.96,0 0,435.48 -492.96,0 0,-435.48 z"
         id="path4131"
         inkscape:connector-curvature="0"
         style="clip-rule:evenodd" /></clipPath><clipPath
       clipPathUnits="userSpaceOnUse"
       id="clipPath4141"><path
         d="m 51.24,183 492.96,0 0,435.48 -492.96,0 0,-435.48 z"
         id="path4143"
         inkscape:connector-curvature="0"
         style="clip-rule:evenodd" /></clipPath><clipPath
       clipPathUnits="userSpaceOnUse"
       id="clipPath4153"><path
         d="m 51.24,183 492.96,0 0,435.48 -492.96,0 0,-435.48 z"
         id="path4155"
         inkscape:connector-curvature="0"
         style="clip-rule:evenodd" /></clipPath><clipPath
       clipPathUnits="userSpaceOnUse"
       id="clipPath4165"><path
         d="m 51.24,183 492.96,0 0,435.48 -492.96,0 0,-435.48 z"
         id="path4167"
         inkscape:connector-curvature="0"
         style="clip-rule:evenodd" /></clipPath><clipPath
       clipPathUnits="userSpaceOnUse"
       id="clipPath4177"><path
         d="m 51.24,183 492.96,0 0,435.48 -492.96,0 0,-435.48 z"
         id="path4179"
         inkscape:connector-curvature="0"
         style="clip-rule:evenodd" /></clipPath><clipPath
       clipPathUnits="userSpaceOnUse"
       id="clipPath4189"><path
         d="m 51.24,183 492.96,0 0,435.48 -492.96,0 0,-435.48 z"
         id="path4191"
         inkscape:connector-curvature="0"
         style="clip-rule:evenodd" /></clipPath><clipPath
       clipPathUnits="userSpaceOnUse"
       id="clipPath4201"><path
         d="m 51.24,183 492.96,0 0,435.48 -492.96,0 0,-435.48 z"
         id="path4203"
         inkscape:connector-curvature="0"
         style="clip-rule:evenodd" /></clipPath><clipPath
       clipPathUnits="userSpaceOnUse"
       id="clipPath4213"><path
         d="m 51.24,183 492.96,0 0,435.48 -492.96,0 0,-435.48 z"
         id="path4215"
         inkscape:connector-curvature="0"
         style="clip-rule:evenodd" /></clipPath><clipPath
       clipPathUnits="userSpaceOnUse"
       id="clipPath4225"><path
         d="m 51.24,183 492.96,0 0,435.48 -492.96,0 0,-435.48 z"
         id="path4227"
         inkscape:connector-curvature="0"
         style="clip-rule:evenodd" /></clipPath><clipPath
       clipPathUnits="userSpaceOnUse"
       id="clipPath4237"><path
         d="m 51.24,183 492.96,0 0,435.48 -492.96,0 0,-435.48 z"
         id="path4239"
         inkscape:connector-curvature="0"
         style="clip-rule:evenodd" /></clipPath><clipPath
       clipPathUnits="userSpaceOnUse"
       id="clipPath4249"><path
         d="m 51.24,183 492.96,0 0,435.48 -492.96,0 0,-435.48 z"
         id="path4251"
         inkscape:connector-curvature="0"
         style="clip-rule:evenodd" /></clipPath><clipPath
       clipPathUnits="userSpaceOnUse"
       id="clipPath4261"><path
         d="m 51.24,183 492.96,0 0,435.48 -492.96,0 0,-435.48 z"
         id="path4263"
         inkscape:connector-curvature="0"
         style="clip-rule:evenodd" /></clipPath><inkscape:path-effect
       effect="spiro"
       id="path-effect4277-0"
       is_visible="true" /><inkscape:path-effect
       effect="spiro"
       id="path-effect4277-4"
       is_visible="true" /><inkscape:path-effect
       effect="spiro"
       id="path-effect4277-47"
       is_visible="true" /><inkscape:path-effect
       effect="spiro"
       id="path-effect4277-2"
       is_visible="true" /><inkscape:path-effect
       effect="spiro"
       id="path-effect4277-5"
       is_visible="true" /><inkscape:path-effect
       effect="spiro"
       id="path-effect4277-6"
       is_visible="true" /><inkscape:path-effect
       effect="spiro"
       id="path-effect4277-49"
       is_visible="true" /><inkscape:path-effect
       effect="spiro"
       id="path-effect4277-50"
       is_visible="true" /><clipPath
       clipPathUnits="userSpaceOnUse"
       id="clipPath3561"><path
         d="m 140.55,267.66 377.94,0 0,324.94 -377.94,0 0,-324.94 z"
         id="path3563"
         inkscape:connector-curvature="0"
         style="clip-rule:evenodd" /></clipPath><clipPath
       clipPathUnits="userSpaceOnUse"
       id="clipPath3787"><path
         d="m 51.12,190.8 493.08,0 0,419.88 -493.08,0 0,-419.88 z"
         id="path3789"
         inkscape:connector-curvature="0"
         style="clip-rule:evenodd" /></clipPath><clipPath
       clipPathUnits="userSpaceOnUse"
       id="clipPath3775"><path
         d="m 51.12,190.8 493.08,0 0,419.88 -493.08,0 0,-419.88 z"
         id="path3777"
         inkscape:connector-curvature="0"
         style="clip-rule:evenodd" /></clipPath><clipPath
       clipPathUnits="userSpaceOnUse"
       id="clipPath3763"><path
         d="m 51.12,190.8 493.08,0 0,419.88 -493.08,0 0,-419.88 z"
         id="path3765"
         inkscape:connector-curvature="0"
         style="clip-rule:evenodd" /></clipPath><clipPath
       clipPathUnits="userSpaceOnUse"
       id="clipPath3751"><path
         d="m 51.12,190.8 493.08,0 0,419.88 -493.08,0 0,-419.88 z"
         id="path3753"
         inkscape:connector-curvature="0"
         style="clip-rule:evenodd" /></clipPath><clipPath
       clipPathUnits="userSpaceOnUse"
       id="clipPath3739"><path
         d="m 51.12,190.8 493.08,0 0,419.88 -493.08,0 0,-419.88 z"
         id="path3741"
         inkscape:connector-curvature="0"
         style="clip-rule:evenodd" /></clipPath><clipPath
       clipPathUnits="userSpaceOnUse"
       id="clipPath3727"><path
         d="m 51.12,190.8 493.08,0 0,419.88 -493.08,0 0,-419.88 z"
         id="path3729"
         inkscape:connector-curvature="0"
         style="clip-rule:evenodd" /></clipPath><clipPath
       clipPathUnits="userSpaceOnUse"
       id="clipPath3715"><path
         d="m 51.12,190.8 493.08,0 0,419.88 -493.08,0 0,-419.88 z"
         id="path3717"
         inkscape:connector-curvature="0"
         style="clip-rule:evenodd" /></clipPath><clipPath
       clipPathUnits="userSpaceOnUse"
       id="clipPath3703"><path
         d="m 51.12,190.8 493.08,0 0,419.88 -493.08,0 0,-419.88 z"
         id="path3705"
         inkscape:connector-curvature="0"
         style="clip-rule:evenodd" /></clipPath><clipPath
       clipPathUnits="userSpaceOnUse"
       id="clipPath3691"><path
         d="m 51.12,190.8 493.08,0 0,419.88 -493.08,0 0,-419.88 z"
         id="path3693"
         inkscape:connector-curvature="0"
         style="clip-rule:evenodd" /></clipPath><clipPath
       clipPathUnits="userSpaceOnUse"
       id="clipPath3679"><path
         d="m 51.12,190.8 493.08,0 0,419.88 -493.08,0 0,-419.88 z"
         id="path3681"
         inkscape:connector-curvature="0"
         style="clip-rule:evenodd" /></clipPath><clipPath
       clipPathUnits="userSpaceOnUse"
       id="clipPath3667"><path
         d="m 51.12,190.8 493.08,0 0,419.88 -493.08,0 0,-419.88 z"
         id="path3669"
         inkscape:connector-curvature="0"
         style="clip-rule:evenodd" /></clipPath><clipPath
       clipPathUnits="userSpaceOnUse"
       id="clipPath3655"><path
         d="m 51.12,190.8 493.08,0 0,419.88 -493.08,0 0,-419.88 z"
         id="path3657"
         inkscape:connector-curvature="0"
         style="clip-rule:evenodd" /></clipPath><clipPath
       clipPathUnits="userSpaceOnUse"
       id="clipPath3643"><path
         d="m 51.12,190.8 493.08,0 0,419.88 -493.08,0 0,-419.88 z"
         id="path3645"
         inkscape:connector-curvature="0"
         style="clip-rule:evenodd" /></clipPath><clipPath
       clipPathUnits="userSpaceOnUse"
       id="clipPath3631"><path
         d="m 51.12,190.8 493.08,0 0,419.88 -493.08,0 0,-419.88 z"
         id="path3633"
         inkscape:connector-curvature="0"
         style="clip-rule:evenodd" /></clipPath><clipPath
       clipPathUnits="userSpaceOnUse"
       id="clipPath3619"><path
         d="m 51.12,190.8 493.08,0 0,419.88 -493.08,0 0,-419.88 z"
         id="path3621"
         inkscape:connector-curvature="0"
         style="clip-rule:evenodd" /></clipPath><clipPath
       clipPathUnits="userSpaceOnUse"
       id="clipPath3607"><path
         d="m 51.12,190.8 493.08,0 0,419.88 -493.08,0 0,-419.88 z"
         id="path3609"
         inkscape:connector-curvature="0"
         style="clip-rule:evenodd" /></clipPath><clipPath
       clipPathUnits="userSpaceOnUse"
       id="clipPath3595"><path
         d="m 51.12,190.8 493.08,0 0,419.88 -493.08,0 0,-419.88 z"
         id="path3597"
         inkscape:connector-curvature="0"
         style="clip-rule:evenodd" /></clipPath><clipPath
       clipPathUnits="userSpaceOnUse"
       id="clipPath3583"><path
         d="m 51.12,190.8 493.08,0 0,419.88 -493.08,0 0,-419.88 z"
         id="path3585"
         inkscape:connector-curvature="0"
         style="clip-rule:evenodd" /></clipPath><clipPath
       clipPathUnits="userSpaceOnUse"
       id="clipPath3571"><path
         d="m 51.12,190.8 493.08,0 0,419.88 -493.08,0 0,-419.88 z"
         id="path3573"
         inkscape:connector-curvature="0"
         style="clip-rule:evenodd" /></clipPath><clipPath
       clipPathUnits="userSpaceOnUse"
       id="clipPath3561-3"><path
         d="m 140.55,267.66 377.94,0 0,324.94 -377.94,0 0,-324.94 z"
         id="path3563-9"
         inkscape:connector-curvature="0"
         style="clip-rule:evenodd" /></clipPath></defs><sodipodi:namedview
     pagecolor="#ffffff"
     bordercolor="#666666"
     borderopacity="1"
     objecttolerance="10"
     gridtolerance="10"
     guidetolerance="10"
     inkscape:pageopacity="0"
     inkscape:pageshadow="2"
     inkscape:window-width="1920"
     inkscape:window-height="1138"
     id="namedview3979"
     showgrid="false"
     inkscape:zoom="0.63427289"
     inkscape:cx="536.96599"
     inkscape:cy="251.92824"
     inkscape:window-x="-8"
     inkscape:window-y="-8"
     inkscape:window-maximized="1"
     inkscape:current-layer="g3985" /><g
     id="g3985"
     inkscape:groupmode="layer"
     inkscape:label="RunningRegression"
     transform="matrix(1.25,0,0,-1.25,0,545.89698)"><path
       d="m 90.182203,118.82504 377.919997,0 m -377.919997,36.06 377.919997,0 m -377.919997,36.06 377.919997,0 m -377.919997,36.06 377.919997,0 m -377.919997,36.26 377.919997,0 m -377.919997,36.06 377.919997,0 m -377.919997,36.06 377.919997,0 m -377.919997,36.06 377.919997,0 m -377.919997,36.13 377.919997,0"
       style="fill:none;stroke:#d9d9d9;stroke-width:1.23160005;stroke-linecap:butt;stroke-linejoin:round;stroke-miterlimit:10;stroke-dasharray:none;stroke-opacity:1"
       id="path3509"
       inkscape:connector-curvature="0" /><path
       d="m 153.0922,407.57504 0,-324.919991 m 63.06,324.919991 0,-324.919991 m 63.05,324.919991 0,-324.919991 m 62.86,324.919991 0,-324.919991 m 63.06,324.919991 0,-324.919991 m 62.98,324.919991 0,-324.919991"
       style="fill:none;stroke:#d9d9d9;stroke-width:1.23160005;stroke-linecap:butt;stroke-linejoin:round;stroke-miterlimit:10;stroke-dasharray:none;stroke-opacity:1"
       id="path3511"
       inkscape:connector-curvature="0" /><path
       d="m 90.182203,82.655049 0,324.919991"
       style="fill:none;stroke:#bfbfbf;stroke-width:1.23160005;stroke-linecap:butt;stroke-linejoin:round;stroke-miterlimit:10;stroke-dasharray:none;stroke-opacity:1"
       id="path3513"
       inkscape:connector-curvature="0" /><path
       d="m 90.182203,82.655049 377.919997,0"
       style="fill:none;stroke:#bfbfbf;stroke-width:1.23160005;stroke-linecap:butt;stroke-linejoin:round;stroke-miterlimit:10;stroke-dasharray:none;stroke-opacity:1"
       id="path3515"
       inkscape:connector-curvature="0" /><path
       d="m 453.3922,209.28504 c 0,-2.29 -1.85,-4.14 -4.14,-4.14 -2.28,0 -4.14,1.85 -4.14,4.14 0,2.28 1.86,4.13 4.14,4.13 2.29,0 4.14,-1.85 4.14,-4.13 z"
       style="fill:#5b9bd5;fill-opacity:1;fill-rule:nonzero;stroke:none"
       id="path3517"
       inkscape:connector-curvature="0" /><path
       d="m 453.3922,209.28504 c 0,-2.29 -1.85,-4.14 -4.14,-4.14 -2.28,0 -4.14,1.85 -4.14,4.14 0,2.28 1.86,4.13 4.14,4.13 2.29,0 4.14,-1.85 4.14,-4.13 z"
       style="fill:none;stroke:#5b9bd5;stroke-width:1.18229997;stroke-linecap:butt;stroke-linejoin:round;stroke-miterlimit:10;stroke-dasharray:none;stroke-opacity:1"
       id="path3519"
       inkscape:connector-curvature="0" /><path
       d="m 164.5122,388.00504 c 0,-2.29 -1.85,-4.14 -4.13,-4.14 -2.29,0 -4.14,1.85 -4.14,4.14 0,2.29 1.85,4.14 4.14,4.14 2.28,0 4.13,-1.85 4.13,-4.14 z"
       style="fill:#5b9bd5;fill-opacity:1;fill-rule:nonzero;stroke:none"
       id="path3521"
       inkscape:connector-curvature="0" /><path
       d="m 164.5122,388.00504 c 0,-2.29 -1.85,-4.14 -4.13,-4.14 -2.29,0 -4.14,1.85 -4.14,4.14 0,2.29 1.85,4.14 4.14,4.14 2.28,0 4.13,-1.85 4.13,-4.14 z"
       style="fill:none;stroke:#5b9bd5;stroke-width:1.18229997;stroke-linecap:butt;stroke-linejoin:round;stroke-miterlimit:10;stroke-dasharray:none;stroke-opacity:1"
       id="path3523"
       inkscape:connector-curvature="0" /><path
       d="m 157.6222,350.95504 c 0,-2.28 -1.86,-4.13 -4.14,-4.13 -2.29,0 -4.14,1.85 -4.14,4.13 0,2.29 1.85,4.14 4.14,4.14 2.28,0 4.14,-1.85 4.14,-4.14 z"
       style="fill:#5b9bd5;fill-opacity:1;fill-rule:nonzero;stroke:none"
       id="path3525"
       inkscape:connector-curvature="0" /><path
       d="m 157.6222,350.95504 c 0,-2.28 -1.86,-4.13 -4.14,-4.13 -2.29,0 -4.14,1.85 -4.14,4.13 0,2.29 1.85,4.14 4.14,4.14 2.28,0 4.14,-1.85 4.14,-4.14 z"
       style="fill:none;stroke:#5b9bd5;stroke-width:1.18229997;stroke-linecap:butt;stroke-linejoin:round;stroke-miterlimit:10;stroke-dasharray:none;stroke-opacity:1"
       id="path3527"
       inkscape:connector-curvature="0" /><path
       d="m 246.2922,198.04504 c 0,-2.28 -1.85,-4.13 -4.14,-4.13 -2.28,0 -4.14,1.85 -4.14,4.13 0,2.29 1.86,4.14 4.14,4.14 2.29,0 4.14,-1.85 4.14,-4.14 z"
       style="fill:#5b9bd5;fill-opacity:1;fill-rule:nonzero;stroke:none"
       id="path3529"
       inkscape:connector-curvature="0" /><path
       d="m 246.2922,198.04504 c 0,-2.28 -1.85,-4.13 -4.14,-4.13 -2.28,0 -4.14,1.85 -4.14,4.13 0,2.29 1.86,4.14 4.14,4.14 2.29,0 4.14,-1.85 4.14,-4.14 z"
       style="fill:none;stroke:#5b9bd5;stroke-width:1.18229997;stroke-linecap:butt;stroke-linejoin:round;stroke-miterlimit:10;stroke-dasharray:none;stroke-opacity:1"
       id="path3531"
       inkscape:connector-curvature="0" /><path
       d="m 351.7122,220.70504 c 0,-2.28 -1.85,-4.13 -4.14,-4.13 -2.28,0 -4.13,1.85 -4.13,4.13 0,2.29 1.85,4.14 4.13,4.14 2.29,0 4.14,-1.85 4.14,-4.14 z"
       style="fill:#5b9bd5;fill-opacity:1;fill-rule:nonzero;stroke:none"
       id="path3533"
       inkscape:connector-curvature="0" /><path
       d="m 351.7122,220.70504 c 0,-2.28 -1.85,-4.13 -4.14,-4.13 -2.28,0 -4.13,1.85 -4.13,4.13 0,2.29 1.85,4.14 4.13,4.14 2.29,0 4.14,-1.85 4.14,-4.14 z"
       style="fill:none;stroke:#5b9bd5;stroke-width:1.18229997;stroke-linecap:butt;stroke-linejoin:round;stroke-miterlimit:10;stroke-dasharray:none;stroke-opacity:1"
       id="path3535"
       inkscape:connector-curvature="0" /><path
       d="m 225.2122,153.31504 c 0,-2.28 -1.86,-4.14 -4.14,-4.14 -2.29,0 -4.14,1.86 -4.14,4.14 0,2.29 1.85,4.14 4.14,4.14 2.28,0 4.14,-1.85 4.14,-4.14 z"
       style="fill:#5b9bd5;fill-opacity:1;fill-rule:nonzero;stroke:none"
       id="path3537"
       inkscape:connector-curvature="0" /><path
       d="m 225.2122,153.31504 c 0,-2.28 -1.86,-4.14 -4.14,-4.14 -2.29,0 -4.14,1.86 -4.14,4.14 0,2.29 1.85,4.14 4.14,4.14 2.28,0 4.14,-1.85 4.14,-4.14 z"
       style="fill:none;stroke:#5b9bd5;stroke-width:1.18229997;stroke-linecap:butt;stroke-linejoin:round;stroke-miterlimit:10;stroke-dasharray:none;stroke-opacity:1"
       id="path3539"
       inkscape:connector-curvature="0" /><path
       d="m 184.4222,278.83504 c 0,-2.28 -1.86,-4.13 -4.14,-4.13 -2.29,0 -4.14,1.85 -4.14,4.13 0,2.29 1.85,4.14 4.14,4.14 2.28,0 4.14,-1.85 4.14,-4.14 z"
       style="fill:#5b9bd5;fill-opacity:1;fill-rule:nonzero;stroke:none"
       id="path3541"
       inkscape:connector-curvature="0" /><path
       d="m 184.4222,278.83504 c 0,-2.28 -1.86,-4.13 -4.14,-4.13 -2.29,0 -4.14,1.85 -4.14,4.13 0,2.29 1.85,4.14 4.14,4.14 2.28,0 4.14,-1.85 4.14,-4.14 z"
       style="fill:none;stroke:#5b9bd5;stroke-width:1.18229997;stroke-linecap:butt;stroke-linejoin:round;stroke-miterlimit:10;stroke-dasharray:none;stroke-opacity:1"
       id="path3543"
       inkscape:connector-curvature="0" /><path
       d="m 132.2022,267.01504 c 0,-2.28 -1.86,-4.14 -4.14,-4.14 -2.29,0 -4.14,1.86 -4.14,4.14 0,2.29 1.85,4.14 4.14,4.14 2.28,0 4.14,-1.85 4.14,-4.14 z"
       style="fill:#5b9bd5;fill-opacity:1;fill-rule:nonzero;stroke:none"
       id="path3545"
       inkscape:connector-curvature="0" /><path
       d="m 132.2022,267.01504 c 0,-2.28 -1.86,-4.14 -4.14,-4.14 -2.29,0 -4.14,1.86 -4.14,4.14 0,2.29 1.85,4.14 4.14,4.14 2.28,0 4.14,-1.85 4.14,-4.14 z"
       style="fill:none;stroke:#5b9bd5;stroke-width:1.18229997;stroke-linecap:butt;stroke-linejoin:round;stroke-miterlimit:10;stroke-dasharray:none;stroke-opacity:1"
       id="path3547"
       inkscape:connector-curvature="0" /><path
       d="m 170.0322,98.935039 c 0,-2.29 -1.85,-4.14 -4.14,-4.14 -2.28,0 -4.13,1.85 -4.13,4.14 0,2.280001 1.85,4.140001 4.13,4.140001 2.29,0 4.14,-1.86 4.14,-4.140001 z"
       style="fill:#5b9bd5;fill-opacity:1;fill-rule:nonzero;stroke:none"
       id="path3549"
       inkscape:connector-curvature="0" /><path
       d="m 170.0322,98.935039 c 0,-2.29 -1.85,-4.14 -4.14,-4.14 -2.28,0 -4.13,1.85 -4.13,4.14 0,2.280001 1.85,4.140001 4.13,4.140001 2.29,0 4.14,-1.86 4.14,-4.140001 z"
       style="fill:none;stroke:#5b9bd5;stroke-width:1.18229997;stroke-linecap:butt;stroke-linejoin:round;stroke-miterlimit:10;stroke-dasharray:none;stroke-opacity:1"
       id="path3551"
       inkscape:connector-curvature="0" /><path
       d="m 149.1422,267.01504 c 0,-2.28 -1.85,-4.14 -4.13,-4.14 -2.29,0 -4.14,1.86 -4.14,4.14 0,2.29 1.85,4.14 4.14,4.14 2.28,0 4.13,-1.85 4.13,-4.14 z"
       style="fill:#5b9bd5;fill-opacity:1;fill-rule:nonzero;stroke:none"
       id="path3553"
       inkscape:connector-curvature="0" /><path
       d="m 149.1422,267.01504 c 0,-2.28 -1.85,-4.14 -4.13,-4.14 -2.29,0 -4.14,1.86 -4.14,4.14 0,2.29 1.85,4.14 4.14,4.14 2.28,0 4.13,-1.85 4.13,-4.14 z"
       style="fill:none;stroke:#5b9bd5;stroke-width:1.18229997;stroke-linecap:butt;stroke-linejoin:round;stroke-miterlimit:10;stroke-dasharray:none;stroke-opacity:1"
       id="path3555"
       inkscape:connector-curvature="0" /><g
       transform="translate(-50.517793,-184.89496)"
       id="g3557"><g
         id="g3559"
         clip-path="url(#clipPath3561-3)"><path
           d="M 140.82,461.87 525.04,361.29"
           style="fill:none;stroke:#ed7d31;stroke-width:2.46309996;stroke-linecap:round;stroke-linejoin:round;stroke-miterlimit:10;stroke-dasharray:0, 4.9263;stroke-dashoffset:0;stroke-opacity:1"
           id="path3565"
           inkscape:connector-curvature="0" /></g></g><g
       transform="translate(-50.517793,-184.89496)"
       id="g3567"><g
         id="g3569"
         clip-path="url(#clipPath3571)"><text
           transform="matrix(1,0,0,-1,100.8,263.3)"
           style="font-variant:normal;font-weight:normal;font-size:14.76000023px;font-family:Calibri;-inkscape-font-specification:Calibri;writing-mode:lr-tb;fill:#595959;fill-opacity:1;fill-rule:nonzero;stroke:none"
           id="text3575"><tspan
             x="0 7.4833202 14.96664 18.686159"
             y="0"
             sodipodi:role="line"
             id="tspan3577">10.3</tspan></text>
</g></g><g
       transform="translate(-50.517793,-184.89496)"
       id="g3579"><g
         id="g3581"
         clip-path="url(#clipPath3583)"><text
           transform="matrix(1,0,0,-1,100.8,299.42)"
           style="font-variant:normal;font-weight:normal;font-size:14.7840004px;font-family:Calibri;-inkscape-font-specification:Calibri;writing-mode:lr-tb;fill:#595959;fill-opacity:1;fill-rule:nonzero;stroke:none"
           id="text3587"><tspan
             x="0 7.4954882 14.990976 18.716543"
             y="0"
             sodipodi:role="line"
             id="tspan3589">10.4</tspan></text>
</g></g><g
       transform="translate(-50.517793,-184.89496)"
       id="g3591"><g
         id="g3593"
         clip-path="url(#clipPath3595)"><text
           transform="matrix(1,0,0,-1,100.8,335.52)"
           style="font-variant:normal;font-weight:normal;font-size:14.76000023px;font-family:Calibri;-inkscape-font-specification:Calibri;writing-mode:lr-tb;fill:#595959;fill-opacity:1;fill-rule:nonzero;stroke:none"
           id="text3599"><tspan
             x="0 7.4833202 14.96664 18.686159"
             y="0"
             sodipodi:role="line"
             id="tspan3601">10.5</tspan></text>
</g></g><g
       transform="translate(-50.517793,-184.89496)"
       id="g3603"><g
         id="g3605"
         clip-path="url(#clipPath3607)"><text
           transform="matrix(1,0,0,-1,100.8,371.64)"
           style="font-variant:normal;font-weight:normal;font-size:14.7840004px;font-family:Calibri;-inkscape-font-specification:Calibri;writing-mode:lr-tb;fill:#595959;fill-opacity:1;fill-rule:nonzero;stroke:none"
           id="text3611"><tspan
             x="0 7.4954882 14.990976 18.716543"
             y="0"
             sodipodi:role="line"
             id="tspan3613">10.6</tspan></text>
</g></g><g
       transform="translate(-50.517793,-184.89496)"
       id="g3615"><g
         id="g3617"
         clip-path="url(#clipPath3619)"><text
           transform="matrix(1,0,0,-1,100.8,407.74)"
           style="font-variant:normal;font-weight:normal;font-size:14.76000023px;font-family:Calibri;-inkscape-font-specification:Calibri;writing-mode:lr-tb;fill:#595959;fill-opacity:1;fill-rule:nonzero;stroke:none"
           id="text3623"><tspan
             x="0 7.4833202 14.96664 18.686159"
             y="0"
             sodipodi:role="line"
             id="tspan3625">10.7</tspan></text>
</g></g><g
       transform="translate(-50.517793,-184.89496)"
       id="g3627"><g
         id="g3629"
         clip-path="url(#clipPath3631)"><text
           transform="matrix(1,0,0,-1,100.8,443.86)"
           style="font-variant:normal;font-weight:normal;font-size:14.7840004px;font-family:Calibri;-inkscape-font-specification:Calibri;writing-mode:lr-tb;fill:#595959;fill-opacity:1;fill-rule:nonzero;stroke:none"
           id="text3635"><tspan
             x="0 7.4954882 14.990976 18.716543"
             y="0"
             sodipodi:role="line"
             id="tspan3637">10.8</tspan></text>
</g></g><g
       transform="translate(-50.517793,-184.89496)"
       id="g3639"><g
         id="g3641"
         clip-path="url(#clipPath3643)"><text
           transform="matrix(1,0,0,-1,100.8,479.95)"
           style="font-variant:normal;font-weight:normal;font-size:14.76000023px;font-family:Calibri;-inkscape-font-specification:Calibri;writing-mode:lr-tb;fill:#595959;fill-opacity:1;fill-rule:nonzero;stroke:none"
           id="text3647"><tspan
             x="0 7.4833202 14.96664 18.686159"
             y="0"
             sodipodi:role="line"
             id="tspan3649">10.9</tspan></text>
</g></g><g
       transform="translate(-50.517793,-184.89496)"
       id="g3651"><g
         id="g3653"
         clip-path="url(#clipPath3655)"><text
           transform="matrix(1,0,0,-1,112.03,516.07)"
           style="font-variant:normal;font-weight:normal;font-size:14.7840004px;font-family:Calibri;-inkscape-font-specification:Calibri;writing-mode:lr-tb;fill:#595959;fill-opacity:1;fill-rule:nonzero;stroke:none"
           id="text3659"><tspan
             x="0 7.487998"
             y="0"
             sodipodi:role="line"
             id="tspan3661">11</tspan></text>
</g></g><g
       transform="translate(-50.517793,-184.89496)"
       id="g3663"><g
         id="g3665"
         clip-path="url(#clipPath3667)"><text
           transform="matrix(1,0,0,-1,100.8,552.17)"
           style="font-variant:normal;font-weight:normal;font-size:14.76000023px;font-family:Calibri;-inkscape-font-specification:Calibri;writing-mode:lr-tb;fill:#595959;fill-opacity:1;fill-rule:nonzero;stroke:none"
           id="text3671"><tspan
             x="0 7.4833202 14.96664 18.686159"
             y="0"
             sodipodi:role="line"
             id="tspan3673">11.1</tspan></text>
</g></g><g
       transform="translate(-50.517793,-184.89496)"
       id="g3675"><g
         id="g3677"
         clip-path="url(#clipPath3679)"><text
           transform="matrix(1,0,0,-1,100.8,588.29)"
           style="font-variant:normal;font-weight:normal;font-size:14.7840004px;font-family:Calibri;-inkscape-font-specification:Calibri;writing-mode:lr-tb;fill:#595959;fill-opacity:1;fill-rule:nonzero;stroke:none"
           id="text3683"><tspan
             x="0 7.4954882 14.990976 18.716543"
             y="0"
             sodipodi:role="line"
             id="tspan3685">11.2</tspan></text>
</g></g><g
       transform="translate(-50.517793,-184.89496)"
       id="g3687"><g
         id="g3689"
         clip-path="url(#clipPath3691)"><text
           transform="matrix(1,0,0,-1,136.97,244.1)"
           style="font-variant:normal;font-weight:normal;font-size:14.7840004px;font-family:Calibri;-inkscape-font-specification:Calibri;writing-mode:lr-tb;fill:#595959;fill-opacity:1;fill-rule:nonzero;stroke:none"
           id="text3695"><tspan
             x="0"
             y="0"
             id="tspan3697">0</tspan></text>
</g></g><g
       transform="translate(-50.517793,-184.89496)"
       id="g3699"><g
         id="g3701"
         clip-path="url(#clipPath3703)"><text
           transform="matrix(1,0,0,-1,199.97,244.1)"
           style="font-variant:normal;font-weight:normal;font-size:14.7840004px;font-family:Calibri;-inkscape-font-specification:Calibri;writing-mode:lr-tb;fill:#595959;fill-opacity:1;fill-rule:nonzero;stroke:none"
           id="text3707"><tspan
             x="0"
             y="0"
             id="tspan3709">5</tspan></text>
</g></g><g
       transform="translate(-50.517793,-184.89496)"
       id="g3711"><g
         id="g3713"
         clip-path="url(#clipPath3715)"><text
           transform="matrix(1,0,0,-1,259.22,244.1)"
           style="font-variant:normal;font-weight:normal;font-size:14.7840004px;font-family:Calibri;-inkscape-font-specification:Calibri;writing-mode:lr-tb;fill:#595959;fill-opacity:1;fill-rule:nonzero;stroke:none"
           id="text3719"><tspan
             x="0 7.487998"
             y="0"
             sodipodi:role="line"
             id="tspan3721">10</tspan></text>
</g></g><g
       transform="translate(-50.517793,-184.89496)"
       id="g3723"><g
         id="g3725"
         clip-path="url(#clipPath3727)"><text
           transform="matrix(1,0,0,-1,322.22,244.1)"
           style="font-variant:normal;font-weight:normal;font-size:14.7840004px;font-family:Calibri;-inkscape-font-specification:Calibri;writing-mode:lr-tb;fill:#595959;fill-opacity:1;fill-rule:nonzero;stroke:none"
           id="text3731"><tspan
             x="0 7.487998"
             y="0"
             sodipodi:role="line"
             id="tspan3733">15</tspan></text>
</g></g><g
       transform="translate(-50.517793,-184.89496)"
       id="g3735"><g
         id="g3737"
         clip-path="url(#clipPath3739)"><text
           transform="matrix(1,0,0,-1,385.22,244.1)"
           style="font-variant:normal;font-weight:normal;font-size:14.7840004px;font-family:Calibri;-inkscape-font-specification:Calibri;writing-mode:lr-tb;fill:#595959;fill-opacity:1;fill-rule:nonzero;stroke:none"
           id="text3743"><tspan
             x="0 7.487998"
             y="0"
             sodipodi:role="line"
             id="tspan3745">20</tspan></text>
</g></g><g
       transform="translate(-50.517793,-184.89496)"
       id="g3747"><g
         id="g3749"
         clip-path="url(#clipPath3751)"><text
           transform="matrix(1,0,0,-1,448.22,244.1)"
           style="font-variant:normal;font-weight:normal;font-size:14.7840004px;font-family:Calibri;-inkscape-font-specification:Calibri;writing-mode:lr-tb;fill:#595959;fill-opacity:1;fill-rule:nonzero;stroke:none"
           id="text3755"><tspan
             x="0 7.5119882"
             y="0"
             sodipodi:role="line"
             id="tspan3757">25</tspan></text>
</g></g><g
       transform="translate(-50.517793,-184.89496)"
       id="g3759"><g
         id="g3761"
         clip-path="url(#clipPath3763)"><text
           transform="matrix(1,0,0,-1,511.22,244.1)"
           style="font-variant:normal;font-weight:normal;font-size:14.7840004px;font-family:Calibri;-inkscape-font-specification:Calibri;writing-mode:lr-tb;fill:#595959;fill-opacity:1;fill-rule:nonzero;stroke:none"
           id="text3767"><tspan
             x="0 7.5119882"
             y="0"
             sodipodi:role="line"
             id="tspan3769">30</tspan></text>
</g></g><g
       transform="translate(-50.517793,-184.89496)"
       id="g3771"><g
         id="g3773"
         clip-path="url(#clipPath3775)"><text
           transform="matrix(-4.4e-8,1,1,4.4e-8,76.008,346.63)"
           style="font-variant:normal;font-weight:normal;font-size:19.70400047px;font-family:Calibri;-inkscape-font-specification:Calibri;writing-mode:lr-tb;fill:#595959;fill-opacity:1;fill-rule:nonzero;stroke:none"
           id="text3779"><tspan
             x="0 16.925735 26.738329 36.235657 46.659073 50.796913 59.841049 70.284164 80.096764 89.988167 100.41158 104.54942 110.46062 119.34713 135.09062 142.77518 153.19859"
             y="0"
             sodipodi:role="line"
             id="tspan3781">Mean Speed (km/h)</tspan></text>
</g></g><g
       transform="translate(-50.517793,-184.89496)"
       id="g3783"><g
         id="g3785"
         clip-path="url(#clipPath3787)"><text
           transform="matrix(1,0,0,-1,253.63,205.37)"
           style="font-variant:normal;font-weight:normal;font-size:19.72800064px;font-family:Calibri;-inkscape-font-specification:Calibri;writing-mode:lr-tb;fill:#595959;fill-opacity:1;fill-rule:nonzero;stroke:none"
           id="text3791"><tspan
             x="0 12.191904 16.729343 24.206257 30.716496 40.166206 50.602322 58.888081 68.712624 72.855507 83.488899 93.905281 104.32166 108.6421 114.54077 123.39864 139.16132"
             y="0"
             sodipodi:role="line"
             id="tspan3793">Distance Run (km)</tspan></text>
</g></g></g></svg>