<?xml version="1.0" encoding="UTF-8" standalone="no"?>
<!-- Created with Inkscape (http://www.inkscape.org/) -->

<svg
   xmlns:dc="http://purl.org/dc/elements/1.1/"
   xmlns:cc="http://creativecommons.org/ns#"
   xmlns:rdf="http://www.w3.org/1999/02/22-rdf-syntax-ns#"
   xmlns:svg="http://www.w3.org/2000/svg"
   xmlns="http://www.w3.org/2000/svg"
   xmlns:sodipodi="http://sodipodi.sourceforge.net/DTD/sodipodi-0.dtd"
   xmlns:inkscape="http://www.inkscape.org/namespaces/inkscape"
   id="svg6372"
   version="1.1"
   inkscape:version="0.91 r13725"
   xml:space="preserve"
   width="915.25598"
   height="608.50598"
   viewBox="0 0 915.25598 608.50598"
   sodipodi:docname="SnowRegY.svg"><metadata
     id="metadata6378"><rdf:RDF><cc:Work
         rdf:about=""><dc:format>image/svg+xml</dc:format><dc:type
           rdf:resource="http://purl.org/dc/dcmitype/StillImage" /><dc:title></dc:title></cc:Work></rdf:RDF></metadata><defs
     id="defs6376"><clipPath
       clipPathUnits="userSpaceOnUse"
       id="clipPath6544"><path
         d="m 55.56,55.08 730.8,0 0,485.16 -730.8,0 0,-485.16 z"
         id="path6546"
         inkscape:connector-curvature="0"
         style="clip-rule:evenodd" /></clipPath><clipPath
       clipPathUnits="userSpaceOnUse"
       id="clipPath6556"><path
         d="m 55.56,55.08 730.8,0 0,485.16 -730.8,0 0,-485.16 z"
         id="path6558"
         inkscape:connector-curvature="0"
         style="clip-rule:evenodd" /></clipPath><clipPath
       clipPathUnits="userSpaceOnUse"
       id="clipPath6568"><path
         d="m 55.56,55.08 730.8,0 0,485.16 -730.8,0 0,-485.16 z"
         id="path6570"
         inkscape:connector-curvature="0"
         style="clip-rule:evenodd" /></clipPath><clipPath
       clipPathUnits="userSpaceOnUse"
       id="clipPath6580"><path
         d="m 55.56,55.08 730.8,0 0,485.16 -730.8,0 0,-485.16 z"
         id="path6582"
         inkscape:connector-curvature="0"
         style="clip-rule:evenodd" /></clipPath><clipPath
       clipPathUnits="userSpaceOnUse"
       id="clipPath6592"><path
         d="m 55.56,55.08 730.8,0 0,485.16 -730.8,0 0,-485.16 z"
         id="path6594"
         inkscape:connector-curvature="0"
         style="clip-rule:evenodd" /></clipPath><clipPath
       clipPathUnits="userSpaceOnUse"
       id="clipPath6604"><path
         d="m 55.56,55.08 730.8,0 0,485.16 -730.8,0 0,-485.16 z"
         id="path6606"
         inkscape:connector-curvature="0"
         style="clip-rule:evenodd" /></clipPath><clipPath
       clipPathUnits="userSpaceOnUse"
       id="clipPath6616"><path
         d="m 55.56,55.08 730.8,0 0,485.16 -730.8,0 0,-485.16 z"
         id="path6618"
         inkscape:connector-curvature="0"
         style="clip-rule:evenodd" /></clipPath><clipPath
       clipPathUnits="userSpaceOnUse"
       id="clipPath6628"><path
         d="m 55.56,55.08 730.8,0 0,485.16 -730.8,0 0,-485.16 z"
         id="path6630"
         inkscape:connector-curvature="0"
         style="clip-rule:evenodd" /></clipPath><clipPath
       clipPathUnits="userSpaceOnUse"
       id="clipPath6640"><path
         d="m 55.56,55.08 730.8,0 0,485.16 -730.8,0 0,-485.16 z"
         id="path6642"
         inkscape:connector-curvature="0"
         style="clip-rule:evenodd" /></clipPath><clipPath
       clipPathUnits="userSpaceOnUse"
       id="clipPath6652"><path
         d="m 55.56,55.08 730.8,0 0,485.16 -730.8,0 0,-485.16 z"
         id="path6654"
         inkscape:connector-curvature="0"
         style="clip-rule:evenodd" /></clipPath><clipPath
       clipPathUnits="userSpaceOnUse"
       id="clipPath6664"><path
         d="m 55.56,55.08 730.8,0 0,485.16 -730.8,0 0,-485.16 z"
         id="path6666"
         inkscape:connector-curvature="0"
         style="clip-rule:evenodd" /></clipPath><clipPath
       clipPathUnits="userSpaceOnUse"
       id="clipPath6676"><path
         d="m 55.56,55.08 730.8,0 0,485.16 -730.8,0 0,-485.16 z"
         id="path6678"
         inkscape:connector-curvature="0"
         style="clip-rule:evenodd" /></clipPath><clipPath
       clipPathUnits="userSpaceOnUse"
       id="clipPath6688"><path
         d="m 55.56,55.08 730.8,0 0,485.16 -730.8,0 0,-485.16 z"
         id="path6690"
         inkscape:connector-curvature="0"
         style="clip-rule:evenodd" /></clipPath><clipPath
       clipPathUnits="userSpaceOnUse"
       id="clipPath6700"><path
         d="m 55.56,55.08 730.8,0 0,485.16 -730.8,0 0,-485.16 z"
         id="path6702"
         inkscape:connector-curvature="0"
         style="clip-rule:evenodd" /></clipPath><clipPath
       clipPathUnits="userSpaceOnUse"
       id="clipPath6712"><path
         d="m 55.56,55.08 730.8,0 0,485.16 -730.8,0 0,-485.16 z"
         id="path6714"
         inkscape:connector-curvature="0"
         style="clip-rule:evenodd" /></clipPath><clipPath
       clipPathUnits="userSpaceOnUse"
       id="clipPath6724"><path
         d="m 55.56,55.08 730.8,0 0,485.16 -730.8,0 0,-485.16 z"
         id="path6726"
         inkscape:connector-curvature="0"
         style="clip-rule:evenodd" /></clipPath><clipPath
       clipPathUnits="userSpaceOnUse"
       id="clipPath6736"><path
         d="m 55.56,55.08 730.8,0 0,485.16 -730.8,0 0,-485.16 z"
         id="path6738"
         inkscape:connector-curvature="0"
         style="clip-rule:evenodd" /></clipPath><clipPath
       clipPathUnits="userSpaceOnUse"
       id="clipPath6748"><path
         d="m 55.56,55.08 730.8,0 0,485.16 -730.8,0 0,-485.16 z"
         id="path6750"
         inkscape:connector-curvature="0"
         style="clip-rule:evenodd" /></clipPath><clipPath
       clipPathUnits="userSpaceOnUse"
       id="clipPath6760"><path
         d="m 55.56,55.08 730.8,0 0,485.16 -730.8,0 0,-485.16 z"
         id="path6762"
         inkscape:connector-curvature="0"
         style="clip-rule:evenodd" /></clipPath></defs><sodipodi:namedview
     pagecolor="#ffffff"
     bordercolor="#666666"
     borderopacity="1"
     objecttolerance="10"
     gridtolerance="10"
     guidetolerance="10"
     inkscape:pageopacity="0"
     inkscape:pageshadow="2"
     inkscape:window-width="1920"
     inkscape:window-height="1138"
     id="namedview6374"
     showgrid="false"
     inkscape:zoom="0.89718925"
     inkscape:cx="561.8201"
     inkscape:cy="350.81945"
     inkscape:window-x="-8"
     inkscape:window-y="-8"
     inkscape:window-maximized="1"
     inkscape:current-layer="g6380" /><g
     id="g6380"
     inkscape:groupmode="layer"
     inkscape:label="SnowRegY"
     transform="matrix(1.25,0,0,-1.25,0,608.506)"><path
       d="m 89.87925,142.28025 608.21,0 m -608.21,53.93 608.21,0 m -608.21,53.93 608.21,0 m -608.21,53.71 608.21,0 m -608.21,53.94 608.21,0 m -608.21,53.93 608.21,0 m -608.21,53.78 608.21,0"
       style="fill:none;stroke:#d9d9d9;stroke-width:1.40450001;stroke-linecap:butt;stroke-linejoin:round;stroke-miterlimit:10;stroke-dasharray:none;stroke-opacity:1"
       id="path6384"
       inkscape:connector-curvature="0" /><path
       d="m 165.86925,465.50025 0,-377.07 m 75.96,377.07 0,-377.07 m 76.18,377.07 0,-377.07 m 75.96,377.07 0,-377.07 m 75.95,377.07 0,-377.07 m 76.19,377.07 0,-377.07 m 75.95,377.07 0,-377.07 m 76.03,377.07 0,-377.07"
       style="fill:none;stroke:#d9d9d9;stroke-width:1.40450001;stroke-linecap:butt;stroke-linejoin:round;stroke-miterlimit:10;stroke-dasharray:none;stroke-opacity:1"
       id="path6386"
       inkscape:connector-curvature="0" /><path
       d="m 89.87925,88.43025 0,377.07"
       style="fill:none;stroke:#bfbfbf;stroke-width:1.40450001;stroke-linecap:butt;stroke-linejoin:round;stroke-miterlimit:10;stroke-dasharray:none;stroke-opacity:1"
       id="path6388"
       inkscape:connector-curvature="0" /><path
       d="m 89.87925,88.43025 608.21,0"
       style="fill:none;stroke:#bfbfbf;stroke-width:1.40450001;stroke-linecap:butt;stroke-linejoin:round;stroke-miterlimit:10;stroke-dasharray:none;stroke-opacity:1"
       id="path6390"
       inkscape:connector-curvature="0" /><path
       d="m 126.54925,180.03025 c 0,-2.61 -2.12,-4.72 -4.72,-4.72 -2.61,0 -4.72,2.11 -4.72,4.72 0,2.61 2.11,4.72 4.72,4.72 2.6,0 4.72,-2.11 4.72,-4.72 z"
       style="fill:#5b9bd5;fill-opacity:1;fill-rule:nonzero;stroke:none"
       id="path6392"
       inkscape:connector-curvature="0" /><path
       d="m 126.54925,180.03025 c 0,-2.61 -2.12,-4.72 -4.72,-4.72 -2.61,0 -4.72,2.11 -4.72,4.72 0,2.61 2.11,4.72 4.72,4.72 2.6,0 4.72,-2.11 4.72,-4.72 z"
       style="fill:none;stroke:#5b9bd5;stroke-width:1.34829998;stroke-linecap:butt;stroke-linejoin:round;stroke-miterlimit:10;stroke-dasharray:none;stroke-opacity:1"
       id="path6394"
       inkscape:connector-curvature="0" /><path
       d="m 429.02925,180.03025 c 0,-2.61 -2.12,-4.72 -4.72,-4.72 -2.61,0 -4.72,2.11 -4.72,4.72 0,2.61 2.11,4.72 4.72,4.72 2.6,0 4.72,-2.11 4.72,-4.72 z"
       style="fill:#5b9bd5;fill-opacity:1;fill-rule:nonzero;stroke:none"
       id="path6396"
       inkscape:connector-curvature="0" /><path
       d="m 429.02925,180.03025 c 0,-2.61 -2.12,-4.72 -4.72,-4.72 -2.61,0 -4.72,2.11 -4.72,4.72 0,2.61 2.11,4.72 4.72,4.72 2.6,0 4.72,-2.11 4.72,-4.72 z"
       style="fill:none;stroke:#5b9bd5;stroke-width:1.34829998;stroke-linecap:butt;stroke-linejoin:round;stroke-miterlimit:10;stroke-dasharray:none;stroke-opacity:1"
       id="path6398"
       inkscape:connector-curvature="0" /><path
       d="m 100.69925,158.46025 c 0,-2.61 -2.11,-4.72 -4.71,-4.72 -2.61,0 -4.72,2.11 -4.72,4.72 0,2.6 2.11,4.72 4.72,4.72 2.6,0 4.71,-2.12 4.71,-4.72 z"
       style="fill:#5b9bd5;fill-opacity:1;fill-rule:nonzero;stroke:none"
       id="path6400"
       inkscape:connector-curvature="0" /><path
       d="m 100.69925,158.46025 c 0,-2.61 -2.11,-4.72 -4.71,-4.72 -2.61,0 -4.72,2.11 -4.72,4.72 0,2.6 2.11,4.72 4.72,4.72 2.6,0 4.71,-2.12 4.71,-4.72 z"
       style="fill:none;stroke:#5b9bd5;stroke-width:1.34829998;stroke-linecap:butt;stroke-linejoin:round;stroke-miterlimit:10;stroke-dasharray:none;stroke-opacity:1"
       id="path6402"
       inkscape:connector-curvature="0" /><path
       d="m 115.98925,190.82025 c 0,-2.61 -2.12,-4.72 -4.72,-4.72 -2.61,0 -4.72,2.11 -4.72,4.72 0,2.6 2.11,4.72 4.72,4.72 2.6,0 4.72,-2.12 4.72,-4.72 z"
       style="fill:#5b9bd5;fill-opacity:1;fill-rule:nonzero;stroke:none"
       id="path6404"
       inkscape:connector-curvature="0" /><path
       d="m 115.98925,190.82025 c 0,-2.61 -2.12,-4.72 -4.72,-4.72 -2.61,0 -4.72,2.11 -4.72,4.72 0,2.6 2.11,4.72 4.72,4.72 2.6,0 4.72,-2.12 4.72,-4.72 z"
       style="fill:none;stroke:#5b9bd5;stroke-width:1.34829998;stroke-linecap:butt;stroke-linejoin:round;stroke-miterlimit:10;stroke-dasharray:none;stroke-opacity:1"
       id="path6406"
       inkscape:connector-curvature="0" /><path
       d="m 106.76925,158.46025 c 0,-2.61 -2.11,-4.72 -4.72,-4.72 -2.6,0 -4.72,2.11 -4.72,4.72 0,2.6 2.12,4.72 4.72,4.72 2.61,0 4.72,-2.12 4.72,-4.72 z"
       style="fill:#5b9bd5;fill-opacity:1;fill-rule:nonzero;stroke:none"
       id="path6408"
       inkscape:connector-curvature="0" /><path
       d="m 106.76925,158.46025 c 0,-2.61 -2.11,-4.72 -4.72,-4.72 -2.6,0 -4.72,2.11 -4.72,4.72 0,2.6 2.12,4.72 4.72,4.72 2.61,0 4.72,-2.12 4.72,-4.72 z"
       style="fill:none;stroke:#5b9bd5;stroke-width:1.34829998;stroke-linecap:butt;stroke-linejoin:round;stroke-miterlimit:10;stroke-dasharray:none;stroke-opacity:1"
       id="path6410"
       inkscape:connector-curvature="0" /><path
       d="m 117.32925,147.67025 c 0,-2.61 -2.11,-4.72 -4.72,-4.72 -2.6,0 -4.71,2.11 -4.71,4.72 0,2.61 2.11,4.72 4.71,4.72 2.61,0 4.72,-2.11 4.72,-4.72 z"
       style="fill:#5b9bd5;fill-opacity:1;fill-rule:nonzero;stroke:none"
       id="path6412"
       inkscape:connector-curvature="0" /><path
       d="m 117.32925,147.67025 c 0,-2.61 -2.11,-4.72 -4.72,-4.72 -2.6,0 -4.71,2.11 -4.71,4.72 0,2.61 2.11,4.72 4.71,4.72 2.61,0 4.72,-2.11 4.72,-4.72 z"
       style="fill:none;stroke:#5b9bd5;stroke-width:1.34829998;stroke-linecap:butt;stroke-linejoin:round;stroke-miterlimit:10;stroke-dasharray:none;stroke-opacity:1"
       id="path6414"
       inkscape:connector-curvature="0" /><path
       d="m 103.62925,158.46025 c 0,-2.61 -2.12,-4.72 -4.72,-4.72 -2.61,0 -4.72,2.11 -4.72,4.72 0,2.6 2.11,4.72 4.72,4.72 2.6,0 4.72,-2.12 4.72,-4.72 z"
       style="fill:#5b9bd5;fill-opacity:1;fill-rule:nonzero;stroke:none"
       id="path6416"
       inkscape:connector-curvature="0" /><path
       d="m 103.62925,158.46025 c 0,-2.61 -2.12,-4.72 -4.72,-4.72 -2.61,0 -4.72,2.11 -4.72,4.72 0,2.6 2.11,4.72 4.72,4.72 2.6,0 4.72,-2.12 4.72,-4.72 z"
       style="fill:none;stroke:#5b9bd5;stroke-width:1.34829998;stroke-linecap:butt;stroke-linejoin:round;stroke-miterlimit:10;stroke-dasharray:none;stroke-opacity:1"
       id="path6418"
       inkscape:connector-curvature="0" /><path
       d="m 149.23925,185.42025 c 0,-2.6 -2.11,-4.72 -4.71,-4.72 -2.61,0 -4.72,2.12 -4.72,4.72 0,2.61 2.11,4.72 4.72,4.72 2.6,0 4.71,-2.11 4.71,-4.72 z"
       style="fill:#5b9bd5;fill-opacity:1;fill-rule:nonzero;stroke:none"
       id="path6420"
       inkscape:connector-curvature="0" /><path
       d="m 149.23925,185.42025 c 0,-2.6 -2.11,-4.72 -4.71,-4.72 -2.61,0 -4.72,2.12 -4.72,4.72 0,2.61 2.11,4.72 4.72,4.72 2.6,0 4.71,-2.11 4.71,-4.72 z"
       style="fill:none;stroke:#5b9bd5;stroke-width:1.34829998;stroke-linecap:butt;stroke-linejoin:round;stroke-miterlimit:10;stroke-dasharray:none;stroke-opacity:1"
       id="path6422"
       inkscape:connector-curvature="0" /><path
       d="m 193.51925,212.39025 c 0,-2.61 -2.12,-4.72 -4.72,-4.72 -2.61,0 -4.72,2.11 -4.72,4.72 0,2.61 2.11,4.72 4.72,4.72 2.6,0 4.72,-2.11 4.72,-4.72 z"
       style="fill:#5b9bd5;fill-opacity:1;fill-rule:nonzero;stroke:none"
       id="path6424"
       inkscape:connector-curvature="0" /><path
       d="m 193.51925,212.39025 c 0,-2.61 -2.12,-4.72 -4.72,-4.72 -2.61,0 -4.72,2.11 -4.72,4.72 0,2.61 2.11,4.72 4.72,4.72 2.6,0 4.72,-2.11 4.72,-4.72 z"
       style="fill:none;stroke:#5b9bd5;stroke-width:1.34829998;stroke-linecap:butt;stroke-linejoin:round;stroke-miterlimit:10;stroke-dasharray:none;stroke-opacity:1"
       id="path6426"
       inkscape:connector-curvature="0" /><path
       d="m 524.97925,400.93025 c 0,-2.6 -2.11,-4.72 -4.72,-4.72 -2.6,0 -4.72,2.12 -4.72,4.72 0,2.61 2.12,4.72 4.72,4.72 2.61,0 4.72,-2.11 4.72,-4.72 z"
       style="fill:#5b9bd5;fill-opacity:1;fill-rule:nonzero;stroke:none"
       id="path6428"
       inkscape:connector-curvature="0" /><path
       d="m 524.97925,400.93025 c 0,-2.6 -2.11,-4.72 -4.72,-4.72 -2.6,0 -4.72,2.12 -4.72,4.72 0,2.61 2.12,4.72 4.72,4.72 2.61,0 4.72,-2.11 4.72,-4.72 z"
       style="fill:none;stroke:#5b9bd5;stroke-width:1.34829998;stroke-linecap:butt;stroke-linejoin:round;stroke-miterlimit:10;stroke-dasharray:none;stroke-opacity:1"
       id="path6430"
       inkscape:connector-curvature="0" /><path
       d="m 610.14925,417.11025 c 0,-2.6 -2.11,-4.72 -4.72,-4.72 -2.6,0 -4.72,2.12 -4.72,4.72 0,2.61 2.12,4.72 4.72,4.72 2.61,0 4.72,-2.11 4.72,-4.72 z"
       style="fill:#5b9bd5;fill-opacity:1;fill-rule:nonzero;stroke:none"
       id="path6432"
       inkscape:connector-curvature="0" /><path
       d="m 610.14925,417.11025 c 0,-2.6 -2.11,-4.72 -4.72,-4.72 -2.6,0 -4.72,2.12 -4.72,4.72 0,2.61 2.12,4.72 4.72,4.72 2.61,0 4.72,-2.11 4.72,-4.72 z"
       style="fill:none;stroke:#5b9bd5;stroke-width:1.34829998;stroke-linecap:butt;stroke-linejoin:round;stroke-miterlimit:10;stroke-dasharray:none;stroke-opacity:1"
       id="path6434"
       inkscape:connector-curvature="0" /><path
       d="m 249.69925,250.14025 c 0,-2.6 -2.12,-4.72 -4.72,-4.72 -2.61,0 -4.72,2.12 -4.72,4.72 0,2.61 2.11,4.72 4.72,4.72 2.6,0 4.72,-2.11 4.72,-4.72 z"
       style="fill:#5b9bd5;fill-opacity:1;fill-rule:nonzero;stroke:none"
       id="path6436"
       inkscape:connector-curvature="0" /><path
       d="m 249.69925,250.14025 c 0,-2.6 -2.12,-4.72 -4.72,-4.72 -2.61,0 -4.72,2.12 -4.72,4.72 0,2.61 2.11,4.72 4.72,4.72 2.6,0 4.72,-2.11 4.72,-4.72 z"
       style="fill:none;stroke:#5b9bd5;stroke-width:1.34829998;stroke-linecap:butt;stroke-linejoin:round;stroke-miterlimit:10;stroke-dasharray:none;stroke-opacity:1"
       id="path6438"
       inkscape:connector-curvature="0" /><path
       d="m 178.22925,244.75025 c 0,-2.61 -2.11,-4.72 -4.72,-4.72 -2.6,0 -4.71,2.11 -4.71,4.72 0,2.61 2.11,4.72 4.71,4.72 2.61,0 4.72,-2.11 4.72,-4.72 z"
       style="fill:#5b9bd5;fill-opacity:1;fill-rule:nonzero;stroke:none"
       id="path6440"
       inkscape:connector-curvature="0" /><path
       d="m 178.22925,244.75025 c 0,-2.61 -2.11,-4.72 -4.72,-4.72 -2.6,0 -4.71,2.11 -4.71,4.72 0,2.61 2.11,4.72 4.71,4.72 2.61,0 4.72,-2.11 4.72,-4.72 z"
       style="fill:none;stroke:#5b9bd5;stroke-width:1.34829998;stroke-linecap:butt;stroke-linejoin:round;stroke-miterlimit:10;stroke-dasharray:none;stroke-opacity:1"
       id="path6442"
       inkscape:connector-curvature="0" /><path
       d="m 102.27925,169.24025 c 0,-2.6 -2.12,-4.72 -4.72,-4.72 -2.61,0 -4.72,2.12 -4.72,4.72 0,2.61 2.11,4.72 4.72,4.72 2.6,0 4.72,-2.11 4.72,-4.72 z"
       style="fill:#5b9bd5;fill-opacity:1;fill-rule:nonzero;stroke:none"
       id="path6444"
       inkscape:connector-curvature="0" /><path
       d="m 102.27925,169.24025 c 0,-2.6 -2.12,-4.72 -4.72,-4.72 -2.61,0 -4.72,2.12 -4.72,4.72 0,2.61 2.11,4.72 4.72,4.72 2.6,0 4.72,-2.11 4.72,-4.72 z"
       style="fill:none;stroke:#5b9bd5;stroke-width:1.34829998;stroke-linecap:butt;stroke-linejoin:round;stroke-miterlimit:10;stroke-dasharray:none;stroke-opacity:1"
       id="path6446"
       inkscape:connector-curvature="0" /><path
       d="m 138.67925,131.49025 c 0,-2.61 -2.11,-4.72 -4.72,-4.72 -2.6,0 -4.72,2.11 -4.72,4.72 0,2.61 2.12,4.72 4.72,4.72 2.61,0 4.72,-2.11 4.72,-4.72 z"
       style="fill:#5b9bd5;fill-opacity:1;fill-rule:nonzero;stroke:none"
       id="path6448"
       inkscape:connector-curvature="0" /><path
       d="m 138.67925,131.49025 c 0,-2.61 -2.11,-4.72 -4.72,-4.72 -2.6,0 -4.72,2.11 -4.72,4.72 0,2.61 2.12,4.72 4.72,4.72 2.61,0 4.72,-2.11 4.72,-4.72 z"
       style="fill:none;stroke:#5b9bd5;stroke-width:1.34829998;stroke-linecap:butt;stroke-linejoin:round;stroke-miterlimit:10;stroke-dasharray:none;stroke-opacity:1"
       id="path6450"
       inkscape:connector-curvature="0" /><path
       d="m 292.16925,196.21025 c 0,-2.61 -2.11,-4.72 -4.72,-4.72 -2.61,0 -4.72,2.11 -4.72,4.72 0,2.61 2.11,4.72 4.72,4.72 2.61,0 4.72,-2.11 4.72,-4.72 z"
       style="fill:#5b9bd5;fill-opacity:1;fill-rule:nonzero;stroke:none"
       id="path6452"
       inkscape:connector-curvature="0" /><path
       d="m 292.16925,196.21025 c 0,-2.61 -2.11,-4.72 -4.72,-4.72 -2.61,0 -4.72,2.11 -4.72,4.72 0,2.61 2.11,4.72 4.72,4.72 2.61,0 4.72,-2.11 4.72,-4.72 z"
       style="fill:none;stroke:#5b9bd5;stroke-width:1.34829998;stroke-linecap:butt;stroke-linejoin:round;stroke-miterlimit:10;stroke-dasharray:none;stroke-opacity:1"
       id="path6454"
       inkscape:connector-curvature="0" /><path
       d="m 447.44925,325.43025 c 0,-2.61 -2.11,-4.72 -4.72,-4.72 -2.6,0 -4.72,2.11 -4.72,4.72 0,2.6 2.12,4.72 4.72,4.72 2.61,0 4.72,-2.12 4.72,-4.72 z"
       style="fill:#5b9bd5;fill-opacity:1;fill-rule:nonzero;stroke:none"
       id="path6456"
       inkscape:connector-curvature="0" /><path
       d="m 447.44925,325.43025 c 0,-2.61 -2.11,-4.72 -4.72,-4.72 -2.6,0 -4.72,2.11 -4.72,4.72 0,2.6 2.12,4.72 4.72,4.72 2.61,0 4.72,-2.12 4.72,-4.72 z"
       style="fill:none;stroke:#5b9bd5;stroke-width:1.34829998;stroke-linecap:butt;stroke-linejoin:round;stroke-miterlimit:10;stroke-dasharray:none;stroke-opacity:1"
       id="path6458"
       inkscape:connector-curvature="0" /><path
       d="m 237.55925,255.31025 c 0,-2.6 -2.11,-4.72 -4.72,-4.72 -2.6,0 -4.72,2.12 -4.72,4.72 0,2.61 2.12,4.72 4.72,4.72 2.61,0 4.72,-2.11 4.72,-4.72 z"
       style="fill:#5b9bd5;fill-opacity:1;fill-rule:nonzero;stroke:none"
       id="path6460"
       inkscape:connector-curvature="0" /><path
       d="m 237.55925,255.31025 c 0,-2.6 -2.11,-4.72 -4.72,-4.72 -2.6,0 -4.72,2.12 -4.72,4.72 0,2.61 2.12,4.72 4.72,4.72 2.61,0 4.72,-2.11 4.72,-4.72 z"
       style="fill:none;stroke:#5b9bd5;stroke-width:1.34829998;stroke-linecap:butt;stroke-linejoin:round;stroke-miterlimit:10;stroke-dasharray:none;stroke-opacity:1"
       id="path6462"
       inkscape:connector-curvature="0" /><path
       d="m 140.25925,169.24025 c 0,-2.6 -2.12,-4.72 -4.72,-4.72 -2.61,0 -4.72,2.12 -4.72,4.72 0,2.61 2.11,4.72 4.72,4.72 2.6,0 4.72,-2.11 4.72,-4.72 z"
       style="fill:#5b9bd5;fill-opacity:1;fill-rule:nonzero;stroke:none"
       id="path6464"
       inkscape:connector-curvature="0" /><path
       d="m 140.25925,169.24025 c 0,-2.6 -2.12,-4.72 -4.72,-4.72 -2.61,0 -4.72,2.12 -4.72,4.72 0,2.61 2.11,4.72 4.72,4.72 2.6,0 4.72,-2.11 4.72,-4.72 z"
       style="fill:none;stroke:#5b9bd5;stroke-width:1.34829998;stroke-linecap:butt;stroke-linejoin:round;stroke-miterlimit:10;stroke-dasharray:none;stroke-opacity:1"
       id="path6466"
       inkscape:connector-curvature="0" /><path
       d="m 486.99925,352.39025 c 0,-2.6 -2.11,-4.72 -4.72,-4.72 -2.6,0 -4.71,2.12 -4.71,4.72 0,2.61 2.11,4.72 4.71,4.72 2.61,0 4.72,-2.11 4.72,-4.72 z"
       style="fill:#5b9bd5;fill-opacity:1;fill-rule:nonzero;stroke:none"
       id="path6468"
       inkscape:connector-curvature="0" /><path
       d="m 486.99925,352.39025 c 0,-2.6 -2.11,-4.72 -4.72,-4.72 -2.6,0 -4.71,2.12 -4.71,4.72 0,2.61 2.11,4.72 4.71,4.72 2.61,0 4.72,-2.11 4.72,-4.72 z"
       style="fill:none;stroke:#5b9bd5;stroke-width:1.34829998;stroke-linecap:butt;stroke-linejoin:round;stroke-miterlimit:10;stroke-dasharray:none;stroke-opacity:1"
       id="path6470"
       inkscape:connector-curvature="0" /><path
       d="m 109.68925,142.28025 c 0,-2.61 -2.11,-4.72 -4.72,-4.72 -2.6,0 -4.71,2.11 -4.71,4.72 0,2.6 2.11,4.72 4.71,4.72 2.61,0 4.72,-2.12 4.72,-4.72 z"
       style="fill:#5b9bd5;fill-opacity:1;fill-rule:nonzero;stroke:none"
       id="path6472"
       inkscape:connector-curvature="0" /><path
       d="m 109.68925,142.28025 c 0,-2.61 -2.11,-4.72 -4.72,-4.72 -2.6,0 -4.71,2.11 -4.71,4.72 0,2.6 2.11,4.72 4.71,4.72 2.61,0 4.72,-2.12 4.72,-4.72 z"
       style="fill:none;stroke:#5b9bd5;stroke-width:1.34829998;stroke-linecap:butt;stroke-linejoin:round;stroke-miterlimit:10;stroke-dasharray:none;stroke-opacity:1"
       id="path6474"
       inkscape:connector-curvature="0" /><path
       d="m 147.89925,153.06025 c 0,-2.6 -2.12,-4.72 -4.72,-4.72 -2.61,0 -4.72,2.12 -4.72,4.72 0,2.61 2.11,4.72 4.72,4.72 2.6,0 4.72,-2.11 4.72,-4.72 z"
       style="fill:#5b9bd5;fill-opacity:1;fill-rule:nonzero;stroke:none"
       id="path6476"
       inkscape:connector-curvature="0" /><path
       d="m 147.89925,153.06025 c 0,-2.6 -2.12,-4.72 -4.72,-4.72 -2.61,0 -4.72,2.12 -4.72,4.72 0,2.61 2.11,4.72 4.72,4.72 2.6,0 4.72,-2.11 4.72,-4.72 z"
       style="fill:none;stroke:#5b9bd5;stroke-width:1.34829998;stroke-linecap:butt;stroke-linejoin:round;stroke-miterlimit:10;stroke-dasharray:none;stroke-opacity:1"
       id="path6478"
       inkscape:connector-curvature="0" /><path
       d="m 375.98925,244.75025 c 0,-2.61 -2.11,-4.72 -4.72,-4.72 -2.61,0 -4.72,2.11 -4.72,4.72 0,2.61 2.11,4.72 4.72,4.72 2.61,0 4.72,-2.11 4.72,-4.72 z"
       style="fill:#5b9bd5;fill-opacity:1;fill-rule:nonzero;stroke:none"
       id="path6480"
       inkscape:connector-curvature="0" /><path
       d="m 375.98925,244.75025 c 0,-2.61 -2.11,-4.72 -4.72,-4.72 -2.61,0 -4.72,2.11 -4.72,4.72 0,2.61 2.11,4.72 4.72,4.72 2.61,0 4.72,-2.11 4.72,-4.72 z"
       style="fill:none;stroke:#5b9bd5;stroke-width:1.34829998;stroke-linecap:butt;stroke-linejoin:round;stroke-miterlimit:10;stroke-dasharray:none;stroke-opacity:1"
       id="path6482"
       inkscape:connector-curvature="0" /><path
       d="m 479.35925,239.36025 c 0,-2.61 -2.11,-4.72 -4.72,-4.72 -2.6,0 -4.72,2.11 -4.72,4.72 0,2.6 2.12,4.72 4.72,4.72 2.61,0 4.72,-2.12 4.72,-4.72 z"
       style="fill:#5b9bd5;fill-opacity:1;fill-rule:nonzero;stroke:none"
       id="path6484"
       inkscape:connector-curvature="0" /><path
       d="m 479.35925,239.36025 c 0,-2.61 -2.11,-4.72 -4.72,-4.72 -2.6,0 -4.72,2.11 -4.72,4.72 0,2.6 2.12,4.72 4.72,4.72 2.61,0 4.72,-2.12 4.72,-4.72 z"
       style="fill:none;stroke:#5b9bd5;stroke-width:1.34829998;stroke-linecap:butt;stroke-linejoin:round;stroke-miterlimit:10;stroke-dasharray:none;stroke-opacity:1"
       id="path6486"
       inkscape:connector-curvature="0" /><path
       d="m 493.06925,239.36025 c 0,-2.61 -2.11,-4.72 -4.72,-4.72 -2.6,0 -4.72,2.11 -4.72,4.72 0,2.6 2.12,4.72 4.72,4.72 2.61,0 4.72,-2.12 4.72,-4.72 z"
       style="fill:#5b9bd5;fill-opacity:1;fill-rule:nonzero;stroke:none"
       id="path6488"
       inkscape:connector-curvature="0" /><path
       d="m 493.06925,239.36025 c 0,-2.61 -2.11,-4.72 -4.72,-4.72 -2.6,0 -4.72,2.11 -4.72,4.72 0,2.6 2.12,4.72 4.72,4.72 2.61,0 4.72,-2.12 4.72,-4.72 z"
       style="fill:none;stroke:#5b9bd5;stroke-width:1.34829998;stroke-linecap:butt;stroke-linejoin:round;stroke-miterlimit:10;stroke-dasharray:none;stroke-opacity:1"
       id="path6490"
       inkscape:connector-curvature="0" /><path
       d="m 345.42925,212.39025 c 0,-2.61 -2.11,-4.72 -4.72,-4.72 -2.61,0 -4.72,2.11 -4.72,4.72 0,2.61 2.11,4.72 4.72,4.72 2.61,0 4.72,-2.11 4.72,-4.72 z"
       style="fill:#5b9bd5;fill-opacity:1;fill-rule:nonzero;stroke:none"
       id="path6492"
       inkscape:connector-curvature="0" /><path
       d="m 345.42925,212.39025 c 0,-2.61 -2.11,-4.72 -4.72,-4.72 -2.61,0 -4.72,2.11 -4.72,4.72 0,2.61 2.11,4.72 4.72,4.72 2.61,0 4.72,-2.11 4.72,-4.72 z"
       style="fill:none;stroke:#5b9bd5;stroke-width:1.34829998;stroke-linecap:butt;stroke-linejoin:round;stroke-miterlimit:10;stroke-dasharray:none;stroke-opacity:1"
       id="path6494"
       inkscape:connector-curvature="0" /><path
       d="m 167.66925,120.70025 c 0,-2.6 -2.11,-4.72 -4.72,-4.72 -2.6,0 -4.72,2.12 -4.72,4.72 0,2.61 2.12,4.72 4.72,4.72 2.61,0 4.72,-2.11 4.72,-4.72 z"
       style="fill:#5b9bd5;fill-opacity:1;fill-rule:nonzero;stroke:none"
       id="path6496"
       inkscape:connector-curvature="0" /><path
       d="m 167.66925,120.70025 c 0,-2.6 -2.11,-4.72 -4.72,-4.72 -2.6,0 -4.72,2.12 -4.72,4.72 0,2.61 2.12,4.72 4.72,4.72 2.61,0 4.72,-2.11 4.72,-4.72 z"
       style="fill:none;stroke:#5b9bd5;stroke-width:1.34829998;stroke-linecap:butt;stroke-linejoin:round;stroke-miterlimit:10;stroke-dasharray:none;stroke-opacity:1"
       id="path6498"
       inkscape:connector-curvature="0" /><path
       d="m 112.83925,180.03025 c 0,-2.61 -2.11,-4.72 -4.72,-4.72 -2.61,0 -4.72,2.11 -4.72,4.72 0,2.61 2.11,4.72 4.72,4.72 2.61,0 4.72,-2.11 4.72,-4.72 z"
       style="fill:#5b9bd5;fill-opacity:1;fill-rule:nonzero;stroke:none"
       id="path6500"
       inkscape:connector-curvature="0" /><path
       d="m 112.83925,180.03025 c 0,-2.61 -2.11,-4.72 -4.72,-4.72 -2.61,0 -4.72,2.11 -4.72,4.72 0,2.61 2.11,4.72 4.72,4.72 2.61,0 4.72,-2.11 4.72,-4.72 z"
       style="fill:none;stroke:#5b9bd5;stroke-width:1.34829998;stroke-linecap:butt;stroke-linejoin:round;stroke-miterlimit:10;stroke-dasharray:none;stroke-opacity:1"
       id="path6502"
       inkscape:connector-curvature="0" /><path
       d="m 543.17925,266.10025 c 0,-2.61 -2.11,-4.72 -4.71,-4.72 -2.61,0 -4.72,2.11 -4.72,4.72 0,2.61 2.11,4.72 4.72,4.72 2.6,0 4.71,-2.11 4.71,-4.72 z"
       style="fill:#5b9bd5;fill-opacity:1;fill-rule:nonzero;stroke:none"
       id="path6504"
       inkscape:connector-curvature="0" /><path
       d="m 543.17925,266.10025 c 0,-2.61 -2.11,-4.72 -4.71,-4.72 -2.61,0 -4.72,2.11 -4.72,4.72 0,2.61 2.11,4.72 4.72,4.72 2.6,0 4.71,-2.11 4.71,-4.72 z"
       style="fill:none;stroke:#5b9bd5;stroke-width:1.34829998;stroke-linecap:butt;stroke-linejoin:round;stroke-miterlimit:10;stroke-dasharray:none;stroke-opacity:1"
       id="path6506"
       inkscape:connector-curvature="0" /><path
       d="m 410.81925,244.75025 c 0,-2.61 -2.11,-4.72 -4.72,-4.72 -2.6,0 -4.72,2.11 -4.72,4.72 0,2.61 2.12,4.72 4.72,4.72 2.61,0 4.72,-2.11 4.72,-4.72 z"
       style="fill:#5b9bd5;fill-opacity:1;fill-rule:nonzero;stroke:none"
       id="path6508"
       inkscape:connector-curvature="0" /><path
       d="m 410.81925,244.75025 c 0,-2.61 -2.11,-4.72 -4.72,-4.72 -2.6,0 -4.72,2.11 -4.72,4.72 0,2.61 2.12,4.72 4.72,4.72 2.61,0 4.72,-2.11 4.72,-4.72 z"
       style="fill:none;stroke:#5b9bd5;stroke-width:1.34829998;stroke-linecap:butt;stroke-linejoin:round;stroke-miterlimit:10;stroke-dasharray:none;stroke-opacity:1"
       id="path6510"
       inkscape:connector-curvature="0" /><path
       d="m 684.53925,341.61025 c 0,-2.61 -2.12,-4.72 -4.72,-4.72 -2.61,0 -4.72,2.11 -4.72,4.72 0,2.6 2.11,4.72 4.72,4.72 2.6,0 4.72,-2.12 4.72,-4.72 z"
       style="fill:#5b9bd5;fill-opacity:1;fill-rule:nonzero;stroke:none"
       id="path6512"
       inkscape:connector-curvature="0" /><path
       d="m 684.53925,341.61025 c 0,-2.61 -2.12,-4.72 -4.72,-4.72 -2.61,0 -4.72,2.11 -4.72,4.72 0,2.6 2.11,4.72 4.72,4.72 2.6,0 4.72,-2.12 4.72,-4.72 z"
       style="fill:none;stroke:#5b9bd5;stroke-width:1.34829998;stroke-linecap:butt;stroke-linejoin:round;stroke-miterlimit:10;stroke-dasharray:none;stroke-opacity:1"
       id="path6514"
       inkscape:connector-curvature="0" /><path
       d="m 143.17925,142.28025 c 0,-2.61 -2.12,-4.72 -4.72,-4.72 -2.61,0 -4.72,2.11 -4.72,4.72 0,2.6 2.11,4.72 4.72,4.72 2.6,0 4.72,-2.12 4.72,-4.72 z"
       style="fill:#5b9bd5;fill-opacity:1;fill-rule:nonzero;stroke:none"
       id="path6516"
       inkscape:connector-curvature="0" /><path
       d="m 143.17925,142.28025 c 0,-2.61 -2.12,-4.72 -4.72,-4.72 -2.61,0 -4.72,2.11 -4.72,4.72 0,2.6 2.11,4.72 4.72,4.72 2.6,0 4.72,-2.12 4.72,-4.72 z"
       style="fill:none;stroke:#5b9bd5;stroke-width:1.34829998;stroke-linecap:butt;stroke-linejoin:round;stroke-miterlimit:10;stroke-dasharray:none;stroke-opacity:1"
       id="path6518"
       inkscape:connector-curvature="0" /><path
       d="m 261.82925,163.85025 c 0,-2.61 -2.11,-4.72 -4.72,-4.72 -2.6,0 -4.72,2.11 -4.72,4.72 0,2.61 2.12,4.72 4.72,4.72 2.61,0 4.72,-2.11 4.72,-4.72 z"
       style="fill:#5b9bd5;fill-opacity:1;fill-rule:nonzero;stroke:none"
       id="path6520"
       inkscape:connector-curvature="0" /><path
       d="m 261.82925,163.85025 c 0,-2.61 -2.11,-4.72 -4.72,-4.72 -2.6,0 -4.72,2.11 -4.72,4.72 0,2.61 2.12,4.72 4.72,4.72 2.61,0 4.72,-2.11 4.72,-4.72 z"
       style="fill:none;stroke:#5b9bd5;stroke-width:1.34829998;stroke-linecap:butt;stroke-linejoin:round;stroke-miterlimit:10;stroke-dasharray:none;stroke-opacity:1"
       id="path6522"
       inkscape:connector-curvature="0" /><path
       d="m 462.50925,260.71025 c 0,-2.61 -2.11,-4.72 -4.72,-4.72 -2.61,0 -4.72,2.11 -4.72,4.72 0,2.6 2.11,4.72 4.72,4.72 2.61,0 4.72,-2.12 4.72,-4.72 z"
       style="fill:#5b9bd5;fill-opacity:1;fill-rule:nonzero;stroke:none"
       id="path6524"
       inkscape:connector-curvature="0" /><path
       d="m 462.50925,260.71025 c 0,-2.61 -2.11,-4.72 -4.72,-4.72 -2.61,0 -4.72,2.11 -4.72,4.72 0,2.6 2.11,4.72 4.72,4.72 2.61,0 4.72,-2.12 4.72,-4.72 z"
       style="fill:none;stroke:#5b9bd5;stroke-width:1.34829998;stroke-linecap:butt;stroke-linejoin:round;stroke-miterlimit:10;stroke-dasharray:none;stroke-opacity:1"
       id="path6526"
       inkscape:connector-curvature="0" /><path
       d="m 346.99925,153.06025 c 0,-2.6 -2.11,-4.72 -4.72,-4.72 -2.6,0 -4.72,2.12 -4.72,4.72 0,2.61 2.12,4.72 4.72,4.72 2.61,0 4.72,-2.11 4.72,-4.72 z"
       style="fill:#5b9bd5;fill-opacity:1;fill-rule:nonzero;stroke:none"
       id="path6528"
       inkscape:connector-curvature="0" /><path
       d="m 346.99925,153.06025 c 0,-2.6 -2.11,-4.72 -4.72,-4.72 -2.6,0 -4.72,2.12 -4.72,4.72 0,2.61 2.12,4.72 4.72,4.72 2.61,0 4.72,-2.11 4.72,-4.72 z"
       style="fill:none;stroke:#5b9bd5;stroke-width:1.34829998;stroke-linecap:butt;stroke-linejoin:round;stroke-miterlimit:10;stroke-dasharray:none;stroke-opacity:1"
       id="path6530"
       inkscape:connector-curvature="0" /><path
       d="m 205.64925,169.24025 c 0,-2.6 -2.11,-4.72 -4.72,-4.72 -2.61,0 -4.72,2.12 -4.72,4.72 0,2.61 2.11,4.72 4.72,4.72 2.61,0 4.72,-2.11 4.72,-4.72 z"
       style="fill:#5b9bd5;fill-opacity:1;fill-rule:nonzero;stroke:none"
       id="path6532"
       inkscape:connector-curvature="0" /><path
       d="m 205.64925,169.24025 c 0,-2.6 -2.11,-4.72 -4.72,-4.72 -2.61,0 -4.72,2.12 -4.72,4.72 0,2.61 2.11,4.72 4.72,4.72 2.61,0 4.72,-2.11 4.72,-4.72 z"
       style="fill:none;stroke:#5b9bd5;stroke-width:1.34829998;stroke-linecap:butt;stroke-linejoin:round;stroke-miterlimit:10;stroke-dasharray:none;stroke-opacity:1"
       id="path6534"
       inkscape:connector-curvature="0" /><g
       id="g6536"
       transform="translate(-54.83075,-54.18975)"><path
         d="M 150.79,206.03 734.68,411.26"
         style="fill:none;stroke:#ffc000;stroke-width:2.80900002;stroke-linecap:round;stroke-linejoin:round;stroke-miterlimit:10;stroke-dasharray:8.4271, 11.236;stroke-dashoffset:0;stroke-opacity:1"
         id="path6538"
         inkscape:connector-curvature="0" /></g><g
       id="g6540"
       transform="translate(-54.83075,-54.18975)"><g
         id="g6542"
         clip-path="url(#clipPath6544)"><text
           transform="matrix(1,0,0,-1,120.55,137.78)"
           style="font-variant:normal;font-weight:normal;font-size:16.84799957px;font-family:Calibri;-inkscape-font-specification:Calibri;writing-mode:lr-tb;fill:#595959;fill-opacity:1;fill-rule:nonzero;stroke:none"
           id="text6548"><tspan
             x="0"
             y="0"
             id="tspan6550">0</tspan></text>
</g></g><g
       id="g6552"
       transform="translate(-54.83075,-54.18975)"><g
         id="g6554"
         clip-path="url(#clipPath6556)"><text
           transform="matrix(1,0,0,-1,112.03,191.66)"
           style="font-variant:normal;font-weight:normal;font-size:16.84799957px;font-family:Calibri;-inkscape-font-specification:Calibri;writing-mode:lr-tb;fill:#595959;fill-opacity:1;fill-rule:nonzero;stroke:none"
           id="text6560"><tspan
             x="0 8.5200357"
             y="0"
             sodipodi:role="line"
             id="tspan6562">10</tspan></text>
</g></g><g
       id="g6564"
       transform="translate(-54.83075,-54.18975)"><g
         id="g6566"
         clip-path="url(#clipPath6568)"><text
           transform="matrix(1,0,0,-1,112.03,245.54)"
           style="font-variant:normal;font-weight:normal;font-size:16.84799957px;font-family:Calibri;-inkscape-font-specification:Calibri;writing-mode:lr-tb;fill:#595959;fill-opacity:1;fill-rule:nonzero;stroke:none"
           id="text6572"><tspan
             x="0 8.5200357"
             y="0"
             sodipodi:role="line"
             id="tspan6574">20</tspan></text>
</g></g><g
       id="g6576"
       transform="translate(-54.83075,-54.18975)"><g
         id="g6578"
         clip-path="url(#clipPath6580)"><text
           transform="matrix(1,0,0,-1,112.03,299.42)"
           style="font-variant:normal;font-weight:normal;font-size:16.84799957px;font-family:Calibri;-inkscape-font-specification:Calibri;writing-mode:lr-tb;fill:#595959;fill-opacity:1;fill-rule:nonzero;stroke:none"
           id="text6584"><tspan
             x="0 8.5200357"
             y="0"
             sodipodi:role="line"
             id="tspan6586">30</tspan></text>
</g></g><g
       id="g6588"
       transform="translate(-54.83075,-54.18975)"><g
         id="g6590"
         clip-path="url(#clipPath6592)"><text
           transform="matrix(1,0,0,-1,112.03,353.3)"
           style="font-variant:normal;font-weight:normal;font-size:16.84799957px;font-family:Calibri;-inkscape-font-specification:Calibri;writing-mode:lr-tb;fill:#595959;fill-opacity:1;fill-rule:nonzero;stroke:none"
           id="text6596"><tspan
             x="0 8.5200357"
             y="0"
             sodipodi:role="line"
             id="tspan6598">40</tspan></text>
</g></g><g
       id="g6600"
       transform="translate(-54.83075,-54.18975)"><g
         id="g6602"
         clip-path="url(#clipPath6604)"><text
           transform="matrix(1,0,0,-1,112.03,407.18)"
           style="font-variant:normal;font-weight:normal;font-size:16.84799957px;font-family:Calibri;-inkscape-font-specification:Calibri;writing-mode:lr-tb;fill:#595959;fill-opacity:1;fill-rule:nonzero;stroke:none"
           id="text6608"><tspan
             x="0 8.5200357"
             y="0"
             sodipodi:role="line"
             id="tspan6610">50</tspan></text>
</g></g><g
       id="g6612"
       transform="translate(-54.83075,-54.18975)"><g
         id="g6614"
         clip-path="url(#clipPath6616)"><text
           transform="matrix(1,0,0,-1,112.03,461.06)"
           style="font-variant:normal;font-weight:normal;font-size:16.84799957px;font-family:Calibri;-inkscape-font-specification:Calibri;writing-mode:lr-tb;fill:#595959;fill-opacity:1;fill-rule:nonzero;stroke:none"
           id="text6620"><tspan
             x="0 8.5200357"
             y="0"
             sodipodi:role="line"
             id="tspan6622">60</tspan></text>
</g></g><g
       id="g6624"
       transform="translate(-54.83075,-54.18975)"><g
         id="g6626"
         clip-path="url(#clipPath6628)"><text
           transform="matrix(1,0,0,-1,112.03,514.94)"
           style="font-variant:normal;font-weight:normal;font-size:16.84799957px;font-family:Calibri;-inkscape-font-specification:Calibri;writing-mode:lr-tb;fill:#595959;fill-opacity:1;fill-rule:nonzero;stroke:none"
           id="text6632"><tspan
             x="0 8.5200357"
             y="0"
             sodipodi:role="line"
             id="tspan6634">70</tspan></text>
</g></g><g
       id="g6636"
       transform="translate(-54.83075,-54.18975)"><g
         id="g6638"
         clip-path="url(#clipPath6640)"><text
           transform="matrix(1,0,0,-1,140.47,115.87)"
           style="font-variant:normal;font-weight:normal;font-size:16.84799957px;font-family:Calibri;-inkscape-font-specification:Calibri;writing-mode:lr-tb;fill:#595959;fill-opacity:1;fill-rule:nonzero;stroke:none"
           id="text6644"><tspan
             x="0"
             y="0"
             id="tspan6646">0</tspan></text>
</g></g><g
       id="g6648"
       transform="translate(-54.83075,-54.18975)"><g
         id="g6650"
         clip-path="url(#clipPath6652)"><text
           transform="matrix(1,0,0,-1,212.23,115.87)"
           style="font-variant:normal;font-weight:normal;font-size:16.84799957px;font-family:Calibri;-inkscape-font-specification:Calibri;writing-mode:lr-tb;fill:#595959;fill-opacity:1;fill-rule:nonzero;stroke:none"
           id="text6656"><tspan
             x="0 8.5439959"
             y="0"
             sodipodi:role="line"
             id="tspan6658">50</tspan></text>
</g></g><g
       id="g6660"
       transform="translate(-54.83075,-54.18975)"><g
         id="g6662"
         clip-path="url(#clipPath6664)"><text
           transform="matrix(1,0,0,-1,284.02,115.87)"
           style="font-variant:normal;font-weight:normal;font-size:16.84799957px;font-family:Calibri;-inkscape-font-specification:Calibri;writing-mode:lr-tb;fill:#595959;fill-opacity:1;fill-rule:nonzero;stroke:none"
           id="text6668"><tspan
             x="0 8.5200357 17.040071"
             y="0"
             sodipodi:role="line"
             id="tspan6670">100</tspan></text>
</g></g><g
       id="g6672"
       transform="translate(-54.83075,-54.18975)"><g
         id="g6674"
         clip-path="url(#clipPath6676)"><text
           transform="matrix(1,0,0,-1,360.05,115.87)"
           style="font-variant:normal;font-weight:normal;font-size:16.84799957px;font-family:Calibri;-inkscape-font-specification:Calibri;writing-mode:lr-tb;fill:#595959;fill-opacity:1;fill-rule:nonzero;stroke:none"
           id="text6680"><tspan
             x="0 8.5439959 17.087992"
             y="0"
             sodipodi:role="line"
             id="tspan6682">150</tspan></text>
</g></g><g
       id="g6684"
       transform="translate(-54.83075,-54.18975)"><g
         id="g6686"
         clip-path="url(#clipPath6688)"><text
           transform="matrix(1,0,0,-1,436.08,115.87)"
           style="font-variant:normal;font-weight:normal;font-size:16.84799957px;font-family:Calibri;-inkscape-font-specification:Calibri;writing-mode:lr-tb;fill:#595959;fill-opacity:1;fill-rule:nonzero;stroke:none"
           id="text6692"><tspan
             x="0 8.5439959 17.087992"
             y="0"
             sodipodi:role="line"
             id="tspan6694">200</tspan></text>
</g></g><g
       id="g6696"
       transform="translate(-54.83075,-54.18975)"><g
         id="g6698"
         clip-path="url(#clipPath6700)"><text
           transform="matrix(1,0,0,-1,512.11,115.87)"
           style="font-variant:normal;font-weight:normal;font-size:16.84799957px;font-family:Calibri;-inkscape-font-specification:Calibri;writing-mode:lr-tb;fill:#595959;fill-opacity:1;fill-rule:nonzero;stroke:none"
           id="text6704"><tspan
             x="0 8.5439959 17.087992"
             y="0"
             sodipodi:role="line"
             id="tspan6706">250</tspan></text>
</g></g><g
       id="g6708"
       transform="translate(-54.83075,-54.18975)"><g
         id="g6710"
         clip-path="url(#clipPath6712)"><text
           transform="matrix(1,0,0,-1,588.14,115.87)"
           style="font-variant:normal;font-weight:normal;font-size:16.84799957px;font-family:Calibri;-inkscape-font-specification:Calibri;writing-mode:lr-tb;fill:#595959;fill-opacity:1;fill-rule:nonzero;stroke:none"
           id="text6716"><tspan
             x="0 8.5439959 17.087992"
             y="0"
             sodipodi:role="line"
             id="tspan6718">300</tspan></text>
</g></g><g
       id="g6720"
       transform="translate(-54.83075,-54.18975)"><g
         id="g6722"
         clip-path="url(#clipPath6724)"><text
           transform="matrix(1,0,0,-1,664.2,115.87)"
           style="font-variant:normal;font-weight:normal;font-size:16.84799957px;font-family:Calibri;-inkscape-font-specification:Calibri;writing-mode:lr-tb;fill:#595959;fill-opacity:1;fill-rule:nonzero;stroke:none"
           id="text6728"><tspan
             x="0 8.5439959 17.087992"
             y="0"
             sodipodi:role="line"
             id="tspan6730">350</tspan></text>
</g></g><g
       id="g6732"
       transform="translate(-54.83075,-54.18975)"><g
         id="g6734"
         clip-path="url(#clipPath6736)"><text
           transform="matrix(1,0,0,-1,740.23,115.87)"
           style="font-variant:normal;font-weight:normal;font-size:16.84799957px;font-family:Calibri;-inkscape-font-specification:Calibri;writing-mode:lr-tb;fill:#595959;fill-opacity:1;fill-rule:nonzero;stroke:none"
           id="text6740"><tspan
             x="0 8.5439959 17.087992"
             y="0"
             sodipodi:role="line"
             id="tspan6742">400</tspan></text>
</g></g><g
       id="g6744"
       transform="translate(-54.83075,-54.18975)"><g
         id="g6746"
         clip-path="url(#clipPath6748)"><text
           transform="matrix(-4.4e-8,1,1,4.4e-8,85.032,152.86)"
           style="font-variant:normal;font-weight:normal;font-size:22.4640007px;font-family:Calibri;-inkscape-font-specification:Calibri;writing-mode:lr-tb;fill:#595959;fill-opacity:1;fill-rule:nonzero;stroke:none"
           id="text6752"><tspan
             x="0 19.31904 30.551041 41.311295 53.262142 57.979584 72.581184 84.487106 102.43584 114.36423 125.59622 133.43616 138.19853 150.10445 157.06828 162.01036 175.93805 186.27148 196.15565 204.93907 210.10579 230.09875 235.26547 242.94817 254.85408 259.57153 269.88251 281.81088 293.7168 309.66623 314.60831 323.14465 333.32083 338.48755 350.371"
             y="0"
             sodipodi:role="line"
             id="tspan6754">Mean Number of Days With Snow Lying</tspan></text>
</g></g><g
       id="g6756"
       transform="translate(-54.83075,-54.18975)"><g
         id="g6758"
         clip-path="url(#clipPath6760)"><text
           transform="matrix(1,0,0,-1,406.58,63.792)"
           style="font-variant:normal;font-weight:normal;font-size:22.48800087px;font-family:Calibri;-inkscape-font-specification:Calibri;writing-mode:lr-tb;fill:#595959;fill-opacity:1;fill-rule:nonzero;stroke:none"
           id="text6764"><tspan
             x="0 13.020552 18.192793 25.883688 31.055927 38.701847 50.598 62.494152"
             y="0"
             sodipodi:role="line"
             id="tspan6766">Altitude</tspan></text>
</g></g></g></svg>