<?xml version="1.0" encoding="UTF-8" standalone="no"?>
<!-- Created with Inkscape (http://www.inkscape.org/) -->

<svg
   xmlns:dc="http://purl.org/dc/elements/1.1/"
   xmlns:cc="http://creativecommons.org/ns#"
   xmlns:rdf="http://www.w3.org/1999/02/22-rdf-syntax-ns#"
   xmlns:svg="http://www.w3.org/2000/svg"
   xmlns="http://www.w3.org/2000/svg"
   xmlns:sodipodi="http://sodipodi.sourceforge.net/DTD/sodipodi-0.dtd"
   xmlns:inkscape="http://www.inkscape.org/namespaces/inkscape"
   id="svg4136"
   version="1.1"
   inkscape:version="0.91 r13725"
   xml:space="preserve"
   width="638.72998"
   height="347.78"
   viewBox="0 0 638.72998 347.78"
   sodipodi:docname="RunningExtrapolate.svg"><metadata
     id="metadata4142"><rdf:RDF><cc:Work
         rdf:about=""><dc:format>image/svg+xml</dc:format><dc:type
           rdf:resource="http://purl.org/dc/dcmitype/StillImage" /><dc:title></dc:title></cc:Work></rdf:RDF></metadata><defs
     id="defs4140"><clipPath
       clipPathUnits="userSpaceOnUse"
       id="clipPath4200"><path
         d="m 109.94,308.13 434.27,0 0,214.66 -434.27,0 0,-214.66 z"
         id="path4202"
         inkscape:connector-curvature="0"
         style="clip-rule:evenodd" /></clipPath><clipPath
       clipPathUnits="userSpaceOnUse"
       id="clipPath4210"><path
         d="m 50.88,257.28 510.24,0 0,277.32 -510.24,0 0,-277.32 z"
         id="path4212"
         inkscape:connector-curvature="0"
         style="clip-rule:evenodd" /></clipPath><clipPath
       clipPathUnits="userSpaceOnUse"
       id="clipPath4222"><path
         d="m 50.88,257.28 510.24,0 0,277.32 -510.24,0 0,-277.32 z"
         id="path4224"
         inkscape:connector-curvature="0"
         style="clip-rule:evenodd" /></clipPath><clipPath
       clipPathUnits="userSpaceOnUse"
       id="clipPath4234"><path
         d="m 50.88,257.28 510.24,0 0,277.32 -510.24,0 0,-277.32 z"
         id="path4236"
         inkscape:connector-curvature="0"
         style="clip-rule:evenodd" /></clipPath><clipPath
       clipPathUnits="userSpaceOnUse"
       id="clipPath4246"><path
         d="m 50.88,257.28 510.24,0 0,277.32 -510.24,0 0,-277.32 z"
         id="path4248"
         inkscape:connector-curvature="0"
         style="clip-rule:evenodd" /></clipPath><clipPath
       clipPathUnits="userSpaceOnUse"
       id="clipPath4258"><path
         d="m 50.88,257.28 510.24,0 0,277.32 -510.24,0 0,-277.32 z"
         id="path4260"
         inkscape:connector-curvature="0"
         style="clip-rule:evenodd" /></clipPath><clipPath
       clipPathUnits="userSpaceOnUse"
       id="clipPath4270"><path
         d="m 50.88,257.28 510.24,0 0,277.32 -510.24,0 0,-277.32 z"
         id="path4272"
         inkscape:connector-curvature="0"
         style="clip-rule:evenodd" /></clipPath><clipPath
       clipPathUnits="userSpaceOnUse"
       id="clipPath4282"><path
         d="m 50.88,257.28 510.24,0 0,277.32 -510.24,0 0,-277.32 z"
         id="path4284"
         inkscape:connector-curvature="0"
         style="clip-rule:evenodd" /></clipPath><clipPath
       clipPathUnits="userSpaceOnUse"
       id="clipPath4294"><path
         d="m 50.88,257.28 510.24,0 0,277.32 -510.24,0 0,-277.32 z"
         id="path4296"
         inkscape:connector-curvature="0"
         style="clip-rule:evenodd" /></clipPath><clipPath
       clipPathUnits="userSpaceOnUse"
       id="clipPath4306"><path
         d="m 50.88,257.28 510.24,0 0,277.32 -510.24,0 0,-277.32 z"
         id="path4308"
         inkscape:connector-curvature="0"
         style="clip-rule:evenodd" /></clipPath><clipPath
       clipPathUnits="userSpaceOnUse"
       id="clipPath4318"><path
         d="m 50.88,257.28 510.24,0 0,277.32 -510.24,0 0,-277.32 z"
         id="path4320"
         inkscape:connector-curvature="0"
         style="clip-rule:evenodd" /></clipPath><clipPath
       clipPathUnits="userSpaceOnUse"
       id="clipPath4330"><path
         d="m 50.88,257.28 510.24,0 0,277.32 -510.24,0 0,-277.32 z"
         id="path4332"
         inkscape:connector-curvature="0"
         style="clip-rule:evenodd" /></clipPath><clipPath
       clipPathUnits="userSpaceOnUse"
       id="clipPath4342"><path
         d="m 50.88,257.28 510.24,0 0,277.32 -510.24,0 0,-277.32 z"
         id="path4344"
         inkscape:connector-curvature="0"
         style="clip-rule:evenodd" /></clipPath><clipPath
       clipPathUnits="userSpaceOnUse"
       id="clipPath4354"><path
         d="m 50.88,257.28 510.24,0 0,277.32 -510.24,0 0,-277.32 z"
         id="path4356"
         inkscape:connector-curvature="0"
         style="clip-rule:evenodd" /></clipPath><clipPath
       clipPathUnits="userSpaceOnUse"
       id="clipPath4366"><path
         d="m 50.88,257.28 510.24,0 0,277.32 -510.24,0 0,-277.32 z"
         id="path4368"
         inkscape:connector-curvature="0"
         style="clip-rule:evenodd" /></clipPath><clipPath
       clipPathUnits="userSpaceOnUse"
       id="clipPath4378"><path
         d="m 50.88,257.28 510.24,0 0,277.32 -510.24,0 0,-277.32 z"
         id="path4380"
         inkscape:connector-curvature="0"
         style="clip-rule:evenodd" /></clipPath><clipPath
       clipPathUnits="userSpaceOnUse"
       id="clipPath4390"><path
         d="m 50.88,257.28 510.24,0 0,277.32 -510.24,0 0,-277.32 z"
         id="path4392"
         inkscape:connector-curvature="0"
         style="clip-rule:evenodd" /></clipPath><clipPath
       clipPathUnits="userSpaceOnUse"
       id="clipPath4402"><path
         d="m 50.88,257.28 510.24,0 0,277.32 -510.24,0 0,-277.32 z"
         id="path4404"
         inkscape:connector-curvature="0"
         style="clip-rule:evenodd" /></clipPath><clipPath
       clipPathUnits="userSpaceOnUse"
       id="clipPath4414"><path
         d="m 50.88,257.28 510.24,0 0,277.32 -510.24,0 0,-277.32 z"
         id="path4416"
         inkscape:connector-curvature="0"
         style="clip-rule:evenodd" /></clipPath><clipPath
       clipPathUnits="userSpaceOnUse"
       id="clipPath4426"><path
         d="m 50.88,257.28 510.24,0 0,277.32 -510.24,0 0,-277.32 z"
         id="path4428"
         inkscape:connector-curvature="0"
         style="clip-rule:evenodd" /></clipPath><clipPath
       clipPathUnits="userSpaceOnUse"
       id="clipPath4438"><path
         d="m 50.88,257.28 510.24,0 0,277.32 -510.24,0 0,-277.32 z"
         id="path4440"
         inkscape:connector-curvature="0"
         style="clip-rule:evenodd" /></clipPath><clipPath
       clipPathUnits="userSpaceOnUse"
       id="clipPath4450"><path
         d="m 50.88,257.28 510.24,0 0,277.32 -510.24,0 0,-277.32 z"
         id="path4452"
         inkscape:connector-curvature="0"
         style="clip-rule:evenodd" /></clipPath><clipPath
       clipPathUnits="userSpaceOnUse"
       id="clipPath4462"><path
         d="m 50.88,257.28 510.24,0 0,277.32 -510.24,0 0,-277.32 z"
         id="path4464"
         inkscape:connector-curvature="0"
         style="clip-rule:evenodd" /></clipPath></defs><sodipodi:namedview
     pagecolor="#ffffff"
     bordercolor="#666666"
     borderopacity="1"
     objecttolerance="10"
     gridtolerance="10"
     guidetolerance="10"
     inkscape:pageopacity="0"
     inkscape:pageshadow="2"
     inkscape:window-width="1920"
     inkscape:window-height="1017"
     id="namedview4138"
     showgrid="false"
     inkscape:zoom="0.85656566"
     inkscape:cx="382.5"
     inkscape:cy="401.60377"
     inkscape:window-x="-8"
     inkscape:window-y="-8"
     inkscape:window-maximized="1"
     inkscape:current-layer="g4144" /><g
     id="g4144"
     inkscape:groupmode="layer"
     inkscape:label="RunningExtrapolate"
     transform="matrix(1.25,0,0,-1.25,0,347.78)"><path
       d="m 59.4728,75.126911 434.22,0 m -434.22,23.82003 434.22,0 m -434.22,23.830039 434.22,0 m -434.22,23.82003 434.22,0 m -434.22,23.82004 434.22,0 m -434.22,23.95003 434.22,0 m -434.22,23.82003 434.22,0 m -434.22,23.83004 434.22,0 m -434.22,23.86003 434.22,0"
       style="fill:none;stroke:#d9d9d9;stroke-width:0.8136;stroke-linecap:butt;stroke-linejoin:round;stroke-miterlimit:10;stroke-dasharray:none;stroke-opacity:1"
       id="path4148"
       inkscape:connector-curvature="0" /><path
       d="m 107.6828,265.87718 0,-214.650309 m 48.29,214.650309 0,-214.650309 m 48.3,214.650309 0,-214.650309 m 48.16,214.650309 0,-214.650309 m 48.3,214.650309 0,-214.650309 m 48.16,214.650309 0,-214.650309 m 48.3,214.650309 0,-214.650309 m 48.3,214.650309 0,-214.650309 m 48.2,214.650309 0,-214.650309"
       style="fill:none;stroke:#d9d9d9;stroke-width:0.8136;stroke-linecap:butt;stroke-linejoin:round;stroke-miterlimit:10;stroke-dasharray:none;stroke-opacity:1"
       id="path4150"
       inkscape:connector-curvature="0" /><path
       d="m 59.4728,51.226871 0,214.650309"
       style="fill:none;stroke:#bfbfbf;stroke-width:0.8136;stroke-linecap:butt;stroke-linejoin:round;stroke-miterlimit:10;stroke-dasharray:none;stroke-opacity:1"
       id="path4152"
       inkscape:connector-curvature="0" /><path
       d="m 59.4728,51.226871 434.22,0"
       style="fill:none;stroke:#bfbfbf;stroke-width:0.8136;stroke-linecap:butt;stroke-linejoin:round;stroke-miterlimit:10;stroke-dasharray:none;stroke-opacity:1"
       id="path4154"
       inkscape:connector-curvature="0" /><path
       d="m 337.3028,134.87699 c 0,-1.51 -1.23,-2.73 -2.74,-2.73 -1.51,0 -2.73,1.22 -2.73,2.73 0,1.51001 1.22,2.74001 2.73,2.74001 1.51,0 2.74,-1.23 2.74,-2.74001 z"
       style="fill:#5b9bd5;fill-opacity:1;fill-rule:nonzero;stroke:none"
       id="path4156"
       inkscape:connector-curvature="0" /><path
       d="m 337.3028,134.87699 c 0,-1.51 -1.23,-2.73 -2.74,-2.73 -1.51,0 -2.73,1.22 -2.73,2.73 0,1.51001 1.22,2.74001 2.73,2.74001 1.51,0 2.74,-1.23 2.74,-2.74001 z"
       style="fill:none;stroke:#5b9bd5;stroke-width:0.78105003;stroke-linecap:butt;stroke-linejoin:round;stroke-miterlimit:10;stroke-dasharray:none;stroke-opacity:1"
       id="path4158"
       inkscape:connector-curvature="0" /><path
       d="m 116.0028,252.81716 c 0,-1.51 -1.22,-2.73 -2.73,-2.73 -1.51,0 -2.74,1.22 -2.74,2.73 0,1.51001 1.23,2.74001 2.74,2.74001 1.51,0 2.73,-1.23 2.73,-2.74001 z"
       style="fill:#5b9bd5;fill-opacity:1;fill-rule:nonzero;stroke:none"
       id="path4160"
       inkscape:connector-curvature="0" /><path
       d="m 116.0028,252.81716 c 0,-1.51 -1.22,-2.73 -2.73,-2.73 -1.51,0 -2.74,1.22 -2.74,2.73 0,1.51001 1.23,2.74001 2.74,2.74001 1.51,0 2.73,-1.23 2.73,-2.74001 z"
       style="fill:none;stroke:#5b9bd5;stroke-width:0.78105003;stroke-linecap:butt;stroke-linejoin:round;stroke-miterlimit:10;stroke-dasharray:none;stroke-opacity:1"
       id="path4162"
       inkscape:connector-curvature="0" /><path
       d="m 110.6628,228.47713 c 0,-1.51 -1.22,-2.74001 -2.73,-2.74001 -1.51,0 -2.73,1.23001 -2.73,2.74001 0,1.51 1.22,2.73 2.73,2.73 1.51,0 2.73,-1.22 2.73,-2.73 z"
       style="fill:#5b9bd5;fill-opacity:1;fill-rule:nonzero;stroke:none"
       id="path4164"
       inkscape:connector-curvature="0" /><path
       d="m 110.6628,228.47713 c 0,-1.51 -1.22,-2.74001 -2.73,-2.74001 -1.51,0 -2.73,1.23001 -2.73,2.74001 0,1.51 1.22,2.73 2.73,2.73 1.51,0 2.73,-1.22 2.73,-2.73 z"
       style="fill:none;stroke:#5b9bd5;stroke-width:0.78105003;stroke-linecap:butt;stroke-linejoin:round;stroke-miterlimit:10;stroke-dasharray:none;stroke-opacity:1"
       id="path4166"
       inkscape:connector-curvature="0" /><path
       d="m 178.6128,127.45698 c 0,-1.51 -1.22,-2.73 -2.73,-2.73 -1.51,0 -2.73,1.22 -2.73,2.73 0,1.51001 1.22,2.74001 2.73,2.74001 1.51,0 2.73,-1.23 2.73,-2.74001 z"
       style="fill:#5b9bd5;fill-opacity:1;fill-rule:nonzero;stroke:none"
       id="path4168"
       inkscape:connector-curvature="0" /><path
       d="m 178.6128,127.45698 c 0,-1.51 -1.22,-2.73 -2.73,-2.73 -1.51,0 -2.73,1.22 -2.73,2.73 0,1.51001 1.22,2.74001 2.73,2.74001 1.51,0 2.73,-1.23 2.73,-2.74001 z"
       style="fill:none;stroke:#5b9bd5;stroke-width:0.78105003;stroke-linecap:butt;stroke-linejoin:round;stroke-miterlimit:10;stroke-dasharray:none;stroke-opacity:1"
       id="path4170"
       inkscape:connector-curvature="0" /><path
       d="m 259.4528,142.427 c 0,-1.51 -1.22,-2.73 -2.73,-2.73 -1.51,0 -2.73,1.22 -2.73,2.73 0,1.51001 1.22,2.74001 2.73,2.74001 1.51,0 2.73,-1.23 2.73,-2.74001 z"
       style="fill:#5b9bd5;fill-opacity:1;fill-rule:nonzero;stroke:none"
       id="path4172"
       inkscape:connector-curvature="0" /><path
       d="m 259.4528,142.427 c 0,-1.51 -1.22,-2.73 -2.73,-2.73 -1.51,0 -2.73,1.22 -2.73,2.73 0,1.51001 1.22,2.74001 2.73,2.74001 1.51,0 2.73,-1.23 2.73,-2.74001 z"
       style="fill:none;stroke:#5b9bd5;stroke-width:0.78105003;stroke-linecap:butt;stroke-linejoin:round;stroke-miterlimit:10;stroke-dasharray:none;stroke-opacity:1"
       id="path4174"
       inkscape:connector-curvature="0" /><path
       d="m 162.4728,97.906941 c 0,-1.51 -1.22,-2.73 -2.73,-2.73 -1.51,0 -2.74,1.22 -2.74,2.73 0,1.51 1.23,2.739999 2.74,2.739999 1.51,0 2.73,-1.229999 2.73,-2.739999 z"
       style="fill:#5b9bd5;fill-opacity:1;fill-rule:nonzero;stroke:none"
       id="path4176"
       inkscape:connector-curvature="0" /><path
       d="m 162.4728,97.906941 c 0,-1.51 -1.22,-2.73 -2.73,-2.73 -1.51,0 -2.74,1.22 -2.74,2.73 0,1.51 1.23,2.739999 2.74,2.739999 1.51,0 2.73,-1.229999 2.73,-2.739999 z"
       style="fill:none;stroke:#5b9bd5;stroke-width:0.78105003;stroke-linecap:butt;stroke-linejoin:round;stroke-miterlimit:10;stroke-dasharray:none;stroke-opacity:1"
       id="path4178"
       inkscape:connector-curvature="0" /><path
       d="m 131.2328,180.82706 c 0,-1.51 -1.22,-2.73 -2.73,-2.73 -1.51,0 -2.74,1.22 -2.74,2.73 0,1.51 1.23,2.74 2.74,2.74 1.51,0 2.73,-1.23 2.73,-2.74 z"
       style="fill:#5b9bd5;fill-opacity:1;fill-rule:nonzero;stroke:none"
       id="path4180"
       inkscape:connector-curvature="0" /><path
       d="m 131.2328,180.82706 c 0,-1.51 -1.22,-2.73 -2.73,-2.73 -1.51,0 -2.74,1.22 -2.74,2.73 0,1.51 1.23,2.74 2.74,2.74 1.51,0 2.73,-1.23 2.73,-2.74 z"
       style="fill:none;stroke:#5b9bd5;stroke-width:0.78105003;stroke-linecap:butt;stroke-linejoin:round;stroke-miterlimit:10;stroke-dasharray:none;stroke-opacity:1"
       id="path4182"
       inkscape:connector-curvature="0" /><path
       d="m 91.2728,173.01705 c 0,-1.51 -1.23,-2.73001 -2.74,-2.73001 -1.51,0 -2.73,1.22001 -2.73,2.73001 0,1.51 1.22,2.74 2.73,2.74 1.51,0 2.74,-1.23 2.74,-2.74 z"
       style="fill:#5b9bd5;fill-opacity:1;fill-rule:nonzero;stroke:none"
       id="path4184"
       inkscape:connector-curvature="0" /><path
       d="m 91.2728,173.01705 c 0,-1.51 -1.23,-2.73001 -2.74,-2.73001 -1.51,0 -2.73,1.22001 -2.73,2.73001 0,1.51 1.22,2.74 2.73,2.74 1.51,0 2.74,-1.23 2.74,-2.74 z"
       style="fill:none;stroke:#5b9bd5;stroke-width:0.78105003;stroke-linecap:butt;stroke-linejoin:round;stroke-miterlimit:10;stroke-dasharray:none;stroke-opacity:1"
       id="path4186"
       inkscape:connector-curvature="0" /><path
       d="m 120.1728,61.846891 c 0,-1.51 -1.23,-2.73001 -2.74,-2.73001 -1.51,0 -2.73,1.22001 -2.73,2.73001 0,1.51 1.22,2.74 2.73,2.74 1.51,0 2.74,-1.23 2.74,-2.74 z"
       style="fill:#5b9bd5;fill-opacity:1;fill-rule:nonzero;stroke:none"
       id="path4188"
       inkscape:connector-curvature="0" /><path
       d="m 120.1728,61.846891 c 0,-1.51 -1.23,-2.73001 -2.74,-2.73001 -1.51,0 -2.73,1.22001 -2.73,2.73001 0,1.51 1.22,2.74 2.73,2.74 1.51,0 2.74,-1.23 2.74,-2.74 z"
       style="fill:none;stroke:#5b9bd5;stroke-width:0.78105003;stroke-linecap:butt;stroke-linejoin:round;stroke-miterlimit:10;stroke-dasharray:none;stroke-opacity:1"
       id="path4190"
       inkscape:connector-curvature="0" /><path
       d="m 104.1528,173.01705 c 0,-1.51 -1.22,-2.73001 -2.73,-2.73001 -1.51,0 -2.73,1.22001 -2.73,2.73001 0,1.51 1.22,2.74 2.73,2.74 1.51,0 2.73,-1.23 2.73,-2.74 z"
       style="fill:#5b9bd5;fill-opacity:1;fill-rule:nonzero;stroke:none"
       id="path4192"
       inkscape:connector-curvature="0" /><path
       d="m 104.1528,173.01705 c 0,-1.51 -1.22,-2.73001 -2.73,-2.73001 -1.51,0 -2.73,1.22001 -2.73,2.73001 0,1.51 1.22,2.74 2.73,2.74 1.51,0 2.73,-1.23 2.73,-2.74 z"
       style="fill:none;stroke:#5b9bd5;stroke-width:0.78105003;stroke-linecap:butt;stroke-linejoin:round;stroke-miterlimit:10;stroke-dasharray:none;stroke-opacity:1"
       id="path4194"
       inkscape:connector-curvature="0" /><g
       id="g4196"
       transform="matrix(1,0,0,1.0000014,-50.5572,-256.82357)"><g
         id="g4198"
         clip-path="url(#clipPath4200)"><path
           d="m 110.13,436.42 429.4,-96.95"
           style="fill:none;stroke:#ed7d31;stroke-width:1.62720001;stroke-linecap:round;stroke-linejoin:round;stroke-miterlimit:10;stroke-dasharray:0, 3.2544;stroke-dashoffset:0;stroke-opacity:1"
           id="path4204"
           inkscape:connector-curvature="0" /></g></g><g
       id="g4206"
       transform="matrix(1,0,0,1.0000014,-50.5572,-256.82357)"><g
         id="g4208"
         clip-path="url(#clipPath4210)"><text
           transform="matrix(1,0,0,-1,83.688,305.23)"
           style="font-variant:normal;font-weight:normal;font-size:9.76799965px;font-family:Calibri;-inkscape-font-specification:Calibri;writing-mode:lr-tb;fill:#595959;fill-opacity:1;fill-rule:nonzero;stroke:none"
           id="text4214"><tspan
             x="0 4.9523759 9.9047518 12.366288"
             y="0"
             sodipodi:role="line"
             id="tspan4216">10.3</tspan></text>
</g></g><g
       id="g4218"
       transform="matrix(1,0,0,1.0000014,-50.5572,-256.82357)"><g
         id="g4220"
         clip-path="url(#clipPath4222)"><text
           transform="matrix(1,0,0,-1,83.688,329.09)"
           style="font-variant:normal;font-weight:normal;font-size:9.76799965px;font-family:Calibri;-inkscape-font-specification:Calibri;writing-mode:lr-tb;fill:#595959;fill-opacity:1;fill-rule:nonzero;stroke:none"
           id="text4226"><tspan
             x="0 4.9523759 9.9047518 12.366288"
             y="0"
             sodipodi:role="line"
             id="tspan4228">10.4</tspan></text>
</g></g><g
       id="g4230"
       transform="matrix(1,0,0,1.0000014,-50.5572,-256.82357)"><g
         id="g4232"
         clip-path="url(#clipPath4234)"><text
           transform="matrix(1,0,0,-1,83.688,352.94)"
           style="font-variant:normal;font-weight:normal;font-size:9.76799965px;font-family:Calibri;-inkscape-font-specification:Calibri;writing-mode:lr-tb;fill:#595959;fill-opacity:1;fill-rule:nonzero;stroke:none"
           id="text4238"><tspan
             x="0 4.9523759 9.9047518 12.366288"
             y="0"
             sodipodi:role="line"
             id="tspan4240">10.5</tspan></text>
</g></g><g
       id="g4242"
       transform="matrix(1,0,0,1.0000014,-50.5572,-256.82357)"><g
         id="g4244"
         clip-path="url(#clipPath4246)"><text
           transform="matrix(1,0,0,-1,83.688,376.8)"
           style="font-variant:normal;font-weight:normal;font-size:9.76799965px;font-family:Calibri;-inkscape-font-specification:Calibri;writing-mode:lr-tb;fill:#595959;fill-opacity:1;fill-rule:nonzero;stroke:none"
           id="text4250"><tspan
             x="0 4.9523759 9.9047518 12.366288"
             y="0"
             sodipodi:role="line"
             id="tspan4252">10.6</tspan></text>
</g></g><g
       id="g4254"
       transform="matrix(1,0,0,1.0000014,-50.5572,-256.82357)"><g
         id="g4256"
         clip-path="url(#clipPath4258)"><text
           transform="matrix(1,0,0,-1,83.688,400.66)"
           style="font-variant:normal;font-weight:normal;font-size:9.76799965px;font-family:Calibri;-inkscape-font-specification:Calibri;writing-mode:lr-tb;fill:#595959;fill-opacity:1;fill-rule:nonzero;stroke:none"
           id="text4262"><tspan
             x="0 4.9523759 9.9047518 12.366288"
             y="0"
             sodipodi:role="line"
             id="tspan4264">10.7</tspan></text>
</g></g><g
       id="g4266"
       transform="matrix(1,0,0,1.0000014,-50.5572,-256.82357)"><g
         id="g4268"
         clip-path="url(#clipPath4270)"><text
           transform="matrix(1,0,0,-1,83.688,424.51)"
           style="font-variant:normal;font-weight:normal;font-size:9.76799965px;font-family:Calibri;-inkscape-font-specification:Calibri;writing-mode:lr-tb;fill:#595959;fill-opacity:1;fill-rule:nonzero;stroke:none"
           id="text4274"><tspan
             x="0 4.9523759 9.9047518 12.366288"
             y="0"
             sodipodi:role="line"
             id="tspan4276">10.8</tspan></text>
</g></g><g
       id="g4278"
       transform="matrix(1,0,0,1.0000014,-50.5572,-256.82357)"><g
         id="g4280"
         clip-path="url(#clipPath4282)"><text
           transform="matrix(1,0,0,-1,83.688,448.34)"
           style="font-variant:normal;font-weight:normal;font-size:9.74400043px;font-family:Calibri;-inkscape-font-specification:Calibri;writing-mode:lr-tb;fill:#595959;fill-opacity:1;fill-rule:nonzero;stroke:none"
           id="text4286"><tspan
             x="0 4.940208 9.8804159 12.335904"
             y="0"
             sodipodi:role="line"
             id="tspan4288">10.9</tspan></text>
</g></g><g
       id="g4290"
       transform="matrix(1,0,0,1.0000014,-50.5572,-256.82357)"><g
         id="g4292"
         clip-path="url(#clipPath4294)"><text
           transform="matrix(1,0,0,-1,91.104,472.2)"
           style="font-variant:normal;font-weight:normal;font-size:9.74400043px;font-family:Calibri;-inkscape-font-specification:Calibri;writing-mode:lr-tb;fill:#595959;fill-opacity:1;fill-rule:nonzero;stroke:none"
           id="text4298"><tspan
             x="0 4.9439979"
             y="0"
             sodipodi:role="line"
             id="tspan4300">11</tspan></text>
</g></g><g
       id="g4302"
       transform="matrix(1,0,0,1.0000014,-50.5572,-256.82357)"><g
         id="g4304"
         clip-path="url(#clipPath4306)"><text
           transform="matrix(1,0,0,-1,83.688,496.06)"
           style="font-variant:normal;font-weight:normal;font-size:9.76799965px;font-family:Calibri;-inkscape-font-specification:Calibri;writing-mode:lr-tb;fill:#595959;fill-opacity:1;fill-rule:nonzero;stroke:none"
           id="text4310"><tspan
             x="0 4.9523759 9.9047518 12.366288"
             y="0"
             sodipodi:role="line"
             id="tspan4312">11.1</tspan></text>
</g></g><g
       id="g4314"
       transform="matrix(1,0,0,1.0000014,-50.5572,-256.82357)"><g
         id="g4316"
         clip-path="url(#clipPath4318)"><text
           transform="matrix(1,0,0,-1,83.688,519.91)"
           style="font-variant:normal;font-weight:normal;font-size:9.76799965px;font-family:Calibri;-inkscape-font-specification:Calibri;writing-mode:lr-tb;fill:#595959;fill-opacity:1;fill-rule:nonzero;stroke:none"
           id="text4322"><tspan
             x="0 4.9523759 9.9047518 12.366288"
             y="0"
             sodipodi:role="line"
             id="tspan4324">11.2</tspan></text>
</g></g><g
       id="g4326"
       transform="matrix(1,0,0,1.0000014,-50.5572,-256.82357)"><g
         id="g4328"
         clip-path="url(#clipPath4330)"><text
           transform="matrix(1,0,0,-1,107.57,292.54)"
           style="font-variant:normal;font-weight:normal;font-size:9.76799965px;font-family:Calibri;-inkscape-font-specification:Calibri;writing-mode:lr-tb;fill:#595959;fill-opacity:1;fill-rule:nonzero;stroke:none"
           id="text4334"><tspan
             x="0"
             y="0"
             id="tspan4336">0</tspan></text>
</g></g><g
       id="g4338"
       transform="matrix(1,0,0,1.0000014,-50.5572,-256.82357)"><g
         id="g4340"
         clip-path="url(#clipPath4342)"><text
           transform="matrix(1,0,0,-1,155.83,292.54)"
           style="font-variant:normal;font-weight:normal;font-size:9.76799965px;font-family:Calibri;-inkscape-font-specification:Calibri;writing-mode:lr-tb;fill:#595959;fill-opacity:1;fill-rule:nonzero;stroke:none"
           id="text4346"><tspan
             x="0"
             y="0"
             id="tspan4348">5</tspan></text>
</g></g><g
       id="g4350"
       transform="matrix(1,0,0,1.0000014,-50.5572,-256.82357)"><g
         id="g4352"
         clip-path="url(#clipPath4354)"><text
           transform="matrix(1,0,0,-1,201.62,292.54)"
           style="font-variant:normal;font-weight:normal;font-size:9.76799965px;font-family:Calibri;-inkscape-font-specification:Calibri;writing-mode:lr-tb;fill:#595959;fill-opacity:1;fill-rule:nonzero;stroke:none"
           id="text4358"><tspan
             x="0 4.943996"
             y="0"
             sodipodi:role="line"
             id="tspan4360">10</tspan></text>
</g></g><g
       id="g4362"
       transform="matrix(1,0,0,1.0000014,-50.5572,-256.82357)"><g
         id="g4364"
         clip-path="url(#clipPath4366)"><text
           transform="matrix(1,0,0,-1,249.86,292.54)"
           style="font-variant:normal;font-weight:normal;font-size:9.76799965px;font-family:Calibri;-inkscape-font-specification:Calibri;writing-mode:lr-tb;fill:#595959;fill-opacity:1;fill-rule:nonzero;stroke:none"
           id="text4370"><tspan
             x="0 4.943996"
             y="0"
             sodipodi:role="line"
             id="tspan4372">15</tspan></text>
</g></g><g
       id="g4374"
       transform="matrix(1,0,0,1.0000014,-50.5572,-256.82357)"><g
         id="g4376"
         clip-path="url(#clipPath4378)"><text
           transform="matrix(1,0,0,-1,298.13,292.54)"
           style="font-variant:normal;font-weight:normal;font-size:9.76799965px;font-family:Calibri;-inkscape-font-specification:Calibri;writing-mode:lr-tb;fill:#595959;fill-opacity:1;fill-rule:nonzero;stroke:none"
           id="text4382"><tspan
             x="0 4.943996"
             y="0"
             sodipodi:role="line"
             id="tspan4384">20</tspan></text>
</g></g><g
       id="g4386"
       transform="matrix(1,0,0,1.0000014,-50.5572,-256.82357)"><g
         id="g4388"
         clip-path="url(#clipPath4390)"><text
           transform="matrix(1,0,0,-1,346.39,292.54)"
           style="font-variant:normal;font-weight:normal;font-size:9.76799965px;font-family:Calibri;-inkscape-font-specification:Calibri;writing-mode:lr-tb;fill:#595959;fill-opacity:1;fill-rule:nonzero;stroke:none"
           id="text4394"><tspan
             x="0 4.943996"
             y="0"
             sodipodi:role="line"
             id="tspan4396">25</tspan></text>
</g></g><g
       id="g4398"
       transform="matrix(1,0,0,1.0000014,-50.5572,-256.82357)"><g
         id="g4400"
         clip-path="url(#clipPath4402)"><text
           transform="matrix(1,0,0,-1,394.63,292.54)"
           style="font-variant:normal;font-weight:normal;font-size:9.76799965px;font-family:Calibri;-inkscape-font-specification:Calibri;writing-mode:lr-tb;fill:#595959;fill-opacity:1;fill-rule:nonzero;stroke:none"
           id="text4406"><tspan
             x="0 4.943996"
             y="0"
             sodipodi:role="line"
             id="tspan4408">30</tspan></text>
</g></g><g
       id="g4410"
       transform="matrix(1,0,0,1.0000014,-50.5572,-256.82357)"><g
         id="g4412"
         clip-path="url(#clipPath4414)"><text
           transform="matrix(1,0,0,-1,442.9,292.54)"
           style="font-variant:normal;font-weight:normal;font-size:9.76799965px;font-family:Calibri;-inkscape-font-specification:Calibri;writing-mode:lr-tb;fill:#595959;fill-opacity:1;fill-rule:nonzero;stroke:none"
           id="text4418"><tspan
             x="0 4.943996"
             y="0"
             sodipodi:role="line"
             id="tspan4420">35</tspan></text>
</g></g><g
       id="g4422"
       transform="matrix(1,0,0,1.0000014,-50.5572,-256.82357)"><g
         id="g4424"
         clip-path="url(#clipPath4426)"><text
           transform="matrix(1,0,0,-1,491.16,292.54)"
           style="font-variant:normal;font-weight:normal;font-size:9.76799965px;font-family:Calibri;-inkscape-font-specification:Calibri;writing-mode:lr-tb;fill:#595959;fill-opacity:1;fill-rule:nonzero;stroke:none"
           id="text4430"><tspan
             x="0 4.943996"
             y="0"
             sodipodi:role="line"
             id="tspan4432">40</tspan></text>
</g></g><g
       id="g4434"
       transform="matrix(1,0,0,1.0000014,-50.5572,-256.82357)"><g
         id="g4436"
         clip-path="url(#clipPath4438)"><text
           transform="matrix(1,0,0,-1,539.4,292.54)"
           style="font-variant:normal;font-weight:normal;font-size:9.76799965px;font-family:Calibri;-inkscape-font-specification:Calibri;writing-mode:lr-tb;fill:#595959;fill-opacity:1;fill-rule:nonzero;stroke:none"
           id="text4442"><tspan
             x="0 4.943996"
             y="0"
             sodipodi:role="line"
             id="tspan4444">45</tspan></text>
</g></g><g
       id="g4446"
       transform="matrix(1,0,0,1.0000014,-50.5572,-256.82357)"><g
         id="g4448"
         clip-path="url(#clipPath4450)"><text
           transform="matrix(-4.4e-8,1,1,4.4e-8,68.64,360.26)"
           style="font-variant:normal;font-weight:normal;font-size:13.00800037px;font-family:Calibri;-inkscape-font-specification:Calibri;writing-mode:lr-tb;fill:#595959;fill-opacity:1;fill-rule:nonzero;stroke:none"
           id="text4454"><tspan
             x="0 11.199888 17.677872 23.960735 30.854977 33.586655 39.557327 46.490593 52.968575 59.485584 66.379822 69.111504 73.052925 78.880508 89.273903 94.373039 101.26728"
             y="0"
             sodipodi:role="line"
             id="tspan4456">Mean Speed (km/h)</tspan></text>
</g></g><g
       id="g4458"
       transform="matrix(1,0,0,1.0000014,-50.5572,-256.82357)"><g
         id="g4460"
         clip-path="url(#clipPath4462)"><text
           transform="matrix(1,0,0,-1,258.5,266.95)"
           style="font-variant:normal;font-weight:normal;font-size:13.03199959px;font-family:Calibri;-inkscape-font-specification:Calibri;writing-mode:lr-tb;fill:#595959;fill-opacity:1;fill-rule:nonzero;stroke:none"
           id="text4466"><tspan
             x="0 8.0537758 11.051136 16.003296 20.303856 26.546185 33.440113 38.913551 45.403488 48.15324 55.190521 62.08445 68.978378 71.832382 75.781082 81.606384 92.018951"
             y="0"
             sodipodi:role="line"
             id="tspan4468">Distance Run (km)</tspan></text>
</g></g></g></svg>