<?xml version="1.0" encoding="UTF-8" standalone="no"?>
<!-- Created with Inkscape (http://www.inkscape.org/) -->

<svg
   xmlns:dc="http://purl.org/dc/elements/1.1/"
   xmlns:cc="http://creativecommons.org/ns#"
   xmlns:rdf="http://www.w3.org/1999/02/22-rdf-syntax-ns#"
   xmlns:svg="http://www.w3.org/2000/svg"
   xmlns="http://www.w3.org/2000/svg"
   xmlns:sodipodi="http://sodipodi.sourceforge.net/DTD/sodipodi-0.dtd"
   xmlns:inkscape="http://www.inkscape.org/namespaces/inkscape"
   id="svg4136"
   version="1.1"
   inkscape:version="0.91 r13725"
   xml:space="preserve"
   width="638.552"
   height="404.539"
   viewBox="0 0 638.552 404.539"
   sodipodi:docname="Oring.svg"><metadata
     id="metadata4142"><rdf:RDF><cc:Work
         rdf:about=""><dc:format>image/svg+xml</dc:format><dc:type
           rdf:resource="http://purl.org/dc/dcmitype/StillImage" /><dc:title /></cc:Work></rdf:RDF></metadata><defs
     id="defs4140"><clipPath
       clipPathUnits="userSpaceOnUse"
       id="clipPath4252"><path
         d="m 121.08,311.43 412.84,0 0,226.88 -412.84,0 0,-226.88 z"
         id="path4254"
         inkscape:connector-curvature="0"
         style="clip-rule:evenodd" /></clipPath><clipPath
       clipPathUnits="userSpaceOnUse"
       id="clipPath4262"><path
         d="m 51.24,234.72 509.52,0 0,322.44 -509.52,0 0,-322.44 z"
         id="path4264"
         inkscape:connector-curvature="0"
         style="clip-rule:evenodd" /></clipPath><clipPath
       clipPathUnits="userSpaceOnUse"
       id="clipPath4274"><path
         d="m 51.24,234.72 509.52,0 0,322.44 -509.52,0 0,-322.44 z"
         id="path4276"
         inkscape:connector-curvature="0"
         style="clip-rule:evenodd" /></clipPath><clipPath
       clipPathUnits="userSpaceOnUse"
       id="clipPath4286"><path
         d="m 51.24,234.72 509.52,0 0,322.44 -509.52,0 0,-322.44 z"
         id="path4288"
         inkscape:connector-curvature="0"
         style="clip-rule:evenodd" /></clipPath><clipPath
       clipPathUnits="userSpaceOnUse"
       id="clipPath4298"><path
         d="m 51.24,234.72 509.52,0 0,322.44 -509.52,0 0,-322.44 z"
         id="path4300"
         inkscape:connector-curvature="0"
         style="clip-rule:evenodd" /></clipPath><clipPath
       clipPathUnits="userSpaceOnUse"
       id="clipPath4310"><path
         d="m 51.24,234.72 509.52,0 0,322.44 -509.52,0 0,-322.44 z"
         id="path4312"
         inkscape:connector-curvature="0"
         style="clip-rule:evenodd" /></clipPath><clipPath
       clipPathUnits="userSpaceOnUse"
       id="clipPath4322"><path
         d="m 51.24,234.72 509.52,0 0,322.44 -509.52,0 0,-322.44 z"
         id="path4324"
         inkscape:connector-curvature="0"
         style="clip-rule:evenodd" /></clipPath><clipPath
       clipPathUnits="userSpaceOnUse"
       id="clipPath4334"><path
         d="m 51.24,234.72 509.52,0 0,322.44 -509.52,0 0,-322.44 z"
         id="path4336"
         inkscape:connector-curvature="0"
         style="clip-rule:evenodd" /></clipPath><clipPath
       clipPathUnits="userSpaceOnUse"
       id="clipPath4346"><path
         d="m 51.24,234.72 509.52,0 0,322.44 -509.52,0 0,-322.44 z"
         id="path4348"
         inkscape:connector-curvature="0"
         style="clip-rule:evenodd" /></clipPath><clipPath
       clipPathUnits="userSpaceOnUse"
       id="clipPath4358"><path
         d="m 51.24,234.72 509.52,0 0,322.44 -509.52,0 0,-322.44 z"
         id="path4360"
         inkscape:connector-curvature="0"
         style="clip-rule:evenodd" /></clipPath><clipPath
       clipPathUnits="userSpaceOnUse"
       id="clipPath4370"><path
         d="m 51.24,234.72 509.52,0 0,322.44 -509.52,0 0,-322.44 z"
         id="path4372"
         inkscape:connector-curvature="0"
         style="clip-rule:evenodd" /></clipPath><clipPath
       clipPathUnits="userSpaceOnUse"
       id="clipPath4382"><path
         d="m 51.24,234.72 509.52,0 0,322.44 -509.52,0 0,-322.44 z"
         id="path4384"
         inkscape:connector-curvature="0"
         style="clip-rule:evenodd" /></clipPath><clipPath
       clipPathUnits="userSpaceOnUse"
       id="clipPath4394"><path
         d="m 51.24,234.72 509.52,0 0,322.44 -509.52,0 0,-322.44 z"
         id="path4396"
         inkscape:connector-curvature="0"
         style="clip-rule:evenodd" /></clipPath><clipPath
       clipPathUnits="userSpaceOnUse"
       id="clipPath4406"><path
         d="m 51.24,234.72 509.52,0 0,322.44 -509.52,0 0,-322.44 z"
         id="path4408"
         inkscape:connector-curvature="0"
         style="clip-rule:evenodd" /></clipPath><clipPath
       clipPathUnits="userSpaceOnUse"
       id="clipPath4418"><path
         d="m 51.24,234.72 509.52,0 0,322.44 -509.52,0 0,-322.44 z"
         id="path4420"
         inkscape:connector-curvature="0"
         style="clip-rule:evenodd" /></clipPath><clipPath
       clipPathUnits="userSpaceOnUse"
       id="clipPath4430"><path
         d="m 51.24,234.72 509.52,0 0,322.44 -509.52,0 0,-322.44 z"
         id="path4432"
         inkscape:connector-curvature="0"
         style="clip-rule:evenodd" /></clipPath><clipPath
       clipPathUnits="userSpaceOnUse"
       id="clipPath4442"><path
         d="m 51.24,234.72 509.52,0 0,322.44 -509.52,0 0,-322.44 z"
         id="path4444"
         inkscape:connector-curvature="0"
         style="clip-rule:evenodd" /></clipPath><clipPath
       clipPathUnits="userSpaceOnUse"
       id="clipPath4454"><path
         d="m 51.24,234.72 509.52,0 0,322.44 -509.52,0 0,-322.44 z"
         id="path4456"
         inkscape:connector-curvature="0"
         style="clip-rule:evenodd" /></clipPath><clipPath
       clipPathUnits="userSpaceOnUse"
       id="clipPath4466"><path
         d="m 51.24,234.72 509.52,0 0,322.44 -509.52,0 0,-322.44 z"
         id="path4468"
         inkscape:connector-curvature="0"
         style="clip-rule:evenodd" /></clipPath><clipPath
       clipPathUnits="userSpaceOnUse"
       id="clipPath4626"><path
         d="m 51.24,234.72 509.52,0 0,322.44 -509.52,0 0,-322.44 z"
         id="path4628"
         inkscape:connector-curvature="0"
         style="clip-rule:evenodd" /></clipPath><clipPath
       clipPathUnits="userSpaceOnUse"
       id="clipPath4614"><path
         d="m 51.24,234.72 509.52,0 0,322.44 -509.52,0 0,-322.44 z"
         id="path4616"
         inkscape:connector-curvature="0"
         style="clip-rule:evenodd" /></clipPath><clipPath
       clipPathUnits="userSpaceOnUse"
       id="clipPath4602"><path
         d="m 51.24,234.72 509.52,0 0,322.44 -509.52,0 0,-322.44 z"
         id="path4604"
         inkscape:connector-curvature="0"
         style="clip-rule:evenodd" /></clipPath><clipPath
       clipPathUnits="userSpaceOnUse"
       id="clipPath4590"><path
         d="m 51.24,234.72 509.52,0 0,322.44 -509.52,0 0,-322.44 z"
         id="path4592"
         inkscape:connector-curvature="0"
         style="clip-rule:evenodd" /></clipPath><clipPath
       clipPathUnits="userSpaceOnUse"
       id="clipPath4578"><path
         d="m 51.24,234.72 509.52,0 0,322.44 -509.52,0 0,-322.44 z"
         id="path4580"
         inkscape:connector-curvature="0"
         style="clip-rule:evenodd" /></clipPath><clipPath
       clipPathUnits="userSpaceOnUse"
       id="clipPath4566"><path
         d="m 51.24,234.72 509.52,0 0,322.44 -509.52,0 0,-322.44 z"
         id="path4568"
         inkscape:connector-curvature="0"
         style="clip-rule:evenodd" /></clipPath><clipPath
       clipPathUnits="userSpaceOnUse"
       id="clipPath4554"><path
         d="m 51.24,234.72 509.52,0 0,322.44 -509.52,0 0,-322.44 z"
         id="path4556"
         inkscape:connector-curvature="0"
         style="clip-rule:evenodd" /></clipPath><clipPath
       clipPathUnits="userSpaceOnUse"
       id="clipPath4542"><path
         d="m 51.24,234.72 509.52,0 0,322.44 -509.52,0 0,-322.44 z"
         id="path4544"
         inkscape:connector-curvature="0"
         style="clip-rule:evenodd" /></clipPath><clipPath
       clipPathUnits="userSpaceOnUse"
       id="clipPath4530"><path
         d="m 51.24,234.72 509.52,0 0,322.44 -509.52,0 0,-322.44 z"
         id="path4532"
         inkscape:connector-curvature="0"
         style="clip-rule:evenodd" /></clipPath><clipPath
       clipPathUnits="userSpaceOnUse"
       id="clipPath4518"><path
         d="m 51.24,234.72 509.52,0 0,322.44 -509.52,0 0,-322.44 z"
         id="path4520"
         inkscape:connector-curvature="0"
         style="clip-rule:evenodd" /></clipPath><clipPath
       clipPathUnits="userSpaceOnUse"
       id="clipPath4506"><path
         d="m 51.24,234.72 509.52,0 0,322.44 -509.52,0 0,-322.44 z"
         id="path4508"
         inkscape:connector-curvature="0"
         style="clip-rule:evenodd" /></clipPath><clipPath
       clipPathUnits="userSpaceOnUse"
       id="clipPath4494"><path
         d="m 51.24,234.72 509.52,0 0,322.44 -509.52,0 0,-322.44 z"
         id="path4496"
         inkscape:connector-curvature="0"
         style="clip-rule:evenodd" /></clipPath><clipPath
       clipPathUnits="userSpaceOnUse"
       id="clipPath4482"><path
         d="m 51.24,234.72 509.52,0 0,322.44 -509.52,0 0,-322.44 z"
         id="path4484"
         inkscape:connector-curvature="0"
         style="clip-rule:evenodd" /></clipPath><clipPath
       clipPathUnits="userSpaceOnUse"
       id="clipPath4470"><path
         d="m 51.24,234.72 509.52,0 0,322.44 -509.52,0 0,-322.44 z"
         id="path4472"
         inkscape:connector-curvature="0"
         style="clip-rule:evenodd" /></clipPath><clipPath
       clipPathUnits="userSpaceOnUse"
       id="clipPath4458"><path
         d="m 51.24,234.72 509.52,0 0,322.44 -509.52,0 0,-322.44 z"
         id="path4460"
         inkscape:connector-curvature="0"
         style="clip-rule:evenodd" /></clipPath><clipPath
       clipPathUnits="userSpaceOnUse"
       id="clipPath4446"><path
         d="m 51.24,234.72 509.52,0 0,322.44 -509.52,0 0,-322.44 z"
         id="path4448"
         inkscape:connector-curvature="0"
         style="clip-rule:evenodd" /></clipPath><clipPath
       clipPathUnits="userSpaceOnUse"
       id="clipPath4434"><path
         d="m 51.24,234.72 509.52,0 0,322.44 -509.52,0 0,-322.44 z"
         id="path4436"
         inkscape:connector-curvature="0"
         style="clip-rule:evenodd" /></clipPath><clipPath
       clipPathUnits="userSpaceOnUse"
       id="clipPath4422"><path
         d="m 51.24,234.72 509.52,0 0,322.44 -509.52,0 0,-322.44 z"
         id="path4424"
         inkscape:connector-curvature="0"
         style="clip-rule:evenodd" /></clipPath><clipPath
       clipPathUnits="userSpaceOnUse"
       id="clipPath4412"><path
         d="m 125.62,316.6 407.47,0 0,221.51 -407.47,0 0,-221.51 z"
         id="path4414"
         inkscape:connector-curvature="0"
         style="clip-rule:evenodd" /></clipPath></defs><sodipodi:namedview
     pagecolor="#ffffff"
     bordercolor="#666666"
     borderopacity="1"
     objecttolerance="10"
     gridtolerance="10"
     guidetolerance="10"
     inkscape:pageopacity="0"
     inkscape:pageshadow="2"
     inkscape:window-width="1920"
     inkscape:window-height="1017"
     id="namedview4138"
     showgrid="false"
     inkscape:zoom="0.85656566"
     inkscape:cx="379.05772"
     inkscape:cy="69.678191"
     inkscape:window-x="-8"
     inkscape:window-y="-8"
     inkscape:window-maximized="1"
     inkscape:current-layer="g4462" /><g
     id="g4144"
     inkscape:groupmode="layer"
     inkscape:label="Oring"
     transform="matrix(1.25,0,0,-1.25,0,404.539)"><g
       id="g4462"
       transform="translate(-50.5913,-234.1243)"><path
         d="m 125.75,371.97 407.36,0 m -407.36,55.38 407.36,0 m -407.36,55.38 407.36,0 M 125.75,538 l 407.36,0"
         style="fill:none;stroke:#d9d9d9;stroke-width:1.29139996;stroke-linecap:butt;stroke-linejoin:round;stroke-miterlimit:10;stroke-dasharray:none;stroke-opacity:1"
         id="path4308"
         inkscape:connector-curvature="0" /><path
         d="m 193.6,538 0,-221.47 m 67.99,221.47 0,-221.47 m 67.77,221.47 0,-221.47 m 67.98,221.47 0,-221.47 m 67.98,221.47 0,-221.47 m 67.79,221.47 0,-221.47"
         style="fill:none;stroke:#d9d9d9;stroke-width:1.29139996;stroke-linecap:butt;stroke-linejoin:round;stroke-miterlimit:10;stroke-dasharray:none;stroke-opacity:1"
         id="path4310"
         inkscape:connector-curvature="0" /><path
         d="m 125.75,316.53 0,221.47"
         style="fill:none;stroke:#bfbfbf;stroke-width:1.29139996;stroke-linecap:butt;stroke-linejoin:round;stroke-miterlimit:10;stroke-dasharray:none;stroke-opacity:1"
         id="path4312-5"
         inkscape:connector-curvature="0" /><path
         d="m 125.75,316.53 407.36,0"
         style="fill:none;stroke:#bfbfbf;stroke-width:1.29139996;stroke-linecap:butt;stroke-linejoin:round;stroke-miterlimit:10;stroke-dasharray:none;stroke-opacity:1"
         id="path4314"
         inkscape:connector-curvature="0" /><path
         d="m 374.61,316.6 c 0,-2.4 -1.94,-4.34 -4.34,-4.34 -2.39,0 -4.34,1.94 -4.34,4.34 0,2.39 1.95,4.34 4.34,4.34 2.4,0 4.34,-1.95 4.34,-4.34 z"
         style="fill:#5b9bd5;fill-opacity:1;fill-rule:nonzero;stroke:none"
         id="path4316"
         inkscape:connector-curvature="0" /><path
         d="m 374.61,316.6 c 0,-2.4 -1.94,-4.34 -4.34,-4.34 -2.39,0 -4.34,1.94 -4.34,4.34 0,2.39 1.95,4.34 4.34,4.34 2.4,0 4.34,-1.95 4.34,-4.34 z"
         style="fill:none;stroke:#5b9bd5;stroke-width:1.23979998;stroke-linecap:butt;stroke-linejoin:round;stroke-miterlimit:10;stroke-dasharray:none;stroke-opacity:1"
         id="path4318"
         inkscape:connector-curvature="0" /><path
         d="m 401.68,371.97 c 0,-2.39 -1.94,-4.34 -4.34,-4.34 -2.4,0 -4.34,1.95 -4.34,4.34 0,2.4 1.94,4.34 4.34,4.34 2.4,0 4.34,-1.94 4.34,-4.34 z"
         style="fill:#5b9bd5;fill-opacity:1;fill-rule:nonzero;stroke:none"
         id="path4320"
         inkscape:connector-curvature="0" /><path
         d="m 401.68,371.97 c 0,-2.39 -1.94,-4.34 -4.34,-4.34 -2.4,0 -4.34,1.95 -4.34,4.34 0,2.4 1.94,4.34 4.34,4.34 2.4,0 4.34,-1.94 4.34,-4.34 z"
         style="fill:none;stroke:#5b9bd5;stroke-width:1.23979998;stroke-linecap:butt;stroke-linejoin:round;stroke-miterlimit:10;stroke-dasharray:none;stroke-opacity:1"
         id="path4322"
         inkscape:connector-curvature="0" /><path
         d="m 394.86,316.6 c 0,-2.4 -1.94,-4.34 -4.34,-4.34 -2.39,0 -4.34,1.94 -4.34,4.34 0,2.39 1.95,4.34 4.34,4.34 2.4,0 4.34,-1.95 4.34,-4.34 z"
         style="fill:#5b9bd5;fill-opacity:1;fill-rule:nonzero;stroke:none"
         id="path4324-8"
         inkscape:connector-curvature="0" /><path
         d="m 394.86,316.6 c 0,-2.4 -1.94,-4.34 -4.34,-4.34 -2.39,0 -4.34,1.94 -4.34,4.34 0,2.39 1.95,4.34 4.34,4.34 2.4,0 4.34,-1.95 4.34,-4.34 z"
         style="fill:none;stroke:#5b9bd5;stroke-width:1.23979998;stroke-linecap:butt;stroke-linejoin:round;stroke-miterlimit:10;stroke-dasharray:none;stroke-opacity:1"
         id="path4326"
         inkscape:connector-curvature="0" /><path
         d="m 388.04,316.6 c 0,-2.4 -1.94,-4.34 -4.34,-4.34 -2.39,0 -4.34,1.94 -4.34,4.34 0,2.39 1.95,4.34 4.34,4.34 2.4,0 4.34,-1.95 4.34,-4.34 z"
         style="fill:#5b9bd5;fill-opacity:1;fill-rule:nonzero;stroke:none"
         id="path4328"
         inkscape:connector-curvature="0" /><path
         d="m 388.04,316.6 c 0,-2.4 -1.94,-4.34 -4.34,-4.34 -2.39,0 -4.34,1.94 -4.34,4.34 0,2.39 1.95,4.34 4.34,4.34 2.4,0 4.34,-1.95 4.34,-4.34 z"
         style="fill:none;stroke:#5b9bd5;stroke-width:1.23979998;stroke-linecap:butt;stroke-linejoin:round;stroke-miterlimit:10;stroke-dasharray:none;stroke-opacity:1"
         id="path4330"
         inkscape:connector-curvature="0" /><path
         d="m 381.22,316.6 c 0,-2.4 -1.94,-4.34 -4.34,-4.34 -2.39,0 -4.34,1.94 -4.34,4.34 0,2.39 1.95,4.34 4.34,4.34 2.4,0 4.34,-1.95 4.34,-4.34 z"
         style="fill:#5b9bd5;fill-opacity:1;fill-rule:nonzero;stroke:none"
         id="path4332"
         inkscape:connector-curvature="0" /><path
         d="m 381.22,316.6 c 0,-2.4 -1.94,-4.34 -4.34,-4.34 -2.39,0 -4.34,1.94 -4.34,4.34 0,2.39 1.95,4.34 4.34,4.34 2.4,0 4.34,-1.95 4.34,-4.34 z"
         style="fill:none;stroke:#5b9bd5;stroke-width:1.23979998;stroke-linecap:butt;stroke-linejoin:round;stroke-miterlimit:10;stroke-dasharray:none;stroke-opacity:1"
         id="path4334"
         inkscape:connector-curvature="0" /><path
         d="m 415.32,316.6 c 0,-2.4 -1.95,-4.34 -4.34,-4.34 -2.4,0 -4.34,1.94 -4.34,4.34 0,2.39 1.94,4.34 4.34,4.34 2.39,0 4.34,-1.95 4.34,-4.34 z"
         style="fill:#5b9bd5;fill-opacity:1;fill-rule:nonzero;stroke:none"
         id="path4336-7"
         inkscape:connector-curvature="0" /><path
         d="m 415.32,316.6 c 0,-2.4 -1.95,-4.34 -4.34,-4.34 -2.4,0 -4.34,1.94 -4.34,4.34 0,2.39 1.94,4.34 4.34,4.34 2.39,0 4.34,-1.95 4.34,-4.34 z"
         style="fill:none;stroke:#5b9bd5;stroke-width:1.23979998;stroke-linecap:butt;stroke-linejoin:round;stroke-miterlimit:10;stroke-dasharray:none;stroke-opacity:1"
         id="path4338"
         inkscape:connector-curvature="0" /><path
         d="m 422.14,316.6 c 0,-2.4 -1.95,-4.34 -4.34,-4.34 -2.4,0 -4.34,1.94 -4.34,4.34 0,2.39 1.94,4.34 4.34,4.34 2.39,0 4.34,-1.95 4.34,-4.34 z"
         style="fill:#5b9bd5;fill-opacity:1;fill-rule:nonzero;stroke:none"
         id="path4340"
         inkscape:connector-curvature="0" /><path
         d="m 422.14,316.6 c 0,-2.4 -1.95,-4.34 -4.34,-4.34 -2.4,0 -4.34,1.94 -4.34,4.34 0,2.39 1.94,4.34 4.34,4.34 2.39,0 4.34,-1.95 4.34,-4.34 z"
         style="fill:none;stroke:#5b9bd5;stroke-width:1.23979998;stroke-linecap:butt;stroke-linejoin:round;stroke-miterlimit:10;stroke-dasharray:none;stroke-opacity:1"
         id="path4342"
         inkscape:connector-curvature="0" /><path
         d="m 401.68,316.6 c 0,-2.4 -1.94,-4.34 -4.34,-4.34 -2.4,0 -4.34,1.94 -4.34,4.34 0,2.39 1.94,4.34 4.34,4.34 2.4,0 4.34,-1.95 4.34,-4.34 z"
         style="fill:#5b9bd5;fill-opacity:1;fill-rule:nonzero;stroke:none"
         id="path4344"
         inkscape:connector-curvature="0" /><path
         d="m 401.68,316.6 c 0,-2.4 -1.94,-4.34 -4.34,-4.34 -2.4,0 -4.34,1.94 -4.34,4.34 0,2.39 1.94,4.34 4.34,4.34 2.4,0 4.34,-1.95 4.34,-4.34 z"
         style="fill:none;stroke:#5b9bd5;stroke-width:1.23979998;stroke-linecap:butt;stroke-linejoin:round;stroke-miterlimit:10;stroke-dasharray:none;stroke-opacity:1"
         id="path4346"
         inkscape:connector-curvature="0" /><path
         d="m 313.45,371.97 c 0,-2.39 -1.94,-4.34 -4.34,-4.34 -2.4,0 -4.34,1.95 -4.34,4.34 0,2.4 1.94,4.34 4.34,4.34 2.4,0 4.34,-1.94 4.34,-4.34 z"
         style="fill:#5b9bd5;fill-opacity:1;fill-rule:nonzero;stroke:none"
         id="path4348-7"
         inkscape:connector-curvature="0" /><path
         d="m 313.45,371.97 c 0,-2.39 -1.94,-4.34 -4.34,-4.34 -2.4,0 -4.34,1.95 -4.34,4.34 0,2.4 1.94,4.34 4.34,4.34 2.4,0 4.34,-1.94 4.34,-4.34 z"
         style="fill:none;stroke:#5b9bd5;stroke-width:1.23979998;stroke-linecap:butt;stroke-linejoin:round;stroke-miterlimit:10;stroke-dasharray:none;stroke-opacity:1"
         id="path4350"
         inkscape:connector-curvature="0" /><path
         d="m 354.16,371.97 c 0,-2.39 -1.95,-4.34 -4.34,-4.34 -2.4,0 -4.34,1.95 -4.34,4.34 0,2.4 1.94,4.34 4.34,4.34 2.39,0 4.34,-1.94 4.34,-4.34 z"
         style="fill:#5b9bd5;fill-opacity:1;fill-rule:nonzero;stroke:none"
         id="path4352"
         inkscape:connector-curvature="0" /><path
         d="m 354.16,371.97 c 0,-2.39 -1.95,-4.34 -4.34,-4.34 -2.4,0 -4.34,1.95 -4.34,4.34 0,2.4 1.94,4.34 4.34,4.34 2.39,0 4.34,-1.94 4.34,-4.34 z"
         style="fill:none;stroke:#5b9bd5;stroke-width:1.23979998;stroke-linecap:butt;stroke-linejoin:round;stroke-miterlimit:10;stroke-dasharray:none;stroke-opacity:1"
         id="path4354"
         inkscape:connector-curvature="0" /><path
         d="m 401.68,371.97 c 0,-2.39 -1.94,-4.34 -4.34,-4.34 -2.4,0 -4.34,1.95 -4.34,4.34 0,2.4 1.94,4.34 4.34,4.34 2.4,0 4.34,-1.94 4.34,-4.34 z"
         style="fill:#5b9bd5;fill-opacity:1;fill-rule:nonzero;stroke:none"
         id="path4356"
         inkscape:connector-curvature="0" /><path
         d="m 401.68,371.97 c 0,-2.39 -1.94,-4.34 -4.34,-4.34 -2.4,0 -4.34,1.95 -4.34,4.34 0,2.4 1.94,4.34 4.34,4.34 2.4,0 4.34,-1.94 4.34,-4.34 z"
         style="fill:none;stroke:#5b9bd5;stroke-width:1.23979998;stroke-linecap:butt;stroke-linejoin:round;stroke-miterlimit:10;stroke-dasharray:none;stroke-opacity:1"
         id="path4358"
         inkscape:connector-curvature="0" /><path
         d="m 456.02,316.6 c 0,-2.4 -1.94,-4.34 -4.34,-4.34 -2.39,0 -4.34,1.94 -4.34,4.34 0,2.39 1.95,4.34 4.34,4.34 2.4,0 4.34,-1.95 4.34,-4.34 z"
         style="fill:#5b9bd5;fill-opacity:1;fill-rule:nonzero;stroke:none"
         id="path4360-4"
         inkscape:connector-curvature="0" /><path
         d="m 456.02,316.6 c 0,-2.4 -1.94,-4.34 -4.34,-4.34 -2.39,0 -4.34,1.94 -4.34,4.34 0,2.39 1.95,4.34 4.34,4.34 2.4,0 4.34,-1.95 4.34,-4.34 z"
         style="fill:none;stroke:#5b9bd5;stroke-width:1.23979998;stroke-linecap:butt;stroke-linejoin:round;stroke-miterlimit:10;stroke-dasharray:none;stroke-opacity:1"
         id="path4362"
         inkscape:connector-curvature="0" /><path
         d="m 381.22,316.6 c 0,-2.4 -1.94,-4.34 -4.34,-4.34 -2.39,0 -4.34,1.94 -4.34,4.34 0,2.39 1.95,4.34 4.34,4.34 2.4,0 4.34,-1.95 4.34,-4.34 z"
         style="fill:#5b9bd5;fill-opacity:1;fill-rule:nonzero;stroke:none"
         id="path4364"
         inkscape:connector-curvature="0" /><path
         d="m 381.22,316.6 c 0,-2.4 -1.94,-4.34 -4.34,-4.34 -2.39,0 -4.34,1.94 -4.34,4.34 0,2.39 1.95,4.34 4.34,4.34 2.4,0 4.34,-1.95 4.34,-4.34 z"
         style="fill:none;stroke:#5b9bd5;stroke-width:1.23979998;stroke-linecap:butt;stroke-linejoin:round;stroke-miterlimit:10;stroke-dasharray:none;stroke-opacity:1"
         id="path4366"
         inkscape:connector-curvature="0" /><path
         d="m 286.17,482.73 c 0,-2.4 -1.94,-4.34 -4.34,-4.34 -2.39,0 -4.33,1.94 -4.33,4.34 0,2.39 1.94,4.34 4.33,4.34 2.4,0 4.34,-1.95 4.34,-4.34 z"
         style="fill:#5b9bd5;fill-opacity:1;fill-rule:nonzero;stroke:none"
         id="path4368"
         inkscape:connector-curvature="0" /><path
         d="m 286.17,482.73 c 0,-2.4 -1.94,-4.34 -4.34,-4.34 -2.39,0 -4.33,1.94 -4.33,4.34 0,2.39 1.94,4.34 4.33,4.34 2.4,0 4.34,-1.95 4.34,-4.34 z"
         style="fill:none;stroke:#5b9bd5;stroke-width:1.23979998;stroke-linecap:butt;stroke-linejoin:round;stroke-miterlimit:10;stroke-dasharray:none;stroke-opacity:1"
         id="path4370"
         inkscape:connector-curvature="0" /><path
         d="m 381.22,316.6 c 0,-2.4 -1.94,-4.34 -4.34,-4.34 -2.39,0 -4.34,1.94 -4.34,4.34 0,2.39 1.95,4.34 4.34,4.34 2.4,0 4.34,-1.95 4.34,-4.34 z"
         style="fill:#5b9bd5;fill-opacity:1;fill-rule:nonzero;stroke:none"
         id="path4372-7"
         inkscape:connector-curvature="0" /><path
         d="m 381.22,316.6 c 0,-2.4 -1.94,-4.34 -4.34,-4.34 -2.39,0 -4.34,1.94 -4.34,4.34 0,2.39 1.95,4.34 4.34,4.34 2.4,0 4.34,-1.95 4.34,-4.34 z"
         style="fill:none;stroke:#5b9bd5;stroke-width:1.23979998;stroke-linecap:butt;stroke-linejoin:round;stroke-miterlimit:10;stroke-dasharray:none;stroke-opacity:1"
         id="path4374"
         inkscape:connector-curvature="0" /><path
         d="m 435.57,316.6 c 0,-2.4 -1.95,-4.34 -4.34,-4.34 -2.4,0 -4.34,1.94 -4.34,4.34 0,2.39 1.94,4.34 4.34,4.34 2.39,0 4.34,-1.95 4.34,-4.34 z"
         style="fill:#5b9bd5;fill-opacity:1;fill-rule:nonzero;stroke:none"
         id="path4376"
         inkscape:connector-curvature="0" /><path
         d="m 435.57,316.6 c 0,-2.4 -1.95,-4.34 -4.34,-4.34 -2.4,0 -4.34,1.94 -4.34,4.34 0,2.39 1.94,4.34 4.34,4.34 2.39,0 4.34,-1.95 4.34,-4.34 z"
         style="fill:none;stroke:#5b9bd5;stroke-width:1.23979998;stroke-linecap:butt;stroke-linejoin:round;stroke-miterlimit:10;stroke-dasharray:none;stroke-opacity:1"
         id="path4378"
         inkscape:connector-curvature="0" /><path
         d="m 401.68,316.6 c 0,-2.4 -1.94,-4.34 -4.34,-4.34 -2.4,0 -4.34,1.94 -4.34,4.34 0,2.39 1.94,4.34 4.34,4.34 2.4,0 4.34,-1.95 4.34,-4.34 z"
         style="fill:#5b9bd5;fill-opacity:1;fill-rule:nonzero;stroke:none"
         id="path4380"
         inkscape:connector-curvature="0" /><path
         d="m 401.68,316.6 c 0,-2.4 -1.94,-4.34 -4.34,-4.34 -2.4,0 -4.34,1.94 -4.34,4.34 0,2.39 1.94,4.34 4.34,4.34 2.4,0 4.34,-1.95 4.34,-4.34 z"
         style="fill:none;stroke:#5b9bd5;stroke-width:1.23979998;stroke-linecap:butt;stroke-linejoin:round;stroke-miterlimit:10;stroke-dasharray:none;stroke-opacity:1"
         id="path4382"
         inkscape:connector-curvature="0" /><path
         d="m 476.27,316.6 c 0,-2.4 -1.94,-4.34 -4.34,-4.34 -2.39,0 -4.34,1.94 -4.34,4.34 0,2.39 1.95,4.34 4.34,4.34 2.4,0 4.34,-1.95 4.34,-4.34 z"
         style="fill:#5b9bd5;fill-opacity:1;fill-rule:nonzero;stroke:none"
         id="path4384-4"
         inkscape:connector-curvature="0" /><path
         d="m 476.27,316.6 c 0,-2.4 -1.94,-4.34 -4.34,-4.34 -2.39,0 -4.34,1.94 -4.34,4.34 0,2.39 1.95,4.34 4.34,4.34 2.4,0 4.34,-1.95 4.34,-4.34 z"
         style="fill:none;stroke:#5b9bd5;stroke-width:1.23979998;stroke-linecap:butt;stroke-linejoin:round;stroke-miterlimit:10;stroke-dasharray:none;stroke-opacity:1"
         id="path4386"
         inkscape:connector-curvature="0" /><path
         d="m 442.39,316.6 c 0,-2.4 -1.95,-4.34 -4.34,-4.34 -2.4,0 -4.34,1.94 -4.34,4.34 0,2.39 1.94,4.34 4.34,4.34 2.39,0 4.34,-1.95 4.34,-4.34 z"
         style="fill:#5b9bd5;fill-opacity:1;fill-rule:nonzero;stroke:none"
         id="path4388"
         inkscape:connector-curvature="0" /><path
         d="m 442.39,316.6 c 0,-2.4 -1.95,-4.34 -4.34,-4.34 -2.4,0 -4.34,1.94 -4.34,4.34 0,2.39 1.94,4.34 4.34,4.34 2.39,0 4.34,-1.95 4.34,-4.34 z"
         style="fill:none;stroke:#5b9bd5;stroke-width:1.23979998;stroke-linecap:butt;stroke-linejoin:round;stroke-miterlimit:10;stroke-dasharray:none;stroke-opacity:1"
         id="path4390"
         inkscape:connector-curvature="0" /><path
         d="m 462.84,316.6 c 0,-2.4 -1.94,-4.34 -4.34,-4.34 -2.39,0 -4.34,1.94 -4.34,4.34 0,2.39 1.95,4.34 4.34,4.34 2.4,0 4.34,-1.95 4.34,-4.34 z"
         style="fill:#5b9bd5;fill-opacity:1;fill-rule:nonzero;stroke:none"
         id="path4392"
         inkscape:connector-curvature="0" /><path
         d="m 462.84,316.6 c 0,-2.4 -1.94,-4.34 -4.34,-4.34 -2.39,0 -4.34,1.94 -4.34,4.34 0,2.39 1.95,4.34 4.34,4.34 2.4,0 4.34,-1.95 4.34,-4.34 z"
         style="fill:none;stroke:#5b9bd5;stroke-width:1.23979998;stroke-linecap:butt;stroke-linejoin:round;stroke-miterlimit:10;stroke-dasharray:none;stroke-opacity:1"
         id="path4394"
         inkscape:connector-curvature="0" /><path
         d="m 435.57,427.35 c 0,-2.4 -1.95,-4.34 -4.34,-4.34 -2.4,0 -4.34,1.94 -4.34,4.34 0,2.4 1.94,4.34 4.34,4.34 2.39,0 4.34,-1.94 4.34,-4.34 z"
         style="fill:#5b9bd5;fill-opacity:1;fill-rule:nonzero;stroke:none"
         id="path4396-2"
         inkscape:connector-curvature="0" /><path
         d="m 435.57,427.35 c 0,-2.4 -1.95,-4.34 -4.34,-4.34 -2.4,0 -4.34,1.94 -4.34,4.34 0,2.4 1.94,4.34 4.34,4.34 2.39,0 4.34,-1.94 4.34,-4.34 z"
         style="fill:none;stroke:#5b9bd5;stroke-width:1.23979998;stroke-linecap:butt;stroke-linejoin:round;stroke-miterlimit:10;stroke-dasharray:none;stroke-opacity:1"
         id="path4398"
         inkscape:connector-curvature="0" /><path
         d="m 442.39,316.6 c 0,-2.4 -1.95,-4.34 -4.34,-4.34 -2.4,0 -4.34,1.94 -4.34,4.34 0,2.39 1.94,4.34 4.34,4.34 2.39,0 4.34,-1.95 4.34,-4.34 z"
         style="fill:#5b9bd5;fill-opacity:1;fill-rule:nonzero;stroke:none"
         id="path4400"
         inkscape:connector-curvature="0" /><path
         d="m 442.39,316.6 c 0,-2.4 -1.95,-4.34 -4.34,-4.34 -2.4,0 -4.34,1.94 -4.34,4.34 0,2.39 1.94,4.34 4.34,4.34 2.39,0 4.34,-1.95 4.34,-4.34 z"
         style="fill:none;stroke:#5b9bd5;stroke-width:1.23979998;stroke-linecap:butt;stroke-linejoin:round;stroke-miterlimit:10;stroke-dasharray:none;stroke-opacity:1"
         id="path4402"
         inkscape:connector-curvature="0" /><path
         d="m 320.27,371.97 c 0,-2.39 -1.94,-4.34 -4.34,-4.34 -2.4,0 -4.34,1.95 -4.34,4.34 0,2.4 1.94,4.34 4.34,4.34 2.4,0 4.34,-1.94 4.34,-4.34 z"
         style="fill:#5b9bd5;fill-opacity:1;fill-rule:nonzero;stroke:none"
         id="path4404"
         inkscape:connector-curvature="0" /><path
         d="m 320.27,371.97 c 0,-2.39 -1.94,-4.34 -4.34,-4.34 -2.4,0 -4.34,1.95 -4.34,4.34 0,2.4 1.94,4.34 4.34,4.34 2.4,0 4.34,-1.94 4.34,-4.34 z"
         style="fill:none;stroke:#5b9bd5;stroke-width:1.23979998;stroke-linecap:butt;stroke-linejoin:round;stroke-miterlimit:10;stroke-dasharray:none;stroke-opacity:1"
         id="path4406"
         inkscape:connector-curvature="0" /><g
         transform="translate(3.7787476e-7,2.3059998e-6)"
         id="g4408"><g
           id="g4410"
           clip-path="url(#clipPath4412)"><path
             d="M 125.75,477.86 472.01,300.93"
             style="fill:none;stroke:#5b9bd5;stroke-width:2.58290005;stroke-linecap:round;stroke-linejoin:round;stroke-miterlimit:10;stroke-dasharray:0, 5.1657;stroke-dashoffset:0;stroke-opacity:1"
             id="path4416"
             inkscape:connector-curvature="0" /></g></g><g
         transform="translate(3.7787476e-7,2.3059998e-6)"
         id="g4418"><g
           id="g4420"
           clip-path="url(#clipPath4422)"><text
             transform="matrix(1,0,0,-1,101.06,311.59)"
             style="font-variant:normal;font-weight:normal;font-size:17.15999985px;font-family:Calibri;-inkscape-font-specification:Calibri;writing-mode:lr-tb;fill:#595959;fill-opacity:1;fill-rule:nonzero;stroke:none"
             id="text4426"><tspan
               x="0"
               y="0"
               id="tspan4428">0</tspan></text>
</g></g><g
         transform="translate(3.7787476e-7,2.3059998e-6)"
         id="g4430"><g
           id="g4432"
           clip-path="url(#clipPath4434)"><text
             transform="matrix(1,0,0,-1,101.06,366.96)"
             style="font-variant:normal;font-weight:normal;font-size:17.13599968px;font-family:Calibri;-inkscape-font-specification:Calibri;writing-mode:lr-tb;fill:#595959;fill-opacity:1;fill-rule:nonzero;stroke:none"
             id="text4438"><tspan
               x="0"
               y="0"
               id="tspan4440">1</tspan></text>
</g></g><g
         transform="translate(3.7787476e-7,2.3059998e-6)"
         id="g4442"><g
           id="g4444"
           clip-path="url(#clipPath4446)"><text
             transform="matrix(1,0,0,-1,101.06,422.35)"
             style="font-variant:normal;font-weight:normal;font-size:17.15999985px;font-family:Calibri;-inkscape-font-specification:Calibri;writing-mode:lr-tb;fill:#595959;fill-opacity:1;fill-rule:nonzero;stroke:none"
             id="text4450"><tspan
               x="0"
               y="0"
               id="tspan4452">2</tspan></text>
</g></g><g
         transform="translate(3.7787476e-7,2.3059998e-6)"
         id="g4454"><g
           id="g4456"
           clip-path="url(#clipPath4458)"><text
             transform="matrix(1,0,0,-1,101.06,477.72)"
             style="font-variant:normal;font-weight:normal;font-size:17.15999985px;font-family:Calibri;-inkscape-font-specification:Calibri;writing-mode:lr-tb;fill:#595959;fill-opacity:1;fill-rule:nonzero;stroke:none"
             id="text4462"><tspan
               x="0"
               y="0"
               id="tspan4464">3</tspan></text>
</g></g><g
         transform="translate(3.7787476e-7,2.3059998e-6)"
         id="g4466"><g
           id="g4468"
           clip-path="url(#clipPath4470)"><text
             transform="matrix(1,0,0,-1,101.06,533.09)"
             style="font-variant:normal;font-weight:normal;font-size:17.15999985px;font-family:Calibri;-inkscape-font-specification:Calibri;writing-mode:lr-tb;fill:#595959;fill-opacity:1;fill-rule:nonzero;stroke:none"
             id="text4474"><tspan
               x="0"
               y="0"
               id="tspan4476">4</tspan></text>
</g></g><g
         transform="translate(3.7787476e-7,2.3059998e-6)"
         id="g4478"><g
           id="g4480"
           clip-path="url(#clipPath4482)"><text
             transform="matrix(1,0,0,-1,117.05,289.2)"
             style="font-variant:normal;font-weight:normal;font-size:17.13599968px;font-family:Calibri;-inkscape-font-specification:Calibri;writing-mode:lr-tb;fill:#595959;fill-opacity:1;fill-rule:nonzero;stroke:none"
             id="text4486"><tspan
               x="0 8.6879997"
               y="0"
               sodipodi:role="line"
               id="tspan4488">30</tspan></text>
</g></g><g
         transform="translate(3.7787476e-7,2.3059998e-6)"
         id="g4490"><g
           id="g4492"
           clip-path="url(#clipPath4494)"><text
             transform="matrix(1,0,0,-1,184.94,289.2)"
             style="font-variant:normal;font-weight:normal;font-size:17.13599968px;font-family:Calibri;-inkscape-font-specification:Calibri;writing-mode:lr-tb;fill:#595959;fill-opacity:1;fill-rule:nonzero;stroke:none"
             id="text4498"><tspan
               x="0 8.6879997"
               y="0"
               sodipodi:role="line"
               id="tspan4500">40</tspan></text>
</g></g><g
         transform="translate(3.7787476e-7,2.3059998e-6)"
         id="g4502"><g
           id="g4504"
           clip-path="url(#clipPath4506)"><text
             transform="matrix(1,0,0,-1,252.86,289.2)"
             style="font-variant:normal;font-weight:normal;font-size:17.13599968px;font-family:Calibri;-inkscape-font-specification:Calibri;writing-mode:lr-tb;fill:#595959;fill-opacity:1;fill-rule:nonzero;stroke:none"
             id="text4510"><tspan
               x="0 8.6639519"
               y="0"
               sodipodi:role="line"
               id="tspan4512">50</tspan></text>
</g></g><g
         transform="translate(3.7787476e-7,2.3059998e-6)"
         id="g4514"><g
           id="g4516"
           clip-path="url(#clipPath4518)"><text
             transform="matrix(1,0,0,-1,320.76,289.2)"
             style="font-variant:normal;font-weight:normal;font-size:17.13599968px;font-family:Calibri;-inkscape-font-specification:Calibri;writing-mode:lr-tb;fill:#595959;fill-opacity:1;fill-rule:nonzero;stroke:none"
             id="text4522"><tspan
               x="0 8.6879997"
               y="0"
               sodipodi:role="line"
               id="tspan4524">60</tspan></text>
</g></g><g
         transform="translate(3.7787476e-7,2.3059998e-6)"
         id="g4526"><g
           id="g4528"
           clip-path="url(#clipPath4530)"><text
             transform="matrix(1,0,0,-1,388.68,289.2)"
             style="font-variant:normal;font-weight:normal;font-size:17.13599968px;font-family:Calibri;-inkscape-font-specification:Calibri;writing-mode:lr-tb;fill:#595959;fill-opacity:1;fill-rule:nonzero;stroke:none"
             id="text4534"><tspan
               x="0 8.6639519"
               y="0"
               sodipodi:role="line"
               id="tspan4536">70</tspan></text>
</g></g><g
         transform="translate(3.7787476e-7,2.3059998e-6)"
         id="g4538"><g
           id="g4540"
           clip-path="url(#clipPath4542)"><text
             transform="matrix(1,0,0,-1,456.58,289.2)"
             style="font-variant:normal;font-weight:normal;font-size:17.13599968px;font-family:Calibri;-inkscape-font-specification:Calibri;writing-mode:lr-tb;fill:#595959;fill-opacity:1;fill-rule:nonzero;stroke:none"
             id="text4546"><tspan
               x="0 8.6879997"
               y="0"
               sodipodi:role="line"
               id="tspan4548">80</tspan></text>
</g></g><g
         transform="translate(3.7787476e-7,2.3059998e-6)"
         id="g4550"><g
           id="g4552"
           clip-path="url(#clipPath4554)"><text
             transform="matrix(1,0,0,-1,524.47,289.2)"
             style="font-variant:normal;font-weight:normal;font-size:17.13599968px;font-family:Calibri;-inkscape-font-specification:Calibri;writing-mode:lr-tb;fill:#595959;fill-opacity:1;fill-rule:nonzero;stroke:none"
             id="text4558"><tspan
               x="0 8.6879997"
               y="0"
               sodipodi:role="line"
               id="tspan4560">90</tspan></text>
</g></g><g
         transform="translate(3.7787476e-7,2.3059998e-6)"
         id="g4562"><g
           id="g4564"
           clip-path="url(#clipPath4566)"><text
             transform="matrix(-4.4e-8,1,1,4.4e-8,77.376,309.38)"
             style="font-variant:normal;font-weight:normal;font-size:19.00799942px;font-family:Calibri;-inkscape-font-specification:Calibri;writing-mode:lr-tb;fill:#595959;fill-opacity:1;fill-rule:nonzero;stroke:none"
             id="text4570"><tspan
               x="0 12.184128 22.087296 37.350719 47.253887 56.719872 63.353664 67.516418 77.62867 83.426109 87.531837"
               y="0"
               sodipodi:role="line"
               id="tspan4572">Number of O</tspan></text>
</g></g><g
         transform="translate(3.7787476e-7,2.3059998e-6)"
         id="g4574"><g
           id="g4576"
           clip-path="url(#clipPath4578)"><text
             transform="matrix(-4.4e-8,1,1,4.4e-8,77.376,409.61)"
             style="font-variant:normal;font-weight:normal;font-size:19.00799942px;font-family:Calibri;-inkscape-font-specification:Calibri;writing-mode:lr-tb;fill:#595959;fill-opacity:1;fill-rule:nonzero;stroke:none"
             id="text4582"><tspan
               x="0"
               y="0"
               id="tspan4584">-</tspan></text>
</g></g><g
         transform="translate(3.7787476e-7,2.3059998e-6)"
         id="g4586"><g
           id="g4588"
           clip-path="url(#clipPath4590)"><text
             transform="matrix(-4.4e-8,1,1,4.4e-8,77.376,415.39)"
             style="font-variant:normal;font-weight:normal;font-size:19.00799942px;font-family:Calibri;-inkscape-font-specification:Calibri;writing-mode:lr-tb;fill:#595959;fill-opacity:1;fill-rule:nonzero;stroke:none"
             id="text4594"><tspan
               x="0 10.321344 14.693184 24.672384 33.530113 37.82592 46.550591 55.655422 60.027264 64.399101 74.283264 80.917053 90.383041"
               y="0"
               sodipodi:role="line"
               id="tspan4596">Ring Failures</tspan></text>
</g></g><g
         transform="translate(3.7787476e-7,2.3059998e-6)"
         id="g4598"><g
           id="g4600"
           clip-path="url(#clipPath4602)"><text
             transform="matrix(1,0,0,-1,237.05,249.46)"
             style="font-variant:normal;font-weight:normal;font-size:19.00799942px;font-family:Calibri;-inkscape-font-specification:Calibri;writing-mode:lr-tb;fill:#595959;fill-opacity:1;fill-rule:nonzero;stroke:none"
             id="text4606"><tspan
               x="0 7.9833598 17.088192 27.067392 36.932545 44.972927 54.876095 59.000832 68.257729 77.780739 93.044159 102.94733 112.41331 119.0471 128.15193 134.51962 144.49881 151.03757 160.50356 164.45721"
               y="0"
               sodipodi:role="line"
               id="tspan4608">Launch Temperature (</tspan></text>
</g></g><g
         transform="translate(3.7787476e-7,2.3059998e-6)"
         id="g4610"><g
           id="g4612"
           clip-path="url(#clipPath4614)"><text
             transform="matrix(1,0,0,-1,407.54,249.46)"
             style="font-variant:normal;font-weight:normal;font-size:19.00799942px;font-family:Calibri;-inkscape-font-specification:Calibri;writing-mode:lr-tb;fill:#595959;fill-opacity:1;fill-rule:nonzero;stroke:none"
             id="text4618"><tspan
               x="0"
               y="0"
               id="tspan4620">°</tspan></text>
</g></g><g
         transform="translate(3.7787476e-7,2.3059998e-6)"
         id="g4622"><g
           id="g4624"
           clip-path="url(#clipPath4626)"><text
             transform="matrix(1,0,0,-1,413.95,249.46)"
             style="font-variant:normal;font-weight:normal;font-size:19.00799942px;font-family:Calibri;-inkscape-font-specification:Calibri;writing-mode:lr-tb;fill:#595959;fill-opacity:1;fill-rule:nonzero;stroke:none"
             id="text4630"><tspan
               x="0 8.6639719"
               y="0"
               sodipodi:role="line"
               id="tspan4632">F)</tspan></text>
</g></g></g></g></svg>