<?xml version="1.0" encoding="UTF-8" standalone="no"?>
<!-- Created with Inkscape (http://www.inkscape.org/) -->

<svg
   xmlns:dc="http://purl.org/dc/elements/1.1/"
   xmlns:cc="http://creativecommons.org/ns#"
   xmlns:rdf="http://www.w3.org/1999/02/22-rdf-syntax-ns#"
   xmlns:svg="http://www.w3.org/2000/svg"
   xmlns="http://www.w3.org/2000/svg"
   xmlns:sodipodi="http://sodipodi.sourceforge.net/DTD/sodipodi-0.dtd"
   xmlns:inkscape="http://www.inkscape.org/namespaces/inkscape"
   id="svg4136"
   version="1.1"
   inkscape:version="0.91 r13725"
   xml:space="preserve"
   width="863.51898"
   height="478.069"
   viewBox="0 0 863.51898 478.069"
   sodipodi:docname="Cheese.svg"><metadata
     id="metadata4142"><rdf:RDF><cc:Work
         rdf:about=""><dc:format>image/svg+xml</dc:format><dc:type
           rdf:resource="http://purl.org/dc/dcmitype/StillImage" /><dc:title></dc:title></cc:Work></rdf:RDF></metadata><defs
     id="defs4140"><clipPath
       clipPathUnits="userSpaceOnUse"
       id="clipPath4224"><path
         d="m 51.36,115.56 689.4,0 0,381.12 -689.4,0 0,-381.12 z"
         id="path4226"
         inkscape:connector-curvature="0"
         style="clip-rule:evenodd" /></clipPath><clipPath
       clipPathUnits="userSpaceOnUse"
       id="clipPath4236"><path
         d="m 51.36,115.56 689.4,0 0,381.12 -689.4,0 0,-381.12 z"
         id="path4238"
         inkscape:connector-curvature="0"
         style="clip-rule:evenodd" /></clipPath><clipPath
       clipPathUnits="userSpaceOnUse"
       id="clipPath4248"><path
         d="m 51.36,115.56 689.4,0 0,381.12 -689.4,0 0,-381.12 z"
         id="path4250"
         inkscape:connector-curvature="0"
         style="clip-rule:evenodd" /></clipPath><clipPath
       clipPathUnits="userSpaceOnUse"
       id="clipPath4260"><path
         d="m 51.36,115.56 689.4,0 0,381.12 -689.4,0 0,-381.12 z"
         id="path4262"
         inkscape:connector-curvature="0"
         style="clip-rule:evenodd" /></clipPath><clipPath
       clipPathUnits="userSpaceOnUse"
       id="clipPath4272"><path
         d="m 51.36,115.56 689.4,0 0,381.12 -689.4,0 0,-381.12 z"
         id="path4274"
         inkscape:connector-curvature="0"
         style="clip-rule:evenodd" /></clipPath><clipPath
       clipPathUnits="userSpaceOnUse"
       id="clipPath4284"><path
         d="m 51.36,115.56 689.4,0 0,381.12 -689.4,0 0,-381.12 z"
         id="path4286"
         inkscape:connector-curvature="0"
         style="clip-rule:evenodd" /></clipPath><clipPath
       clipPathUnits="userSpaceOnUse"
       id="clipPath4296"><path
         d="m 51.36,115.56 689.4,0 0,381.12 -689.4,0 0,-381.12 z"
         id="path4298"
         inkscape:connector-curvature="0"
         style="clip-rule:evenodd" /></clipPath><clipPath
       clipPathUnits="userSpaceOnUse"
       id="clipPath4308"><path
         d="m 51.36,115.56 689.4,0 0,381.12 -689.4,0 0,-381.12 z"
         id="path4310"
         inkscape:connector-curvature="0"
         style="clip-rule:evenodd" /></clipPath><clipPath
       clipPathUnits="userSpaceOnUse"
       id="clipPath4320"><path
         d="m 51.36,115.56 689.4,0 0,381.12 -689.4,0 0,-381.12 z"
         id="path4322"
         inkscape:connector-curvature="0"
         style="clip-rule:evenodd" /></clipPath><clipPath
       clipPathUnits="userSpaceOnUse"
       id="clipPath4332"><path
         d="m 51.36,115.56 689.4,0 0,381.12 -689.4,0 0,-381.12 z"
         id="path4334"
         inkscape:connector-curvature="0"
         style="clip-rule:evenodd" /></clipPath><clipPath
       clipPathUnits="userSpaceOnUse"
       id="clipPath4344"><path
         d="m 51.36,115.56 689.4,0 0,381.12 -689.4,0 0,-381.12 z"
         id="path4346"
         inkscape:connector-curvature="0"
         style="clip-rule:evenodd" /></clipPath><clipPath
       clipPathUnits="userSpaceOnUse"
       id="clipPath4356"><path
         d="m 51.36,115.56 689.4,0 0,381.12 -689.4,0 0,-381.12 z"
         id="path4358"
         inkscape:connector-curvature="0"
         style="clip-rule:evenodd" /></clipPath><clipPath
       clipPathUnits="userSpaceOnUse"
       id="clipPath4368"><path
         d="m 51.36,115.56 689.4,0 0,381.12 -689.4,0 0,-381.12 z"
         id="path4370"
         inkscape:connector-curvature="0"
         style="clip-rule:evenodd" /></clipPath><clipPath
       clipPathUnits="userSpaceOnUse"
       id="clipPath4380"><path
         d="m 51.36,115.56 689.4,0 0,381.12 -689.4,0 0,-381.12 z"
         id="path4382"
         inkscape:connector-curvature="0"
         style="clip-rule:evenodd" /></clipPath><clipPath
       clipPathUnits="userSpaceOnUse"
       id="clipPath4392"><path
         d="m 51.36,115.56 689.4,0 0,381.12 -689.4,0 0,-381.12 z"
         id="path4394"
         inkscape:connector-curvature="0"
         style="clip-rule:evenodd" /></clipPath><clipPath
       clipPathUnits="userSpaceOnUse"
       id="clipPath4404"><path
         d="m 51.36,115.56 689.4,0 0,381.12 -689.4,0 0,-381.12 z"
         id="path4406"
         inkscape:connector-curvature="0"
         style="clip-rule:evenodd" /></clipPath><clipPath
       clipPathUnits="userSpaceOnUse"
       id="clipPath4416"><path
         d="m 51.36,115.56 689.4,0 0,381.12 -689.4,0 0,-381.12 z"
         id="path4418"
         inkscape:connector-curvature="0"
         style="clip-rule:evenodd" /></clipPath><clipPath
       clipPathUnits="userSpaceOnUse"
       id="clipPath4428"><path
         d="m 51.36,115.56 689.4,0 0,381.12 -689.4,0 0,-381.12 z"
         id="path4430"
         inkscape:connector-curvature="0"
         style="clip-rule:evenodd" /></clipPath><clipPath
       clipPathUnits="userSpaceOnUse"
       id="clipPath4440"><path
         d="m 51.36,115.56 689.4,0 0,381.12 -689.4,0 0,-381.12 z"
         id="path4442"
         inkscape:connector-curvature="0"
         style="clip-rule:evenodd" /></clipPath><clipPath
       clipPathUnits="userSpaceOnUse"
       id="clipPath4452"><path
         d="m 51.36,115.56 689.4,0 0,381.12 -689.4,0 0,-381.12 z"
         id="path4454"
         inkscape:connector-curvature="0"
         style="clip-rule:evenodd" /></clipPath><clipPath
       clipPathUnits="userSpaceOnUse"
       id="clipPath4464"><path
         d="m 51.36,115.56 689.4,0 0,381.12 -689.4,0 0,-381.12 z"
         id="path4466"
         inkscape:connector-curvature="0"
         style="clip-rule:evenodd" /></clipPath></defs><sodipodi:namedview
     pagecolor="#ffffff"
     bordercolor="#666666"
     borderopacity="1"
     objecttolerance="10"
     gridtolerance="10"
     guidetolerance="10"
     inkscape:pageopacity="0"
     inkscape:pageshadow="2"
     inkscape:window-width="1920"
     inkscape:window-height="1017"
     id="namedview4138"
     showgrid="false"
     inkscape:zoom="0.78382556"
     inkscape:cx="237.80415"
     inkscape:cy="267.03553"
     inkscape:window-x="-8"
     inkscape:window-y="-8"
     inkscape:window-maximized="1"
     inkscape:current-layer="g4144" /><g
     id="g4144"
     inkscape:groupmode="layer"
     inkscape:label="Cheese"
     transform="matrix(1.25,0,0,-1.25,0,478.069)"><path
       d="m 109.33645,116.46245 551.55,0 m -551.55,27.29 551.55,0 m -551.55,27.3 551.55,0 m -551.55,27.08 551.55,0 m -551.55,27.3 551.55,0 m -551.55,27.3 551.55,0 m -551.55,27.08 551.55,0 m -551.55,27.3 551.55,0 m -551.55,27.3 551.55,0 m -551.55,27.16 551.55,0"
       style="fill:none;stroke:#d9d9d9;stroke-width:1.36489999;stroke-linecap:butt;stroke-linejoin:round;stroke-miterlimit:10;stroke-dasharray:none;stroke-opacity:1"
       id="path4148"
       inkscape:connector-curvature="0" /><path
       d="m 188.05645,361.57245 0,-272.25 m 78.84,272.25 0,-272.25 m 78.84,272.25 0,-272.25 m 78.84,272.25 0,-272.25 m 78.84,272.25 0,-272.25 m 78.62,272.25 0,-272.25 m 78.85,272.25 0,-272.25"
       style="fill:none;stroke:#d9d9d9;stroke-width:1.36489999;stroke-linecap:butt;stroke-linejoin:round;stroke-miterlimit:10;stroke-dasharray:none;stroke-opacity:1"
       id="path4150"
       inkscape:connector-curvature="0" /><path
       d="m 109.33645,89.32245 0,272.25"
       style="fill:none;stroke:#bfbfbf;stroke-width:1.36489999;stroke-linecap:butt;stroke-linejoin:round;stroke-miterlimit:10;stroke-dasharray:none;stroke-opacity:1"
       id="path4152"
       inkscape:connector-curvature="0" /><path
       d="m 109.33645,89.32245 551.55,0"
       style="fill:none;stroke:#bfbfbf;stroke-width:1.36489999;stroke-linecap:butt;stroke-linejoin:round;stroke-miterlimit:10;stroke-dasharray:none;stroke-opacity:1"
       id="path4154"
       inkscape:connector-curvature="0" /><path
       d="m 204.00645,179.11245 c 0,-2.54 -2.06,-4.59 -4.59,-4.59 -2.53,0 -4.59,2.05 -4.59,4.59 0,2.53 2.06,4.58 4.59,4.58 2.53,0 4.59,-2.05 4.59,-4.58 z"
       style="fill:#4f81bd;fill-opacity:1;fill-rule:nonzero;stroke:none"
       id="path4156"
       inkscape:connector-curvature="0" /><path
       d="m 204.00645,179.11245 c 0,-2.54 -2.06,-4.59 -4.59,-4.59 -2.53,0 -4.59,2.05 -4.59,4.59 0,2.53 2.06,4.58 4.59,4.58 2.53,0 4.59,-2.05 4.59,-4.58 z"
       style="fill:none;stroke:#4f81bd;stroke-width:1.31029999;stroke-linecap:butt;stroke-linejoin:round;stroke-miterlimit:10;stroke-dasharray:none;stroke-opacity:1"
       id="path4158"
       inkscape:connector-curvature="0" /><path
       d="m 257.50645,178.23245 c 0,-2.53 -2.05,-4.58 -4.59,-4.58 -2.53,0 -4.58,2.05 -4.58,4.58 0,2.54 2.05,4.59 4.58,4.59 2.54,0 4.59,-2.05 4.59,-4.59 z"
       style="fill:#4f81bd;fill-opacity:1;fill-rule:nonzero;stroke:none"
       id="path4160"
       inkscape:connector-curvature="0" /><path
       d="m 257.50645,178.23245 c 0,-2.53 -2.05,-4.58 -4.59,-4.58 -2.53,0 -4.58,2.05 -4.58,4.58 0,2.54 2.05,4.59 4.58,4.59 2.54,0 4.59,-2.05 4.59,-4.59 z"
       style="fill:none;stroke:#4f81bd;stroke-width:1.31029999;stroke-linecap:butt;stroke-linejoin:round;stroke-miterlimit:10;stroke-dasharray:none;stroke-opacity:1"
       id="path4162"
       inkscape:connector-curvature="0" /><path
       d="m 277.16645,213.39245 c 0,-2.53 -2.06,-4.58 -4.59,-4.58 -2.53,0 -4.59,2.05 -4.59,4.58 0,2.54 2.06,4.59 4.59,4.59 2.53,0 4.59,-2.05 4.59,-4.59 z"
       style="fill:#4f81bd;fill-opacity:1;fill-rule:nonzero;stroke:none"
       id="path4164"
       inkscape:connector-curvature="0" /><path
       d="m 277.16645,213.39245 c 0,-2.53 -2.06,-4.58 -4.59,-4.58 -2.53,0 -4.59,2.05 -4.59,4.58 0,2.54 2.06,4.59 4.59,4.59 2.53,0 4.59,-2.05 4.59,-4.59 z"
       style="fill:none;stroke:#4f81bd;stroke-width:1.31029999;stroke-linecap:butt;stroke-linejoin:round;stroke-miterlimit:10;stroke-dasharray:none;stroke-opacity:1"
       id="path4166"
       inkscape:connector-curvature="0" /><path
       d="m 313.41645,227.81245 c 0,-2.54 -2.05,-4.59 -4.59,-4.59 -2.53,0 -4.58,2.05 -4.58,4.59 0,2.53 2.05,4.58 4.58,4.58 2.54,0 4.59,-2.05 4.59,-4.58 z"
       style="fill:#4f81bd;fill-opacity:1;fill-rule:nonzero;stroke:none"
       id="path4168"
       inkscape:connector-curvature="0" /><path
       d="m 313.41645,227.81245 c 0,-2.54 -2.05,-4.59 -4.59,-4.59 -2.53,0 -4.58,2.05 -4.58,4.59 0,2.53 2.05,4.58 4.58,4.58 2.54,0 4.59,-2.05 4.59,-4.58 z"
       style="fill:none;stroke:#4f81bd;stroke-width:1.31029999;stroke-linecap:butt;stroke-linejoin:round;stroke-miterlimit:10;stroke-dasharray:none;stroke-opacity:1"
       id="path4170"
       inkscape:connector-curvature="0" /><path
       d="m 311.66645,224.53245 c 0,-2.53 -2.05,-4.58 -4.58,-4.58 -2.54,0 -4.59,2.05 -4.59,4.58 0,2.53 2.05,4.59 4.59,4.59 2.53,0 4.58,-2.06 4.58,-4.59 z"
       style="fill:#4f81bd;fill-opacity:1;fill-rule:nonzero;stroke:none"
       id="path4172"
       inkscape:connector-curvature="0" /><path
       d="m 311.66645,224.53245 c 0,-2.53 -2.05,-4.58 -4.58,-4.58 -2.54,0 -4.59,2.05 -4.59,4.58 0,2.53 2.05,4.59 4.59,4.59 2.53,0 4.58,-2.06 4.58,-4.59 z"
       style="fill:none;stroke:#4f81bd;stroke-width:1.31029999;stroke-linecap:butt;stroke-linejoin:round;stroke-miterlimit:10;stroke-dasharray:none;stroke-opacity:1"
       id="path4174"
       inkscape:connector-curvature="0" /><path
       d="m 369.10645,251.61245 c 0,-2.53 -2.06,-4.58 -4.59,-4.58 -2.53,0 -4.58,2.05 -4.58,4.58 0,2.53 2.05,4.59 4.58,4.59 2.53,0 4.59,-2.06 4.59,-4.59 z"
       style="fill:#4f81bd;fill-opacity:1;fill-rule:nonzero;stroke:none"
       id="path4176"
       inkscape:connector-curvature="0" /><path
       d="m 369.10645,251.61245 c 0,-2.53 -2.06,-4.58 -4.59,-4.58 -2.53,0 -4.58,2.05 -4.58,4.58 0,2.53 2.05,4.59 4.58,4.59 2.53,0 4.59,-2.06 4.59,-4.59 z"
       style="fill:none;stroke:#4f81bd;stroke-width:1.31029999;stroke-linecap:butt;stroke-linejoin:round;stroke-miterlimit:10;stroke-dasharray:none;stroke-opacity:1"
       id="path4178"
       inkscape:connector-curvature="0" /><path
       d="m 397.27645,245.28245 c 0,-2.53 -2.05,-4.59 -4.59,-4.59 -2.53,0 -4.58,2.06 -4.58,4.59 0,2.53 2.05,4.58 4.58,4.58 2.54,0 4.59,-2.05 4.59,-4.58 z"
       style="fill:#4f81bd;fill-opacity:1;fill-rule:nonzero;stroke:none"
       id="path4180"
       inkscape:connector-curvature="0" /><path
       d="m 397.27645,245.28245 c 0,-2.53 -2.05,-4.59 -4.59,-4.59 -2.53,0 -4.58,2.06 -4.58,4.59 0,2.53 2.05,4.58 4.58,4.58 2.54,0 4.59,-2.05 4.59,-4.58 z"
       style="fill:none;stroke:#4f81bd;stroke-width:1.31029999;stroke-linecap:butt;stroke-linejoin:round;stroke-miterlimit:10;stroke-dasharray:none;stroke-opacity:1"
       id="path4182"
       inkscape:connector-curvature="0" /><path
       d="m 462.79645,269.30245 c 0,-2.53 -2.06,-4.59 -4.59,-4.59 -2.53,0 -4.59,2.06 -4.59,4.59 0,2.53 2.06,4.59 4.59,4.59 2.53,0 4.59,-2.06 4.59,-4.59 z"
       style="fill:#4f81bd;fill-opacity:1;fill-rule:nonzero;stroke:none"
       id="path4184"
       inkscape:connector-curvature="0" /><path
       d="m 462.79645,269.30245 c 0,-2.53 -2.06,-4.59 -4.59,-4.59 -2.53,0 -4.59,2.06 -4.59,4.59 0,2.53 2.06,4.59 4.59,4.59 2.53,0 4.59,-2.06 4.59,-4.59 z"
       style="fill:none;stroke:#4f81bd;stroke-width:1.31029999;stroke-linecap:butt;stroke-linejoin:round;stroke-miterlimit:10;stroke-dasharray:none;stroke-opacity:1"
       id="path4186"
       inkscape:connector-curvature="0" /><path
       d="m 503.19645,290.92245 c 0,-2.53 -2.06,-4.58 -4.59,-4.58 -2.53,0 -4.58,2.05 -4.58,4.58 0,2.53 2.05,4.59 4.58,4.59 2.53,0 4.59,-2.06 4.59,-4.59 z"
       style="fill:#4f81bd;fill-opacity:1;fill-rule:nonzero;stroke:none"
       id="path4188"
       inkscape:connector-curvature="0" /><path
       d="m 503.19645,290.92245 c 0,-2.53 -2.06,-4.58 -4.59,-4.58 -2.53,0 -4.58,2.05 -4.58,4.58 0,2.53 2.05,4.59 4.58,4.59 2.53,0 4.59,-2.06 4.59,-4.59 z"
       style="fill:none;stroke:#4f81bd;stroke-width:1.31029999;stroke-linecap:butt;stroke-linejoin:round;stroke-miterlimit:10;stroke-dasharray:none;stroke-opacity:1"
       id="path4190"
       inkscape:connector-curvature="0" /><path
       d="m 459.73645,309.48245 c 0,-2.53 -2.05,-4.58 -4.59,-4.58 -2.53,0 -4.58,2.05 -4.58,4.58 0,2.54 2.05,4.59 4.58,4.59 2.54,0 4.59,-2.05 4.59,-4.59 z"
       style="fill:#4f81bd;fill-opacity:1;fill-rule:nonzero;stroke:none"
       id="path4192"
       inkscape:connector-curvature="0" /><path
       d="m 459.73645,309.48245 c 0,-2.53 -2.05,-4.58 -4.59,-4.58 -2.53,0 -4.58,2.05 -4.58,4.58 0,2.54 2.05,4.59 4.58,4.59 2.54,0 4.59,-2.05 4.59,-4.59 z"
       style="fill:none;stroke:#4f81bd;stroke-width:1.31029999;stroke-linecap:butt;stroke-linejoin:round;stroke-miterlimit:10;stroke-dasharray:none;stroke-opacity:1"
       id="path4194"
       inkscape:connector-curvature="0" /><path
       d="m 467.15645,284.59245 c 0,-2.53 -2.05,-4.59 -4.58,-4.59 -2.54,0 -4.59,2.06 -4.59,4.59 0,2.53 2.05,4.58 4.59,4.58 2.53,0 4.58,-2.05 4.58,-4.58 z"
       style="fill:#4f81bd;fill-opacity:1;fill-rule:nonzero;stroke:none"
       id="path4196"
       inkscape:connector-curvature="0" /><path
       d="m 467.15645,284.59245 c 0,-2.53 -2.05,-4.59 -4.58,-4.59 -2.54,0 -4.59,2.06 -4.59,4.59 0,2.53 2.05,4.58 4.59,4.58 2.53,0 4.58,-2.05 4.58,-4.58 z"
       style="fill:none;stroke:#4f81bd;stroke-width:1.31029999;stroke-linecap:butt;stroke-linejoin:round;stroke-miterlimit:10;stroke-dasharray:none;stroke-opacity:1"
       id="path4198"
       inkscape:connector-curvature="0" /><path
       d="m 501.88645,275.42245 c 0,-2.54 -2.06,-4.59 -4.59,-4.59 -2.53,0 -4.58,2.05 -4.58,4.59 0,2.53 2.05,4.58 4.58,4.58 2.53,0 4.59,-2.05 4.59,-4.58 z"
       style="fill:#4f81bd;fill-opacity:1;fill-rule:nonzero;stroke:none"
       id="path4200"
       inkscape:connector-curvature="0" /><path
       d="m 501.88645,275.42245 c 0,-2.54 -2.06,-4.59 -4.59,-4.59 -2.53,0 -4.58,2.05 -4.58,4.59 0,2.53 2.05,4.58 4.58,4.58 2.53,0 4.59,-2.05 4.59,-4.58 z"
       style="fill:none;stroke:#4f81bd;stroke-width:1.31029999;stroke-linecap:butt;stroke-linejoin:round;stroke-miterlimit:10;stroke-dasharray:none;stroke-opacity:1"
       id="path4202"
       inkscape:connector-curvature="0" /><path
       d="m 525.90645,277.60245 c 0,-2.53 -2.05,-4.59 -4.59,-4.59 -2.53,0 -4.58,2.06 -4.58,4.59 0,2.53 2.05,4.59 4.58,4.59 2.54,0 4.59,-2.06 4.59,-4.59 z"
       style="fill:#4f81bd;fill-opacity:1;fill-rule:nonzero;stroke:none"
       id="path4204"
       inkscape:connector-curvature="0" /><path
       d="m 525.90645,277.60245 c 0,-2.53 -2.05,-4.59 -4.59,-4.59 -2.53,0 -4.58,2.06 -4.58,4.59 0,2.53 2.05,4.59 4.58,4.59 2.54,0 4.59,-2.06 4.59,-4.59 z"
       style="fill:none;stroke:#4f81bd;stroke-width:1.31029999;stroke-linecap:butt;stroke-linejoin:round;stroke-miterlimit:10;stroke-dasharray:none;stroke-opacity:1"
       id="path4206"
       inkscape:connector-curvature="0" /><path
       d="m 546.87645,306.65245 c 0,-2.54 -2.06,-4.59 -4.59,-4.59 -2.53,0 -4.59,2.05 -4.59,4.59 0,2.53 2.06,4.58 4.59,4.58 2.53,0 4.59,-2.05 4.59,-4.58 z"
       style="fill:#4f81bd;fill-opacity:1;fill-rule:nonzero;stroke:none"
       id="path4208"
       inkscape:connector-curvature="0" /><path
       d="m 546.87645,306.65245 c 0,-2.54 -2.06,-4.59 -4.59,-4.59 -2.53,0 -4.59,2.05 -4.59,4.59 0,2.53 2.06,4.58 4.59,4.58 2.53,0 4.59,-2.05 4.59,-4.58 z"
       style="fill:none;stroke:#4f81bd;stroke-width:1.31029999;stroke-linecap:butt;stroke-linejoin:round;stroke-miterlimit:10;stroke-dasharray:none;stroke-opacity:1"
       id="path4210"
       inkscape:connector-curvature="0" /><path
       d="m 558.44645,335.04245 c 0,-2.54 -2.05,-4.59 -4.59,-4.59 -2.53,0 -4.58,2.05 -4.58,4.59 0,2.53 2.05,4.58 4.58,4.58 2.54,0 4.59,-2.05 4.59,-4.58 z"
       style="fill:#4f81bd;fill-opacity:1;fill-rule:nonzero;stroke:none"
       id="path4212"
       inkscape:connector-curvature="0" /><path
       d="m 558.44645,335.04245 c 0,-2.54 -2.05,-4.59 -4.59,-4.59 -2.53,0 -4.58,2.05 -4.58,4.59 0,2.53 2.05,4.58 4.58,4.58 2.54,0 4.59,-2.05 4.59,-4.58 z"
       style="fill:none;stroke:#4f81bd;stroke-width:1.31029999;stroke-linecap:butt;stroke-linejoin:round;stroke-miterlimit:10;stroke-dasharray:none;stroke-opacity:1"
       id="path4214"
       inkscape:connector-curvature="0" /><path
       d="m 615.66645,337.88245 c 0,-2.54 -2.06,-4.59 -4.59,-4.59 -2.53,0 -4.58,2.05 -4.58,4.59 0,2.53 2.05,4.58 4.58,4.58 2.53,0 4.59,-2.05 4.59,-4.58 z"
       style="fill:#4f81bd;fill-opacity:1;fill-rule:nonzero;stroke:none"
       id="path4216"
       inkscape:connector-curvature="0" /><path
       d="m 615.66645,337.88245 c 0,-2.54 -2.06,-4.59 -4.59,-4.59 -2.53,0 -4.58,2.05 -4.58,4.59 0,2.53 2.05,4.58 4.58,4.58 2.53,0 4.59,-2.05 4.59,-4.58 z"
       style="fill:none;stroke:#4f81bd;stroke-width:1.31029999;stroke-linecap:butt;stroke-linejoin:round;stroke-miterlimit:10;stroke-dasharray:none;stroke-opacity:1"
       id="path4218"
       inkscape:connector-curvature="0" /><g
       id="g4220"
       transform="translate(-50.64355,-114.85755)"><g
         id="g4222"
         clip-path="url(#clipPath4224)"><text
           transform="matrix(1,0,0,-1,133.9,198.96)"
           style="font-variant:normal;font-weight:normal;font-size:18.1439991px;font-family:Calibri;-inkscape-font-specification:Calibri;writing-mode:lr-tb;fill:#595959;fill-opacity:1;fill-rule:nonzero;stroke:none"
           id="text4228"><tspan
             x="0"
             y="0"
             id="tspan4230">0</tspan></text>
</g></g><g
       id="g4232"
       transform="translate(-50.64355,-114.85755)"><g
         id="g4234"
         clip-path="url(#clipPath4236)"><text
           transform="matrix(1,0,0,-1,115.44,226.18)"
           style="font-variant:normal;font-weight:normal;font-size:18.12000084px;font-family:Calibri;-inkscape-font-specification:Calibri;writing-mode:lr-tb;fill:#595959;fill-opacity:1;fill-rule:nonzero;stroke:none"
           id="text4240"><tspan
             x="0 9.1868401 18.53676"
             y="0"
             sodipodi:role="line"
             id="tspan4242">100</tspan></text>
</g></g><g
       id="g4244"
       transform="translate(-50.64355,-114.85755)"><g
         id="g4246"
         clip-path="url(#clipPath4248)"><text
           transform="matrix(1,0,0,-1,115.44,253.42)"
           style="font-variant:normal;font-weight:normal;font-size:18.12000084px;font-family:Calibri;-inkscape-font-specification:Calibri;writing-mode:lr-tb;fill:#595959;fill-opacity:1;fill-rule:nonzero;stroke:none"
           id="text4252"><tspan
             x="0 9.1868401 18.53676"
             y="0"
             sodipodi:role="line"
             id="tspan4254">200</tspan></text>
</g></g><g
       id="g4256"
       transform="translate(-50.64355,-114.85755)"><g
         id="g4258"
         clip-path="url(#clipPath4260)"><text
           transform="matrix(1,0,0,-1,115.44,280.66)"
           style="font-variant:normal;font-weight:normal;font-size:18.1439991px;font-family:Calibri;-inkscape-font-specification:Calibri;writing-mode:lr-tb;fill:#595959;fill-opacity:1;fill-rule:nonzero;stroke:none"
           id="text4264"><tspan
             x="0 9.199008 18.525024"
             y="0"
             sodipodi:role="line"
             id="tspan4266">300</tspan></text>
</g></g><g
       id="g4268"
       transform="translate(-50.64355,-114.85755)"><g
         id="g4270"
         clip-path="url(#clipPath4272)"><text
           transform="matrix(1,0,0,-1,115.44,307.87)"
           style="font-variant:normal;font-weight:normal;font-size:18.12000084px;font-family:Calibri;-inkscape-font-specification:Calibri;writing-mode:lr-tb;fill:#595959;fill-opacity:1;fill-rule:nonzero;stroke:none"
           id="text4276"><tspan
             x="0 9.1868401 18.53676"
             y="0"
             sodipodi:role="line"
             id="tspan4278">400</tspan></text>
</g></g><g
       id="g4280"
       transform="translate(-50.64355,-114.85755)"><g
         id="g4282"
         clip-path="url(#clipPath4284)"><text
           transform="matrix(1,0,0,-1,115.44,335.11)"
           style="font-variant:normal;font-weight:normal;font-size:18.1439991px;font-family:Calibri;-inkscape-font-specification:Calibri;writing-mode:lr-tb;fill:#595959;fill-opacity:1;fill-rule:nonzero;stroke:none"
           id="text4288"><tspan
             x="0 9.199008 18.525024"
             y="0"
             sodipodi:role="line"
             id="tspan4290">500</tspan></text>
</g></g><g
       id="g4292"
       transform="translate(-50.64355,-114.85755)"><g
         id="g4294"
         clip-path="url(#clipPath4296)"><text
           transform="matrix(1,0,0,-1,115.44,362.33)"
           style="font-variant:normal;font-weight:normal;font-size:18.12000084px;font-family:Calibri;-inkscape-font-specification:Calibri;writing-mode:lr-tb;fill:#595959;fill-opacity:1;fill-rule:nonzero;stroke:none"
           id="text4300"><tspan
             x="0 9.1868401 18.53676"
             y="0"
             sodipodi:role="line"
             id="tspan4302">600</tspan></text>
</g></g><g
       id="g4304"
       transform="translate(-50.64355,-114.85755)"><g
         id="g4306"
         clip-path="url(#clipPath4308)"><text
           transform="matrix(1,0,0,-1,115.44,389.57)"
           style="font-variant:normal;font-weight:normal;font-size:18.12000084px;font-family:Calibri;-inkscape-font-specification:Calibri;writing-mode:lr-tb;fill:#595959;fill-opacity:1;fill-rule:nonzero;stroke:none"
           id="text4312"><tspan
             x="0 9.1868401 18.53676"
             y="0"
             sodipodi:role="line"
             id="tspan4314">700</tspan></text>
</g></g><g
       id="g4316"
       transform="translate(-50.64355,-114.85755)"><g
         id="g4318"
         clip-path="url(#clipPath4320)"><text
           transform="matrix(1,0,0,-1,115.44,416.78)"
           style="font-variant:normal;font-weight:normal;font-size:18.12000084px;font-family:Calibri;-inkscape-font-specification:Calibri;writing-mode:lr-tb;fill:#595959;fill-opacity:1;fill-rule:nonzero;stroke:none"
           id="text4324"><tspan
             x="0 9.1868401 18.53676"
             y="0"
             sodipodi:role="line"
             id="tspan4326">800</tspan></text>
</g></g><g
       id="g4328"
       transform="translate(-50.64355,-114.85755)"><g
         id="g4330"
         clip-path="url(#clipPath4332)"><text
           transform="matrix(1,0,0,-1,115.44,444.02)"
           style="font-variant:normal;font-weight:normal;font-size:18.12000084px;font-family:Calibri;-inkscape-font-specification:Calibri;writing-mode:lr-tb;fill:#595959;fill-opacity:1;fill-rule:nonzero;stroke:none"
           id="text4336"><tspan
             x="0 9.1868401 18.53676"
             y="0"
             sodipodi:role="line"
             id="tspan4338">900</tspan></text>
</g></g><g
       id="g4340"
       transform="translate(-50.64355,-114.85755)"><g
         id="g4342"
         clip-path="url(#clipPath4344)"><text
           transform="matrix(1,0,0,-1,106.2,471.26)"
           style="font-variant:normal;font-weight:normal;font-size:18.1439991px;font-family:Calibri;-inkscape-font-specification:Calibri;writing-mode:lr-tb;fill:#595959;fill-opacity:1;fill-rule:nonzero;stroke:none"
           id="text4348"><tspan
             x="0 9.199008 18.579456 27.778463"
             y="0"
             sodipodi:role="line"
             id="tspan4350">1000</tspan></text>
</g></g><g
       id="g4352"
       transform="translate(-50.64355,-114.85755)"><g
         id="g4354"
         clip-path="url(#clipPath4356)"><text
           transform="matrix(1,0,0,-1,150.79,175.3)"
           style="font-variant:normal;font-weight:normal;font-size:18.1439991px;font-family:Calibri;-inkscape-font-specification:Calibri;writing-mode:lr-tb;fill:#595959;fill-opacity:1;fill-rule:nonzero;stroke:none"
           id="text4360"><tspan
             x="0 9.1680079"
             y="0"
             sodipodi:role="line"
             id="tspan4362">28</tspan></text>
</g></g><g
       id="g4364"
       transform="translate(-50.64355,-114.85755)"><g
         id="g4366"
         clip-path="url(#clipPath4368)"><text
           transform="matrix(1,0,0,-1,229.58,175.3)"
           style="font-variant:normal;font-weight:normal;font-size:18.1439991px;font-family:Calibri;-inkscape-font-specification:Calibri;writing-mode:lr-tb;fill:#595959;fill-opacity:1;fill-rule:nonzero;stroke:none"
           id="text4372"><tspan
             x="0 9.1680079"
             y="0"
             sodipodi:role="line"
             id="tspan4374">29</tspan></text>
</g></g><g
       id="g4376"
       transform="translate(-50.64355,-114.85755)"><g
         id="g4378"
         clip-path="url(#clipPath4380)"><text
           transform="matrix(1,0,0,-1,308.4,175.3)"
           style="font-variant:normal;font-weight:normal;font-size:18.1439991px;font-family:Calibri;-inkscape-font-specification:Calibri;writing-mode:lr-tb;fill:#595959;fill-opacity:1;fill-rule:nonzero;stroke:none"
           id="text4384"><tspan
             x="0 9.1680079"
             y="0"
             sodipodi:role="line"
             id="tspan4386">30</tspan></text>
</g></g><g
       id="g4388"
       transform="translate(-50.64355,-114.85755)"><g
         id="g4390"
         clip-path="url(#clipPath4392)"><text
           transform="matrix(1,0,0,-1,387.19,175.3)"
           style="font-variant:normal;font-weight:normal;font-size:18.1439991px;font-family:Calibri;-inkscape-font-specification:Calibri;writing-mode:lr-tb;fill:#595959;fill-opacity:1;fill-rule:nonzero;stroke:none"
           id="text4396"><tspan
             x="0 9.1680079"
             y="0"
             sodipodi:role="line"
             id="tspan4398">31</tspan></text>
</g></g><g
       id="g4400"
       transform="translate(-50.64355,-114.85755)"><g
         id="g4402"
         clip-path="url(#clipPath4404)"><text
           transform="matrix(1,0,0,-1,465.98,175.3)"
           style="font-variant:normal;font-weight:normal;font-size:18.1439991px;font-family:Calibri;-inkscape-font-specification:Calibri;writing-mode:lr-tb;fill:#595959;fill-opacity:1;fill-rule:nonzero;stroke:none"
           id="text4408"><tspan
             x="0 9.1919975"
             y="0"
             sodipodi:role="line"
             id="tspan4410">32</tspan></text>
</g></g><g
       id="g4412"
       transform="translate(-50.64355,-114.85755)"><g
         id="g4414"
         clip-path="url(#clipPath4416)"><text
           transform="matrix(1,0,0,-1,544.8,175.3)"
           style="font-variant:normal;font-weight:normal;font-size:18.1439991px;font-family:Calibri;-inkscape-font-specification:Calibri;writing-mode:lr-tb;fill:#595959;fill-opacity:1;fill-rule:nonzero;stroke:none"
           id="text4420"><tspan
             x="0 9.1680079"
             y="0"
             sodipodi:role="line"
             id="tspan4422">33</tspan></text>
</g></g><g
       id="g4424"
       transform="translate(-50.64355,-114.85755)"><g
         id="g4426"
         clip-path="url(#clipPath4428)"><text
           transform="matrix(1,0,0,-1,623.59,175.3)"
           style="font-variant:normal;font-weight:normal;font-size:18.1439991px;font-family:Calibri;-inkscape-font-specification:Calibri;writing-mode:lr-tb;fill:#595959;fill-opacity:1;fill-rule:nonzero;stroke:none"
           id="text4432"><tspan
             x="0 9.1919975"
             y="0"
             sodipodi:role="line"
             id="tspan4434">34</tspan></text>
</g></g><g
       id="g4436"
       transform="translate(-50.64355,-114.85755)"><g
         id="g4438"
         clip-path="url(#clipPath4440)"><text
           transform="matrix(1,0,0,-1,702.41,175.3)"
           style="font-variant:normal;font-weight:normal;font-size:18.1439991px;font-family:Calibri;-inkscape-font-specification:Calibri;writing-mode:lr-tb;fill:#595959;fill-opacity:1;fill-rule:nonzero;stroke:none"
           id="text4444"><tspan
             x="0 9.1680079"
             y="0"
             sodipodi:role="line"
             id="tspan4446">35</tspan></text>
</g></g><g
       id="g4448"
       transform="translate(-50.64355,-114.85755)"><g
         id="g4450"
         clip-path="url(#clipPath4452)"><text
           transform="matrix(-4.4e-8,1,1,4.4e-8,84.384,298.22)"
           style="font-variant:normal;font-weight:normal;font-size:21.84000015px;font-family:Calibri;-inkscape-font-specification:Calibri;writing-mode:lr-tb;fill:#595959;fill-opacity:1;fill-rule:nonzero;stroke:none"
           id="text4456"><tspan
             x="0 13.5408 24.41712 34.725601 42.151199 53.726398"
             y="0"
             sodipodi:role="line"
             id="tspan4458">Deaths</tspan></text>
</g></g><g
       id="g4460"
       transform="translate(-50.64355,-114.85755)"><g
         id="g4462"
         clip-path="url(#clipPath4464)"><text
           transform="matrix(1,0,0,-1,350.14,125.86)"
           style="font-variant:normal;font-weight:normal;font-size:21.84000015px;font-family:Calibri;-inkscape-font-specification:Calibri;writing-mode:lr-tb;fill:#595959;fill-opacity:1;fill-rule:nonzero;stroke:none"
           id="text4468"><tspan
             x="0 11.64072 23.172239 34.048561 44.990398 53.529839 64.406158 69.254639 80.895363 92.405037 104.00208 112.54152 124.09488 141.54504 153.14207 160.56767 165.59088 177.18793"
             y="0"
             sodipodi:role="line"
             id="tspan4470">Cheese Consumption</tspan></text>
</g></g></g></svg>